<svg xmlns="http://www.w3.org/2000/svg" viewBox="0 0 126.8 62.4"><defs><style>.a{fill:#d9eafc;}.b{fill:#e1edf9;}</style></defs><title>cloude1</title><path class="a" d="M110.9,40.7c-8.3,6-21.7,3.2-21.7,3.2-31.8,23-53.1-6.4-53.1-6.4a7.9,7.9,0,0,1-6.8.1C21.9,42.9,6,40.5,2.1,32.8a9.6,9.6,0,0,0-2,4.9C-1.4,49,19.2,53.6,28,47.3a7.9,7.9,0,0,0,6.8-.1s21.3,29.4,53.1,6.4c0,0,13.5,2.8,21.7-3.2,0,0,15.5,4.7,17.1-7.4a8.9,8.9,0,0,0-.5-5C121.7,44,110.9,40.7,110.9,40.7Z"/><path class="b" d="M29.3,37.6a7.9,7.9,0,0,0,6.8-.1s21.3,29.4,53.1,6.4c0,0,13.4,2.8,21.7-3.2,0,0,10.8,3.3,15.3-2.7-2.8-6.9-14.1-6.4-14.1-6.4a23.2,23.2,0,0,0-19.3-8.1S90.6,9.2,73.4,12.2c0,0-5.5-9.8-15.8-11.7C45.5-1.7,34,2.9,30.4,17.4c0,0-12.1,0-13.1,11.5,0,0-10.5-1.7-15.2,3.9C6,40.5,21.9,42.9,29.3,37.6Z"/></svg>