<svg xmlns="http://www.w3.org/2000/svg" viewBox="0 0 459.1 75.1"><defs><style>.a{fill:#d9eafc;}.b{fill:#e1edf9;}</style></defs><title>cloude2</title><path class="a" d="M457.5,43.1c-6.2,20.9-32.1,12.4-32.1,12.4-29.1,18.1-54.9-.8-54.9-.8-9.8,2.4-22.8-1-27.2-8.6a12.4,12.4,0,0,0-1.7,6.1c0,11.4,16.9,17.3,28.9,14.3,0,0,25.8,18.9,54.9.8,0,0,25.9,8.5,32.1-12.4,0,0,3.1-6.6.7-13.5A17.8,17.8,0,0,1,457.5,43.1Z"/><path class="b" d="M370.5,54.7s25.8,18.9,54.9.8c0,0,25.9,8.5,32.1-12.4a17.8,17.8,0,0,0,.7-1.7,17.1,17.1,0,0,0-5.2-7.3c-10.3-8.6-27.6-3.5-27.6-3.5s-.6-18.4-20-19.1c-12.5-.5-19.8,12.3-19.3,14.7,0,0-23.4-6.4-29.6,10.9,0,0-9.4,2.3-13.2,9C347.7,53.7,360.7,57.1,370.5,54.7Z"/><path class="a" d="M140.5,48.7c-26.1,18.4-45.6.3-45.6.3-18.9,16.3-36,3.3-36,3.3-20.5,12.3-36.5-2.4-36.5-2.4S5.5,50,1.1,39.7A12.2,12.2,0,0,0,0,45C0,60.8,22.4,60.6,22.4,60.6s16,14.8,36.5,2.4c0,0,17.1,13,36-3.2,0,0,19.5,18,45.6-.4,0,0,34.6,2.9,34.6-13.7a12.2,12.2,0,0,0-1.3-5.6C167.4,51,140.5,48.7,140.5,48.7Z"/><path class="b" d="M22.4,49.9s16,14.7,36.5,2.4c0,0,17.1,13,36-3.3,0,0,19.5,18.1,45.6-.3,0,0,26.9,2.3,33.3-8.6-5.5-10.2-26.4-7.9-26.4-7.9S137.9,4.8,103,15.6C98.2,8.3,88.8-1.2,71.3.1,59.3,1,47.6,12.3,44.1,23.9H44s-14-3-21.7,8.1c0,0-16.8-2.1-21.2,7.7C5.5,50,22.4,49.9,22.4,49.9Z"/></svg>