<svg xmlns="http://www.w3.org/2000/svg" xmlns:xlink="http://www.w3.org/1999/xlink" viewBox="0 0 261.1 133.4"><defs><style>.a{isolation:isolate;}.b{fill:url(#a);}.c{fill:url(#b);}.d{fill:url(#c);}.e{fill:url(#d);}.f,.m{mix-blend-mode:screen;}.f{fill:url(#e);}.g{fill:#8c0132;}.h{fill:url(#f);}.i{fill:url(#g);}.j{fill:url(#h);}.k{fill:url(#i);}.l{fill:#004c5c;}.m{fill:url(#j);}</style><linearGradient id="a" x1="380.92" y1="30.46" x2="476.42" y2="30.46" gradientTransform="translate(259.5 -362) rotate(90)" gradientUnits="userSpaceOnUse"><stop offset="0" stop-color="#00aba4"/><stop offset="0.05" stop-color="#009291"/><stop offset="0.11" stop-color="#00737a"/><stop offset="0.18" stop-color="#005e69"/><stop offset="0.24" stop-color="#00505f"/><stop offset="0.3" stop-color="#004c5c"/><stop offset="0.33" stop-color="#005361"/><stop offset="0.59" stop-color="#008285"/><stop offset="0.8" stop-color="#00a09c"/><stop offset="0.91" stop-color="#00aba4"/></linearGradient><linearGradient id="b" x1="375.3" y1="81.67" x2="482.04" y2="81.67" xlink:href="#a"/><linearGradient id="c" x1="369.66" y1="145.52" x2="487.68" y2="145.52" xlink:href="#a"/><linearGradient id="d" x1="361.95" y1="217.99" x2="495.4" y2="217.99" xlink:href="#a"/><linearGradient id="e" x1="473.87" y1="13.78" x2="457.8" y2="258.83" gradientTransform="translate(259.5 -362) rotate(90)" gradientUnits="userSpaceOnUse"><stop offset="0" stop-color="#a69c8a"/><stop offset="0.2" stop-color="#8b8273"/><stop offset="0.61" stop-color="#454139"/><stop offset="1"/></linearGradient><linearGradient id="f" x1="379.73" y1="2.05" x2="477.61" y2="2.05" gradientTransform="translate(259.5 -362) rotate(90)" gradientUnits="userSpaceOnUse"><stop offset="0" stop-color="#b40c11"/><stop offset="0.06" stop-color="#bf1e1c"/><stop offset="0.2" stop-color="#d64333"/><stop offset="0.34" stop-color="#e86046"/><stop offset="0.48" stop-color="#f57453"/><stop offset="0.62" stop-color="#fc815a"/><stop offset="0.75" stop-color="#ff855d"/><stop offset="1" stop-color="#f5bc6d"/></linearGradient><linearGradient id="g" x1="364.46" y1="174.71" x2="492.88" y2="174.71" xlink:href="#f"/><linearGradient id="h" x1="369.73" y1="111.55" x2="487.62" y2="111.55" xlink:href="#f"/><linearGradient id="i" x1="374.99" y1="48.39" x2="482.36" y2="48.39" xlink:href="#f"/><linearGradient id="j" x1="495.12" y1="-27" x2="386.02" y2="20.6" xlink:href="#e"/></defs><title>tube-cloude</title><g class="a"><path class="b" d="M245.2,111.6l-32.3,2.9V58.8l19.8.7Zm0-89.8L212.9,19V30.5l21.5,1.4,10.8-10Z"/><path class="c" d="M205.9,115.1l-56.2,5V54.9l47.8,2.7Zm-.8-96.8-55.4-5V25.1l49,5.4Z"/><path class="d" d="M141.4,120.8l-54.8,4.9V51.3l46.7,2.4Zm-.9-108.3L86.6,7.7V18.8l50.5,4.1Z"/><path class="e" d="M83,126,0,133.4V46.6l67.4,3.2,10.5,76.7ZM76.4,6.8,0,0V12.4l68.3,7Z"/><polygon class="f" points="233 78.3 240.4 106.8 4.2 128.9 4.2 74.9 233 78.3"/><polygon class="g" points="253.7 114.1 249.2 111.2 249.2 22.2 253.7 19.4 253.7 114.1"/><polygon class="h" points="261.1 115.7 253.7 115.7 253.7 114.1 253.7 19.4 253.7 17.8 261.1 17.8 261.1 115.7"/><polygon class="g" points="86.6 46.6 83 46.6 83 15.8 86.6 15.8 86.6 18.8 86.6 46.6"/><polygon class="g" points="149.7 51.3 146.1 51.3 146.1 21.7 149.7 21.9 149.7 25.1 149.7 51.3"/><polygon class="g" points="212.9 55.8 209.3 55.8 209.3 26.9 212.9 26.9 212.9 30.5 212.9 55.8"/><path class="i" d="M86.6,15.8H83V2.5h3.6V15.8Zm0,109.9V46.6H83v84.3h3.6Z"/><path class="j" d="M149.7,125.7h-3.6V51.3h3.6v74.4Zm0-112.4V7.8h-3.6V21.7l3.6.2Z"/><path class="k" d="M212.9,26.9h-3.6V13h3.6V26.9Zm0,87.6V55.8h-3.6v64.6h3.6Z"/><polygon class="l" points="83 126 77.9 126.5 67.4 49.8 0 46.6 0 12.4 68.3 19.4 76.4 6.8 83 7.4 83 15.8 83 46.6 83 126"/><polygon class="l" points="146.1 120.4 141.4 120.8 133.3 53.7 86.6 51.3 86.6 46.6 86.6 18.8 137.1 22.9 140.5 12.5 146.1 13 146.1 21.7 146.1 51.3 146.1 120.4"/><polygon class="l" points="209.3 114.8 205.9 115.1 197.5 57.6 149.7 54.9 149.7 51.3 149.7 25.1 198.7 30.5 205.1 18.3 209.3 18.7 209.3 26.9 209.3 55.8 209.3 114.8"/><polygon class="l" points="249.2 111.2 245.2 111.6 232.7 59.5 212.9 58.8 212.9 55.8 212.9 30.5 234.4 31.9 245.2 21.9 245.2 21.8 249.2 22.2 249.2 111.2"/><polygon class="m" points="260.5 19 260.5 115.1 254.4 114.5 254.4 79.9 258.4 77.4 258.8 19 260.5 19"/></g></svg>