<?xml version="1.0" encoding="utf-8"?>
<!-- Generator: Adobe Illustrator 22.0.1, SVG Export Plug-In . SVG Version: 6.00 Build 0)  -->
<svg version="1.1" id="Слой_1" xmlns="http://www.w3.org/2000/svg" xmlns:xlink="http://www.w3.org/1999/xlink" x="0px" y="0px"
	 viewBox="0 0 695.4 380.6" style="enable-background:new 0 0 695.4 380.6;" xml:space="preserve">
<style type="text/css">
	.st0{clip-path:url(#SVGID_2_);}
	.st1{fill:url(#SVGID_3_);}
	.st2{fill:#A1B6B9;}
	.st3{fill:#5A7181;}
	.st4{fill:#415F71;}
	.st5{fill:#678093;}
	.st6{fill:#7692A7;}
	.st7{fill:#A7BAC9;}
	.st8{fill:#4885AE;}
	.st9{fill:#59A0C8;}
	.st10{fill:#FF9100;}
	.st11{fill:#FFCB06;}
	.st12{fill:#FFB700;}
	.st13{fill:#667B89;}
	.st14{fill:#566875;}
	.st15{fill:#F5A800;}
	.st16{fill:#23475F;}
	.st17{fill:#193749;}
	.st18{fill:#DCE5EA;}
	.st19{fill:#F2F3F4;}
	.st20{fill:#FFDC45;}
	.st21{fill:#2C5E7E;}
	.st22{fill:#214F69;}
	.st23{fill:#467A98;}
	.st24{fill:#324958;}
	.st25{fill:#1F3747;}
	.st26{fill:#0D2636;}
	.st27{fill:#35647E;}
	.st28{fill:#003B71;}
	.st29{fill:#E99A00;}
	.st30{fill:#556A79;}
	.st31{fill:#455A69;}
	.st32{fill:#96ABB9;}
	.st33{fill:#DAE5ED;}
	.st34{fill:#4A758D;}
</style>
<title>Ресурс 2</title>
<g>
	<g>
		<defs>
			<path id="SVGID_1_" d="M96.5,378c-66.3-7.6-123.9-119.8-82.6-164.2s179.3-94.5,225.9-163S349.7,2.7,384.7,6
				s117.2,50.5,154.8,37.6s95.7,7,120,28.8s59.2,52.9,15.8,126s-155,86.8-167.5,130C495.3,371.6,171.8,386.6,96.5,378z"/>
		</defs>
		<clipPath id="SVGID_2_">
			<use xlink:href="#SVGID_1_"  style="overflow:visible;"/>
		</clipPath>
		<g class="st0">
			
				<linearGradient id="SVGID_3_" gradientUnits="userSpaceOnUse" x1="-133.4023" y1="-17.3898" x2="731.0377" y2="481.6902" gradientTransform="matrix(1 0 0 -1 0 347.8106)">
				<stop  offset="2.000000e-02" style="stop-color:#FFFFFF"/>
				<stop  offset="0.21" style="stop-color:#D1E4EB;stop-opacity:0.89"/>
				<stop  offset="0.4" style="stop-color:#A8CCD9;stop-opacity:0.78"/>
				<stop  offset="0.58" style="stop-color:#88BACB;stop-opacity:0.7"/>
				<stop  offset="0.75" style="stop-color:#71ACC0;stop-opacity:0.65"/>
				<stop  offset="0.89" style="stop-color:#63A4BA;stop-opacity:0.61"/>
				<stop  offset="1" style="stop-color:#5EA1B8;stop-opacity:0.6"/>
			</linearGradient>
			<path class="st1" d="M-324.7-68.4v483.9H721.8V-68.4H-324.7z"/>
			<path class="st2" d="M29.7,93.4h0.4c1.7-6.8,8.5-11,15.3-9.4c1.5,0.4,2.9,1,4.2,1.9c2.2-2.3,5.3-3.6,8.5-3.6
				c6.5,0,11.8,5.3,11.8,11.8H71c5.1,0,9.2,4.1,9.2,9.2c0,0,0,0,0,0l0,0c0,1.6-1.3,2.9-2.9,2.9H25.1c-1.2,0-2.2-0.7-2.7-1.7
				c-0.4-1-0.7-2.1-0.7-3.2C21.8,96.9,25.3,93.4,29.7,93.4z"/>
			<path class="st2" d="M452.1,56.1h0.4c1.8-7.5,9.4-12.1,16.9-10.3c1.7,0.4,3.3,1.1,4.7,2.1c2.4-2.6,5.8-4,9.3-4
				c7.2,0,13,5.8,13,13h1.2c5.6,0,10.2,4.6,10.2,10.2c0,0,0,0,0,0l0,0c-0.1,1.8-1.5,3.2-3.3,3.1c0,0,0,0,0,0H447
				c-1.3,0-2.4-0.7-2.9-1.9c-0.5-1.1-0.8-2.3-0.8-3.5C443.4,60,447.3,56.1,452.1,56.1z"/>
			<path class="st2" d="M197.8,89.4h0.4c1.6-6.4,7.3-11,13.9-11c2.9,0,5.7,0.9,8.1,2.6c5.1-5.3,13.5-5.5,18.8-0.4
				c2.6,2.5,4.1,6,4.1,9.6h1.2c5.7-0.1,10.4,4.6,10.5,10.3c0,0,0,0.1,0,0.1l0,0c-0.1,1.8-1.6,3.3-3.4,3.2c0,0,0,0,0,0h-58.8
				c-1.3,0-2.5-0.7-3-1.9c-0.5-1.1-0.8-2.4-0.8-3.6C188.9,93.4,192.9,89.4,197.8,89.4z"/>
			<path class="st2" d="M355.6,81.7h0.9c-0.2-5.2,3.9-9.6,9.2-9.8c0,0,0.1,0,0.1,0c2.5,0,4.9,1.1,6.6,3c1.7-1.2,3.6-1.9,5.7-1.9
				c4.7,0.1,8.8,3.5,9.7,8.1h0.3c3.6,0.1,6.4,3.1,6.3,6.7c0,0,0,0,0,0c0,0.9-0.2,1.9-0.6,2.7c-0.3,0.9-1.2,1.5-2.1,1.5h-41
				c-1.3,0-2.4-1.1-2.4-2.4v0l0,0C348.1,85.4,351.4,81.9,355.6,81.7C355.6,81.7,355.6,81.7,355.6,81.7z"/>
			<path class="st3" d="M411.2,142.6c1-7,1.5-14.1,1.6-21.2c11.7,14.4,14.2-27.8,21.7-47.6c1.5,1.2,2.5,2.8,3,4.6L442,93l7.5,24.6
				c1.9,6.4,7,7.1,9.5,1.3v-0.3c2-4.4,5.4-5.1,7.8-2.2c0.7,0.9,1.3,1.8,1.6,2.9l1,2.8c1.8,4.9,5.6,6.2,8.3,2.6l1-1.4l1.8-2.4l0,0
				l2.5-3.3c2.5-3.4,6-2.6,7.9,1.8l5.2,11.6l15.7,35.4c-0.9-1.6-71.6-1-116.6-0.5C400,149.3,405,137.5,411.2,142.6z"/>
			<path class="st4" d="M359,166.4l10.6-29.7c1.4-4,4.2-5.7,6.7-4.1l1.3,0.8c2.4,1.5,5,0.2,6.5-3.3l6.9-15.8
				c1.1-2.7,2.8-3.9,4.5-3.9s3.3,1.2,4.5,3.8c2.2,5,6.3,5.3,8.7,0.6l19.6-38.3c1.6-3.3,4.1-4.1,6.2-2.7c-7.5,19.8-10,62-21.7,47.6
				c-0.1,7.1-0.6,14.2-1.6,21.2c-6.2-5.1-11.2,6.7-15.9,23.3h-14.9L359,166.4z"/>
			<path class="st5" d="M555,234.7h11.6v-54.2h-7.7C557.8,195.2,559.9,212.1,555,234.7z"/>
			<path class="st6" d="M575.5,180.5h-8.9v54.2h12.8C574.6,212.1,576.6,193.8,575.5,180.5z"/>
			<path class="st7" d="M587.9,166.7c-0.1,0.2-0.2,0.4-0.4,0.5l0.3-0.5H587.9c0.5-0.5,0.8-1.1,0.8-1.8c-0.1-0.9-0.7-1.7-1.5-2
				c-1-0.3-2.1-0.1-3,0.5c-0.8,0.6-1.5,1.3-2.1,2.2c0.2-0.9-0.4-1.8-1.4-2c0,0-0.1,0-0.1,0c-1-0.1-2,0.2-2.7,0.9
				c-1.9,1.5-3.2,3.6-3.8,5.9c-4.6-0.8-5.7,4.2-6.7,7.7c-0.2,0.5-0.3,1.1-0.5,1.7c2-2.6,4.8-4.5,8-5.2c2.3-0.6,4.8-0.7,7.1-1.5
				c0.8-0.4,1.6-0.6,2.5-0.7c1,0,1.8,0.4,2.9,0.1c1.3-0.4,2.4-1.5,2.6-2.9C590.1,168.2,589.2,167,587.9,166.7z"/>
			<path class="st8" d="M586.1,230.7h19.5v-70.5h-13C595.8,178.4,594.3,201.2,586.1,230.7z"/>
			<path class="st9" d="M620.6,160.2h-15v70.5h21.6C619,201.2,617.5,178.4,620.6,160.2z"/>
			<path class="st10" d="M613.6,152.6c-4.1,10-13-0.4-13.6-8.4c0.1-4.3-1.1-7.7,6.8-26.1c-0.4,5.7-0.1,11.4,0.8,17
				c1.3-2.6,2-5.4,3.7-5.6C608.4,134.4,617.8,144.4,613.6,152.6z"/>
			<path class="st11" d="M614.6,147.1c0.7,7.8-7.4,16.4-13.8,0.9c0.5-1.7,2.1-1.5,2.3-0.3c-0.1-3.7,0.1-7.5,0.6-11.2
				c0.9,3.2,1.9,6.3,3.2,9.4c0.5-1.9,1.1-3.8,1.8-5.6c0.1,2.1,0.4,4.2,0.8,6.2c0.6-1.6,1.2-3.1,1.9-4.6
				C612.5,143.7,613.7,145.3,614.6,147.1z"/>
			<path class="st3" d="M139.5,174c1-4.6,1.5-9.2,1.6-13.9c11.4,9.5,13.7-18.2,21.1-31.3c1.3,0.6,2.3,1.7,2.9,3l4.3,9.6l7.3,16.2
				c1.9,4.2,6.9,4.6,9.3,0.9v-0.3c1.4-2.4,4.4-3.2,6.8-1.9c0.2,0.1,0.5,0.3,0.7,0.5c0.7,0.5,1.2,1.2,1.6,1.9l0.9,1.8
				c1.8,3.3,5.5,4.1,8.1,1.8l1-1l1.7-1.5l0,0l2.5-2.2c2.4-2.2,5.8-1.7,7.7,1.2l5,7.6l15.3,23.3c-0.8-1.1-69.6-0.7-113.2-0.4
				C128.6,178.4,133.5,170.7,139.5,174z"/>
			<path class="st4" d="M88.8,189.7l10.3-19.6c1.1-2.5,4-3.6,6.5-2.6l1.3,0.5c2.4,1,5.1,0,6.3-2.2l6.7-10.4c1.4-2.4,4.4-3.2,6.8-1.9
				c0.8,0.4,1.4,1.1,1.9,1.9c1.4,2.4,4.6,3.2,7,1.8c0.6-0.4,1.1-0.8,1.5-1.4l19-25.2c1.3-2,3.9-2.8,6.1-1.8
				c-7.4,13.1-9.7,40.8-21.1,31.3c-0.1,4.7-0.6,9.3-1.6,13.9c-6-3.3-10.9,4.4-15.4,15.3l-14.5,0.2L88.8,189.7z"/>
			<polygon class="st6" points="455.6,128.5 483.2,128.5 486.9,175.5 455.6,175.5 			"/>
			<polygon class="st6" points="492.9,252.5 495.2,280.8 455.6,280.8 455.6,252.5 			"/>
			<polygon class="st6" points="455.6,194.1 488.3,194.1 491.6,235.9 455.6,235.9 			"/>
			<polygon class="st5" points="418.2,252.5 455.6,252.5 455.6,280.8 416,280.8 			"/>
			<polygon class="st5" points="455.6,235.9 419.5,235.9 422.8,194.1 455.6,194.1 			"/>
			<polygon class="st5" points="455.6,175.5 424.2,175.5 427.9,128.5 455.6,128.5 			"/>
			<polygon class="st11" points="455.6,116.3 482.2,116.3 483.2,128.5 455.6,128.5 			"/>
			<polygon class="st12" points="427.9,128.5 428.9,116.3 455.6,116.3 455.6,128.5 			"/>
			<polygon class="st11" points="455.6,175.5 486.9,175.5 488.3,194.1 455.6,194.1 			"/>
			<polygon class="st12" points="455.6,194.1 422.8,194.1 424.2,175.5 455.6,175.5 			"/>
			<polygon class="st11" points="455.6,235.9 491.6,235.9 492.9,252.5 455.6,252.5 			"/>
			<polygon class="st12" points="455.6,252.5 418.2,252.5 419.5,235.9 455.6,235.9 			"/>
			<polygon class="st13" points="514.6,204 539.7,204 542.2,236 514.6,236 			"/>
			<polygon class="st13" points="543.2,248.7 544.9,270.4 514.6,270.4 514.6,248.7 			"/>
			<polygon class="st13" points="514.6,153.8 535.8,153.8 538.6,189.8 514.6,189.8 			"/>
			<polygon class="st14" points="514.6,236 487,236 489.5,204 514.6,204 			"/>
			<polygon class="st14" points="486,248.7 514.6,248.7 514.6,270.4 484.3,270.4 			"/>
			<polygon class="st14" points="514.6,189.8 490.6,189.8 493.5,153.8 514.6,153.8 			"/>
			<polygon class="st11" points="514.6,143.7 535,143.7 535.8,153.8 514.6,153.8 			"/>
			<polygon class="st15" points="493.5,153.8 494.3,143.7 514.6,143.7 514.6,153.8 			"/>
			<polygon class="st11" points="514.6,189.8 538.6,189.8 539.7,204 514.6,204 			"/>
			<polygon class="st15" points="514.6,204 489.5,204 490.6,189.8 514.6,189.8 			"/>
			<polygon class="st16" points="514.6,236 542.2,236 543.2,248.7 514.6,248.7 			"/>
			<polygon class="st17" points="514.6,248.7 486,248.7 487,236 514.6,236 			"/>
			<path class="st18" d="M496.5,71.1c-17.3-3.7-39.3,5.5-48,27.9c-1.3,3.5-1.2,7.8-1.3,11.6c0.1,0.7,0.7,1.2,1.4,1.2
				c0.3,0,0.7-0.2,0.9-0.5c6.8-10,19.8-15.6,32.2-15.7c17.7-0.1,32.1,10.5,49.3,12.2c8.2,0.9,16.6,0,24.4-2.9c5.3-2,9.6-6.2,12.6-11
				c0.3-0.6,0.2-1.3-0.4-1.7c-0.3-0.2-0.6-0.2-0.9-0.1c-6,1.5-19,1.5-35.4-4.5C518.9,83.1,509.6,73.8,496.5,71.1z"/>
			<path class="st19" d="M585.4,106.6c7.8,12.6-6.6,31.4-27.9,31.1c-9.6-0.2-19.5-4.8-29-2.1c-2.1,0.6-8.1,3.6-8.9,3.1
				c-2.5-3.2,5.3-8.9,7.4-10.1c14-8.2,29-2.1,41.9-7.6C571.2,120,587.6,110.2,585.4,106.6z"/>
			<polygon class="st12" points="466.3,283.6 466.3,213.2 595.1,213.2 466.8,283.6 			"/>
			<polygon class="st20" points="599.9,283.6 466.8,283.6 595.1,213.2 599.9,213.2 			"/>
			<polygon class="st21" points="592.1,226.1 592.1,239 547.1,239 570.1,226.1 			"/>
			<polygon class="st22" points="474.1,226.1 570.1,226.1 547.1,239 474.1,239 			"/>
			<polygon class="st21" points="592.9,250.7 592.9,263.6 503.3,263.6 526.3,250.7 			"/>
			<polygon class="st22" points="474.9,250.7 526.3,250.7 503.3,263.6 474.9,263.6 			"/>
			<path class="st10" d="M591.7,213.2h-77.4l0,0v-16.8c0-2.4,1.9-4.3,4.3-4.3h68.8c2.4,0,4.3,1.9,4.3,4.3L591.7,213.2L591.7,213.2z"
				/>
			<rect x="569.2" y="198" class="st21" width="15.5" height="10.5"/>
			<rect x="545.6" y="198" class="st21" width="15.5" height="10.5"/>
			<rect x="522" y="198" class="st21" width="15.5" height="10.5"/>
			<polygon class="st23" points="568.5,229 590.3,229 590.3,236.2 555.2,236.2 			"/>
			<polygon class="st23" points="526.6,253 591.1,253 591.1,260.2 513.2,260.2 			"/>
			<path class="st24" d="M455,282.2c1.2-2.6,2-5.4,2.1-8.3c15,5.6,18.2-10.9,27.9-18.7c1.4,0.2,2.8,0.8,3.8,1.8l5.8,5.7l9.6,9.7
				c2.5,2.5,9.1,2.7,12.3,0.5h0.2c2.4-1.8,6.8-2,9.9-0.9c0.7,0.3,1.4,0.7,2.1,1.1l1.3,1.1c2.2,2,7.2,2.5,10.6,1.1l1.4-0.6l2.2-0.9
				h0.1l3.2-1.3c3.3-1.3,7.1-1.1,10.2,0.7l6.6,4.4l20.2,13.9c-1.1-0.6-92.1-0.4-149.9-0.2C440.6,284.8,447.1,280.2,455,282.2z"/>
			<path class="st25" d="M387.8,291.5l13.6-11.6c1.9-1.6,5.5-2.3,8.7-1.6l1.7,0.3c2.8,0.6,5.8,0.1,8.3-1.3l8.9-6.2
				c1.7-1.1,3.7-1.7,5.8-1.6c2-0.1,4,0.5,5.8,1.5c2.8,2,8.2,2.1,11.2,0.3l25.2-15.1c2.5-1.3,5.3-1.7,8-1
				c-9.7,7.8-12.9,24.3-27.9,18.7c-0.1,2.9-0.9,5.7-2.1,8.3c-7.9-2-14.4,2.6-20.4,9.1h-46.8V291.5z"/>
			<path class="st26" d="M246.6,199.9l11.9,1.2v-1.5c0.1,4.3,0.3,8.3,0.3,9l14.2-1.8l2.7-3.6l19.2,2.5l9.9-5.8l-10.5-12.8l11.6-7
				l7-17.4l-1.5-13.2l13.8-12.8l-13.4-3.1c-12.3,10.9-23.4-2.8-32.6,23.3c-11.8,13.7-14.2,8-20.9,23.2
				C245.5,190.6,246.6,199.9,246.6,199.9z M281,195.8l1.8-2.4L281,195.8z M259.4,187.7c-0.1,0-0.2,0.1-0.2,0.2v0
				C259.2,187.8,259.3,187.7,259.4,187.7L259.4,187.7z M258.8,189.4c0-0.3,0-0.5,0.1-0.8C258.8,188.9,258.8,189.1,258.8,189.4
				L258.8,189.4z M258.9,188.5l0.2-0.6L258.9,188.5z M258.5,195.8L258.5,195.8z M258.5,197.6L258.5,197.6z M258.6,190.6
				c0.1-0.4,0.1-0.7,0.1-1.1C258.7,189.9,258.7,190.2,258.6,190.6L258.6,190.6z M258.5,192.2c0-0.5,0.1-0.9,0.1-1.4
				S258.5,191.7,258.5,192.2L258.5,192.2z M258.5,193.7L258.5,193.7z M258.5,195.5L258.5,195.5z"/>
			<path class="st24" d="M294.3,187.1l11.6-7l7-17.4l-6.9-13.1l5.5-15.8l15.4,3.3l2.9,8.1l7.8,2.1l8.5,6.7l6.1,10.1l10.7,0.6
				l4.7,11.9l8.4,1.5l9,12.5c-5,6.6-8.3,13.9-12.8,12.8s-12.8,5.7-12.8,5.7s-16.3,10.6-19.7,8.2s-39.3-10.8-44.8-11.6l9.9-5.8
				L294.3,187.1z"/>
			<polygon class="st12" points="376.4,237.2 361.1,267.1 345.8,268.4 352.2,241.7 373.8,238.5 			"/>
			<path class="st20" d="M218.1,196.8H185c-0.8,8,0.7,6.2,23.6,6.2v22.4h-23.3c-1,9.4-0.9,8-0.9,9.2h55.3L218.1,196.8z"/>
			<polygon class="st11" points="184.4,234.6 184.4,242.8 244.5,242.8 239.7,234.6 			"/>
			<polygon class="st27" points="187.7,203 185.3,225.4 207.1,225.4 188,203 			"/>
			<polygon class="st28" points="222.4,219.1 214.7,203 188,203 207.1,225.4 215.8,225.4 			"/>
			<path class="st12" d="M373.8,263.6H259.9l-9.5-21.1l-70.3-0.5c-12.1-0.3-16.2,13-16.2,18.5v18.9h217.2v-8.5
				C381.1,266.9,377.8,263.6,373.8,263.6z"/>
			<path class="st29" d="M381.1,278.2l-224.2,0.4c-4.1,0-7.4,3.3-7.5,7.4c0,0.3,0.1,0.6,0.1,0.9h231.6V278.2z"/>
			<path class="st30" d="M149.5,286.9c0.4,3.8,3.6,6.6,7.4,6.5h224.2v-6.5H149.5z"/>
			<path class="st31" d="M251.7,292.6l1.1,0.8h16.8c-7.2-19.3-3.7-10-16-42.8c-13.2-1.7-2.7-1.5-59.8,0l-8.9,19.1v23.7
				C253.6,293.4,243.7,293.7,251.7,292.6z"/>
			<rect x="276.2" y="278.8" class="st12" width="44.1" height="5.9"/>
			<path class="st26" d="M215.3,258.1c20.5-3.3,39.8,10.7,43.1,31.2c3.3,20.5-10.7,39.8-31.2,43.1c-20.5,3.3-39.8-10.7-43.1-31.2
				c0,0,0,0,0-0.1c-3.3-20.4,10.6-39.7,31.1-43C215.2,258.1,215.3,258.1,215.3,258.1z"/>
			<path class="st32" d="M218.4,277.6c9.7-1.5,18.8,5.1,20.4,14.8s-5.1,18.8-14.8,20.4c-9.7,1.5-18.8-5.1-20.4-14.8
				C202,288.3,208.7,279.2,218.4,277.6C218.4,277.6,218.4,277.6,218.4,277.6z"/>
			<path class="st24" d="M221.7,282.3c-2.2-2.5,1.8-5,3.4-2.6S223.5,284.4,221.7,282.3z"/>
			<path class="st24" d="M228,285c-2.1-1.5-0.1-5.3,2.4-3.6S230.1,286.4,228,285z"/>
			<path class="st24" d="M231.8,288.9c-1.3-2.1,2.1-4.8,3.7-2.1S233.2,291.2,231.8,288.9z"/>
			<path class="st24" d="M233.4,294.2c-0.1-2.7,4.1-3.5,4.3-0.4S233.6,296.7,233.4,294.2z"/>
			<path class="st24" d="M232.7,299.6c0.4-1.1,1.5-1.6,2.6-1.3c1.1,0.2,1.8,1.3,1.5,2.4c0,0.1-0.1,0.3-0.1,0.4
				C235.6,304,231.8,302,232.7,299.6z"/>
			<path class="st24" d="M232.6,304.1c1.6,1.2,0.4,3.9-1.7,3.8S229.2,301.6,232.6,304.1z"/>
			<path class="st24" d="M224.9,306.9c1.1-0.3,2.2,0.2,2.7,1.2c0.9,1.9-1.5,3.7-3.2,2.7c-1-0.7-1.3-2-0.6-3.1
				C224.1,307.4,224.5,307.1,224.9,306.9z"/>
			<path class="st24" d="M220.8,308.1c2.1,2.5-1.8,4.9-3.5,2.5S219,306,220.8,308.1z"/>
			<path class="st24" d="M214.4,305.4c0.8,0.7,1.1,1.8,0.7,2.8c-0.5,1-1.8,1.4-2.8,0.9c-0.1,0-0.2-0.1-0.3-0.2
				C209.4,307.1,212.3,304,214.4,305.4z"/>
			<path class="st24" d="M207.8,300.6c1.1-0.6,2.4-0.2,3,0.9c0.6,1.1,0.2,2.4-0.9,3c-1.1,0.6-2.4,0.2-3-0.9
				c-0.6-0.9-0.4-2.2,0.5-2.8C207.5,300.7,207.7,300.7,207.8,300.6z"/>
			<path class="st24" d="M209,296.2c0,1.1-0.7,2-1.8,2.3c-1.1,0.2-2.2-0.5-2.5-1.7c0-0.1,0-0.2,0-0.3
				C204.5,293.4,208.8,293.7,209,296.2z"/>
			<path class="st24" d="M209.7,290.8c-0.4,1-1.5,1.5-2.6,1.3c-1.1-0.3-1.7-1.4-1.4-2.4c0-0.1,0.1-0.2,0.1-0.4
				C206.8,286.4,210.6,288.3,209.7,290.8z"/>
			<path class="st24" d="M209.9,286.3c-1.7-1.2-0.4-3.9,1.7-3.8S213.2,288.7,209.9,286.3z"/>
			<path class="st24" d="M217.5,283.5c-2.6,0.7-4.2-3.3-1.3-4.1S220.1,282.6,217.5,283.5z"/>
			<path class="st24" d="M230.4,293.7c2,12.2-16.5,15.1-18.4,2.9S228.5,281.5,230.4,293.7z"/>
			<path class="st30" d="M188.3,300.4c-1.8-11.3,3.7-29.5,11.7-24.5c2.4,1.5,3.1,4.6,1.6,7c-3,4.7-4.1,10.4-3.2,15.9
				c2,12.6,13.8,21.2,26.4,19.3c3.7-0.6,7.3-2.1,10.3-4.4c5.4-4.1,11.5,4,6.1,8.1C221.4,336.8,192.3,325.3,188.3,300.4z"/>
			<path class="st26" d="M352.3,258.1c20.5-3.3,39.8,10.7,43.1,31.2c3.3,20.5-10.7,39.8-31.2,43.1c-20.5,3.3-39.8-10.7-43.1-31.2
				c0,0,0,0,0-0.1c-3.3-20.4,10.5-39.6,30.9-42.9C352.1,258.1,352.2,258.1,352.3,258.1z"/>
			<path class="st32" d="M355.4,277.6c9.7-1.5,18.8,5.1,20.4,14.8s-5.1,18.8-14.8,20.4c-9.7,1.5-18.8-5.1-20.4-14.8
				C339,288.3,345.7,279.2,355.4,277.6C355.4,277.6,355.4,277.6,355.4,277.6z"/>
			<path class="st24" d="M367.4,293.7c0.3,5.2-3.6,9.7-8.8,10c-4.5,0.3-8.6-2.7-9.7-7.1C347,284.5,365.4,281.5,367.4,293.7z"/>
			<path class="st24" d="M358.1,310.4c-8.4-0.7-14.7-8.1-14-16.5c0.6-7.5,6.6-13.4,14.1-14C378.3,279.9,378.2,310.4,358.1,310.4z
				 M356.2,282.7c-6.9,1.1-11.7,7.6-10.6,14.5s7.6,11.7,14.5,10.6s11.7-7.6,10.6-14.5c0,0,0-0.1,0-0.1c-1.1-6.9-7.5-11.6-14.4-10.5
				C356.3,282.7,356.2,282.7,356.2,282.7L356.2,282.7z"/>
			<path class="st30" d="M338.6,322.1c-14.2-10.2-18-29.8-8.7-44.6c3.6-5.7,12.2-0.3,8.6,5.4c-2.9,4.7-4.1,10.4-3.2,15.9
				c2,12.7,13.9,21.3,26.6,19.2c3.7-0.6,7.2-2.1,10.2-4.3c5.3-4.1,11.5,4,6.1,8.1C366.5,330.6,350.4,330.7,338.6,322.1z"/>
			<path class="st29" d="M386.6,198.8H261.2l-22.4-22.4h-67l0.9,7.3l50.5,9.6c10.5,16,31.9,48.5,43.1,63.7
				c6.4,8.5,13.1,6.6,42.6,6.6c0,0,87.8-27.2,104.9-33.6l2.4-10.2L386.6,198.8z"/>
			<path class="st12" d="M416.5,219.1l-5.4,7.8c-19,7.2-93.2,24-123,30.7c-7.5,1.7-15.3-1.4-19.6-7.8c-13.4-19.8-29.6-43.8-42.2-63
				l-54.5-4v-12.9h70.1l22.4,22.4h125.3L416.5,219.1z"/>
			<path class="st29" d="M308.1,252.9l-12,2.6c-1.5-2.4-33.4-56-34-57l11.5-2.5L308.1,252.9z"/>
			<path class="st29" d="M347.4,243.9l-11.9,2.8c-0.6-1-28.7-48-29.2-49l11.4-2.5L347.4,243.9z"/>
			<path class="st29" d="M386.2,234.4l-11.7,3c-25.6-43-23.5-39.6-24.1-40.5l11.4-2.5L386.2,234.4z"/>
			<path class="st20" d="M389.6,192.3H264.3l-22.4-22.4h-70.1v5.5l65.8,0.6l15.5,23.7l132.5,3.3l25.5,23.9l5.4-7.8L389.6,192.3z"/>
			<path class="st20" d="M305.3,253.5l-12,2.7l-33.6-56.5l11.4-2.4L305.3,253.5z"/>
			<path class="st20" d="M344.6,244.6l-11.9,2.7l-28.9-48.4l11.5-2.4L344.6,244.6z"/>
			<path class="st20" d="M383.4,235.1l-11.6,3l-23.8-40l11.4-2.5L383.4,235.1z"/>
			<g>
				<polygon class="st33" points="253.1,199.7 385.6,203 390.5,207.5 259.7,204.6 				"/>
			</g>
			<path class="st34" d="M249.1,243.9c-11.4-14.9-2.9-11.5-72.4-11.5c0,10.9,0.4,12-1.2,12c-0.7,0.1-1.2-0.4-1.3-1.1
				c0,0,0-0.1,0-0.1c0-12.4-0.5-13.4,1.3-13.4c72.7,0,63.7-3,75.6,12.6c0.4,0.6,0.3,1.3-0.2,1.8
				C250.3,244.6,249.5,244.5,249.1,243.9z"/>
			<path class="st34" d="M209,243.2c0-11.7-0.4-12.8,1.3-12.8s1.3,1.1,1.3,12.8c0,0.7-0.6,1.3-1.3,1.3
				C209.6,244.5,209,243.9,209,243.2z"/>
			<rect x="168.9" y="251.2" class="st29" width="12.4" height="4.1"/>
			<rect x="168.9" y="258.9" class="st29" width="12.4" height="4.1"/>
			<rect x="168.9" y="266.5" class="st29" width="12.4" height="4.1"/>
			<path class="st20" d="M276.4,291.6c-20.7-45.4-20.3-49.1-28.9-49.1l-49.9-0.2c-4.2,0-8,2.6-9.5,6.5L176.3,279
				c-0.9,2.4,0.3,5,2.7,5.9c0.4,0.2,0.9,0.3,1.4,0.3l0,0c4.3,0.2,3.9-1.6,16-31l51.1,0.2c19.1,43.8,17.9,43.7,22,43.7h2.7
				c2.5,0,4.6-2,4.6-4.6C276.8,292.8,276.7,292.2,276.4,291.6z"/>
			<path class="st29" d="M276.3,278.4h44.1c0-2.1,1-10.7-6.6-10.7C276.9,267.7,276.3,265.4,276.3,278.4z"/>
		</g>
	</g>
</g>
</svg>
