<?xml version="1.0" encoding="utf-8"?>
<!-- Generator: Adobe Illustrator 22.0.1, SVG Export Plug-In . SVG Version: 6.00 Build 0)  -->
<svg version="1.1" id="Слой_1" xmlns="http://www.w3.org/2000/svg" xmlns:xlink="http://www.w3.org/1999/xlink" x="0px" y="0px"
	 viewBox="0 0 891 708" style="enable-background:new 0 0 891 708;" xml:space="preserve">
<style type="text/css">
	.st0{clip-path:url(#SVGID_2_);}
	.st1{fill:url(#SVGID_3_);}
	.st2{fill:#72B0C1;}
	.st3{fill:#629BA5;}
	.st4{fill:#FAFFFF;}
	.st5{fill:#6DA8B5;}
	.st6{opacity:0.7;}
	.st7{fill:#D9E4ED;}
	.st8{fill:#EEA886;}
	.st9{fill:#514E58;}
	.st10{fill:#EDE1DB;}
	.st11{fill:#353A3D;}
	.st12{fill:#81807E;}
	.st13{fill:#001A31;}
	.st14{fill:#FAB46C;}
	.st15{fill:#495055;}
	.st16{fill:#A77860;}
	.st17{fill:#223247;}
	.st18{fill:#00233D;}
	.st19{fill:#00344E;}
	.st20{fill:#323657;}
	.st21{fill:#69737A;}
	.st22{fill:#2D3133;}
	.st23{fill:#3480B5;}
	.st24{fill:#C98462;}
	.st25{fill:#E6A563;}
	.st26{fill:#DE9D7D;}
	.st27{fill:#D9C8C0;}
	.st28{fill:#DECBC4;}
	.st29{fill:#F5E2D9;}
	.st30{fill:#F39506;}
</style>
<title>МЕНЕДЖЕР_ПОДВАЛ</title>
<g>
	<defs>
		<path id="SVGID_1_" d="M200.9,652.3C169.1,628.8,31,527.7,43,436.4s-67.5-173.7-0.7-249.6S151.4,49,278.2,61S479,103,515,133
			s122,153.6,176,124.8s63.3-50.4,116.7-18.6S895,328,883,382.5s-74,186.2-64,215.4S843,703,583,703S214,662.1,200.9,652.3z"/>
	</defs>
	<clipPath id="SVGID_2_">
		<use xlink:href="#SVGID_1_"  style="overflow:visible;"/>
	</clipPath>
	<g class="st0">
		
			<linearGradient id="SVGID_3_" gradientUnits="userSpaceOnUse" x1="-29" y1="282.6142" x2="1093" y2="282.6142" gradientTransform="matrix(1 0 0 -1 0 564.6141)">
			<stop  offset="0" style="stop-color:#FFFFFF"/>
			<stop  offset="1" style="stop-color:#5EA1B8;stop-opacity:0.6"/>
		</linearGradient>
		<polygon class="st1" points="-1,-171 -29,721 1041,735 1093,21 		"/>
		<rect x="615.5" y="440.1" class="st2" width="60.3" height="139.8"/>
		<path class="st2" d="M639.1,329.6H652c14.7,0,26.7,12,26.7,26.7v58.1c0,14.7-12,26.7-26.7,26.7h-12.9c-14.7,0-26.7-12-26.7-26.7
			v-58.1C612.4,341.6,624.4,329.6,639.1,329.6z"/>
		<rect x="633.8" y="460.9" class="st3" width="23.7" height="33.1"/>
		<rect x="612.4" y="359.2" class="st4" width="66.3" height="2.4"/>
		<rect x="612.4" y="381.3" class="st4" width="66.3" height="2.4"/>
		<rect x="612.4" y="403.4" class="st4" width="66.3" height="2.4"/>
		<polygon class="st4" points="650,494 641.5,494 639.5,479.3 652.4,479.3 		"/>
		<path class="st4" d="M644.1,460.9h3.1c0.1,0,0.1,0,0.1,0.1v8.1c0,0.1,0,0.1-0.1,0.1h-3.1c-0.1,0-0.1,0-0.1-0.1L644.1,460.9
			C644,460.9,644,460.9,644.1,460.9z"/>
		<path class="st5" d="M735.1,641.2L735.1,641.2c1.3-5.7,6.4-9.8,12.3-9.8h16.2v-27.9h2.4v-59.6h1.7v-0.5h2.4v0.5h3.9v59.6h1.9v27.9
			h14.5c5.9,0,11,4.1,12.2,9.9c2.9,0.2,5.1,2.6,5.1,5.5c0,3.1-2.5,5.6-5.6,5.6c-3.1,0-5.6-2.5-5.6-5.6c0-2.6,1.8-4.9,4.4-5.5
			c-1.2-4.9-5.5-8.3-10.5-8.3h-19.6v8.3c3.1,0.4,5.2,3.3,4.7,6.3c-0.4,3.1-3.3,5.2-6.3,4.7s-5.2-3.3-4.7-6.3
			c0.4-2.5,2.3-4.4,4.7-4.7V633h-21.8c-5.1,0-9.5,3.5-10.6,8.5c2.9,1,4.4,4.1,3.4,7s-4.1,4.4-7,3.4c-2.2-0.8-3.7-2.8-3.7-5.1
			C729.5,643.7,732,641.2,735.1,641.2z"/>
		<path class="st2" d="M727.8,406.1l3.9-0.4c8.2-0.9,15.6,4.9,16.5,13.1l11.7,100.8c0.9,8.2-4.9,15.6-13.1,16.5l-3.9,0.4
			c-8.2,0.9-15.6-4.9-16.5-13.1l-11.7-100.8C713.8,414.4,719.6,407,727.8,406.1z"/>
		<path class="st2" d="M840.5,532.1h-98.2c-6.9,0.6-12,6.7-11.4,13.7c0.5,6.1,5.4,10.9,11.4,11.4h98.2c6.9,0.6,13.1-4.5,13.7-11.4
			s-4.5-13.1-11.4-13.7C842,532,841.2,532,840.5,532.1z"/>
		<rect x="130.6" y="178" class="st3" width="295.2" height="221.2"/>
		<rect x="142.9" y="190.3" class="st2" width="270.6" height="196.5"/>
		<g class="st6">
			<rect x="171.1" y="230.3" class="st3" width="72" height="155.9"/>
			<rect x="179.7" y="248.9" class="st2" width="12.3" height="17.8"/>
			<rect x="200.9" y="248.9" class="st2" width="12.3" height="17.8"/>
			<rect x="222.2" y="248.9" class="st2" width="12.3" height="17.8"/>
			<rect x="179.7" y="271.9" class="st2" width="12.3" height="17.8"/>
			<rect x="200.9" y="271.9" class="st2" width="12.3" height="17.8"/>
			<rect x="222.2" y="271.9" class="st2" width="12.3" height="17.8"/>
			<rect x="179.7" y="294.9" class="st2" width="12.3" height="17.8"/>
			<rect x="200.9" y="294.9" class="st2" width="12.3" height="17.8"/>
			<rect x="222.2" y="294.9" class="st2" width="12.3" height="17.8"/>
			<rect x="179.7" y="317.9" class="st2" width="12.3" height="17.8"/>
			<rect x="200.9" y="317.9" class="st2" width="12.3" height="17.8"/>
			<rect x="222.2" y="317.9" class="st2" width="12.3" height="17.8"/>
			<rect x="179.7" y="341" class="st2" width="12.3" height="17.8"/>
			<rect x="200.9" y="341" class="st2" width="12.3" height="17.8"/>
			<rect x="222.2" y="341" class="st2" width="12.3" height="17.8"/>
			<rect x="179.7" y="364" class="st2" width="12.3" height="17.8"/>
			<rect x="200.9" y="364" class="st2" width="12.3" height="17.8"/>
			<rect x="222.2" y="364" class="st2" width="12.3" height="17.8"/>
		</g>
		<g class="st6">
			<rect x="269.8" y="277" class="st3" width="72" height="109.2"/>
			<rect x="280.5" y="245.2" class="st3" width="50.6" height="39.3"/>
			<rect x="302.1" y="219.9" class="st3" width="5.4" height="39.3"/>
			<rect x="278.4" y="294.9" class="st2" width="12.3" height="17.8"/>
			<rect x="299.7" y="294.9" class="st2" width="12.3" height="17.8"/>
			<rect x="320.9" y="294.9" class="st2" width="12.3" height="17.8"/>
			<rect x="278.4" y="317.9" class="st2" width="12.3" height="17.8"/>
			<rect x="299.7" y="317.9" class="st2" width="12.3" height="17.8"/>
			<rect x="320.9" y="317.9" class="st2" width="12.3" height="17.8"/>
			<rect x="278.4" y="341" class="st2" width="12.3" height="17.8"/>
			<rect x="299.7" y="341" class="st2" width="12.3" height="17.8"/>
			<rect x="320.9" y="341" class="st2" width="12.3" height="17.8"/>
			<rect x="278.4" y="364" class="st2" width="12.3" height="17.8"/>
			<rect x="299.7" y="364" class="st2" width="12.3" height="17.8"/>
			<rect x="320.9" y="364" class="st2" width="12.3" height="17.8"/>
		</g>
		<rect x="186.5" y="450" class="st2" width="194.1" height="39.5"/>
		<rect x="186.8" y="450.4" class="st3" width="3.4" height="138.5"/>
		<rect x="379.5" y="450.4" class="st3" width="3.4" height="138.5"/>
		<rect x="178.6" y="446.2" class="st7" width="212" height="6.7"/>
	</g>
</g>
<path class="st8" d="M628.8,269.1c0,0,4.2-5.7,5.6-6.9s-1-5-3.9-1.7l-4.6,5.4L628.8,269.1z"/>
<path class="st9" d="M624.6,274.8l15.6-25c0.9-1.5,0.4-3.5-1.1-4.4c-0.1-0.1-0.3-0.1-0.4-0.2l-13-5.7c-1.6-0.7-3.5,0-4.4,1.5
	l-13.6,26.3c-0.8,1.6-0.1,3.5,1.4,4.3c0.1,0,0.2,0.1,0.3,0.1l11,4.4C621.9,276.8,623.7,276.2,624.6,274.8z"/>
<path class="st8" d="M628.8,273.4c0,0,1.8-2.1-1.3-6.9c-4-6.4-10-14.1-11.8-14.2s-2.6,1.8,0.3,5.3s3.9,4.7,3.9,4.7s-6.8-5.2-9-5.4
	s-3.6,1.7-2.6,2.7c1.1,1.1,2.3,2.1,3.6,3.1c0,0-3.1-1.9-4.2-0.9s-1.8,2,0.7,4.3c0,0-3.4,0.9-1.3,4.1s2,4.9,0.7,8.3s-0.3,9.2-0.3,9.2
	l11.4,0.9c0,0,3.3-8.2,5.1-10S628.8,273.4,628.8,273.4z"/>
<path class="st10" d="M622.6,242.8c-0.2,0.7,0.2,1.4,0.9,1.6c0.7,0.2,1.5-0.2,1.7-0.9c0.2-0.7-0.2-1.4-0.9-1.6c0,0,0,0-0.1,0
	C623.5,241.7,622.8,242.1,622.6,242.8z"/>
<path class="st11" d="M533.9,647.7c0,0,5.6,8.1,13.5,9.9s19.4,6.1,19.5,11s-26.6,6-35.6,1.2c-13.5-7.3-14.9-5.1-16.4-8.7
	s1.8-13.3,1.7-14.5S533.9,647.7,533.9,647.7z"/>
<path class="st12" d="M533,643.6c0,0,1,4,0.9,4.1s-17.8,2.1-17.3-1.1l1.1-5.3L533,643.6z"/>
<path class="st11" d="M490.6,648.1c0,0,4,7.8,10.8,10.5s15.3,7.5,15.2,12.2s-20,8-33-1c-8.2-5.7-10.7-5.7-12.1-9.3s2.3-12.9,2.3-14
	S490.6,648.1,490.6,648.1z"/>
<path class="st12" d="M490.8,644.1c0,0-0.1,4-0.2,4s-17.3,1.5-16.8-1.6c0.3-1.9,0.8-3.7,1.6-5.4L490.8,644.1z"/>
<path class="st13" d="M553.3,406.2c0,0,9.2,67.3,12.8,87.9c3.1,17.5,4.8,35.6,3.3,48.3c-1.8,15.6-33,97.1-32,101.6
	s-26.1,2.1-26.1,2.1s26.1-95.5,22.6-112.4c-2.6-12.4-16.1-91.6-19.6-87.3s-7.7,78.2-10.3,90.5s-10.4,109.2-10.4,109.2
	s-17.6,2.5-22.4-1.3c0,0-2.1-82.8-0.5-105.8c0.7-8.8-10.6-105.2,3.8-144C482.2,374.5,553.3,406.2,553.3,406.2z"/>
<path class="st14" d="M548.4,266.1l2.7,129.6l0,0l-75.2-10.2h-0.1l1-131.6l13.9-4.7l28.4,2.4l0,0l6,2.6L548.4,266.1z"/>
<path class="st15" d="M551.1,395.7c0,0,1.7,2,2.2,10.5c0,0-71.2-8-78.8-11.2c0,0-0.2-9.3,1.3-9.5S551.1,395.7,551.1,395.7z"/>
<path class="st8" d="M490.3,246.9c0.3,10.8,21.9,16.7,21.9,16.7s9.1-11,6.9-12s-1.2-2.1-1.3-3.9c-0.1-1.6,0-3.3,0.1-4.9
	c0.1-0.4,0.1-0.9,0.1-1.3l-7-6.9c-6.9-6.5-16.3-15-16.3-11.6v0.6C496.4,231.2,490.3,246.9,490.3,246.9z"/>
<path class="st11" d="M492.1,387.1c0,0-1.5,9.5-1.7,12l-3.3-0.6c0,0,0.9-10.1,1.5-11.7L492.1,387.1z"/>
<path class="st11" d="M545.1,394.6c0,0,1.3,8.6,1.3,11.9l-3.5-0.5c0,0-0.7-10.7-1.1-11.8L545.1,394.6z"/>
<path class="st16" d="M498.7,231.1L498.7,231.1c0.8,1.1,1.6,2.2,2.5,3.3c3.3,4,9.6,10.6,16.6,13.3c-0.1-1.6,0-3.3,0.1-4.9
	c0.7,0,1.5-0.1,2.2-0.3c-2-3.2-4.7-6.6-4.7-6.6l-4.4-1.3L498.7,231.1z"/>
<path class="st8" d="M494.5,223.1c1.2,2.5,4.2,7.9,4.2,8c0.7,1.2,1.5,2.3,2.5,3.3c3.6,3.7,10.2,8.6,16.7,8.4c0.7,0,1.5-0.1,2.2-0.3
	c2.6-0.5,5.7-1.7,7.4-4.9c13.5-25.6,3.7-46.5,3.7-46.5s-36.9-10-42.7,0.7C484.5,199.3,490.1,213.9,494.5,223.1z"/>
<path class="st17" d="M531.2,191.1c0,0,3.5-0.1,4.3-6.4s-7.4-10.5-7.4-10.5c-4.5-2.2-9.3-3.7-14.2-4.4c-5.4-0.7-18.9-1.6-22,1.9
	c0,0-7.7-1.7-9.8,10.6c-3.3,19.5,11.3,38.4,11.3,38.4s-0.1-12.7,2.8-14.4s5.4,2.3,5.4,2.3l5.9,1c0,0-8.4-15.7,2.5-16.4
	S525,192.2,531.2,191.1z"/>
<path class="st8" d="M501.4,203.5c-0.5-5.6-11-7.7-10.3-1.8s5.8,11.5,8.2,11.3S501.9,207.8,501.4,203.5z"/>
<path class="st18" d="M433.3,356.9c4.6,8.4,11.8,20.9,18.9,32.9l-2.7,5c-2.1,3.8-3.9,7.7-5.4,11.7c-1.6,4.4-3.9,15.6,0.4,17.7
	l22.8,12.2c3.9-10.5,6.8-16.7,7.6-18.6c5.7-12.8,8.2-18.9,14.2-29.7c7-12.5,14.6-22.2,17.1-36.8s3.1-24.4,4.3-37
	c1.8-18.4-9.8-38.3-18.8-50.6c-3-4.1-6.2-8.1-9.6-11.8l-5.3,2c-8.7,3.3-29.1,9.1-31.4,10.7s-2.1,8.3-5.5,18.9
	c-7,21.8-11.2,54.6-11.4,62.8v0.4C428.5,347.7,430.3,351.5,433.3,356.9z M467.9,352.8c0,4.6-1.8,10-3.6,14.2
	c-2-4.2-9.7-19.9-10-23.9c-0.8-14.6,10.3-31.3,10.3-31.3S466.9,318.6,467.9,352.8L467.9,352.8z"/>
<path class="st18" d="M525.1,254.2c3,9.9,6.8,32.1,8.5,43.4s4.2,32.2,6.6,52.6l0,0c1.8,16.1,6.1,32.7,7.5,45l0,0
	c0.7,6.8,2.7,11.6,11,49.5l4.4-3.2l6.4-5.7c1.5-1.3,2.1-3.3,1.5-5.2c-3.6-11-15.6-50.1-17.8-77.6l0,0c-0.7-8.6,1.9-16.7,3.4-24.4
	l0,0L560,341c0.1,0,0.1,0.1,0.1,0.2c3.7,9.5,4.8,16,10.2,15.4c16.7-1.9,53.2-65.3,53.7-67.9l-19.1-5.8l-28.6,36.4l-15-48
	C558,268.7,529.2,256,525.1,254.2z"/>
<path class="st19" d="M488.1,278.7l10.6,5.7l-4.5,4.5l11.9,62.4c2.5-14.6,3.6-28.5,4.4-37c2.8-28.4-26.5-60.5-28.4-62.4l-4.5,1.7
	L488.1,278.7z"/>
<path class="st19" d="M525.1,254.2c0,0,3.9,12.4,8.5,43.4c1.7,11.9,4.2,32.2,6.6,52.6l2.4-58.5l-5-5.3l4.5-5.3l-9.6-23.6l-7.1-3.2
	L525.1,254.2z"/>
<path class="st20" d="M512.2,263.6c0,0-2.4,9-1.5,11.5c0,0,5.1,1.8,8.8-0.5C517.7,270.5,515.3,266.8,512.2,263.6z"/>
<path class="st21" d="M515.1,390.1c0,0,10.5,1.2,13.9,2l-0.4,11.4l-13.8-1.4L515.1,390.1z"/>
<path class="st22" d="M556.3,314.4c0.3,6.6,0.3,12.5,0.3,14.1l0,0l3.4,12.4c0.1,0,0.1,0.1,0.1,0.2c0.4-4.2,1.1-9.5,1-13
	c-0.6-21.4-7.6-32.7-7.6-32.7C555.1,299.1,555.9,307.2,556.3,314.4z"/>
<path class="st22" d="M449.5,394.8l19.1,22.3l-16.4-27.3L449.5,394.8z"/>
<polygon class="st23" points="447.4,444.3 527.1,410.6 501.6,354.4 421.9,388.2 "/>
<path class="st24" d="M495,422.2l3.6,3.5c0.9,0.7-1.5,1.8-2.8,1.1S495,422.2,495,422.2z"/>
<path class="st25" d="M524.5,274.4c0,0-7.2,5.4-21.8,1l9.5-11.8L524.5,274.4z"/>
<path class="st26" d="M482.5,435.7c-0.7-0.5-1.3-1-1.8-1.7l-1.2-2.4l-0.4-0.7c-1.1-1.1-1.9-2.4-2.5-3.8c-0.7-1.9-3.3-10.4-3.3-10.4
	l5.2-2.4l4.2-1.7c0,0,11.3,7.4,12.2,9c0,0.2,0.1,0.4,0.2,0.5c0.3,1.2,0.5,2.4,0.6,3.7c0.1,0.3,0.6,3.3,0,4c-0.7,0.8-1.7,1.3-2.8,1.2
	c0,0-1.7,1.9-3.4,2.1c-1,1.1-2.4,1.6-3.8,1.5C485.7,434.6,483.9,436.2,482.5,435.7z"/>
<path class="st27" d="M520.7,272.6c0,0-4.7,3.5-14.3,0.6l5.8-9.6L520.7,272.6z"/>
<path class="st28" d="M483.9,409l1.2,2.2c0,0-11.2,8-14.3,8.5l-1-3.1L483.9,409z"/>
<path class="st18" d="M485.1,409.1c0,0-8.4,6.7-15.5,9.8L445,377.5l13.1-23.1C458.1,354.4,484.5,405,485.1,409.1z"/>
<path class="st29" d="M481.6,252l8.7-5.1c0,0,0.3,4.6,21.9,16.7l-6.1,16.7L481.6,252z"/>
<path class="st29" d="M518,249.2c0,0-0.4,5-5.8,14.4l12,15.1l0.9-24.5L518,249.2z"/>
<path class="st30" d="M623.1,4.6c-37.5,0-68,35.6-68,79.6c0,47,68,137.8,68,137.8S691,134.7,691,84.2C691,40.2,660.6,4.6,623.1,4.6z
	 M623.1,115.4c-16.3,0-29.4-15.5-29.4-34.5s13.1-34.4,29.4-34.4s29.4,15.4,29.4,34.4S639.3,115.4,623.1,115.4L623.1,115.4z"/>
</svg>
