<?xml version="1.0" encoding="utf-8"?>
<!-- Generator: Adobe Illustrator 22.0.1, SVG Export Plug-In . SVG Version: 6.00 Build 0)  -->
<svg version="1.1" id="Слой_1" xmlns="http://www.w3.org/2000/svg" xmlns:xlink="http://www.w3.org/1999/xlink" x="0px" y="0px"
	 viewBox="0 0 567.8 405.1" style="enable-background:new 0 0 567.8 405.1;" xml:space="preserve">
<style type="text/css">
	.st0{clip-path:url(#SVGID_2_);}
	.st1{fill:url(#SVGID_3_);stroke:#F7F7F7;stroke-miterlimit:10;}
	.st2{fill:#0A0A0C;}
	.st3{fill:#525259;}
	.st4{fill:#2C2C30;}
	.st5{fill:url(#SVGID_4_);}
	.st6{fill:url(#SVGID_5_);}
	.st7{fill:#D3A495;}
	.st8{fill:#939599;}
	.st9{fill:#FF8400;}
	.st10{fill:#001A31;}
	.st11{fill:#00344E;}
	.st12{fill:#FDC6B4;}
	.st13{fill:#6B3606;}
	.st14{fill:url(#SVGID_6_);}
	.st15{fill:url(#SVGID_7_);}
	.st16{fill:#D26000;}
	.st17{opacity:0.3;fill:#0A0A0C;enable-background:new    ;}
	.st18{fill:#A7AAAD;}
	.st19{fill:#008074;}
	.st20{fill:url(#SVGID_8_);}
	.st21{fill:#D9DCE0;}
	.st22{fill:#464645;}
	.st23{fill:#B0B0B0;}
	.st24{fill:#69696B;}
	.st25{opacity:0.3;fill:#FFFFFF;enable-background:new    ;}
	.st26{fill:url(#SVGID_9_);}
</style>
<title>Металлургия</title>
<g>
	<g>
		<g>
			<defs>
				<path id="SVGID_1_" d="M21.6,327.1c-8.8,40.8,76.2,65.7,126.7,66.3s124.5-7.7,157.8-16.1s114.5-6.9,164.6-30s40.8-52,77.5-103.6
					s-32-45.7-14.9-118.5s2.3-69.9-42.7-84.6S339.1-8.8,292.9,28.8s-101.5,40.8-168,78.5S73.1,171,28.1,195.7S36.4,278.4,21.6,327.1
					z"/>
			</defs>
			<clipPath id="SVGID_2_">
				<use xlink:href="#SVGID_1_"  style="overflow:visible;"/>
			</clipPath>
			<g class="st0">
				
					<linearGradient id="SVGID_3_" gradientUnits="userSpaceOnUse" x1="-227.4599" y1="7323.0054" x2="643.79" y2="6819.9854" gradientTransform="matrix(1 0 0 1 0 -6904)">
					<stop  offset="2.000000e-02" style="stop-color:#FFFFFF"/>
					<stop  offset="0.15" style="stop-color:#FDE9CB;stop-opacity:0.92"/>
					<stop  offset="0.32" style="stop-color:#FACF8E;stop-opacity:0.82"/>
					<stop  offset="0.49" style="stop-color:#F7B95B;stop-opacity:0.74"/>
					<stop  offset="0.64" style="stop-color:#F5A834;stop-opacity:0.68"/>
					<stop  offset="0.79" style="stop-color:#F49C17;stop-opacity:0.64"/>
					<stop  offset="0.8367" style="stop-color:#F39200;stop-opacity:0.6"/>
					<stop  offset="0.91" style="stop-color:#F39506;stop-opacity:0.61"/>
				</linearGradient>
				<rect x="-292.5" y="-57.9" class="st1" width="877.3" height="522.4"/>
				<path class="st2" d="M307.6,90.6V79.1H154v11.5l0,0c0,11.4,7.5,22.7,22.5,31.4c30,17.3,78.6,17.3,108.6,0
					C300.1,113.3,307.6,102,307.6,90.6z"/>
				<path class="st3" d="M285.1,111.8c-30,17.3-78.6,17.3-108.6,0s-30-45.4,0-62.7s78.6-17.3,108.6,0S315.1,94.5,285.1,111.8z"/>
				<path class="st2" d="M302.5,76.8V34.1H159.1v42.7l0,0c0,10.6,7,21.2,21,29.3c28,16.1,73.4,16.2,101.4,0
					C295.5,98,302.6,87.4,302.5,76.8z"/>
				<path class="st3" d="M281.5,64.7c-28,16.1-73.4,16.1-101.4,0s-28-42.4,0-58.6s73.4-16.2,101.4,0S309.5,48.5,281.5,64.7z"/>
				<path class="st4" d="M292.2,41.5c-2.2-6.9-7.9-13.6-17.3-19c-24.3-14.1-63.8-14.1-88.2,0c-9.4,5.4-15.1,12.1-17.3,19
					c-3.5-11.2,2.3-23.2,17.3-31.9c24.4-14,63.9-14,88.2,0C290,18.3,295.7,30.3,292.2,41.5z"/>
				
					<linearGradient id="SVGID_4_" gradientUnits="userSpaceOnUse" x1="222.8692" y1="6913.3301" x2="246.1292" y2="7007.6802" gradientTransform="matrix(1 0 0 1 0 -6904)">
					<stop  offset="0" style="stop-color:#FFAB00"/>
					<stop  offset="0.12" style="stop-color:#F9A000"/>
					<stop  offset="0.33" style="stop-color:#EA8200"/>
					<stop  offset="0.6" style="stop-color:#D15200"/>
					<stop  offset="0.92" style="stop-color:#AF1000"/>
					<stop  offset="1" style="stop-color:#A70000"/>
				</linearGradient>
				<path class="st5" d="M292.2,41.5c-2.2,7-7.9,13.7-17.3,19.1c-24.3,14.1-63.8,14.1-88.2,0c-9.4-5.4-15.1-12.1-17.3-19.1
					c2.2-6.9,7.9-13.6,17.3-19c24.4-14.1,63.9-14.1,88.2,0C284.3,27.9,290,34.6,292.2,41.5z"/>
				<path class="st2" d="M500.1,292.2v-17.9H262.2v17.9l0,0c0,17.6,11.6,35.1,34.9,48.5c46.4,26.9,121.7,26.9,168.1,0
					C488.5,327.3,500.1,309.8,500.1,292.2z"/>
				<path class="st3" d="M465.2,325c-46.4,26.8-121.7,26.8-168.1,0s-46.5-70.3,0-97.1s121.7-26.8,168.1,0S511.7,298.2,465.2,325z"/>
				<path class="st2" d="M492.2,270.8v-66.1H270.1v66.1l0,0c0,16.4,10.8,32.8,32.5,45.3c43.4,25.1,113.7,25.1,157.1,0
					C481.4,303.6,492.2,287.2,492.2,270.8z"/>
				<path class="st3" d="M459.7,252c-43.4,25-113.7,25-157.1,0s-43.4-65.7,0-90.7s113.7-25.1,157.1,0S503.1,226.9,459.7,252z"/>
				<path class="st4" d="M476.2,216.2c-3.3-10.8-12.2-21.2-26.7-29.5c-37.8-21.8-99-21.8-136.7,0c-14.5,8.3-23.4,18.7-26.8,29.5
					c-5.4-17.4,3.5-36,26.8-49.4c37.7-21.8,98.9-21.8,136.7,0C472.7,180.2,481.7,198.8,476.2,216.2z"/>
				
					<linearGradient id="SVGID_5_" gradientUnits="userSpaceOnUse" x1="368.7983" y1="7070.3101" x2="404.8283" y2="7216.4302" gradientTransform="matrix(1 0 0 1 0 -6904)">
					<stop  offset="0" style="stop-color:#FFAB00"/>
					<stop  offset="0.12" style="stop-color:#F9A000"/>
					<stop  offset="0.33" style="stop-color:#EA8200"/>
					<stop  offset="0.6" style="stop-color:#D15200"/>
					<stop  offset="0.92" style="stop-color:#AF1000"/>
					<stop  offset="1" style="stop-color:#A70000"/>
				</linearGradient>
				<path class="st6" d="M476.2,216.2c-3.3,10.8-12.2,21.1-26.7,29.5c-37.8,21.8-99,21.8-136.7,0c-14.5-8.4-23.4-18.7-26.8-29.5
					c3.4-10.8,12.3-21.2,26.8-29.5c37.7-21.8,98.9-21.8,136.7,0C464,195,472.9,205.4,476.2,216.2z"/>
				<path class="st7" d="M145.1,145.2c-0.8,0.2-1.6,0.3-2.4,0.3l-3.6,3.6l-1.4,10.2l2.4,5.4l3.9,4.8h6.9l5.1-2.4l3.1-9.1l-3.1-8.8
					l-7-3.7C149,145.5,146.4,144.7,145.1,145.2z"/>
				<path class="st8" d="M142.7,145.5c0,0-6.2,16.8,1.7,20.9c5.8,3,16.5-7.2,16.5-7.2l-3.1,24l-11.5,12.2c0.2-0.1-15.4-2-15.4-2
					s-4.9-15.2-4.9-15.9s2.4-23.9,2.4-23.9L142.7,145.5z"/>
				<path class="st4" d="M96.9,338.6c-0.5,3.6,0.3,4.8,1.8,6c5.6,4.2,20.1-4.8,22.6-7.5c2.1,0.2,11.5,0.7,12.3-5.8
					c0.1-0.9,0.1-1.8,0.1-2.7C133.5,324.4,105.8,343.2,96.9,338.6z"/>
				<path class="st9" d="M113.9,305.2c0,0,1.6,9.9,1.6,13.9c-1.9,7.5-12.9,9.8-16.1,13s-3.8,8.1-0.7,10.4c5.6,4.2,20.1-4.8,22.6-7.4
					c2.1,0.2,11.5,0.6,12.3-5.9c0.6-4.9-1.8-10.1-2.2-12c-0.9-4.3,0-13.1,0-13.1S115.7,304.6,113.9,305.2z"/>
				<path class="st10" d="M115.4,245.1c0,0-4.4,27.5-4.6,36.2s-1.1,23.3,0,27.7s6.4,7,12.5,6.4c6.1-0.6,9.5-2.3,10.9-8.5
					s-1.4-25.7-1.4-25.7s13-35.8,13.5-41.7s-14.8-11.2-14.8-11.2L115.4,245.1z"/>
				<path class="st4" d="M163.1,356.6c-0.2,0.9-0.3,1.7-0.4,2.4c-0.4,4.6,0.6,4.7,1.7,8s-0.4,18.5,7.9,16.8s10.6-5.9,9.4-11.9
					s-5.7-12.1-6.2-17.6C171.2,357.1,168,357.4,163.1,356.6z"/>
				<path class="st9" d="M159.4,335.8c0,0,3.7,14.5,3.7,18.5c-0.9,7.2,0,6.6,1.3,10.4s-0.4,18.5,7.9,16.9
					c18.6-3.7,4.1-19.8,3.2-29.6c-0.8-4.3,0.8-17,0.8-17S158.5,333.6,159.4,335.8z"/>
				<path class="st11" d="M141,248.2c0,0,4.8,46,12.2,61c4.2,8.5-2.8,30.2,2.8,33.3s12.5,2.3,12.5,2.3s8.9-1.7,10-9.9
					s-1.1-24.9-4.7-37.2c-1.8-6.1,2.8-32.7-0.8-54.1C170.6,238,141,248.2,141,248.2z"/>
				<path class="st10" d="M141.5,252.2l32.5-0.5c0,0,2.8,12.5-14.6,12.5C144,264.3,141.5,252.2,141.5,252.2z"/>
				<path class="st10" d="M137.6,142.6c-2.2-1-6.3-3.3-12.2-1.2c-7.5,2.6-8.2,5.8-15.7,12.2c-3.8,2.2-6.3,25.8-6.3,25.8
					s8.2-6.2,14.5,3.8c2.1-8.2,6.9-23.6,13.3-26.7C135.3,154.8,137.9,143.6,137.6,142.6z"/>
				<path class="st11" d="M142.7,145.5c-5.1,8.4-15.2,23.3-3.7,37.8c1.4,2,5.4,33.3,5.4,33.3s-4.5,16.7-8.1,21
					c-10.7,12.7-24,10.5-24,10.5s7.3-24.2,8.3-43c1-21.3-2.6-30.5,0.4-42.8c3.9-16.3,16.6-19.7,16.6-19.7
					C139.4,143.4,141.1,144.4,142.7,145.5z"/>
				<path class="st11" d="M157.7,162.2C146,170,151,178.4,139,183.3c1.6,23-2.2,48.2-2.7,54.3c-0.2,10.1,6.8,18.4,13.1,20.5
					s12.4,2.6,16.3,1.1c9.5-3.9,9.5-11.5,9.5-11.5l0.6-79.8l-8.3-10.6C164,158.3,160.6,160,157.7,162.2z"/>
				<path class="st12" d="M173.8,150.1c-0.3,3.1-1.3,6-2.9,8.6l-9.5,11.4c-1.4,1.6-6.9,2.3-9.6-1.2s-5.6-9.4-5.8-11.8
					c-0.1-1.3-0.1-2.7,0.2-4c-1.8-2.5-2.3-5.8-1.2-8.7l3.2-5.7l10.5-1.1l12.3,1.2C171,138.8,173.7,148.9,173.8,150.1z"/>
				<path class="st13" d="M145,144.4c0,0,3-1,3.6,6.7c3.3-0.6,6.6-1,9.9-1.1c0,0,2.4,4.4,9.7,3.5c3.3-0.4,6-2.9,6.8-6.1
					c0,0,3-18.3-15.8-18.3C144.2,129.1,145,144.4,145,144.4z"/>
				<path class="st10" d="M175.8,167.9c-2.9-0.4-10.3,13.7-10.6,24c-0.2,7.2,1.3,24.3,1.3,24.3s-2.1,15.5-4.7,26
					c9.7-5.8,17.3,3.8,17.3,3.8s5.4-23.9,4.7-31.2c-0.2-3.4-0.3-13.8,0.2-23.2C184.5,180.1,184.3,169.6,175.8,167.9z"/>
				<path class="st13" d="M161,237.9l-0.5,13.7c-2.2,1.2-3.1,4.4-3.4,7.6l13.3,15.9c1.3-0.9,2.1-2.3,2.4-3.8
					c0.3-3.3,0.2-13.9,0.2-13.9s8.6-14.1,8.7-15.5C174.9,231.1,161.6,236,161,237.9z"/>
				<path class="st10" d="M139,183.3c0.5,18.1-0.4,36.3-2.7,54.3C136.3,237.6,137.7,181.6,139,183.3z"/>
				<path class="st2" d="M228.4,383.6l-25.2,0.2l2.1,27.5h0.1c0.4,1.6,1.5,3,3,3.7c4.7,2.3,10.1,2.3,14.8,0c2-1.2,3-2.7,3-4.3
					L228.4,383.6z"/>
				<path class="st3" d="M224.7,388.6c-4.9,2.8-12.9,2.8-17.8,0s-4.9-7.5,0-10.3s12.9-2.9,17.8,0S229.6,385.7,224.7,388.6z"/>
				<path class="st4" d="M226.5,385.7c-0.6-1-1.5-1.9-2.6-2.5c-5.1-2.6-11.1-2.6-16.2,0c-1.1,0.6-2,1.5-2.7,2.5
					c-1.4-2.4-0.5-5.1,2.7-6.9c5.1-2.6,11.1-2.6,16.2,0C227.1,380.6,228,383.3,226.5,385.7z"/>
				<path class="st2" d="M220.6,341c-0.3-0.1-0.5-0.3-0.7-0.6L93,181.8c-0.4-0.9,0-2.1,0.9-2.5c0.7-0.3,1.4-0.2,2,0.2L222.8,338
					c0.7,0.8,0.5,2-0.3,2.7l0,0C222,341.1,221.2,341.2,220.6,341z"/>
				<path class="st2" d="M224.7,340.3c-4.8-2.8-8.6-0.6-8.6,4.9s3.8,12.2,8.6,14.9s8.6,0.5,8.6-4.9S229.4,343,224.7,340.3z"/>
				<path class="st2" d="M255.7,340.8c-0.3-5.2-3-10-7.4-12.8c-2-1.2-3.9-1.3-5.2-0.5l-24.5,11.7l0.6,1c0.6-0.3,1.3-0.5,2-0.4
					c1.2,0,2.5,0.4,3.5,1.1c4.4,2.5,8.1,8.8,8.1,14c0,1.2-0.2,2.4-0.8,3.5c-0.3,0.6-0.8,1.1-1.3,1.5l0.6,1l22.7-15.6l0,0
					C255.2,344.1,255.9,342.5,255.7,340.8z"/>
				<path class="st3" d="M224.7,339.9c-4.9-2.8-8.9-0.5-8.9,5.2s4,12.5,8.9,15.4s8.9,0.5,8.9-5.2S229.6,342.7,224.7,339.9z
					 M232,358.4c-1.3,2.4-4.1,3-7.3,1.1c-4.8-3.1-7.8-8.3-8.1-14c0-3.7,1.9-5.8,4.6-5.7c1.2,0,2.5,0.4,3.5,1.1
					c4.4,2.5,8.1,8.8,8.1,14C232.8,356.1,232.6,357.3,232,358.4z"/>
				
					<linearGradient id="SVGID_6_" gradientUnits="userSpaceOnUse" x1="213.6593" y1="7272.1255" x2="249.9593" y2="7273.8853" gradientTransform="matrix(1 0 0 1 0 -6904)">
					<stop  offset="0" style="stop-color:#FFAB00"/>
					<stop  offset="0.12" style="stop-color:#F9A000"/>
					<stop  offset="0.33" style="stop-color:#EA8200"/>
					<stop  offset="0.6" style="stop-color:#D15200"/>
					<stop  offset="0.92" style="stop-color:#AF1000"/>
					<stop  offset="1" style="stop-color:#A70000"/>
				</linearGradient>
				<path class="st14" d="M230.5,347.1c-22.4,12-13.8,26.9-23.1,36.3l0,0c-1,0.6-1.8,1.4-2.4,2.3c0.7,1,1.6,1.8,2.7,2.4
					c5.1,2.6,11.1,2.6,16.2,0c1.1-0.6,2-1.4,2.6-2.4c-4.1-13.3,4.1-25.8,4.6-26.1S234,353.4,230.5,347.1z"/>
				<path class="st13" d="M112.3,174c-7.8-1.8-9.7,3.9-9.7,3.9s0.8,8.5,0.8,11c-1.6,3.2-3.8,8.5-3.6,11.2s3.7,8.5,8.3,9.7
					c2.7,0.6,6,0.1,6.6-0.8l-2.2-2.8c-1.5-1.7,0.6-4.5,2.4-3.1l1.7,2.2c3.6-4.2,0.3-10.2,0.3-10.2s0.3-9.5,2.6-13.4
					C119.5,181.7,119.8,175.7,112.3,174z"/>
				<path class="st13" d="M168.9,276.7l-3.5-4.4c0,0,4.6-0.7,3.7-5s-7.3-11.3-12-11.3s-7.2,5.9-6.4,9.4
					C152.6,273.1,161.1,281.5,168.9,276.7z"/>
				
					<linearGradient id="SVGID_7_" gradientUnits="userSpaceOnUse" x1="388.5669" y1="7099.2925" x2="424.8669" y2="7149.0522" gradientTransform="matrix(1 0 0 1 0 -6904)">
					<stop  offset="0" style="stop-color:#FFAB00"/>
					<stop  offset="0.12" style="stop-color:#F9A000"/>
					<stop  offset="0.33" style="stop-color:#EA8200"/>
					<stop  offset="0.6" style="stop-color:#D15200"/>
					<stop  offset="0.92" style="stop-color:#AF1000"/>
					<stop  offset="1" style="stop-color:#A70000"/>
				</linearGradient>
				<path class="st15" d="M417.3,214.3c-14.2,8.2-37.2,8.2-51.4,0s-14.2-21.5,0-29.7s37.2-8.2,51.4,0S431.5,206.1,417.3,214.3z"/>
				<path class="st16" d="M386,200.2c-5.4,3.1-14.2,3.1-19.6,0s-5.4-8.2,0-11.3s14.2-3.1,19.6,0S391.4,197.1,386,200.2z"/>
				<polygon class="st16" points="370.7,-168.1 370.7,11.2 354.6,20.5 338.4,-168.1 354.6,-177.4 				"/>
				<polygon class="st9" points="354.6,-158.7 354.6,20.5 338.4,11.2 338.4,-168.1 348,-166.5 				"/>
				<path class="st17" d="M362.3-7.9c-3.9,2.5-6.3,6.7-6.6,11.3c0,4.2,3,5.8,6.6,3.8c3.8-2.5,6.2-6.7,6.5-11.3
					C368.8-8.3,365.9-10,362.3-7.9z"/>
				<path class="st18" d="M389.9,22.8c-1.2,0-2.4-0.3-3.5-0.9L361.3,7.3c-3.3-1.9-3.8-6.1-1.8-9.5s5.5-4.6,8.9-2.7l25.1,14.7
					c3.3,2,4.4,6.3,2.4,9.6C394.6,21.5,392.4,22.8,389.9,22.8L389.9,22.8z"/>
				<path class="st19" d="M402.3,7.4l-13.2,22.9l-5.2-3l0,0c-1.7-1-2.8-3.1-2.8-6.1c0-5.9,4.2-13.2,9.4-16.1
					c2.6-1.5,4.9-1.7,6.6-0.7l0,0L402.3,7.4z"/>
				
					<linearGradient id="SVGID_8_" gradientUnits="userSpaceOnUse" x1="386.37" y1="6922.8872" x2="405.07" y2="6922.8872" gradientTransform="matrix(1 0 0 1 0 -6904)">
					<stop  offset="0" style="stop-color:#F1F1F1"/>
					<stop  offset="1" style="stop-color:#D9D8D8"/>
				</linearGradient>
				<path class="st20" d="M395.7,8.1c-5.1,3-9.3,10.2-9.3,16.2s4.2,8.3,9.3,5.4s9.4-10.3,9.4-16.2S400.9,5.1,395.7,8.1z"/>
				<path class="st21" d="M396.1,12.9c-3.2,2.1-5.3,5.6-5.5,9.5c0,3.5,2.5,4.9,5.5,3.2c3.2-2.2,5.3-5.7,5.5-9.6
					C401.6,12.5,399.1,11.1,396.1,12.9z"/>
				<path class="st4" d="M373,82.3c18.7,29.1,61.3,35,95.1,13.3s46.2-63,27.6-92.1s-61.3-35-95.2-13.3S354.3,53.2,373,82.3z"/>
				<path class="st2" d="M550.6,69.7l-3.6-5l0,0L493.8-5.5l-5.2,4.4c1.5,1.8,2.8,3.7,4.1,5.6c17.8,27.7,6.1,67.1-26.2,87.8
					c-28.6,18.4-63.7,16-83.8-3.9l-5.2,4.4l45.8,61.4l1.9,2.6l0.4,0.5l0,0c21,26.2,62.7,30.5,96.1,9
					C557.2,143.4,570.1,100.2,550.6,69.7z"/>
				<path class="st3" d="M498.5,0.8c-19.6-30.5-64.3-36.8-99.8-14s-48.4,66-28.8,96.5s64.2,36.8,99.7,14S518,31.3,498.5,0.8z
					 M466.5,92.3c-32.4,20.8-73,15.1-90.9-12.7s-6-67.1,26.3-87.8s73-15.1,90.8,12.7S498.8,71.6,466.5,92.3z"/>
				<path class="st22" d="M518.7,74.6l-13.2,22.9l-5.3-3l0,0c-1.7-1-2.7-3.1-2.7-6.1c0-5.9,4.2-13.2,9.3-16.2
					c2.6-1.5,4.9-1.6,6.6-0.6l0,0L518.7,74.6z"/>
				<path class="st23" d="M512.1,75.3c-5.2,2.9-9.4,10.2-9.4,16.1s4.2,8.4,9.4,5.4c5.2-3,9.3-10.2,9.3-16.2S517.2,72.3,512.1,75.3z"
					/>
				<path class="st24" d="M512.4,80c-3.2,2.2-5.3,5.7-5.5,9.6c0,3.5,2.5,4.9,5.5,3.1c3.3-2.1,5.3-5.6,5.5-9.5
					C517.9,79.7,515.5,78.3,512.4,80z"/>
				<path class="st18" d="M539.9,109.6c-1.2,0-2.5-0.3-3.5-1L511.3,94c-3.3-1.9-3.8-6.1-1.8-9.5s5.5-4.6,8.9-2.6l25.1,14.6
					c3.3,2.1,4.3,6.5,2.2,9.8C544.4,108.3,542.3,109.5,539.9,109.6z"/>
				<polygon class="st16" points="566.5,-55 566.5,124.3 550.4,133.6 534.2,-55 550.4,-64.3 				"/>
				<polygon class="st9" points="550.4,-45.7 550.4,133.6 534.2,124.3 534.2,-55 542.3,-54 				"/>
				<polygon class="st16" points="550.4,-45.7 338.4,-168.1 338.4,-187.9 566.5,-74.8 566.5,-55 				"/>
				<polygon class="st9" points="550.4,-65.5 550.4,-45.7 338.4,-168.1 338.4,-187.9 354.6,-197.2 566.5,-74.8 				"/>
				<path class="st25" d="M338.4-187.9l212,122.4C550.4-65.5,360.3-163.1,338.4-187.9z"/>
				<polygon class="st2" points="450,-251.1 450,-142.1 433.8,-132.8 417.7,-251.1 433.8,-260.4 				"/>
				<polygon class="st4" points="433.8,-241.8 433.8,-132.8 417.7,-142.1 417.7,-251.1 				"/>
				<polygon class="st2" points="493.1,-226.2 493.1,-117.2 477,-107.8 460.8,-226.2 477,-235.5 				"/>
				<polygon class="st4" points="477,-216.9 477,-107.8 460.8,-117.2 460.8,-226.2 				"/>
				<polygon class="st2" points="520.7,-228.5 426.3,-283 400.9,-268.3 495.4,-195.1 520.7,-209.8 				"/>
				<polygon class="st4" points="495.4,-213.8 400.9,-268.3 400.9,-249.6 495.4,-195.1 				"/>
				
					<linearGradient id="SVGID_9_" gradientUnits="userSpaceOnUse" x1="380.1011" y1="6964.939" x2="492.4911" y2="7089.0288" gradientTransform="matrix(1 0 0 1 0 -6904)">
					<stop  offset="0" style="stop-color:#FFAB00"/>
					<stop  offset="0.12" style="stop-color:#F9A000"/>
					<stop  offset="0.33" style="stop-color:#EA8200"/>
					<stop  offset="0.6" style="stop-color:#D15200"/>
					<stop  offset="0.92" style="stop-color:#AF1000"/>
					<stop  offset="1" style="stop-color:#A70000"/>
				</linearGradient>
				<path class="st26" d="M487.8,29.4c-27.4-15.8-71.8-15.8-99.2,0c-5.1,2.8-9.6,6.5-13.4,10.9l0,0c-39,35.7-9.9,144.7-10.9,150
					c-11.9,12.4,32.3,14.5,20.6-3.7c-1.5-10.2,21.5-73.1,73.8-89.9l0,0c18.6-8.8,39-28.6,42-57C497,35.6,492.6,32.1,487.8,29.4z"/>
			</g>
		</g>
	</g>
</g>
</svg>
