<?xml version="1.0" encoding="utf-8"?>
<!-- Generator: Adobe Illustrator 22.0.1, SVG Export Plug-In . SVG Version: 6.00 Build 0)  -->
<svg version="1.1" id="Слой_1" xmlns="http://www.w3.org/2000/svg" xmlns:xlink="http://www.w3.org/1999/xlink" x="0px" y="0px"
	 viewBox="0 0 351 332" style="enable-background:new 0 0 351 332;" xml:space="preserve">
<style type="text/css">
	.st0{clip-path:url(#SVGID_2_);}
	.st1{fill:url(#SVGID_3_);}
	.st2{opacity:0.2;fill:#3D3C4F;enable-background:new    ;}
	.st3{fill:#1A1A1C;}
	.st4{fill:#001A31;}
	.st5{fill:#00344E;}
	.st6{fill:#F0F6FF;}
	.st7{fill:#FCD1C5;}
	.st8{fill:#00233D;}
	.st9{fill:#012C3D;}
	.st10{fill:#170968;}
	.st11{fill:#453C9E;}
	.st12{fill:#AA8383;}
	.st13{fill:#C4CCD6;}
	.st14{fill:#E2B1A6;}
	.st15{fill:#936D6D;}
</style>
<title>МЕНЕДЖЕР_1</title>
<g>
	<defs>
		<path id="SVGID_1_" d="M29,118.4c8.2,9.3,35.8,25.9,48.4,40.3s88.7,45.3,112.9,36.1s20.4,14.1,33.6,38.7s70.3,57.5,90.6,0
			s29.7-81.4,29.3-108.4S366-3.2,285.8-5.1s-169.2,25-202.3,17.4S-32.9,48,29,118.4z"/>
	</defs>
	<clipPath id="SVGID_2_">
		<use xlink:href="#SVGID_1_"  style="overflow:visible;"/>
	</clipPath>
	<g class="st0">
		
			<radialGradient id="SVGID_3_" cx="-4.99" cy="297.6142" r="265.17" fx="-255.0539" fy="209.404" gradientTransform="matrix(1 0 0 -1 0 450.6141)" gradientUnits="userSpaceOnUse">
			<stop  offset="0" style="stop-color:#FFFFFF"/>
			<stop  offset="9.000000e-02" style="stop-color:#FFFBF5"/>
			<stop  offset="0.23" style="stop-color:#FDEFDA"/>
			<stop  offset="0.42" style="stop-color:#FBDDAF"/>
			<stop  offset="0.65" style="stop-color:#F8C373"/>
			<stop  offset="0.9" style="stop-color:#F5A327"/>
			<stop  offset="1" style="stop-color:#F39506"/>
		</radialGradient>
		<rect x="-146" y="0" class="st1" width="600" height="450"/>
	</g>
</g>
<ellipse class="st2" cx="152.6" cy="304.1" rx="36.5" ry="21.1"/>
<path class="st3" d="M138.7,286.2l-1.8,2c-0.9,1.1-3.5,2.6-4.6,3.3s-6.1,4.4-7.1,8.2s2.5,4.2,6.1,3.5s7.1-4,8.1-5.2
	c2.6-2.6,5.6-4.7,8.9-6.3c4.4-2.3,1.7-5.4,1.7-5.4L138.7,286.2z"/>
<path class="st3" d="M171.9,297.2c0.5,1.3,0.8,2.6,0.9,3.9c0.2,2.1,0.5,6.8,0.6,8.1c0.3,2.8-0.5,5.6-2.2,7.9
	c-2.4,3.2-3.7,4.5-6.8,3.2s-3.2-6.6-2.6-9.3c0.6-3.2,0.9-6.4,1-9.6c0-0.4,0.1-0.7,0.2-1.1L171.9,297.2z"/>
<path class="st4" d="M127.7,223c0,0,0.6,24.6,6.4,37.6c2.7,8.1,4.2,16.6,4.6,25.1c-0.5,1.4-0.4,3,0.4,4.3c1.3,1.9,9.7,3.7,11.1-2.6
	s0.9-18-0.6-22.9s0.5-18.4,0.5-18.4s2.3,1.4,5.3,11.1c1.7,5.5,3.8,10.9,6.3,16.1c1,2.7,2,19.1,1.3,27.2c0,0,6.8,0.9,8.8-2.3
	s2.6-20.1,2.1-25.5s-2.7-22.5-2.4-27.8s1.4-9.7,0.2-15s-37.1-17.1-37.1-17.1L127.7,223z"/>
<path class="st4" d="M139.7,142.7l-10.7,2.4c-0.4,0.1-0.8,0.5-0.9,0.9c-0.8,1.9-2.7,8-1.3,16.9c1.1,6,1.5,12.2,1.2,18.3l-3.6,19.1
	c0,0-4.7,18.3-4.3,18.8s10.7,8.3,13.9,7.2s2.2-2.9,2.2-2.9s2.6,13.2,14.1,13.1s20.9-0.1,22.8-4.7s-0.5-24.2-2.5-32
	s-6.9-23.1-6.9-23.1l16.9-18.7l-14.4-11c0,0-3.5-6.4-4.9-7.2c-0.6-0.5-1.5-0.5-2.2-0.1L139.7,142.7z"/>
<path class="st5" d="M134.2,222.1c0,0.7-0.4,1.7-2.4,2.4s-7.8-2.6-11.3-5.1c1.8,1.5,10.6,7.9,13.5,6.9c0.5-0.1,1-0.4,1.4-0.7
	C134.9,224.5,134.5,223.3,134.2,222.1z"/>
<path class="st5" d="M173,230.2c-2,4.9-11.9,4.9-24.1,5c-2.7,0.1-5.3-0.6-7.5-2.1c2.4,2.3,5.6,3.6,8.9,3.4
	c11.5-0.1,20.9-0.1,22.8-4.7c0.7-1.6,0.8-4.7,0.7-8.5C173.8,226.4,173.6,228.9,173,230.2z"/>
<path class="st6" d="M161,139.7c0,0,2.9,3.5-1.3,8.3c-4.1,5-7.7,10.4-10.9,16c-2.4,4.1-4.6,6.3-5.9,9.9c0,0-0.1-4.3-0.3-10.8
	s-0.2-12.5,0-14.1C143.2,145.7,157.7,138,161,139.7z"/>
<path class="st7" d="M150,150.4c0,0-1.5,0.9-2,0.8s-2.2-1.7-2.2-1.7s-4.2-0.1-4.7-1.8c-0.3-1.6-0.6-3.1-1.1-4.6
	c-0.5-0.9-2.3-5.4-2.3-7.2s0.1-5-0.7-6.7c-0.8-1.7-1.8-18.9,14.7-18.4s11.4,17.7,11.4,17.7s1.2,0.5,0.5,2.7s-0.9,2.4-1.3,3.5
	c-0.2,1.1-0.7,2-1.6,2.7l-0.3,2.1c0.4,2.1,0,4.3-1.2,6.1C157.1,148.6,150,150.4,150,150.4z"/>
<path class="st8" d="M128.6,145.3c0,0-1.8,0.3-7.5,14.7c-3.2,8-8.1,16.4-9.2,22.3s-0.4,12.4,0.7,12.8l28.2,10.6
	c0.4,0.1,0.7-0.2,0.8-0.5l1.8-9.9l-12.8-4.9c-1.3-1.6-2.9-3-4.7-4.1c0,0,2.6-4.7,2.4-6s0.2-14.6-1.3-20.1S128.6,145.3,128.6,145.3z"
	/>
<path class="st7" d="M136.1,183.4c-0.7-0.5-1.4-0.9-2.2-1.3l-3.3-1.2c-0.8-0.2-1.6-0.2-2.4,0c-0.2,0-0.4,0.2-0.5,0.4
	c-0.6,1-2.1,3.9-1.9,5.1s4.2,2.6,4.7,3.8l0.7,0.2C131.2,190.4,134,184.3,136.1,183.4z"/>
<path class="st9" d="M170.6,199.8l-1.9-6.6l-25.8,11.1c5.4,6,13.2,9.2,21.3,8.9c3-0.1,5.9-1,8.4-2.6
	C172,206.3,171.2,202.4,170.6,199.8z"/>
<path class="st10" d="M180.6,158c0,0-6.9,1-12.4,9.7c-3.7,6-6.8,12.3-9.5,18.8l-0.2,1.2c-0.4,2.5-2.8,4.2-5.3,3.7
	c-0.4-0.1-0.7-0.2-1.1-0.3c-5.8-2.6-14.4-6.5-16-7.7c-3.4,2.1-5.8,5.6-6.6,9.6c-1.1,5.3-0.8,5.4-0.8,5.4s22.9,10.7,31.8,10.6
	s20.1-29.3,21.4-35.3S184.5,159.7,180.6,158z"/>
<path class="st8" d="M180.6,158c0,0-6.9,1-12.4,9.7c-3.7,6-6.8,12.3-9.5,18.8l-0.2,1.2c-0.4,2.5-2.8,4.2-5.3,3.7
	c-0.4-0.1-0.7-0.2-1.1-0.3c-5.8-2.6-14.4-6.5-16-7.7c-3.4,2.1-5.8,5.6-6.6,9.6c-1.1,5.3-0.8,5.4-0.8,5.4s22.9,10.7,31.8,10.6
	s20.1-29.3,21.4-35.3S184.5,159.7,180.6,158z"/>
<path class="st11" d="M155.4,192.5c0,0,2.9,2.7,4.2,1.2s0.8-1.7,0.8-1.7s2.7,0,3-1.6s1.6-0.8,1.6-2.6s-2.1-1.5-2.1-1.5L155.4,192.5z
	"/>
<path class="st7" d="M151.9,191l1.8-1.6c1.1-0.9,2.7-4.5,3-4.8s3.7-3,5.4-3s0.4,1.8,0.1,2.1l-2.1,1.1l-1.8,1.6
	c-0.2,0.2,4.6-0.4,5.4,0.1c0.6,0.5,0.7,1.4,0.2,2c0,0-0.1,0.1-0.1,0.1c-0.3,0.2-0.6,0.3-1,0.3c0.3,0.8-0.1,1.7-0.9,2.1
	c-1.5,0.7-1.8,0.3-1.8,0.3s-0.1,2.6-2.5,2.1L151.9,191z"/>
<path class="st12" d="M136.6,120.4c0,0-2.1,6.9,3.5,4.9s10.9-5.2,12.7-4s1.3,3.9,1.2,5.2c-0.1,0.5,0,0.9,0.3,1.3l1.7,2.5
	c0.2,0.3,0.3,0.6,0.3,0.9v1.7c0.1,0.4,0.4,0.8,0.8,0.8h0.4c0.4,0,0.8-0.3,0.9-0.7l0.4-2.5c0,0,1.4-3.4,4.2-2c0,0,1.9-2.6,1.3-8
	s-3.1-11.1-13.7-12S136.6,120.4,136.6,120.4z"/>
<path class="st13" d="M152.9,156.4l-1.6-1.2c-0.8,0.7-1.5,1.6-2,2.5c-0.6,1.3,0,5.4,0,5.4l-0.5,0.9l-0.6-1.1l-0.5-4.9
	c0,0,0.5-3.6,0.6-3.7l3.1,0.3C152,155.1,152.5,155.7,152.9,156.4z"/>
<path class="st13" d="M145.2,151.5c-0.8,0.1-1.7,0.4-2.4,0.8h2C145.1,152.5,145.2,151.5,145.2,151.5z"/>
<path class="st5" d="M148.5,151.9l2.9,2.7c0,0-2.6,1.2-3.3,3.4c0,0-3.1,0.6-3.4-0.5s0.1-4-0.3-5.3S148.5,151.9,148.5,151.9z"/>
<path class="st5" d="M144.9,157.4c-0.3,1.1-0.7,2.2-1.2,3.3l-1.1,2.1v13.7c0,0,5.1-10.4,6.2-12.5c0,0-0.2-5-0.7-6
	S144.9,157.4,144.9,157.4z"/>
<path class="st14" d="M158.4,137.1c-3.3,9.6-12.6,12.4-12.6,12.4s1.6,1.6,2.2,1.7s2-0.8,2-0.8s7.1-1.8,9.2-4.8
	c1.2-1.8,1.6-4,1.2-6.1l0.3-2.1C159.9,137.7,159,137.6,158.4,137.1z"/>
<path class="st5" d="M166,148.3c0,0-1.3,4.5-1.5,4.7c-1.1,0-2.2,0-3.3-0.2l1.6,2.9c0,0-15.8,16.8-19,25.9c6.1-9,13-17.4,20.5-25.2
	l-1.8-2.8l3.2,0.6L166,148.3z"/>
<path class="st5" d="M140.2,144.3l-0.8,1l1,0.9l-3,2.6c0,0-0.8,18.4,2.7,30.7c0,0-4.8-11.2-3.7-31.2l3.1-2.1l-1-1L140.2,144.3z"/>
<path class="st9" d="M150.1,246.1h0.1l-4.1-4.3c1.9,2.7-0.2,14.8-0.5,17.6s2.2,8.5,3.1,15.2s-0.9,16.3-0.9,16.3
	c1.3-0.8,2.1-2,2.4-3.5c1.4-6.3,0.9-18-0.6-22.9S150.1,246.1,150.1,246.1z"/>
<path class="st5" d="M160.5,209c8.9-0.1,20.1-29.3,21.4-35.3l0.6-3.2c-0.1,0.1-2.4,6.4-4.6,12s-14.1,22.7-20.1,23.8
	s-25.1-8.2-28.9-10c-0.4,2-0.2,2.1-0.2,2.1S151.6,209.1,160.5,209z"/>
<path class="st15" d="M157.6,133.7c0.4,0,0.8-0.3,0.9-0.7l0.4-2.5c0,0,1.4-3.4,4.2-2c0,0,1.8-2.4,1.3-7.6
	c-3.1,4.7-10.1,6.9-10.1,6.9l1.7,2.5c0.2,0.3,0.3,0.6,0.3,0.9v1.7c0.1,0.4,0.4,0.8,0.8,0.8H157.6z"/>
</svg>
