<?xml version="1.0" encoding="utf-8"?>
<!-- Generator: Adobe Illustrator 22.0.1, SVG Export Plug-In . SVG Version: 6.00 Build 0)  -->
<svg version="1.1" id="Слой_1" xmlns="http://www.w3.org/2000/svg" xmlns:xlink="http://www.w3.org/1999/xlink" x="0px" y="0px"
	 viewBox="0 0 565.5 400.5" style="enable-background:new 0 0 565.5 400.5;" xml:space="preserve">
<style type="text/css">
	.st0{clip-path:url(#SVGID_2_);}
	.st1{fill:url(#SVGID_3_);stroke:#F7F7F7;stroke-miterlimit:10;}
	.st2{fill:#006A96;}
	.st3{fill:#00A2E7;}
	.st4{fill:#0076A5;}
	.st5{fill:#0085BC;}
	.st6{fill:#F5F5F5;}
	.st7{fill:#FF5116;}
	.st8{fill:#C6C6C6;}
	.st9{fill:#00C6D1;}
	.st10{opacity:0.2;}
	.st11{fill:#171714;}
	.st12{fill:#69696B;}
	.st13{fill:#B0B0B0;}
	.st14{fill:#DADADA;}
	.st15{fill:#565655;}
	.st16{fill:#393938;}
	.st17{fill:#878787;}
	.st18{fill:#B2B2B2;}
	.st19{fill:#9D9D9C;}
	.st20{fill:#717070;}
	.st21{fill:#008CC6;}
	.st22{fill:#464645;}
	.st23{opacity:0.2;fill:#171714;enable-background:new    ;}
	.st24{fill:#FF4D0E;}
	.st25{fill:#9B9B9B;}
	.st26{fill:#D6D6D6;}
	.st27{fill:#FFCE9F;}
	.st28{fill:#FF7B3D;}
	.st29{fill:#005D77;}
	.st30{fill:#0D2D52;}
	.st31{fill:#123E6C;}
	.st32{fill:#EDEDED;}
	.st33{opacity:0.1;fill:#171714;enable-background:new    ;}
	.st34{fill:#EDF4F6;}
	.st35{opacity:0.3;fill:#171714;enable-background:new    ;}
	.st36{fill:#0F335A;}
	.st37{fill:#001A31;}
	.st38{fill:#00344E;}
	.st39{fill:#FFBB7A;}
	.st40{opacity:0.15;fill:#171714;enable-background:new    ;}
	.st41{opacity:0.5;fill:#171714;enable-background:new    ;}
	.st42{fill:#FF8000;}
	.st43{fill:#FFFFFF;}
	.st44{fill:#40403D;}
	.st45{fill:url(#SVGID_4_);}
	.st46{fill:url(#SVGID_5_);}
	.st47{fill:url(#SVGID_6_);}
	.st48{fill:url(#SVGID_7_);}
	.st49{fill:url(#SVGID_8_);}
	.st50{fill:url(#SVGID_9_);}
	.st51{fill:url(#SVGID_10_);}
	.st52{fill:url(#SVGID_11_);}
	.st53{fill:url(#SVGID_12_);}
	.st54{fill:url(#SVGID_13_);}
	.st55{fill:url(#SVGID_14_);}
	.st56{fill:url(#SVGID_15_);}
	.st57{fill:url(#SVGID_16_);}
	.st58{fill:url(#SVGID_17_);}
	.st59{fill:url(#SVGID_18_);}
	.st60{fill:url(#SVGID_19_);}
	.st61{fill:url(#SVGID_20_);}
	.st62{fill:url(#SVGID_21_);}
	.st63{fill:url(#SVGID_22_);}
	.st64{fill:url(#SVGID_23_);}
	.st65{fill:url(#SVGID_24_);}
	.st66{fill:url(#SVGID_25_);}
	.st67{fill:url(#SVGID_26_);}
	.st68{fill:url(#SVGID_27_);}
	.st69{fill:url(#SVGID_28_);}
	.st70{fill:url(#SVGID_29_);}
	.st71{fill:url(#SVGID_30_);}
	.st72{fill:url(#SVGID_31_);}
	.st73{fill:url(#SVGID_32_);}
	.st74{fill:url(#SVGID_33_);}
	.st75{fill:url(#SVGID_34_);}
	.st76{fill:url(#SVGID_35_);}
	.st77{fill:url(#SVGID_36_);}
	.st78{fill:url(#SVGID_37_);}
	.st79{fill:url(#SVGID_38_);}
	.st80{fill:url(#SVGID_39_);}
	.st81{fill:url(#SVGID_40_);}
	.st82{fill:url(#SVGID_41_);}
	.st83{fill:url(#SVGID_42_);}
	.st84{fill:#FFE390;}
	.st85{fill:#0097D6;}
</style>
<title>Металлообработка</title>
<g>
	<defs>
		<path id="SVGID_1_" d="M21.6,324.1c-8.8,40.8,76.2,65.7,126.7,66.2s124.5-7.6,157.8-16s114.5-6.9,164.6-30s40.8-52,77.5-103.6
			s-32-45.7-14.9-118.5s2.3-70-42.7-84.6S339.1-11.8,292.9,25.8s-101.5,40.8-168,78.5S73.1,168,28.1,192.7S36.4,275.4,21.6,324.1z"
			/>
	</defs>
	<clipPath id="SVGID_2_">
		<use xlink:href="#SVGID_1_"  style="overflow:visible;"/>
	</clipPath>
	<g class="st0">
		
			<linearGradient id="SVGID_3_" gradientUnits="userSpaceOnUse" x1="-227.4427" y1="28.5988" x2="643.8073" y2="531.6188" gradientTransform="matrix(1 0 0 -1 0 444.6141)">
			<stop  offset="2.000000e-02" style="stop-color:#FFFFFF"/>
			<stop  offset="0.15" style="stop-color:#FDE9CB;stop-opacity:0.92"/>
			<stop  offset="0.32" style="stop-color:#FACF8E;stop-opacity:0.82"/>
			<stop  offset="0.49" style="stop-color:#F7B95B;stop-opacity:0.74"/>
			<stop  offset="0.64" style="stop-color:#F5A834;stop-opacity:0.68"/>
			<stop  offset="0.79" style="stop-color:#F49C17;stop-opacity:0.64"/>
			<stop  offset="0.91" style="stop-color:#F39506;stop-opacity:0.61"/>
			<stop  offset="1" style="stop-color:#F39200;stop-opacity:0.6"/>
		</linearGradient>
		<rect x="-292.5" y="-60.9" class="st1" width="877.3" height="522.4"/>
		<polygon class="st2" points="471.7,122.2 507,101.8 507,24.3 471.7,44.7 		"/>
		<polygon class="st3" points="449.6,3.2 456.2,7 491.4,-13.4 484.8,-17.1 		"/>
		<polygon class="st4" points="471.7,122.2 449.6,109.5 449.6,3.2 456.2,7 471.7,44.7 		"/>
		<polygon class="st5" points="471.7,44.7 456.2,7 491.4,-13.4 507,24.3 		"/>
		<polygon class="st2" points="469.7,32.7 459.6,8.2 490.1,-9.4 500.2,15.1 		"/>
		<polygon class="st2" points="501.4,18.2 503.5,23.1 473,40.7 471,35.8 		"/>
		<polygon class="st6" points="473.1,27.4 494.8,14.9 486.7,-4.1 465,8.3 		"/>
		<polygon class="st7" points="485.8,-1.9 482.5,0 483.6,2.5 486.8,0.6 		"/>
		<polygon class="st8" points="481.8,0.4 478.5,2.3 479.6,4.7 482.9,2.9 		"/>
		<polygon class="st5" points="488.6,4.6 485.3,6.5 486.3,9 489.6,7.1 		"/>
		<polygon class="st8" points="484.6,6.9 481.3,8.8 482.4,11.3 485.7,9.4 		"/>
		<path class="st9" d="M478.3,4.5l2.4,5.6c0.4,0.8,0.1,1.7-0.6,2.2l-8.2,4.6c-0.6,0.4-1.3,0.2-1.7-0.4c-0.1-0.1-0.1-0.2-0.1-0.3
			l-2.5-5.7c-0.3-0.8,0-1.6,0.7-2.1l8.1-4.7c0.7-0.3,1.5,0,1.9,0.7C478.3,4.4,478.3,4.5,478.3,4.5z"/>
		<polygon class="st8" points="490,7.9 486.7,9.8 487.7,12.3 491,10.4 		"/>
		<polygon class="st7" points="482,12.4 474.8,16.5 475.9,19 483.1,14.9 		"/>
		<polygon class="st8" points="474.1,16.9 470.8,18.8 471.9,21.3 475.2,19.4 		"/>
		<polygon class="st7" points="491.4,11.1 488.1,13 489.1,15.5 492.4,13.6 		"/>
		<polygon class="st8" points="487.4,13.4 484.1,15.3 485.2,17.8 488.5,15.9 		"/>
		<polygon class="st5" points="479.5,17.9 476.2,19.8 477.2,22.3 480.5,20.4 		"/>
		<polygon class="st8" points="475.5,20.2 472.2,22.1 473.3,24.6 476.6,22.7 		"/>
		<g class="st10">
			<path class="st11" d="M499.4,67.7v2.9l-19.3,11.2v-2.9L499.4,67.7z M499.4,72.4l-19.3,11.2v2.9l19.3-11.2V72.4z M499.4,77.1
				l-19.3,11.2v2.9L499.4,80V77.1z M499.4,81.8L480.1,93v2.9l19.3-11.2L499.4,81.8z M499.4,86.5l-19.3,11.2v2.9l19.3-11.2V86.5z
				 M499.4,91.2l-19.3,11.2v2.9l19.3-11.2V91.2z"/>
		</g>
		<polygon class="st2" points="491.1,141.8 255.8,115 255.8,95.2 491.1,122.3 		"/>
		<path class="st12" d="M260.6,121.5l125.3,72.3c6.3,3.7,16.6,3.7,22.9,0l77.6-44.8c6.3-3.6,6.3-9.6,0-13.2L361.1,63.5
			c-6.3-3.7-16.6-3.7-22.9,0l-77.6,44.8C254.2,112,254.2,117.9,260.6,121.5z"/>
		<path class="st13" d="M260.6,101.9l125.3,72.2c6.3,3.7,16.6,3.7,22.9,0l77.6-44.8c6.3-3.6,6.3-9.6,0-13.2L361.1,43.8
			c-6.3-3.7-16.6-3.7-22.9,0l-77.6,44.8C254.2,92.3,254.2,98.2,260.6,101.9z"/>
		<polygon class="st2" points="410.5,89.3 378.8,71 378.8,-132 410.6,-113.6 		"/>
		<polygon class="st12" points="338.7,130.8 410.5,89.3 410.6,-113.6 306.9,-90.5 		"/>
		<polygon class="st14" points="467.6,70.9 478.3,64.8 430.2,37.1 419.6,43.2 		"/>
		<path class="st12" d="M389.2,43.2v82.7l0,0c0,4.9,3.2,9.7,9.6,13.4c12.7,7.4,33.5,7.4,46.2,0c6.4-3.7,9.6-8.5,9.6-13.4l0,0V43.2
			H389.2z"/>
		<polygon class="st15" points="410.9,103.5 410.9,119.2 362.9,91.5 362.9,75.8 		"/>
		<polygon class="st16" points="478.3,64.8 478.3,80.5 410.9,119.2 410.9,103.6 		"/>
		<polygon class="st17" points="421.6,80.3 421.6,97.4 373.6,69.7 373.6,52.5 		"/>
		<polygon class="st14" points="470.2,52.2 421.6,80.2 417.3,77.8 412.9,75.3 408.4,72.6 404.1,70.1 399.5,67.5 395.2,65 
			390.7,62.4 386.4,59.9 381.8,57.3 377.5,54.8 373.6,52.5 422.2,24.4 422.2,24.5 426.1,26.7 430.4,29.2 435,31.8 439.3,34.3 
			443.8,36.9 448.2,39.4 452.7,42.1 457,44.6 461.6,47.2 465.9,49.7 		"/>
		<polygon class="st18" points="470.2,52.2 470.2,69.4 421.6,97.4 421.6,80.3 		"/>
		<polygon class="st15" points="465.9,49.7 417.3,77.8 412.9,75.3 461.6,47.2 		"/>
		<polygon class="st15" points="457,44.6 408.4,72.6 404.1,70.1 452.7,42.1 		"/>
		<polygon class="st15" points="448.2,39.4 399.5,67.5 395.2,65 443.8,36.9 		"/>
		<polygon class="st15" points="439.3,34.3 390.7,62.4 386.4,59.9 435,31.8 		"/>
		<polygon class="st15" points="430.4,29.2 381.8,57.3 377.5,54.8 426.1,26.7 		"/>
		<polygon class="st16" points="417.3,80.6 417.3,77.8 412.9,75.3 412.9,78.1 		"/>
		<polygon class="st16" points="408.4,75.5 408.4,72.6 404.1,70.1 404.1,73 		"/>
		<polygon class="st16" points="399.5,70.4 399.5,67.5 395.2,65 395.2,67.9 		"/>
		<polygon class="st16" points="390.7,65.2 390.7,62.4 386.4,59.9 386.3,62.7 		"/>
		<polygon class="st16" points="381.8,60.1 381.8,57.3 377.5,54.8 377.5,57.6 		"/>
		<polygon class="st14" points="410.9,103.5 421.6,97.4 373.6,69.7 362.9,75.8 		"/>
		<path class="st14" d="M392.6,4.1c0-9.5-6.7-13.3-14.9-8.6s-14.8,16.3-14.8,25.7s6.7,13.3,14.8,8.6S392.6,13.5,392.6,4.1z"/>
		<rect x="372.5" y="9.9" transform="matrix(0.5 -0.866 0.866 0.5 177.9279 339.1064)" class="st16" width="20.2" height="11.2"/>
		<path class="st16" d="M384.9,8.5c0-4.5-3.2-6.4-7.2-4.1c-4.2,2.8-6.8,7.4-7.1,12.4c0,4.5,3.2,6.4,7.1,4.1
			C382,18.2,384.6,13.6,384.9,8.5z"/>
		<path class="st14" d="M394.6,14.1c0-4.5-3.2-6.4-7.2-4.1c-4.2,2.8-6.8,7.4-7.1,12.4c0,4.5,3.2,6.4,7.1,4.1
			C396,21.5,394.6,24.1,394.6,14.1z"/>
		<rect x="384.5" y="16.9" transform="matrix(0.5 -0.866 0.866 0.5 177.9712 349.4715)" class="st19" width="14.3" height="7.3"/>
		<path class="st19" d="M393.5,15.9c0-3.2-2.3-4.5-5-2.9c-3,1.9-4.9,5.2-5.1,8.8c0,3.2,2.3,4.5,5.1,2.9
			C391.4,22.7,393.3,19.4,393.5,15.9z"/>
		<path class="st14" d="M399.9,19.6c0-3.2-2.3-4.5-5.1-2.9c-3,1.9-4.9,5.2-5.1,8.7c0,3.2,2.3,4.5,5.1,2.9
			C397.8,26.4,399.7,23.1,399.9,19.6z"/>
		<rect x="395" y="20.5" transform="matrix(0.5 -0.866 0.866 0.5 177.8966 357.8864)" class="st19" width="7.7" height="8.8"/>
		<path class="st19" d="M397.8,21.1c0-1.7-1.2-2.4-2.7-1.6c-1.6,1-2.6,2.8-2.8,4.7c0,1.7,1.3,2.4,2.8,1.6
			C396.7,24.7,397.7,23,397.8,21.1z"/>
		<path class="st14" d="M405.3,25.5c0-1.8-1.2-2.5-2.7-1.6c-1.6,1.1-2.6,2.8-2.7,4.7c0,1.7,1.2,2.4,2.7,1.5
			C404.2,29.1,405.2,27.4,405.3,25.5z"/>
		<path class="st20" d="M406.5,23.6c0-3.1-2.2-4.4-4.9-2.8c-2.9,1.9-4.7,5-4.9,8.5c0,3.1,2.2,4.3,4.9,2.8
			C404.5,30.2,406.3,27,406.5,23.6z"/>
		<rect x="399" y="28.7" transform="matrix(0.5 -0.866 0.866 0.5 177.9284 371.1015)" class="st16" width="22.6" height="5.5"/>
		<path class="st16" d="M416,25.5c0-5.1-3.6-7.2-8-4.6s-8,8.7-8,13.8s3.6,7.2,8,4.7S416,30.6,416,25.5z"/>
		<path class="st20" d="M420.8,28.2c0-5.1-3.6-7.1-8-4.6c-4.7,3.1-7.7,8.3-8,13.9c0,5.1,3.5,7.2,8,4.6S420.8,33.3,420.8,28.2z"/>
		<path class="st14" d="M417.7,30.1c0-3.1-2.2-4.4-4.9-2.8c-2.9,1.8-4.7,5-4.9,8.4c0,3.2,2.2,4.4,4.9,2.9
			C415.7,36.7,417.5,33.5,417.7,30.1z"/>
		<path class="st16" d="M415.1,31.6c0-1.5-1-2.1-2.3-1.3c-1.3,0.9-2.2,2.3-2.3,3.9c0,1.5,1.1,2.1,2.3,1.4
			C414.1,34.7,415,33.2,415.1,31.6z"/>
		<polygon class="st19" points="399.6,46.8 415.6,56 415.6,66.1 399.6,56.9 		"/>
		<polygon class="st14" points="433.7,27.1 449.7,36.3 415.6,56 399.6,46.8 		"/>
		<polygon class="st17" points="449.7,46.4 449.7,36.3 415.6,56 415.6,66.1 		"/>
		<rect x="415.5" y="30.1" class="st17" width="17.1" height="11.1"/>
		<ellipse class="st17" cx="424.1" cy="41.2" rx="8.5" ry="4.9"/>
		<ellipse class="st14" cx="424.1" cy="30.1" rx="8.5" ry="4.9"/>
		<path class="st17" d="M427.2,28.3c1.7,1,1.7,2.6,0,3.6c-1.9,1-4.3,1-6.2,0c-1.7-1-1.7-2.6,0-3.6C422.9,27.3,425.3,27.3,427.2,28.3
			z"/>
		<rect x="422.4" y="24.9" class="st16" width="2.2" height="6.6"/>
		<path class="st16" d="M424.3,31c0.4,0.3,0.4,0.7,0,0.9c-0.5,0.3-1,0.3-1.5,0c-0.5-0.2-0.5-0.6,0-0.9
			C423.3,30.8,423.8,30.8,424.3,31z"/>
		<path class="st15" d="M424.3,24.4c0.4,0.3,0.4,0.7,0,0.9c-0.5,0.3-1,0.3-1.5,0c-0.5-0.2-0.5-0.6,0-0.9
			C423.3,24.2,423.8,24.2,424.3,24.4z"/>
		<polygon class="st19" points="428.7,24.3 418.7,24.3 417.1,13.6 430.3,13.6 		"/>
		<path class="st19" d="M427.2,22.3c2,1.1,2,2.9,0,4c-2.2,1.2-4.8,1.2-7,0c-2-1.1-2-2.9,0-4C422.4,21.1,425,21.1,427.2,22.3z"/>
		<path class="st16" d="M428.4,10.9c2.6,1.5,2.6,3.9,0,5.4c-3,1.5-6.4,1.5-9.4,0c-2.6-1.5-2.6-3.9,0-5.4
			C422,9.4,425.4,9.4,428.4,10.9z"/>
		<rect x="418.7" y="3.1" class="st14" width="10" height="8.6"/>
		<ellipse class="st14" cx="423.7" cy="11.8" rx="5" ry="2.9"/>
		<ellipse class="st19" cx="423.7" cy="3.1" rx="5" ry="2.9"/>
		<rect x="414.4" y="-8.2" class="st19" width="18.7" height="12.2"/>
		<path class="st19" d="M430.3,0.2c3.6,2.1,3.6,5.5,0,7.6c-4.1,2.1-9.1,2.1-13.2,0c-3.7-2.1-3.7-5.5,0-7.6
			C421.2-1.9,426.2-1.9,430.3,0.2z"/>
		<path class="st19" d="M430.3-12c3.6,2.1,3.6,5.5,0,7.6c-4.1,2.1-9.1,2.1-13.2,0c-3.7-2.1-3.7-5.5,0-7.6
			C421.2-14.1,426.2-14.1,430.3-12z"/>
		<rect x="410.5" y="-27" class="st16" width="26.4" height="17.3"/>
		<path class="st16" d="M433-15.1c5.2,3,5.2,7.8,0,10.8c-5.2,3-13.5,2.9-18.6,0s-5.2-7.8,0-10.8S427.9-18.1,433-15.1z"/>
		<path class="st19" d="M433-32.4c5.2,3,5.2,7.8,0,10.8s-13.5,3-18.6,0s-5.2-7.8,0-10.8S427.9-35.4,433-32.4z"/>
		<rect x="451.8" y="-64.1" class="st4" width="18" height="30.4"/>
		<path class="st4" d="M434.6-10.6l31-17.9c3.9-2.2,5.2-5.5,3.3-8.5l-13.2-20.8l-76.9-44.4l-71.9,11.7v29.7l77,44.5l36,7.6
			C425-7.6,430.8-8.4,434.6-10.6z"/>
		<path class="st21" d="M434.6-40.3l31-18c3.9-2.2,5.2-5.5,3.3-8.4l-13.2-20.9L378.8-132l-71.9,41.5l77,44.4l36,7.6
			C425-37.4,430.8-38.1,434.6-40.3z"/>
		<path class="st22" d="M383.9-46.1l-45.2-26.1l0,0l-31.8-18.3l0,0L289-41.8c-9.2,25-13.9,51.4-13.9,78v57.9l31.8,18.3l0,0
			l31.8,18.4V-42.4l45.2,26.1L383.9-46.1z"/>
		<path class="st23" d="M279.1,91.8V36.2c0-26.2,4.6-52.1,13.7-76.7L309-84.6l70.9,40.9v20.4l-45.2-26.1v173.2L279.1,91.8z"/>
		<rect x="410.2" y="-69.5" class="st16" width="26.9" height="6.5"/>
		<path class="st16" d="M433.2-68.5c5.3,3,5.3,8,0,11s-13.8,3-19,0s-5.3-8,0-11S427.9-71.5,433.2-68.5z"/>
		<path class="st14" d="M433.2-75c5.3,3,5.3,7.9,0,11s-13.8,3-19,0s-5.3-8,0-11S427.9-78.1,433.2-75z"/>
		<path class="st19" d="M429.5-76.7c3.2,1.8,3.2,4.8,0,6.7c-3.7,1.8-7.9,1.8-11.6,0c-3.3-1.9-3.3-4.9,0-6.7
			C421.5-78.6,425.9-78.6,429.5-76.7z"/>
		<rect x="381.8" y="89.6" transform="matrix(0.866 -0.5 0.5 0.866 2.4849 204.9857)" class="st16" width="4" height="16.5"/>
		<path class="st16" d="M379.7,93.5c0-3.7,2.6-5.2,5.8-3.4c3.5,2.2,5.7,6,5.9,10.1c0,3.7-2.6,5.2-5.9,3.4
			C382.1,101.3,379.9,97.6,379.7,93.5z"/>
		<path class="st20" d="M376.2,95.5c0-3.7,2.7-5.2,5.9-3.4c3.4,2.3,5.6,6,5.8,10.1c0,3.7-2.6,5.3-5.8,3.4
			C378.7,103.3,376.5,99.6,376.2,95.5z"/>
		<path class="st16" d="M376.5,98c0-2.3,1.6-3.2,3.5-2.1c2.1,1.4,3.5,3.7,3.6,6.2c0,2.3-1.6,3.2-3.6,2.1
			C378,102.8,376.7,100.5,376.5,98z"/>
		<rect x="378.2" y="90.2" transform="matrix(0.866 -0.5 0.5 0.866 0.5548 203.0394)" class="st20" width="1.9" height="20.6"/>
		<path class="st15" d="M372.7,95.8c0-4.6,3.2-6.5,7.3-4.2c4.3,2.8,7,7.5,7.3,12.6c0,4.7-3.3,6.6-7.3,4.3
			C375.7,105.7,373,101,372.7,95.8z"/>
		<path class="st19" d="M371.1,96.8c0-4.7,3.2-6.6,7.3-4.2c4.3,2.8,7,7.5,7.2,12.6c0,4.6-3.2,6.5-7.2,4.2S371.1,101.4,371.1,96.8z"
			/>
		<path class="st14" d="M373.2,98c0-3.3,2.3-4.7,5.2-3c3,2,4.9,5.4,5.1,9c0,3.3-2.3,4.6-5.1,3C375.3,105,373.4,101.7,373.2,98z"/>
		<path class="st15" d="M377.3,100.4c0-0.7,0.5-1,1.1-0.7c0.6,0.5,0.9,1.2,1,1.9c0,0.7-0.5,0.9-1,0.6
			C377.8,101.8,377.4,101.1,377.3,100.4z"/>
		<rect x="364" y="96.8" transform="matrix(0.866 -0.5 0.5 0.866 0.2198 197.4009)" class="st16" width="8.9" height="2.9"/>
		<path class="st16" d="M371.2,95.4c0-0.6,0.5-0.9,1.1-0.6c0.6,0.4,0.9,1.1,1,1.8c0,0.7-0.5,0.9-1,0.6
			C371.7,96.8,371.2,96.1,371.2,95.4z"/>
		<path class="st15" d="M363.6,99.9c0-0.7,0.4-1,1-0.6c0.6,0.4,1,1.1,1,1.8c0,0.6-0.4,0.9-1,0.6C364,101.3,363.6,100.6,363.6,99.9z"
			/>
		<rect x="438.9" y="77.5" transform="matrix(0.5 -0.866 0.866 0.5 155.9036 431.0539)" class="st16" width="24.7" height="6"/>
		<path class="st16" d="M457.4,73.9c0-5.5-3.9-7.8-8.7-5s-8.8,9.6-8.8,15.1s3.9,7.8,8.8,5.1S457.4,79.5,457.4,73.9z"/>
		<path class="st20" d="M462.6,76.9c0-5.5-3.9-7.8-8.7-5s-8.8,9.6-8.8,15.1s3.9,7.8,8.8,5.1S462.6,82.5,462.6,76.9z"/>
		<path class="st16" d="M462.3,80.7c0-3.4-2.4-4.8-5.4-3.1c-3.1,2.1-5.1,5.5-5.3,9.2c0,3.4,2.4,4.8,5.3,3.1
			C460.1,87.9,462.1,84.5,462.3,80.7z"/>
		<rect x="442.9" y="83.1" transform="matrix(0.5 -0.866 0.866 0.5 155.9753 439.1305)" class="st20" width="30.8" height="2.8"/>
		<path class="st15" d="M467.9,77.5c0-7-4.9-9.8-10.9-6.3s-10.9,11.9-10.9,18.9s4.9,9.7,10.9,6.2S467.9,84.4,467.9,77.5z"/>
		<path class="st19" d="M470.3,78.8c0-6.9-4.9-9.7-10.9-6.2s-10.9,11.9-10.9,18.8s4.9,9.8,10.9,6.3S470.3,85.8,470.3,78.8z"/>
		<path class="st14" d="M467.2,80.7c0-5-3.5-7-7.8-4.5c-4.6,3-7.4,8-7.7,13.4c0,5,3.4,7,7.7,4.5S467.2,85.6,467.2,80.7z"/>
		<path class="st15" d="M461,84.2c0-1-0.7-1.4-1.6-0.9c-1,0.6-1.6,1.7-1.6,2.8c0,1,0.7,1.4,1.6,0.9C460.3,86.4,460.9,85.3,461,84.2z
			"/>
		<rect x="472" y="74.4" transform="matrix(0.5 -0.866 0.866 0.5 166.9598 451.2202)" class="st16" width="4.4" height="13.3"/>
		<path class="st16" d="M470.1,76.8c0-0.9-0.7-1.3-1.6-0.9c-0.9,0.6-1.4,1.6-1.5,2.7c0,1,0.7,1.4,1.5,0.9
			C469.4,78.9,470,77.9,470.1,76.8z"/>
		<path class="st15" d="M481.6,83.5c0-1-0.7-1.4-1.6-0.9c-0.9,0.6-1.4,1.6-1.5,2.7c0,1,0.7,1.4,1.5,0.9
			C480.9,85.6,481.5,84.6,481.6,83.5z"/>
		
			<rect x="678.7" y="202.1" transform="matrix(0.8686 -0.4955 0.4955 0.8686 -10.8825 375.5444)" class="st15" width="48.1" height="12.4"/>
		<path class="st19" d="M792.7,113.3c0.3,1.5,3.2,1.3,2.9-0.4l-7-51.1l-2.9,0.4L792.7,113.3z"/>
		<path class="st24" d="M783.5,61.2c0.2,1.9,1.9,3.3,3.8,3.1c0.1,0,0.1,0,0.2,0c2-0.3,3.4-2.1,3.1-4c0,0,0,0,0-0.1
			c-0.5-1.9-2.4-3.1-4.3-2.7C784.6,57.9,783.4,59.5,783.5,61.2z"/>
		<path class="st16" d="M719.5,161.4c-0.1,10.1-7.3,22.4-16.1,27.5s-15.9,0.9-15.9-9.3s7.3-22.5,16.1-27.5S719.5,151.2,719.5,161.4z
			"/>
		
			<rect x="685.9" y="167.2" transform="matrix(0.5045 -0.8634 0.8634 0.5045 201.455 697.4043)" class="st16" width="45" height="12"/>
		<path class="st25" d="M724.1,170.7c0-6.4-4.5-9.1-10.2-5.9s-10.2,11.1-10.2,17.6s4.5,9.1,10.1,5.9S724,177.2,724.1,170.7z"/>
		<path class="st16" d="M729.8,167.4c0.1-10.1-7-14.3-15.8-9.2s-16.1,17.3-16.1,27.5s7.1,14.3,15.9,9.2S729.8,177.6,729.8,167.4z
			 M723.7,170.9c0,6.3-4.5,13.9-9.9,17s-9.8,0.5-9.8-5.7s4.5-13.9,9.9-17S723.7,164.7,723.7,170.9z"/>
		<path class="st26" d="M720,173c0.1-3.9-2.7-5.5-6.1-3.5c-3.6,2.3-6,6.3-6.2,10.6c0,3.9,2.7,5.5,6.1,3.6
			C717.5,181.3,719.8,177.3,720,173z"/>
		<path class="st27" d="M777.7,51.3l1.7-0.5c0.7-0.2,4.9-0.4,5.7-0.5s3.1,0.4,6.8,1.3c0.5,0.2,0.9,0.5,1.1,0.9
			c0.2,0.4-0.1,1.1-0.6,1.1c1-0.1,1.9,0.5,2.3,1.5c0.2,0.5,0,1.3-0.5,1.3c0.7-0.1,1.2,0.4,1.3,1.1c0,0,0,0.1,0,0.1
			c-0.1,0.7-0.6,1.2-1.3,1.3c0.6,0.1,1,0.7,0.9,1.3c0,0,0,0,0,0c-0.2,0.6-0.7,1-1.3,1.1c-0.6,0.1-1.2,0-1.8-0.1
			c-2.8-0.6-4.4-1.4-5.7-1.1l-5.1,1.1l-2.8,0.8c-6.1,1.2-10.7-6.6-3.3-9.8L777.7,51.3z"/>
		<path class="st28" d="M737.9,66.7c1.1,4,6.4,8.6,10.5,7.4h0.4l4.2-1.2l2.6-0.7l11.5-3.3l3.3-1c3.3-0.9,5.1-2.1,5.5-4.1
			c0.1-0.2,0.1-0.4,0.1-0.6c0.1-0.3,0.1-0.6,0-0.9c0,0-0.3-5.8-3-8.5c-1.3-1.4-3.3-1.8-5.1-1.1l-17.5,5.1l-5.6,1.6l-0.7,0.2
			c-1,0.3-2.1,0.3-3.1,0c-2-0.2-3.6-0.6-4,1.2c0,1.6,0.2,3.3,0.6,4.9C737.7,66,737.8,66.4,737.9,66.7z"/>
		<polygon class="st16" points="729.7,83.5 739.2,121.6 805.4,83.9 805.2,109.7 681.3,179.9 681.4,154.1 681.7,110.5 		"/>
		<polygon class="st19" points="681.7,110.5 681.3,179.9 751.3,220.9 751.7,151.4 		"/>
		<polygon class="st18" points="739.2,121.6 805.4,83.9 875.4,124.9 809.2,162.6 		"/>
		<polygon class="st15" points="815,91.1 864.6,120.1 864.9,79.2 815.3,50.2 		"/>
		<polygon class="st16" points="846.9,89.4 864.9,79.2 864.6,120.1 846.7,130.3 		"/>
		<polygon class="st15" points="797.1,101.3 846.7,130.3 846.9,89.5 797.3,60.4 		"/>
		<polygon class="st20" points="815.3,50.2 864.9,79.2 846.9,89.5 797.3,60.4 		"/>
		<path class="st16" d="M777.1,118.1l12,4.2c7.6-1.1,12.3,1.8,11.8,6l0,0c-0.1,0.9-0.8,3-2.1,3.6l-13.8,6c-2.7,1.1-5.8,0.7-8.3-0.9
			c-1.1-0.8-1.5-3.1-1.3-4l0,0L777.1,118.1z"/>
		<path class="st29" d="M788.1,115.4c4.5,0.4,6.1,3.7,3.5,7.4c-3.1,4-7.9,6.3-12.9,6.1c-4.5-0.3-6.1-3.7-3.5-7.4
			C778.3,117.5,783.1,115.2,788.1,115.4z"/>
		<path class="st30" d="M774.2,126.3c-6-13.8-16.6-45.5-16.4-47.4s0.7-5.4,1.9-7.2s3.9-5.2,6.9-5.8c3.6-0.8,7.4,0.7,9.4,3.8
			c2.1,3.1,16.2,45.8,16.4,47.9s0.2,2.1-1.5,3.5L774.2,126.3z"/>
		<path class="st16" d="M797.6,130.1l12,4.2c7.6-1.1,12.3,1.8,11.8,6l0,0c0,0.9-0.7,3-1.9,3.5l-13.8,6.1c-2.8,1-5.8,0.6-8.3-0.9
			c-1-1.1-1.5-2.5-1.4-4h-0.1L797.6,130.1z"/>
		<path class="st31" d="M808.6,127.4c4.5,0.4,6.1,3.7,3.5,7.4c-3.1,4-7.9,6.3-12.9,6.1c-4.5-0.3-6.1-3.7-3.5-7.4
			S804.1,127,808.6,127.4z"/>
		<path class="st31" d="M794.7,138.3c-6-13.8-16.6-45.5-16.4-47.4s0.7-5.4,1.9-7.2s3.9-5.2,6.9-5.8c3.6-0.8,7.4,0.7,9.5,3.8
			c2,3.1,16.1,45.8,16.3,47.9c0.2,2.1,0.3,2.1-1.4,3.5L794.7,138.3z"/>
		<path class="st16" d="M860.7,157.6c0,10.2-7.2,22.5-16,27.5s-16,0.9-15.9-9.2s7.2-22.5,16.1-27.5S860.8,147.5,860.7,157.6z"/>
		
			<rect x="827.1" y="163.5" transform="matrix(0.5045 -0.8634 0.8634 0.5045 274.6137 817.5319)" class="st16" width="45" height="12"/>
		<path class="st25" d="M865.3,167c0.1-6.4-4.5-9.1-10.1-5.9S845,172.2,845,178.6s4.5,9.2,10.1,6S865.3,173.5,865.3,167z"/>
		<path class="st16" d="M871.1,163.7c0.1-10.1-7-14.3-15.9-9.2s-16,17.3-16,27.5s7,14.3,15.9,9.2S871.1,173.9,871.1,163.7z
			 M865,167.2c0,6.3-4.5,13.9-9.9,17s-9.8,0.5-9.8-5.7s4.5-13.9,9.9-17S865,161,865,167.2z"/>
		<path class="st26" d="M861.3,169.3c0-3.9-2.7-5.5-6.1-3.6c-3.6,2.3-5.9,6.3-6.2,10.6c0,4,2.7,5.6,6.1,3.6
			C858.7,177.6,861.1,173.6,861.3,169.3z"/>
		<path class="st16" d="M785.7,199.9c0,10.2-7.2,22.5-16,27.5s-16,0.9-15.9-9.2s7.2-22.5,16-27.5S785.8,189.8,785.7,199.9z"/>
		
			<rect x="752.2" y="205.8" transform="matrix(0.5045 -0.8634 0.8634 0.5045 200.9756 773.8047)" class="st16" width="45" height="12"/>
		<path class="st25" d="M790.3,209.3c0.1-6.5-4.5-9.1-10.1-5.9s-10.2,11-10.3,17.5s4.5,9.1,10.2,5.9S790.3,215.8,790.3,209.3z"/>
		<path class="st16" d="M796.1,206c0.1-10.2-7.1-14.3-15.9-9.3s-16,17.4-16.1,27.5s7.1,14.3,15.9,9.3S796.1,216.1,796.1,206z
			 M790,209.5c-0.1,6.3-4.5,13.8-9.9,16.9s-9.8,0.6-9.8-5.7s4.4-13.8,9.9-16.9S790,203.2,790,209.5z"/>
		<path class="st26" d="M786.3,211.6c0-3.9-2.7-5.5-6.1-3.6c-3.6,2.3-5.9,6.3-6.2,10.6c-0.1,3.9,2.7,5.6,6.1,3.6
			C783.7,219.9,786.1,215.9,786.3,211.6z"/>
		<polygon class="st20" points="799.8,124.5 809.2,162.6 875.4,124.9 875.3,150.7 751.3,220.9 751.5,195.1 751.7,151.4 		"/>
		<polygon class="st8" points="681.7,110.5 729.7,83.5 799.8,124.5 751.7,151.4 		"/>
		<path class="st23" d="M728.1,90.4c0,0,0,21.1,0.7,24.1c0.6-0.4,1.2-0.9,1.8-1.4c-0.2-0.4-0.2-0.9-0.2-1.4v-1.6l0,0
			c0,0,0.1-2,0.2-5.2v-4l0,0c0-0.1,0.1-0.3,0.1-0.4c0.2-6.7,1.2-18.8,1.8-28.2c0.1-3,0.3-5.7,0.4-7.9c-0.2,0.6-0.5,2.1-0.9,4.1
			s-0.4,2.1-0.7,3.3C730,79.5,728.1,90.4,728.1,90.4z"/>
		<path class="st19" d="M752.9,97.1l-35.4,20.2c-1.6,0.9-3,0.2-2.9-1.7l0,0c0.3-4.8,2.8-9.2,6.8-11.8l31.5-17.9c1.7-1,3-0.2,3,1.7
			v4.6C755.7,94.2,754.6,96,752.9,97.1z"/>
		<polygon class="st19" points="747.3,136.2 715.1,117.3 754.9,85.5 787.2,104.5 		"/>
		<path class="st16" d="M784.9,115.9l-35.4,20.2c-1.6,0.9-2.9,0.1-2.9-1.8l0,0c0.3-4.8,2.8-9.1,6.9-11.7l31.5-18
			c1.6-0.9,2.9-0.1,2.9,1.8v4.5C787.7,112.9,786.6,114.8,784.9,115.9z"/>
		<polygon class="st31" points="786.2,78.1 793.7,95.4 746.6,121.7 731.6,101.5 		"/>
		<path class="st31" d="M720.9,52.5c0,0.2-0.1,39.7,0,40.2s41.7,4.9,41.9,3.6l0,0l0.4-34C761.5,58.2,731.7,48.4,720.9,52.5z"/>
		<polygon class="st32" points="696.5,183.1 724.6,199.5 724.7,177 696.7,160.6 		"/>
		<path class="st28" d="M720.9,52.5l1.4,1c1.8,1.3,3.7,2.7,5.7,4c3.1,2.1,6.4,3.9,9.8,5.4c1.8,0.8,3.7,1.4,5.6,1.9
			c4.2,0.9,8.3,0.8,12-1.2c4.8-4.7,6.4-10.8,7.8-16.8v-3.4c0-1.1-1.4-2.6-3.7-4.2c-2-1.5-4.2-2.8-6.4-4c-4.4-2.5-9.5-5-13.6-6.8
			s-5.6-2.4-7-2.9l-1.1-0.3c-10.9-0.1-10.4,14.7-10.3,13.7C721.1,39.8,720.9,52.2,720.9,52.5z"/>
		<path class="st28" d="M751,51l0.4,0.8l1.7,3.4l10.8,22.1c0.3,0.6,0.6,1.1,1.1,1.6l0.7,0.8c2,1.7,4.6,2.3,7.1,1.6l1.3-0.5l1.9-1.3
			c1-1,1.7-2.2,2.1-3.5c0.4-1.7,0.3-3.5-0.3-5.1l-0.2-0.3l-0.5-1.1l-0.8-1.5l-8.5-17.3l-3.1-6.4c-1.6-3.3-5.4-5-9-4l-1.2,0.5
			C750.7,42.6,749.1,47.2,751,51C751,51,751,51,751,51z"/>
		<path class="st31" d="M737.6,65.4l5.8-0.2v-0.4c0.2-3.8,4.5-16.5,8.6-21.4c1.9-2.3,4.6-3.8,7.6-4.2c-2-1.5-4.2-2.8-6.4-4
			c-2.2,1.1-4.2,2.6-5.7,4.5c-4.1,5.1-8.7,16.9-9.7,23.2C737.6,63.7,737.6,64.6,737.6,65.4z"/>
		<path class="st31" d="M722.2,57.9l5.8-0.2v-0.2c-0.2-4.4,0.7-14.9,3.6-21.4c1.8-4,4.3-6.6,7.5-7.6h0.5c-3-1.4-5.6-2.4-7-2.9
			c-2.8,2.2-4.9,5.1-6.3,8.3c-2.7,6-3.7,14.2-4,19.7C722.2,55,722.1,56.5,722.2,57.9z"/>
		<path class="st20" d="M710.8,113.9l-7.1-60.2c-0.2-1.6,0.5-3.3,1.5-3.7l3.8-1.5c1.1-0.5,2.3,0.6,2.5,2.3l7.2,59.2
			c0.3,1.3-0.2,2.7-1.3,3.5l-3.8,2.5C712.4,116.8,711,115.8,710.8,113.9z"/>
		<polygon class="st20" points="745.1,69.2 710.3,48.6 712,116.1 747,136.6 		"/>
		<path class="st16" d="M745.9,134.6l-7.1-60.2c-0.2-1.7,0.5-3.3,1.6-3.7l3.7-1.5c1.2-0.5,2.3,0.6,2.5,2.3l7.2,59.2
			c0.3,1.3-0.2,2.6-1.2,3.5l-3.9,2.5C747.5,137.5,746.2,136.5,745.9,134.6z"/>
		<path class="st27" d="M742.4,14c-0.2,2.2-0.3,4.5-0.1,6.7c0.2,2.3,1,4.5,2.3,6.4c1.5,2,3.8,3.4,6.3,3.9h2.3c0.8,0,1.6-0.2,2.3-0.6
			c1-0.7,1.9-1.7,2.4-2.8l0,0l0.3-0.7c2.3-5.9,3.7-12.2,3.9-18.6c0.1-1,0-1.9-0.1-2.9c-0.8-2.7-3-4.9-5.8-5.5
			c-2.8-0.5-5.6-0.2-8.2,0.8c-0.8,0.2-1.5,0.5-2.1,1c-0.6,0.4-1,1-1.6,1.5S742.6,10.6,742.4,14z"/>
		<path class="st33" d="M747.7,26.5c-0.1,1.3-0.2,2.7-0.4,4.1c0,0.3,0,0.5,0.1,0.8c0,0.2,0.1,0.3,0.2,0.4c0.8,0.2,1.6,0.2,2.4,0.2
			c0.8-0.1,1.5-0.3,2.2-0.7c1.1-0.7,1.9-1.6,2.4-2.8l0,0c-2.9,2.2-4.3-0.1-4.1-7.3C749.7,24.5,748.2,23.1,747.7,26.5z"/>
		
			<rect x="735" y="15.4" transform="matrix(0.1184 -0.993 0.993 0.1184 633.7734 760.4666)" class="st27" width="20.4" height="15.8"/>
		<path class="st27" d="M739.1,29.2c-3.2,1.4-3.6,4.2-0.7,6.4c3.3,2.2,7.4,2.7,11.1,1.3c3.3-1.4,3.6-4.3,0.7-6.4
			C746.9,28.2,742.8,27.8,739.1,29.2z"/>
		<path class="st16" d="M758.8,9.3c-2.3,1.2-3.9,3.5-4.3,6.1c-0.6,2.6-0.5,5.3-1.1,8s-1.9,5.3-4.3,6.3c-1.8,0.7-3.7,0.8-5.6,0.4
			c-2.4-0.3-5.6-0.8-6.3-3.2c-8.7-31.4,10.4-31.1,12.7-31.1c7.9,0.3,16.9,6.3,12.4,12.1C761.6,8.7,759.7,8.9,758.8,9.3z"/>
		<path class="st27" d="M753.9,14.2c0.8,0.2,1.4,0.9,1.5,1.8c0.2,1,0.1,2-0.1,2.9c0,1.3-0.4,2.5-1.1,3.6c-0.2,0.3-0.5,0.5-0.8,0.6
			c-0.5,0.1-1.1-0.1-1.4-0.6c-0.3-0.5-0.4-1-0.4-1.5c-0.1-1.5-0.1-2.9,0.1-4.4c0-0.6,0.3-1.2,0.6-1.7
			C752.6,14.4,753.3,14.1,753.9,14.2z"/>
		<path class="st16" d="M758.5,156.8c0,1.3,0.9,1.9,2.1,1.2l15.2-8.7c1.3-0.8,2.1-2.1,2.2-3.6l0,0c0-1.4-1-1.9-2.1-1.3l-15.3,8.7
			C759.3,153.9,758.6,155.3,758.5,156.8L758.5,156.8z"/>
		<path class="st16" d="M758.4,165.1c0,1.4,1,1.9,2.1,1.3l15.3-8.7c1.3-0.8,2-2.2,2.1-3.7l0,0c0-1.3-0.9-1.9-2.1-1.2l-15.2,8.7
			C759.3,162.3,758.5,163.6,758.4,165.1L758.4,165.1z"/>
		<path class="st16" d="M758.4,173.5c0,1.3,0.9,1.9,2.1,1.2l15.2-8.7c1.3-0.8,2.1-2.1,2.2-3.6l0,0c0-1.4-1-1.9-2.1-1.3l-15.3,8.7
			C759.2,170.6,758.5,172,758.4,173.5L758.4,173.5z"/>
		<path class="st16" d="M758.3,181.8c0,1.4,1,1.9,2.1,1.3l15.3-8.7c1.3-0.8,2-2.2,2.1-3.7l0,0c0-1.3-0.9-1.9-2.1-1.2l-15.2,8.7
			C759.2,179,758.4,180.3,758.3,181.8L758.3,181.8z"/>
		<path class="st30" d="M771.2,8.6c0.3,1.3-1,2.6-2.3,3.2s-7.5,1.1-8.9,1.2c0.8-1.5,1.4-4.3,0.4-5.7s-7.5-4.9-9.2-4.8
			c1.9-1.1,8.8-2.5,10.9-1.9S769.9,3.1,771.2,8.6z"/>
		<path class="st32" d="M735.4,6.9c0.6,1.2,1.6,2.3,2.7,3.1c1.2,1,2.6,1.8,4.1,2.4v2c-1-0.4-2-0.8-3-1.3c-1.7-0.9-3-2.3-3.8-4.1
			L735.4,6.9z"/>
		<path class="st31" d="M735,6.8L735,6.8c-0.1,1.4,0.4,2.8,1.2,3.9V8.8c0-1.5,1-2,2.2-1.3c1.3,0.9,2.1,2.3,2.2,3.9v2.5
			c5.8,2.7,14,2.5,19.3-0.5c2.8-1.6,4.2-3.6,4.3-5.7h0.1c0.2-2.8-0.3-5.7-1.4-8.3c-0.4-0.7-0.8-1.4-1.3-2.1l-1.3-1.4
			c-2.7-2.4-7.5-3.4-11.2-3.3c-1.6,0-3.2,0.3-4.7,0.9h-0.1c-1.6,0.7-3.2,1.6-4.5,2.7c-0.8,0.6-1.5,1.4-2,2.2l0,0
			C736.1,0.9,735.1,3.8,735,6.8z"/>
		<path class="st23" d="M746.8,10.1c1.6-7.4,8.7-12.1,16.1-10.7c-0.4-0.7-0.8-1.4-1.3-2.1h-0.3c-3.6-0.1-7.1,1.2-9.9,3.5
			C748.6,3.1,746.9,6.5,746.8,10.1z"/>
		<path class="st23" d="M736.8,3.2c0.8-3.9,3.2-7.3,6.7-9.2l0.8-0.4c-1.6,0.7-3.2,1.6-4.5,2.7c-0.8,0.6-1.5,1.4-2,2.2l0,0
			C737.1,0,736.8,1.6,736.8,3.2z"/>
		<path class="st15" d="M814.1,122c-2.4,1.4-2.4,3.6,0,5c2.7,1.4,6,1.5,8.7,0.1c2.4-1.4,2.4-3.6,0-5
			C820.1,120.7,816.9,120.7,814.1,122z"/>
		<path class="st19" d="M816.6,123.8c0.3,1.5,3.2,1.3,3-0.4l-7.1-51.1l-2.9,0.4L816.6,123.8z"/>
		<path class="st24" d="M807.4,71.7c0.3,2,2.1,3.4,4,3.1c0,0,0,0,0.1,0c2-0.3,3.3-2.1,3.1-4.1c-0.4-1.9-2.1-3.3-4.1-3.1
			C808.5,67.9,807.1,69.7,807.4,71.7C807.4,71.7,807.4,71.7,807.4,71.7z"/>
		<path class="st27" d="M803.7,72.2h1.2L807,72l5.2,0.2c1.4,0,2.8,1.2,5.4,2.3l0.5,0.3l1.2,0.2c0.6,0.1,1.2-0.2,1.5-0.7
			c0.2-0.6,0-1.2-0.6-1.5c0.7,0.1,1.3-0.3,1.5-0.9c0.2-0.6-0.1-1.2-0.6-1.4c-0.1,0-0.2-0.1-0.3-0.1c0.5,0.1,0.9-0.6,0.8-1.1
			c-0.1-1-0.9-1.9-1.9-2c0.5,0.1,0.9-0.5,0.8-1c-0.1-0.4-0.4-0.8-0.8-1.1c-3.4-1.7-5.1-2.6-6.3-2.8h-0.7l-5-0.8h-1.8l-2.7,0.3
			l-1.3,0.3C795.7,64.3,798.1,71.6,803.7,72.2z"/>
		<path class="st27" d="M813.2,60.1c0.4,0.7,0.2,1.5-0.3,2c-0.5,0.5-1.2,0.9-1.9,1.2c-0.7,0.2-1.3,0.5-1.9,0.9
			c-0.8,0.5-1.6,0.9-2.5,1.2c-0.9,0.3-2,0-2.7-0.6c-0.5-0.5-0.7-1.2-0.7-1.9c0-0.4,0.1-0.8,0.4-0.9h0.4c1.8,0,3.6-0.4,5.2-1.2l2-1.1
			C811.9,59.4,812.7,59.6,813.2,60.1z"/>
		<path class="st28" d="M763.5,76.1c1.2,4.1,6.5,8.6,10.5,7.4h0.5l4.2-1.2l2.5-0.7l11.5-3.3l3.3-1c3.4-0.9,5.2-2.1,5.6-4.1
			c0.1-0.2,0.1-0.3,0.1-0.5v-1c0,0-0.3-5.8-3.1-8.5c-1.3-1.4-3.3-1.8-5-1.1l-17.5,5.1l-5.6,1.6l-0.7,0.2c-1.1,0.3-2.1,0.3-3.2,0
			c-1.9-0.2-3.5-0.6-3.9,1.2c-0.1,1.7,0.1,3.3,0.6,4.9C763.4,75.4,763.5,75.8,763.5,76.1z"/>
		<path class="st16" d="M696,249.2c0,10.1-7.2,22.5-16,27.5s-16,0.9-15.9-9.3s7.2-22.4,16.1-27.5S696.1,239,696,249.2z"/>
		
			<rect x="662.4" y="255" transform="matrix(0.5045 -0.8634 0.8634 0.5045 113.9546 720.7032)" class="st16" width="45" height="12"/>
		<path class="st25" d="M700.6,258.6c0.1-6.5-4.4-9.2-10.1-5.9s-10.2,11-10.2,17.5s4.5,9.1,10.1,5.9S700.6,265.1,700.6,258.6z"/>
		<path class="st16" d="M706.4,255.3c0.1-10.2-7-14.3-15.9-9.3s-16,17.4-16,27.5s7,14.3,15.9,9.3S706.4,265.4,706.4,255.3z
			 M700.3,258.8c0,6.2-4.5,13.8-9.9,16.9s-9.8,0.6-9.8-5.7s4.5-13.8,9.9-16.9S700.3,252.5,700.3,258.8L700.3,258.8z"/>
		<path class="st26" d="M696.6,260.9c0-3.9-2.7-5.6-6.1-3.6c-3.6,2.3-6,6.3-6.2,10.6c0,3.9,2.7,5.5,6.1,3.6
			C694,269.2,696.3,265.2,696.6,260.9z"/>
		<path class="st16" d="M486.4,292.2c-0.1,10.2-7.3,22.5-16.1,27.5s-15.9,0.9-15.9-9.2s7.3-22.5,16.1-27.5S486.4,282.1,486.4,292.2z
			"/>
		
			<rect x="453" y="298.1" transform="matrix(0.5045 -0.8634 0.8634 0.5045 -26.9526 561.1882)" class="st16" width="45" height="12"/>
		<path class="st25" d="M491,301.6c0-6.5-4.5-9.1-10.1-5.9s-10.3,11-10.3,17.5s4.5,9.1,10.1,5.9S490.9,308.1,491,301.6z"/>
		<path class="st16" d="M496.8,298.3c0-10.2-7.1-14.3-15.9-9.3s-16,17.4-16.1,27.5s7.1,14.3,15.9,9.3S496.7,308.4,496.8,298.3z
			 M490.6,301.8c0,6.2-4.4,13.8-9.9,16.9s-9.8,0.6-9.8-5.7s4.5-13.8,9.9-16.9S490.7,295.5,490.6,301.8z"/>
		<path class="st26" d="M487,303.9c0-3.9-2.8-5.5-6.2-3.6c-3.6,2.3-5.9,6.3-6.2,10.6c0,3.9,2.7,5.6,6.1,3.6S486.9,307.8,487,303.9z"
			/>
		<path class="st16" d="M552.6,330.8c0,10.1-7.2,22.4-16,27.5s-16,0.9-15.9-9.3s7.2-22.4,16-27.5S552.7,320.6,552.6,330.8z"/>
		
			<rect x="519.1" y="336.6" transform="matrix(0.5045 -0.8634 0.8634 0.5045 -27.4809 637.4027)" class="st16" width="45" height="12"/>
		<path class="st25" d="M557.2,340.2c0.1-6.5-4.5-9.2-10.1-6s-10.2,11.1-10.3,17.6s4.5,9.1,10.2,5.9S557.2,346.6,557.2,340.2z"/>
		<path class="st16" d="M563,336.9c0.1-10.2-7-14.3-15.9-9.3s-16,17.3-16,27.5s7,14.3,15.8,9.3S563,347,563,336.9z M556.9,340.4
			c-0.1,6.2-4.5,13.8-9.9,16.9s-9.8,0.5-9.8-5.7s4.5-13.8,9.9-16.9S556.9,334.1,556.9,340.4z"/>
		<path class="st26" d="M553.2,342.5c0-4-2.7-5.6-6.1-3.6c-3.6,2.3-6,6.3-6.2,10.6c0,3.9,2.7,5.5,6.1,3.6
			C550.6,350.8,552.9,346.8,553.2,342.5z"/>
		<polygon class="st20" points="721.1,237 512.5,355.6 433.4,309.3 433.5,292 642.1,190.7 721.2,219.6 		"/>
		<polygon class="st18" points="721.2,219.6 512.6,338.2 433.5,292 642.2,173.4 		"/>
		<polygon class="st19" points="611.8,189.6 631,200.9 630.9,220.3 611.7,209 		"/>
		<polygon class="st14" points="652.9,166.2 672.1,177.4 631,200.9 611.8,189.6 		"/>
		<polygon class="st17" points="672,196.8 672.1,177.4 631,200.9 630.9,220.3 		"/>
		
			<rect x="616" y="168.2" transform="matrix(5.236017e-03 -1 1 5.236017e-03 449.632 804.5468)" class="st19" width="26.5" height="16.1"/>
		<path class="st19" d="M635.2,186.4c3.2,1.8,3.1,4.8,0,6.6c-3.6,1.8-7.8,1.8-11.4-0.1c-3.2-1.8-3.2-4.8,0-6.6
			C627.4,184.5,631.6,184.6,635.2,186.4z"/>
		<path class="st14" d="M635.4,159.9c3.1,1.9,3.1,4.8-0.1,6.6c-3.6,1.8-7.8,1.8-11.4-0.1c-3.1-1.8-3.1-4.7,0-6.6
			C627.5,158,631.8,158.1,635.4,159.9z"/>
		
			<ellipse transform="matrix(9.999500e-03 -0.9999 0.9999 9.999500e-03 462.8856 796.5215)" class="st16" cx="633.7" cy="164.5" rx="2.9" ry="5.1"/>
		<path class="st16" d="M659.1,173.5c3.6,2.2,3.6,5.6-0.1,7.7c-4.2,2-9.1,2-13.2-0.1c-3.6-2.1-3.6-5.6,0.1-7.6
			C650,171.4,655,171.4,659.1,173.5z"/>
		
			<ellipse transform="matrix(9.999500e-03 -0.9999 0.9999 9.999500e-03 462.8856 796.5215)" class="st16" cx="633.7" cy="164.5" rx="2.9" ry="5.1"/>
		<path class="st16" d="M643,204.1c0-2.3-1.6-3.2-3.6-2.1c-2.1,1.4-3.5,3.7-3.7,6.2c0,2.3,1.6,3.2,3.6,2.1
			C641.5,209,642.8,206.6,643,204.1z"/>
		<path class="st16" d="M654.1,196.8c0-2.3-1.6-3.3-3.6-2.1c-2.1,1.4-3.5,3.7-3.6,6.2c0,2.3,1.6,3.2,3.6,2.1
			C652.6,201.6,654,199.3,654.1,196.8z"/>
		<polygon class="st19" points="648.3,211.6 667.5,222.8 667.4,242.2 648.2,231 		"/>
		<polygon class="st14" points="689.4,188.1 708.6,199.3 667.5,222.8 648.3,211.6 		"/>
		<polygon class="st17" points="708.5,218.8 708.6,199.3 667.5,222.8 667.4,242.2 		"/>
		
			<rect x="652.4" y="190.1" transform="matrix(5.236017e-03 -1 1 5.236017e-03 464.0163 862.8381)" class="st19" width="26.5" height="16.1"/>
		<path class="st19" d="M671.7,208.3c3.2,1.9,3.1,4.8,0,6.6c-3.6,1.8-7.8,1.8-11.4,0c-3.2-1.9-3.2-4.8,0-6.6
			C663.9,206.5,668.1,206.5,671.7,208.3z"/>
		<path class="st14" d="M671.9,181.8c3.1,1.9,3.1,4.8-0.1,6.6c-3.6,1.8-7.8,1.8-11.4,0c-3.1-1.9-3.1-4.8,0-6.6
			C664,180,668.3,180,671.9,181.8z"/>
		
			<ellipse transform="matrix(5.236017e-03 -1 1 5.236017e-03 477.2609 849.7133)" class="st16" cx="665.7" cy="185" rx="2.9" ry="5.1"/>
		<path class="st16" d="M695.6,195.5c3.6,2.1,3.6,5.5-0.1,7.6s-9.5,2-13.2-0.1s-3.6-5.5,0.1-7.6
			C686.6,193.3,691.5,193.3,695.6,195.5z"/>
		
			<ellipse transform="matrix(5.236017e-03 -1 1 5.236017e-03 477.2609 849.7133)" class="st16" cx="665.7" cy="185" rx="2.9" ry="5.1"/>
		<path class="st16" d="M679.5,226c0-2.3-1.6-3.2-3.6-2.1c-2.1,1.4-3.5,3.7-3.7,6.2c0,2.3,1.6,3.3,3.6,2.1
			C678,230.9,679.3,228.5,679.5,226z"/>
		<path class="st16" d="M690.6,218.7c0-2.3-1.6-3.2-3.6-2.1c-2.1,1.4-3.5,3.7-3.6,6.2c0,2.3,1.6,3.3,3.6,2.1
			C689.1,223.5,690.5,221.2,690.6,218.7z"/>
		<polygon class="st19" points="558.8,218.2 578,229.4 577.9,248.8 558.7,237.6 		"/>
		<polygon class="st14" points="599.9,194.7 619.1,205.9 578,229.4 558.8,218.2 		"/>
		<polygon class="st17" points="619,225.3 619.1,205.9 578,229.4 577.9,248.8 		"/>
		
			<rect x="563" y="196.8" transform="matrix(5.236017e-03 -1 1 5.236017e-03 368.3828 779.9692)" class="st19" width="26.5" height="16.1"/>
		<path class="st19" d="M582.2,214.9c3.2,1.9,3.1,4.8,0,6.6c-3.6,1.8-7.8,1.8-11.4-0.1c-3.2-1.8-3.2-4.7,0-6.5
			C574.4,213.1,578.6,213.1,582.2,214.9z"/>
		<path class="st14" d="M582.4,188.4c3.1,1.9,3.1,4.8-0.1,6.6c-3.6,1.8-7.8,1.8-11.4,0c-3.1-1.9-3.1-4.8,0.1-6.6
			C574.6,186.6,578.8,186.6,582.4,188.4z"/>
		
			<ellipse transform="matrix(5.236017e-03 -1 1 5.236017e-03 381.7269 766.9444)" class="st16" cx="576.3" cy="191.6" rx="2.9" ry="5.1"/>
		<path class="st16" d="M606.1,202.1c3.6,2.1,3.6,5.5-0.1,7.6s-9.5,2-13.2-0.1s-3.6-5.5,0.1-7.6C597.1,199.9,602,199.9,606.1,202.1z
			"/>
		
			<ellipse transform="matrix(5.236017e-03 -1 1 5.236017e-03 381.7269 766.9444)" class="st16" cx="576.3" cy="191.6" rx="2.9" ry="5.1"/>
		<path class="st16" d="M590,232.6c0-2.3-1.6-3.2-3.6-2.1c-2.1,1.4-3.5,3.7-3.6,6.2c-0.1,2.3,1.5,3.3,3.5,2.1
			C588.5,237.5,589.8,235.1,590,232.6z"/>
		<path class="st16" d="M601.1,225.3c0-2.3-1.6-3.2-3.6-2.1c-2.1,1.4-3.5,3.7-3.6,6.2c0,2.3,1.6,3.2,3.6,2.1
			C599.6,230.1,601,227.8,601.1,225.3z"/>
		<polygon class="st19" points="595.3,240.1 614.5,251.3 614.4,270.7 595.2,259.5 		"/>
		<polygon class="st14" points="636.4,216.7 655.6,227.9 614.5,251.3 595.3,240.1 		"/>
		<polygon class="st17" points="655.5,247.3 655.6,227.9 614.5,251.3 614.4,270.7 		"/>
		
			<rect x="599.5" y="218.7" transform="matrix(5.236017e-03 -1 1 5.236017e-03 382.7676 838.2599)" class="st19" width="26.5" height="16.1"/>
		<path class="st19" d="M618.7,236.8c3.2,1.9,3.1,4.8,0,6.6c-3.6,1.8-7.8,1.8-11.4,0c-3.2-1.9-3.2-4.8,0-6.6
			C610.9,235,615.1,235,618.7,236.8z"/>
		<path class="st14" d="M618.9,210.4c3.1,1.8,3.1,4.8-0.1,6.6s-8.2,1.7-11.4-0.1s-3.1-4.8,0-6.6C611,208.5,615.3,208.5,618.9,210.4z
			"/>
		
			<ellipse transform="matrix(9.999500e-03 -0.9999 0.9999 9.999500e-03 395.7552 830.0646)" class="st16" cx="617.1" cy="215.2" rx="2.9" ry="5.1"/>
		<path class="st16" d="M642.6,224c3.6,2.1,3.6,5.5-0.1,7.6c-4.2,2.1-9.1,2.1-13.2-0.1c-3.6-2.1-3.6-5.5,0.1-7.6
			S638.9,221.9,642.6,224z"/>
		
			<ellipse transform="matrix(9.999500e-03 -0.9999 0.9999 9.999500e-03 395.7552 830.0646)" class="st16" cx="617.1" cy="215.2" rx="2.9" ry="5.1"/>
		<path class="st16" d="M626.5,254.5c0-2.3-1.6-3.2-3.6-2.1c-2.1,1.4-3.5,3.8-3.7,6.3c0,2.3,1.6,3.2,3.6,2.1
			C625,259.4,626.3,257.1,626.5,254.5z"/>
		<path class="st16" d="M637.6,247.2c0-2.3-1.6-3.2-3.6-2.1c-2.1,1.4-3.5,3.7-3.6,6.2c0,2.3,1.6,3.3,3.6,2.1
			C636.1,252,637.5,249.7,637.6,247.2z"/>
		<polygon class="st19" points="505.8,246.7 525,257.9 524.9,277.3 505.7,266.1 		"/>
		<polygon class="st14" points="546.9,223.3 566.1,234.5 525,257.9 505.8,246.7 		"/>
		<polygon class="st17" points="566,253.9 566.1,234.5 525,257.9 524.9,277.3 		"/>
		
			<rect x="510" y="225.3" transform="matrix(5.236017e-03 -1 1 5.236017e-03 287.1342 755.3911)" class="st19" width="26.5" height="16.1"/>
		<path class="st19" d="M529.2,243.4c3.2,1.9,3.2,4.8,0,6.6c-3.6,1.8-7.8,1.8-11.4,0c-3.2-1.9-3.2-4.8,0-6.6
			C521.4,241.6,525.6,241.6,529.2,243.4z"/>
		<path class="st14" d="M529.4,217c3.1,1.8,3.1,4.7-0.1,6.6s-8.2,1.7-11.4-0.1s-3.1-4.8,0.1-6.6C521.6,215.1,525.8,215.1,529.4,217z
			"/>
		
			<ellipse transform="matrix(5.236017e-03 -1 1 5.236017e-03 300.3788 742.2663)" class="st16" cx="523.3" cy="220.2" rx="2.9" ry="5.1"/>
		<path class="st16" d="M553.1,230.6c3.6,2.1,3.6,5.5-0.1,7.6c-4.2,2.1-9.1,2.1-13.2-0.1c-3.6-2.1-3.6-5.5,0.1-7.6
			S549.4,228.5,553.1,230.6z"/>
		
			<ellipse transform="matrix(5.236017e-03 -1 1 5.236017e-03 300.3788 742.2663)" class="st16" cx="523.3" cy="220.2" rx="2.9" ry="5.1"/>
		<path class="st16" d="M537,261.1c0-2.3-1.6-3.2-3.6-2.1c-2.1,1.4-3.5,3.7-3.6,6.3c-0.1,2.2,1.6,3.2,3.5,2
			C535.5,266,536.8,263.6,537,261.1z"/>
		<path class="st16" d="M548.1,253.8c0-2.3-1.6-3.2-3.6-2.1c-2.1,1.4-3.5,3.7-3.6,6.2c0,2.3,1.6,3.3,3.6,2.1
			C546.6,258.6,548,256.3,548.1,253.8z"/>
		<polygon class="st19" points="542.3,268.6 561.5,279.8 561.4,299.2 542.2,288 		"/>
		<polygon class="st14" points="583.4,245.2 602.6,256.4 561.5,279.8 542.3,268.6 		"/>
		<polygon class="st17" points="602.5,275.8 602.6,256.4 561.5,279.8 561.4,299.2 		"/>
		
			<rect x="546.5" y="247.2" transform="matrix(5.236017e-03 -1 1 5.236017e-03 301.519 813.6818)" class="st19" width="26.5" height="16.1"/>
		<path class="st19" d="M565.7,265.4c3.2,1.8,3.1,4.8,0,6.6c-3.6,1.8-7.8,1.7-11.4-0.1c-3.2-1.8-3.2-4.8,0-6.6
			C557.9,263.5,562.1,263.5,565.7,265.4z"/>
		<path class="st14" d="M565.9,238.9c3.1,1.8,3.1,4.8-0.1,6.6c-3.6,1.8-7.8,1.8-11.4-0.1c-3.1-1.8-3.1-4.8,0.1-6.6
			C558.1,237,562.3,237,565.9,238.9z"/>
		
			<ellipse transform="matrix(5.236017e-03 -1 1 5.236017e-03 314.8627 800.6575)" class="st16" cx="559.9" cy="242.1" rx="2.9" ry="5.1"/>
		<path class="st16" d="M589.6,252.5c3.6,2.1,3.6,5.5-0.1,7.6c-4.1,2.1-9.1,2.1-13.2,0c-3.6-2.2-3.6-5.6,0.1-7.7
			C580.6,250.4,585.5,250.4,589.6,252.5z"/>
		
			<ellipse transform="matrix(5.236017e-03 -1 1 5.236017e-03 314.8627 800.6575)" class="st16" cx="559.9" cy="242.1" rx="2.9" ry="5.1"/>
		
			<ellipse transform="matrix(0.5045 -0.8634 0.8634 0.5045 36.3529 632.9761)" class="st16" cx="569.7" cy="284.8" rx="5.1" ry="2.9"/>
		<path class="st16" d="M584.6,275.8c0-2.3-1.6-3.3-3.6-2.1c-2.1,1.4-3.5,3.7-3.6,6.2c0,2.3,1.6,3.2,3.6,2.1
			C583.1,280.6,584.4,278.3,584.6,275.8z"/>
		<polygon class="st19" points="452.8,275.2 472,286.4 471.9,305.8 452.7,294.6 		"/>
		<polygon class="st14" points="493.9,251.8 513.1,263 472,286.4 452.8,275.2 		"/>
		<polygon class="st17" points="513,282.4 513.1,263 472,286.4 471.9,305.8 		"/>
		
			<rect x="457" y="253.7" transform="matrix(5.236017e-03 -1 1 5.236017e-03 205.9855 730.7135)" class="st19" width="26.5" height="16.1"/>
		<path class="st19" d="M476.2,272c3.2,1.8,3.2,4.8,0,6.6c-3.6,1.8-7.8,1.7-11.4-0.1c-3.2-1.8-3.2-4.8,0-6.6
			C468.4,270.1,472.6,270.1,476.2,272z"/>
		<path class="st14" d="M476.4,245.5c3.1,1.8,3.1,4.8-0.1,6.6c-3.6,1.8-7.8,1.8-11.4-0.1c-3.1-1.8-3.1-4.8,0.1-6.6
			C468.6,243.6,472.8,243.6,476.4,245.5z"/>
		
			<ellipse transform="matrix(5.236017e-03 -1 1 5.236017e-03 219.3308 717.4896)" class="st16" cx="470.3" cy="248.5" rx="2.9" ry="5.1"/>
		<path class="st16" d="M500.1,259.1c3.6,2.1,3.6,5.5-0.1,7.6c-4.1,2.1-9.1,2.1-13.2,0c-3.6-2.2-3.6-5.6,0.1-7.7
			C491.1,257,496,257,500.1,259.1z"/>
		
			<ellipse transform="matrix(5.236017e-03 -1 1 5.236017e-03 219.3308 717.4896)" class="st16" cx="470.3" cy="248.5" rx="2.9" ry="5.1"/>
		<path class="st16" d="M484,289.7c0-2.3-1.6-3.3-3.6-2.1c-2.1,1.4-3.5,3.7-3.6,6.2c-0.1,2.3,1.6,3.2,3.5,2.1
			C482.4,294.5,483.8,292.2,484,289.7z"/>
		<path class="st16" d="M495.1,282.3c0-2.2-1.6-3.2-3.6-2.1c-2.1,1.4-3.5,3.7-3.6,6.3c0,2.3,1.6,3.2,3.6,2.1
			C493.6,287.2,495,284.9,495.1,282.3z"/>
		<polygon class="st19" points="489.3,297.1 508.5,308.4 508.4,327.8 489.2,316.5 		"/>
		<polygon class="st14" points="530.4,273.7 549.6,284.9 508.5,308.4 489.3,297.1 		"/>
		<polygon class="st17" points="549.5,304.3 549.6,284.9 508.5,308.4 508.4,327.8 		"/>
		
			<rect x="493.5" y="275.7" transform="matrix(5.236017e-03 -1 1 5.236017e-03 220.3705 789.0042)" class="st19" width="26.5" height="16.1"/>
		<path class="st19" d="M512.7,293.9c3.2,1.8,3.2,4.8,0,6.6c-3.6,1.8-7.8,1.8-11.4-0.1c-3.2-1.8-3.2-4.8,0-6.6
			C504.9,292,509.1,292.1,512.7,293.9z"/>
		<path class="st14" d="M512.9,267.4c3.1,1.8,3.1,4.8-0.1,6.6c-3.6,1.8-7.8,1.8-11.4-0.1c-3.1-1.8-3.1-4.8,0.1-6.6
			S509.7,265.6,512.9,267.4z"/>
		
			<ellipse transform="matrix(5.236017e-03 -1 1 5.236017e-03 233.714 775.9799)" class="st16" cx="506.9" cy="270.5" rx="2.9" ry="5.1"/>
		<path class="st16" d="M536.6,281c3.6,2.2,3.6,5.6-0.1,7.7c-4.2,2-9.1,2-13.2-0.1c-3.6-2.1-3.6-5.6,0.1-7.6
			C527.5,278.9,532.5,278.9,536.6,281z"/>
		
			<ellipse transform="matrix(5.236017e-03 -1 1 5.236017e-03 233.714 775.9799)" class="st16" cx="506.9" cy="270.5" rx="2.9" ry="5.1"/>
		<path class="st16" d="M520.5,311.6c0-2.3-1.6-3.2-3.6-2.1c-2.1,1.4-3.5,3.7-3.6,6.2c-0.1,2.3,1.6,3.2,3.5,2.1
			C519,316.5,520.3,314.1,520.5,311.6z"/>
		
			<ellipse transform="matrix(0.5045 -0.8634 0.8634 0.5045 -2.742 607.3951)" class="st16" cx="527.8" cy="306.1" rx="5.1" ry="2.9"/>
		<polygon class="st19" points="612,153.7 631.2,164.9 631.1,184.3 611.9,173.1 		"/>
		<polygon class="st14" points="653.1,130.2 672.3,141.4 631.2,164.9 612,153.7 		"/>
		<polygon class="st17" points="672.2,160.8 672.3,141.4 631.2,164.9 631.1,184.3 		"/>
		
			<rect x="616.2" y="132.3" transform="matrix(5.236017e-03 -1 1 5.236017e-03 485.7199 769.0483)" class="st19" width="26.5" height="16.1"/>
		<path class="st19" d="M635.4,150.4c3.2,1.9,3.1,4.8,0,6.6c-3.6,1.8-7.8,1.8-11.4,0c-3.2-1.9-3.2-4.8,0-6.6
			C627.6,148.6,631.8,148.6,635.4,150.4z"/>
		<path class="st14" d="M635.6,123.9c3.1,1.9,3.1,4.8-0.1,6.6c-3.6,1.8-7.8,1.8-11.4,0c-3.1-1.9-3.1-4.8,0-6.6
			C627.7,122.1,632,122.1,635.6,123.9z"/>
		
			<ellipse transform="matrix(5.236017e-03 -1 1 5.236017e-03 499.0641 756.0235)" class="st16" cx="629.5" cy="127.2" rx="2.9" ry="5.1"/>
		<path class="st16" d="M659.3,137.6c3.6,2.1,3.6,5.5-0.1,7.6s-9.5,2-13.2-0.1s-3.6-5.5,0.1-7.6
			C650.3,135.4,655.2,135.4,659.3,137.6z"/>
		
			<ellipse transform="matrix(5.236017e-03 -1 1 5.236017e-03 499.0641 756.0235)" class="st16" cx="629.5" cy="127.2" rx="2.9" ry="5.1"/>
		<path class="st16" d="M643.2,168.1c0-2.3-1.6-3.2-3.6-2.1c-2.1,1.4-3.5,3.7-3.6,6.2c-0.1,2.3,1.5,3.3,3.5,2.1
			C641.7,173,643,170.6,643.2,168.1z"/>
		<path class="st16" d="M654.3,160.8c0-2.3-1.6-3.2-3.6-2.1c-2.1,1.4-3.5,3.7-3.6,6.2c0,2.3,1.6,3.2,3.6,2.1
			C652.8,165.6,654.2,163.3,654.3,160.8z"/>
		<polygon class="st19" points="648.5,175.6 667.7,186.8 667.6,206.2 648.4,195 		"/>
		<polygon class="st14" points="689.6,152.2 708.8,163.4 667.7,186.8 648.5,175.6 		"/>
		<polygon class="st17" points="708.7,182.8 708.8,163.4 667.7,186.8 667.6,206.2 		"/>
		
			<rect x="652.6" y="154.2" transform="matrix(5.236017e-03 -1 1 5.236017e-03 500.1048 827.3391)" class="st19" width="26.5" height="16.1"/>
		<path class="st19" d="M671.9,172.4c3.2,1.8,3.1,4.7,0,6.5c-3.6,1.8-7.8,1.8-11.4,0c-3.2-1.9-3.2-4.8,0-6.6
			C664.1,170.5,668.3,170.5,671.9,172.4z"/>
		<path class="st14" d="M672.1,145.9c3.1,1.8,3.1,4.8-0.1,6.6s-8.2,1.7-11.4-0.1s-3.1-4.8,0-6.6C664.2,144,668.5,144,672.1,145.9z"
			/>
		
			<ellipse transform="matrix(5.236017e-03 -1 1 5.236017e-03 513.3494 814.2142)" class="st16" cx="665.9" cy="149.1" rx="2.9" ry="5.1"/>
		<path class="st16" d="M695.8,159.5c3.6,2.1,3.6,5.5-0.1,7.6c-4.2,2.1-9.1,2.1-13.2-0.1c-3.6-2.1-3.6-5.5,0.1-7.6
			S692.1,157.4,695.8,159.5z"/>
		
			<ellipse transform="matrix(5.236017e-03 -1 1 5.236017e-03 513.3494 814.2142)" class="st16" cx="665.9" cy="149.1" rx="2.9" ry="5.1"/>
		<path class="st16" d="M679.7,190c0-2.3-1.6-3.2-3.6-2.1c-2.1,1.4-3.5,3.8-3.7,6.3c0,2.3,1.6,3.2,3.6,2.1
			C678.2,194.9,679.5,192.6,679.7,190z"/>
		<path class="st16" d="M690.8,182.7c0-2.3-1.6-3.2-3.6-2.1c-2.1,1.4-3.5,3.7-3.6,6.2c0,2.3,1.6,3.3,3.6,2.1
			C689.3,187.5,690.7,185.2,690.8,182.7z"/>
		<polygon class="st19" points="559,182.2 578.2,193.4 578.1,212.8 558.9,201.6 		"/>
		<polygon class="st14" points="600.1,158.8 619.3,170 578.2,193.4 559,182.2 		"/>
		<polygon class="st17" points="619.2,189.4 619.3,170 578.2,193.4 578.1,212.8 		"/>
		
			<rect x="563.2" y="160.8" transform="matrix(5.236017e-03 -1 1 5.236017e-03 404.5713 744.3707)" class="st19" width="26.5" height="16.1"/>
		<path class="st19" d="M582.4,178.9c3.2,1.9,3.2,4.8,0,6.6c-3.6,1.8-7.8,1.8-11.4,0c-3.2-1.9-3.2-4.8,0-6.6
			C574.6,177.1,578.8,177.1,582.4,178.9z"/>
		<path class="st14" d="M582.6,152.5c3.1,1.8,3.1,4.8-0.1,6.6s-8.2,1.7-11.4-0.1s-3.1-4.8,0.1-6.6
			C574.8,150.6,579,150.6,582.6,152.5z"/>
		
			<ellipse transform="matrix(5.236017e-03 -1 1 5.236017e-03 417.8159 731.2459)" class="st16" cx="576.5" cy="155.6" rx="2.9" ry="5.1"/>
		<path class="st16" d="M606.3,166.1c3.6,2.1,3.6,5.5-0.1,7.6c-4.2,2.1-9.1,2.1-13.2-0.1c-3.6-2.1-3.6-5.5,0.1-7.6
			S602.6,164,606.3,166.1z"/>
		
			<ellipse transform="matrix(5.236017e-03 -1 1 5.236017e-03 417.8159 731.2459)" class="st16" cx="576.5" cy="155.6" rx="2.9" ry="5.1"/>
		<path class="st16" d="M590.2,196.6c0-2.3-1.6-3.2-3.6-2.1c-2.1,1.4-3.5,3.7-3.6,6.3c-0.1,2.2,1.5,3.2,3.5,2.1
			C588.7,201.5,590,199.2,590.2,196.6z"/>
		<path class="st16" d="M601.3,189.3c0-2.3-1.6-3.2-3.6-2.1c-2.1,1.4-3.5,3.7-3.6,6.2c0,2.3,1.6,3.3,3.6,2.1
			C599.8,194.1,601.2,191.8,601.3,189.3z"/>
		<polygon class="st19" points="595.5,204.1 614.7,215.3 614.6,234.7 595.4,223.5 		"/>
		<polygon class="st14" points="636.6,180.7 655.8,191.9 614.7,215.3 595.5,204.1 		"/>
		<polygon class="st17" points="655.7,211.3 655.8,191.9 614.7,215.3 614.6,234.7 		"/>
		
			<rect x="599.7" y="182.7" transform="matrix(5.236017e-03 -1 1 5.236017e-03 418.9561 802.6614)" class="st19" width="26.5" height="16.1"/>
		<path class="st19" d="M618.9,200.9c3.2,1.8,3.1,4.8,0,6.6c-3.6,1.8-7.8,1.7-11.4-0.1c-3.2-1.8-3.2-4.8,0-6.6
			C611.1,199,615.3,199,618.9,200.9z"/>
		<path class="st14" d="M619.1,174.4c3.1,1.8,3.1,4.8-0.1,6.6c-3.6,1.8-7.8,1.8-11.4-0.1c-3.1-1.8-3.1-4.8,0-6.6
			C611.2,172.5,615.5,172.5,619.1,174.4z"/>
		
			<ellipse transform="matrix(5.236017e-03 -1 1 5.236017e-03 432.2998 789.6371)" class="st16" cx="613" cy="177.5" rx="2.9" ry="5.1"/>
		<path class="st16" d="M642.8,188c3.6,2.1,3.6,5.6-0.1,7.6c-4.1,2.1-9.1,2.1-13.2,0c-3.6-2.2-3.6-5.6,0.1-7.7
			C633.8,185.9,638.7,185.9,642.8,188z"/>
		
			<ellipse transform="matrix(5.236017e-03 -1 1 5.236017e-03 432.2998 789.6371)" class="st16" cx="613" cy="177.5" rx="2.9" ry="5.1"/>
		<path class="st16" d="M626.7,218.6c0-2.3-1.6-3.3-3.6-2.1c-2.1,1.4-3.5,3.7-3.6,6.2c-0.1,2.3,1.5,3.2,3.5,2.1
			C625.1,223.4,626.5,221.1,626.7,218.6z"/>
		<path class="st16" d="M637.8,211.3c0-2.3-1.6-3.3-3.6-2.1c-2.1,1.4-3.5,3.7-3.6,6.2c0,2.3,1.6,3.2,3.6,2.1
			C636.3,216.1,637.6,213.8,637.8,211.3z"/>
		<polygon class="st19" points="506,210.7 525.2,221.9 525.1,241.3 505.9,230.1 		"/>
		<polygon class="st14" points="547.1,187.3 566.3,198.5 525.2,221.9 506,210.7 		"/>
		<polygon class="st17" points="566.2,217.9 566.3,198.5 525.2,221.9 525.1,241.3 		"/>
		
			<rect x="510.2" y="189.3" transform="matrix(5.236017e-03 -1 1 5.236017e-03 323.3227 719.7926)" class="st19" width="26.5" height="16.1"/>
		<path class="st19" d="M529.4,207.5c3.2,1.8,3.2,4.8,0,6.6c-3.6,1.8-7.8,1.7-11.4-0.1c-3.2-1.8-3.2-4.8,0-6.6
			C521.6,205.6,525.8,205.6,529.4,207.5z"/>
		<path class="st14" d="M529.6,181c3.1,1.8,3.1,4.8-0.1,6.6c-3.6,1.8-7.8,1.8-11.4-0.1c-3.1-1.8-3.1-4.8,0.1-6.6
			C521.8,179.1,526,179.1,529.6,181z"/>
		
			<ellipse transform="matrix(5.236017e-03 -1 1 5.236017e-03 336.5673 706.6678)" class="st16" cx="523.5" cy="184.2" rx="2.9" ry="5.1"/>
		<path class="st16" d="M553.3,194.6c3.6,2.1,3.6,5.5-0.1,7.6c-4.1,2.1-9.1,2.1-13.2,0c-3.6-2.2-3.6-5.6,0.1-7.7
			C544.3,192.5,549.2,192.5,553.3,194.6z"/>
		
			<ellipse transform="matrix(5.236017e-03 -1 1 5.236017e-03 336.5673 706.6678)" class="st16" cx="523.5" cy="184.2" rx="2.9" ry="5.1"/>
		<path class="st16" d="M537.2,225.2c0-2.3-1.6-3.3-3.6-2.1c-2.1,1.4-3.5,3.7-3.6,6.2c-0.1,2.3,1.6,3.2,3.5,2.1
			C535.6,230,537,227.7,537.2,225.2z"/>
		<path class="st16" d="M548.3,217.8c0-2.2-1.6-3.2-3.6-2.1c-2.1,1.4-3.5,3.7-3.6,6.3c0,2.3,1.6,3.2,3.6,2.1
			C546.8,222.7,548.2,220.4,548.3,217.8z"/>
		<polygon class="st19" points="542.5,232.6 561.7,243.9 561.6,263.3 542.4,252 		"/>
		<polygon class="st14" points="583.6,209.2 602.8,220.4 561.7,243.9 542.5,232.6 		"/>
		<polygon class="st17" points="602.7,239.8 602.8,220.4 561.7,243.9 561.6,263.3 		"/>
		
			<rect x="546.7" y="211.2" transform="matrix(5.236017e-03 -1 1 5.236017e-03 337.7076 778.0833)" class="st19" width="26.5" height="16.1"/>
		<path class="st19" d="M565.9,229.4c3.2,1.8,3.2,4.8,0,6.6c-3.6,1.8-7.8,1.8-11.4-0.1c-3.2-1.8-3.2-4.8,0-6.6
			C558.1,227.5,562.3,227.6,565.9,229.4z"/>
		<path class="st14" d="M566.1,202.9c3.1,1.9,3.1,4.8-0.1,6.6c-3.6,1.8-7.8,1.8-11.4-0.1c-3.1-1.8-3.1-4.7,0.1-6.6
			S562.9,201.1,566.1,202.9z"/>
		
			<ellipse transform="matrix(5.236017e-03 -1 1 5.236017e-03 351.0512 765.059)" class="st16" cx="560.1" cy="206.1" rx="2.9" ry="5.1"/>
		<path class="st16" d="M589.8,216.5c3.6,2.2,3.6,5.6-0.1,7.7c-4.2,2-9.1,2-13.2-0.1c-3.6-2.1-3.6-5.6,0.1-7.6
			C580.7,214.4,585.7,214.4,589.8,216.5z"/>
		
			<ellipse transform="matrix(5.236017e-03 -1 1 5.236017e-03 351.0512 765.059)" class="st16" cx="560.1" cy="206.1" rx="2.9" ry="5.1"/>
		
			<ellipse transform="matrix(0.5045 -0.8634 0.8634 0.5045 67.5742 615.3102)" class="st16" cx="569.9" cy="248.8" rx="5.1" ry="2.9"/>
		<path class="st16" d="M584.8,239.8c0-2.3-1.6-3.3-3.6-2.1c-2.1,1.4-3.5,3.7-3.6,6.2c0,2.3,1.6,3.2,3.6,2.1
			C583.3,244.6,584.7,242.3,584.8,239.8z"/>
		<polygon class="st19" points="453,239.2 472.2,250.4 472.1,269.9 452.9,258.6 		"/>
		<polygon class="st14" points="494.1,215.8 513.3,227 472.2,250.4 453,239.2 		"/>
		<polygon class="st17" points="513.2,246.4 513.3,227 472.2,250.4 472.1,269.9 		"/>
		
			<rect x="457.2" y="217.9" transform="matrix(5.236017e-03 -1 1 5.236017e-03 242.074 695.2144)" class="st19" width="26.5" height="16.1"/>
		<path class="st19" d="M476.4,236c3.2,1.8,3.2,4.8,0,6.6c-3.6,1.8-7.8,1.8-11.4-0.1c-3.2-1.8-3.2-4.8,0-6.6
			C468.6,234.1,472.8,234.2,476.4,236z"/>
		<path class="st14" d="M476.6,209.5c3.1,1.8,3.1,4.8-0.1,6.6c-3.6,1.8-7.8,1.8-11.4-0.1c-3.1-1.8-3.1-4.8,0.1-6.6
			S473.4,207.7,476.6,209.5z"/>
		
			<ellipse transform="matrix(5.236017e-03 -1 1 5.236017e-03 255.5182 682.091)" class="st16" cx="470.6" cy="212.6" rx="2.9" ry="5.1"/>
		<path class="st16" d="M500.3,223.1c3.6,2.2,3.6,5.6-0.1,7.7c-4.2,2-9.1,2-13.2-0.1c-3.6-2.1-3.6-5.6,0.1-7.6
			C491.2,221,496.2,221,500.3,223.1z"/>
		
			<ellipse transform="matrix(5.236017e-03 -1 1 5.236017e-03 255.5182 682.091)" class="st16" cx="470.6" cy="212.6" rx="2.9" ry="5.1"/>
		<path class="st16" d="M484.2,253.7c0-2.3-1.6-3.3-3.6-2.1c-2.1,1.4-3.5,3.7-3.6,6.2c0,2.3,1.6,3.2,3.6,2.1
			C482.7,258.5,484,256.2,484.2,253.7z"/>
		<path class="st16" d="M495.3,246.4c0-2.3-1.6-3.3-3.6-2.1c-2.1,1.4-3.5,3.7-3.6,6.2c0,2.3,1.6,3.2,3.6,2.1
			C493.8,251.2,495.2,248.9,495.3,246.4z"/>
		<polygon class="st19" points="489.5,261.2 508.7,272.4 508.6,291.8 489.4,280.6 		"/>
		<polygon class="st14" points="530.6,237.7 549.8,248.9 508.7,272.4 489.5,261.2 		"/>
		<polygon class="st17" points="549.7,268.3 549.8,248.9 508.7,272.4 508.6,291.8 		"/>
		
			<rect x="497.6" y="241.5" transform="matrix(9.999500e-03 -0.9999 0.9999 9.999500e-03 256.1024 757.9155)" class="st19" width="26.5" height="16.2"/>
		<path class="st19" d="M512.9,257.9c3.2,1.9,3.2,4.8,0,6.6c-3.6,1.8-7.8,1.8-11.4,0c-3.2-1.9-3.2-4.8,0-6.6
			C505.1,256.1,509.3,256.1,512.9,257.9z"/>
		<path class="st14" d="M513.1,231.4c3.1,1.9,3.1,4.8-0.1,6.6c-3.6,1.8-7.8,1.8-11.4,0c-3.1-1.9-3.1-4.8,0.1-6.6
			C505.3,229.6,509.5,229.6,513.1,231.4z"/>
		
			<ellipse transform="matrix(5.236017e-03 -1 1 5.236017e-03 269.8026 740.4808)" class="st16" cx="507.1" cy="234.6" rx="2.9" ry="5.1"/>
		<path class="st16" d="M536.8,245.1c3.6,2.1,3.6,5.5-0.1,7.6s-9.5,2-13.2-0.1s-3.6-5.5,0.1-7.6
			C527.8,242.9,532.7,242.9,536.8,245.1z"/>
		
			<ellipse transform="matrix(5.236017e-03 -1 1 5.236017e-03 269.8026 740.4808)" class="st16" cx="507.1" cy="234.6" rx="2.9" ry="5.1"/>
		<path class="st16" d="M520.7,275.6c0-2.3-1.6-3.2-3.6-2.1c-2.1,1.4-3.5,3.7-3.6,6.2c-0.1,2.3,1.6,3.3,3.5,2.1
			C519.2,280.5,520.5,278.1,520.7,275.6z"/>
		
			<ellipse transform="matrix(0.5026 -0.8645 0.8645 0.5026 25.7678 586.9434)" class="st16" cx="523" cy="271.1" rx="5.1" ry="2.9"/>
		<path class="st34" d="M274.4,262.6c12.2-8.5,14.7-7.3,26.8-19.2c2.4-2.9,4.6-5.9,6.7-9c3.3-4.7,6.5-9.7,11.4-17.6
			c9.6-14.8-6-21.9-16.9-9.5c-4.3,5-9.8,16-15.5,26.2c-11.7,11.4-2.2,4.7-19.6,21.7C265,258.6,271.7,264.5,274.4,262.6z"/>
		<path class="st35" d="M274.4,262.6c12.2-8.5,14.7-7.3,26.8-19.2c2.4-2.9,4.6-5.9,6.7-9c0.3-4.5,0.5-8.9,0.9-13.4
			c-1.7,5.1-3.6-3.7-5.2,1.4c-0.5,1.7-8.7,19.9-9,21.8C293.6,249.9,275.3,256.9,274.4,262.6z"/>
		<path d="M320.8,378.4l1,8.4c1.2,2.3,1.7,5.9,1.8,9.8s-18.2,11.1-22.7,11c-8.4,0-8.2-7.3-5.5-9.2c8.9-6.2,11.6-10.8,11.6-10.8
			l-0.7-9.2L320.8,378.4z"/>
		<path class="st36" d="M306.6,286l-4,38.9c-0.2,7.7-0.5,15.6-0.7,23c0,2,0,4-0.1,5.9v3.4c-0.1,2.1-0.1,4.1-0.1,6l0,0
			c0,7.8,0.4,14.1,1.3,17.5s20.3,4.7,21-2.2c0.3-4.4,0.6-8.8,0.8-13.1c0.1-1.8,0.2-3.6,0.2-5.4s0.1-2.7,0.2-4s0.1-3.5,0.1-5.2
			c0-8.5-0.5-16.2-2-22.4c3.4-11.9,5.2-24.2,5.3-36.6L306.6,286z"/>
		<path d="M328.6,428.2c3.2,0.1,13-4,18.7-7.5c2.1-1.3,3.6-2.6,4-3.5c-0.1-4-0.6-7.5-1.9-9.8l-0.7-6.4l-0.2-2.1h-14.6l0.4,4.2
			l0.3,5.1c0,0-2.6,4.6-11.6,10.8C320.4,420.8,320.2,428.2,328.6,428.2z"/>
		<path class="st37" d="M305.8,292.4c1,7.3,6.4,11,13.3,13.2l5.9,40.1c0.5,7.6,1.1,15.5,1.6,22.9c0.2,2,0.4,3.9,0.5,5.8l0.3,3.4
			c0.2,2.1,0.4,4.1,0.6,6c0.4,3.9,0.8,7.3,1.3,10.3c0.4,2.3,1,4.6,1.8,6.9c0.4,1.1,1.6,1.7,3.1,2.1c3.7,0.8,7.6,0.5,11.2-0.7
			c1.2-0.3,2.3-0.7,3.3-1.4c1.8-1.1,3-2.6,3-4.3c-0.1-4.4-0.3-8.8-0.5-13.1c-0.1-1.8-0.2-3.6-0.4-5.4s-0.1-2.6-0.2-3.9
			s-0.3-3.5-0.5-5.2c-0.8-8.5-2-16.2-4.2-22.1c2.2-12.9,1.2-26.7,0.1-38.5c2-6.3,2.5-13,1.6-19.6c-0.2-1.3-0.4-2.6-0.7-3.9l-0.6-0.2
			l-1.2-0.3l-5.5-1.4l-31.1-7.7l-1.7-0.5h-0.6c-0.1,1.3-0.1,2.6-0.1,3.8C306,283,306,287.2,305.8,292.4z"/>
		<path class="st31" d="M306,278.4c0,0.1,0,0.2,0.1,0.2c2.1,6.1,18.3,12.4,30.3,12.8c4.8,0.2,8.8-0.5,11.2-2.5l0,0
			c0.1-1.3,0-4.5,0-5.2v-0.2l-2.5,1c-2.1,0.7-4.4,1-6.6,1c-9.9,0.3-22.9-3.7-30-10.1c-0.9-0.9-1.7-1.9-2.5-2.8v0.9
			C305.9,275.4,306.1,276.9,306,278.4z"/>
		<path class="st38" d="M305.3,270.4c0,1.1,0.2,2.1,0.7,3.1c0.2,0.5,0.5,1,0.8,1.4c5.1,7.1,21.1,11.2,31.3,11.4
			c1.6,0,3.1-0.1,4.7-0.3c1.2-0.1,2.4-0.5,3.5-1.2c0.5-0.3,0.9-0.7,1.3-1.1c1.4-1.8,1.8-4.5,2.3-8.6s1.2-10.6,1.6-15.2
			c1.9-21.6,2.1-33.8,1.5-38.5c-4.6-5.4-12.6-11.2-19.3-15.4c-9.1-4.1-17.2-6.6-22-6.1C298.6,201.5,305.3,270.4,305.3,270.4z"/>
		<path class="st37" d="M337.8,340.2c-0.2,1.4-0.3,2.8-0.3,4.2c0.3,2.1,0.8,4.1,1.7,6c4,9.6,7.7,19.6,7.6,30c0,3.7-0.6,7.3-0.9,10.9
			s-0.4,5.1-0.5,7.6v3.5c0.1,6.1,0.7,12.3,1.9,18.3c2.1-1.3,3.6-2.6,4-3.5c-0.1-3.9-0.6-7.5-1.9-9.8l-0.7-6.4c1.8-1.1,3-2.6,3-4.3
			c-0.1-4.4-0.3-8.8-0.5-13.1c-0.1-1.8-0.2-3.6-0.4-5.4s-0.1-2.6-0.2-3.9s-0.3-3.5-0.5-5.2c-0.8-8.5-2-16.2-4.2-22.1
			c2.2-12.9,1.2-26.7,0.1-38.5c2-6.3,2.5-13,1.6-19.6l0,0c0.1-1.3,0-4.5,0-5.2s1.8-4.5,2.3-8.6s1.2-10.6,1.6-15.2
			c-0.2-0.5-0.4-1.1-0.5-1.6c-2.5-8.4-7.8-19.5-10.4-27.9c-0.5,9.8,2,23.7,2,33.5s-16.9,13.7-22.7,21.1
			C345.8,286.4,339.1,330.3,337.8,340.2z"/>
		<path class="st34" d="M358.3,230c3,11.1,4.9,21.7,6.4,29.2l-16.6,4.8c-3.5-10.2-7.1-20.3-7.9-26.3
			C338.5,221.3,353.9,212.9,358.3,230z"/>
		<path class="st31" d="M338.1,208.9c0.2,0.7,0.2,1.4-0.1,2c-0.5,2-1.8,3.8-3.6,5c-2.7,2.2-6,4.1-8.9,6.1c-1.4-2.5-2.5-5.2-3.4-7.9
			c-1.5,1.4-4.1,3.3-5.6,4.7c-0.3-2.4,0.7-5.6,1.2-7.9c0.7-4.7,5.1-8,9.8-7.4c1.5,0.1,5.7-1.9,7.4,0.9
			C335.6,205.5,337.4,207.7,338.1,208.9z"/>
		<path class="st39" d="M311.8,186.5c-0.1,4.4,0.2,8.8,0.9,13.2v0.2c0.1,0.8,0.3,1.6,0.4,2.4c0.2,1.5,0.7,3,1.6,4.3
			c0.1,0.2,0.3,0.4,0.5,0.5c0.9,0.9,2.1,1.3,3.4,1.2h0.5c0,0.7,0.2,2.7,0.2,3.2l0.3,0.7l0,0l0.2,0.3c0,0.1,0.1,0.1,0.1,0.2h0.1
			l0.2,0.3l0.3,0.2c2.3,1.7,7.4,0.5,10.4-1s3.7-2,3.9-4.3c0.1-0.4,0.1-0.8,0.1-1.2v-2.5c0-1,0.1-2.1,0.1-2.8c0-0.3,0-0.5,0.1-0.8
			c0.7-3.5,1.3-2.8,2.1-8.5c0.4-2.9,0.7-6.9-0.2-9.7s-2.1-5.3-4.5-6.9s-8.2-2.5-12.3-1.3c-2.1,0.5-4.1,1.5-5.7,2.9l0,0
			c-0.1,0-0.1,0-0.1,0.1C312.1,179.7,311.8,183.2,311.8,186.5z"/>
		<path class="st40" d="M319.1,208.3c0,0.6,0.2,2.6,0.2,3.1c0.1,0.8,0.6,1.5,1.2,1.9h0.8c5.7-0.6,9.9-5.5,9.5-11.2
			c-2.1,3-5.3,5-8.9,5.7L319.1,208.3z"/>
		<path class="st41" d="M316.5,177c-0.6,1,0.4,2.4,1.5,2.7c1.2,0.2,2.4,0,3.5-0.6c1.1-0.6,2.2-1.1,3.3-1.5c3.1-0.5,6,2.2,6.7,5.2
			s0,6.2-0.8,9.3c0.8,0.1,1.4-0.7,1.9-1.3s1.5-1.1,2-0.5c0.2,0.3,0.3,0.7,0.2,1c0,1.5-0.2,2.9-0.6,4.3c-0.2,0.5-0.4,1.1-0.8,1.5
			c-0.4,0.4-1.1,0.5-1.6,0.2c-0.3,1.9,0.9,3.7,2.8,4.1h0.4c0-0.3,0-0.5,0.1-0.8c0.7-3.5,1.3-2.8,2.1-8.5c0.4-2.9,0.7-6.9-0.2-9.7
			s-2.1-5.3-4.5-6.9s-8.2-2.5-12.3-1.3c-2.1,0.5-4.1,1.5-5.7,2.9C315.1,176.7,315.9,176.7,316.5,177z"/>
		<polygon class="st42" points="333.3,189.7 337.9,192.1 338.2,188.6 333.4,186.1 		"/>
		<path class="st42" d="M312.6,178c-7.1,4.7-7.8,11-1.7,13.9s16.7,1.5,23.7-3.2s7.8-11,1.7-13.9S319.6,173.2,312.6,178z"/>
		<path class="st42" d="M320.4,192c4.8-0.4,9.4-1.9,13.4-4.5c3.4-2.3,5.3-5.1,5.1-7.4s-1.8-3.4-3.2-4.1c-2.8-1.1-5.9-1.6-8.9-1.3
			c-4.8,0.4-9.4,1.9-13.4,4.5c-3.4,2.3-5.4,5.1-5.2,7.4s1.9,3.4,3.3,4C314.3,191.8,317.4,192.3,320.4,192z"/>
		<path class="st42" d="M308.2,186.1c0.1,1.9,10,5.9,10,6s20.7-11.2,20.7-12c-0.1-1.3-0.3-2.7-0.6-4c-0.3-1.1-0.7-2.2-1.2-3.3
			c-0.2-0.5-0.5-0.9-0.8-1.3c-0.6-1.1-1.5-2-2.5-2.7c-0.9-0.6-1.9-1.1-2.9-1.3c-1.9-0.6-3.9-0.8-5.9-0.6h-0.4
			c-2.1,0.2-4.2,0.7-6.1,1.6l0,0c-5.4,2.4-9.3,7.4-10.1,13.3C308.2,183.2,308.1,184.7,308.2,186.1z"/>
		<path class="st42" d="M317,175.4c5-4.1,10.6-7,16.8-6.6c-0.9-0.6-1.9-1.1-2.9-1.3C325.5,167.5,320,170.9,317,175.4z"/>
		<path class="st42" d="M314,173.8c3.1-3.1,6.9-5.5,11-6.9h-0.4c-2.1,0.2-4.2,0.7-6.1,1.6l0,0C316.7,169.9,315.1,171.7,314,173.8z"
			/>
		<path class="st42" d="M323.9,180.2c3.9-3.7,8.3-6.6,13.2-7.4c-0.2-0.5-0.5-0.9-0.8-1.3C331.1,172.4,326.5,175.6,323.9,180.2z"/>
		<path class="st42" d="M309.2,189.5c1.4,1.3,3.2,2.1,5.1,2.4l-0.4-5.4c0-0.6-0.4-1.2-1-1.5l-3.2-1.5c-0.2-0.1-0.4-0.1-0.6,0
			c-0.2,0.1-0.3,0.4-0.3,0.6L309.2,189.5z"/>
		<path class="st42" d="M328.4,190.3c-0.9,0.7-2,1-3.1,1l-0.2-3.5c0-0.3,0.2-0.7,0.5-0.8l2-0.7h0.4c0.1,0.1,0.2,0.2,0.2,0.4
			L328.4,190.3z"/>
		<path class="st42" d="M338.8,182.3c-0.4,1.1-1.1,2-2,2.7l-0.2-3.5c-0.1-0.4,0-0.8,0.3-1.1l1.2-1.7c0.1-0.1,0.2-0.2,0.3-0.1
			s0.2,0.1,0.2,0.3L338.8,182.3z"/>
		<path class="st42" d="M333.7,178.4c0,0.6,0.2,1.1,0.4,1s0.4-0.5,0.3-1.1s-0.2-1-0.4-1S333.7,177.8,333.7,178.4z"/>
		<path class="st42" d="M331.9,179.9c0,0.6,0.2,1.1,0.4,1.1c0.3-0.3,0.4-0.8,0.3-1.2c0-0.6-0.2-1-0.4-1S331.8,179.3,331.9,179.9z"/>
		<path class="st42" d="M330.1,181.4c0,0.6,0.2,1.1,0.4,1.1s0.3-0.5,0.3-1.1s-0.2-1.1-0.4-1.1S330,180.8,330.1,181.4z"/>
		<path class="st39" d="M319.2,289.3c-0.9,0.7-1.8,1.1-2.9,1.4c-0.8,0.1-1.6,0.2-2.4,0.1l-6-0.4c-0.6,0-1.2,0-1.8-0.2
			c-1.4-0.2-2.7-0.9-3.6-2c-0.3-0.3-0.5-0.7-0.5-1.1c0-0.2,0.1-0.4,0.2-0.6c0.7-0.8,1.9-0.9,2.9-1.1c1.9-0.4,3.7-1.2,5.2-2.4
			c1.6-1.1,3-2.3,4.7-3.4c-1.1,1-2.3,1.6-3.7,2c-1.4,0.4-2.9-0.1-3.9-1.1c-0.1-0.1-0.1-0.3-0.2-0.4s0.1-0.2,0.1-0.3
			c0.4-0.7,1-1.2,1.8-1.5l1.8-0.3c0.7-0.2,1.3-0.6,1.9-1c2.6-1.7,5.8-2.4,8.9-1.8l1.7,0.4c1.2,0.7,2.2,1.7,2.9,3
			c0.2,0.3,0.4,0.6,0.4,0.9c0.1,0.2,0,0.5,0,0.7c-0.3,2-1.2,3.9-2.7,5.3C322.6,287,320.9,288.2,319.2,289.3z"/>
		<path class="st17" d="M273.9,279.2l20.8,12.1c0.5,0.2,1.1,0.2,1.6,0l29.5-17.1c0.8-0.4,1.1-1.4,0.6-2.2c-0.1-0.3-0.4-0.5-0.6-0.6
			l-20.8-12c-0.5-0.3-1.1-0.3-1.6,0l-29.5,17.1c-0.7,0.4-1.1,1.3-0.7,2C273.4,278.8,273.6,279.1,273.9,279.2z"/>
		<polygon class="st43" points="277.8,276.4 297,287.5 323.2,272.4 304,261.3 		"/>
		<path class="st34" d="M320.9,277.1c0.4,3.8,4.2,6.1,4.2,6.1c3.3,0.8,7,0.1,11.2-1.4c9.3-4,25.9-13.7,25.5-13.8
			c0.1,0,0.1,0,0.1-0.1c3.2-2.3,4.5-6.9,2.3-10.2c-8.5-12.4-15.9-3.1-35.8,12.3C324,274.4,320.6,274.6,320.9,277.1z"/>
		<path class="st14" d="M280.2,280.5l10.6,6.1c0.8,0.4,0.5,1.2-0.5,1.4l-1.7,0.5c-0.7,0.1-1.5,0-2.2-0.3l-1.4-0.8l-3,0.2l-3.6-2.1
			l0.5-1.7l-1.5-0.8c-0.4-0.1-0.7-0.5-0.6-1c0-0.1,0.1-0.2,0.2-0.3l0.7-0.9C278.4,280.2,279.4,280,280.2,280.5z"/>
		<path class="st15" d="M279.8,283.1c-0.1,0.1-0.1,0.2,0,0.3c0,0,0,0,0,0l6.1,3.5c0.1,0.1,0.3,0.1,0.4,0l0,0c0.1-0.1,0.1-0.2,0-0.2
			l-6-3.6L279.8,283.1z"/>
		<path class="st15" d="M280.7,282.6c-0.1,0.1-0.1,0.2,0,0.3c0,0,0,0,0,0l6.1,3.5c0.1,0.1,0.3,0.1,0.4,0l0,0c0.1-0.1,0.1-0.2,0-0.3
			c0,0,0,0,0,0l-6.1-3.5H280.7z"/>
		<path class="st15" d="M281.6,282.1c-0.1,0.1-0.1,0.2,0,0.3c0,0,0,0,0,0l6,3.5c0.1,0.1,0.4,0.1,0.5,0l0,0c0.1-0.1,0.1-0.2,0-0.3
			c0,0,0,0,0,0l-6.1-3.5H281.6z"/>
		<path class="st17" d="M289.3,286.9c-0.2,0.1-0.2,0.3,0,0.5c0.3,0.1,0.6,0.1,0.9,0c0.3-0.2,0.3-0.4,0-0.5
			C289.9,286.7,289.6,286.7,289.3,286.9z"/>
		<path class="st17" d="M278.7,280.7c-0.3,0.2-0.3,0.4,0,0.6h0.9c0.3-0.2,0.3-0.4,0-0.6H278.7z"/>
		<path class="st39" d="M307.3,279.8c0.4-0.7,1-1.2,1.8-1.5l1.8-0.3c0.7-0.2,1.3-0.6,1.9-1c2.6-1.7,5.8-2.4,8.9-1.8l1.7,0.4
			c1.2,0.7,2.2,1.7,2.9,3c0.2,0.3,0.4,0.6,0.4,0.9c0.1,0.2,0,0.5,0,0.7c-0.3,2-1.2,3.9-2.7,5.3c-1.4,1.5-3.1,2.7-4.8,3.8
			c-0.5,0.4-1.1,0.7-1.7,1l-2.8-7.9c-0.4-0.6-0.8-1.2-1.4-1.6l-2,0.8C306.5,282.7,307.3,279.9,307.3,279.8z"/>
		<path class="st39" d="M266,255c2.8,0.1,4.6-1.3,6.7,1s2.5,3.9,0.4,5.7s-5.8,7-7.5,7.3c-0.8,0-1.7,0-2.5,0.2
			c-0.8,0.3-1.4,0.7-2,1.3c-0.5,0.6-1.5,1-2,0.5s-0.9-1.7,2.2-4.3c-3.5,1.8-6.7,3.9-9.8,6.3c-0.8,0.7-2.9,0.3-2-1.9
			c1.5-1.9,3.3-3.6,5.4-4.9c-0.9-1.3-1.5-2.8-1.6-4.4c0.2-1.5,4-5.8,5.4-6.5S264.8,255,266,255z"/>
		<rect x="-2.1" y="125.2" class="st44" width="148.7" height="160.1"/>
		<polygon class="st21" points="49.9,159.5 581.5,466.3 581.5,520.3 572,525.8 49.9,213.4 40.4,164.9 		"/>
		<polygon class="st4" points="40.4,164.9 572,471.8 572,525.8 40.4,218.9 		"/>
		
			<linearGradient id="SVGID_4_" gradientUnits="userSpaceOnUse" x1="-11273.835" y1="-66.6252" x2="-11252.5947" y2="-66.6252" gradientTransform="matrix(-0.5 -0.866 -0.866 0.5 -5677.0825 -9508.9922)">
			<stop  offset="0" style="stop-color:#878787"/>
			<stop  offset="1" style="stop-color:#DADADA"/>
		</linearGradient>
		<path class="st45" d="M-33.3,250.5l96.4-55.7l0,0c1.4-0.8,2.2-2.4,2.2-4.8c0-4.8-3.4-10.6-7.5-13c-2.1-1.2-4-1.3-5.3-0.6l0,0
			l-96.4,55.7L-33.3,250.5z"/>
		<ellipse transform="matrix(0.866 -0.5 0.5 0.866 -125.8061 13.0598)" class="st19" cx="-38.5" cy="241.3" rx="6.1" ry="10.6"/>
		
			<linearGradient id="SVGID_5_" gradientUnits="userSpaceOnUse" x1="-11287.085" y1="-74.3433" x2="-11265.8447" y2="-74.3433" gradientTransform="matrix(-0.5 -0.866 -0.866 0.5 -5677.0825 -9508.9922)">
			<stop  offset="0" style="stop-color:#878787"/>
			<stop  offset="1" style="stop-color:#DADADA"/>
		</linearGradient>
		<path class="st46" d="M-20,258.1l96.4-55.6l0,0c1.3-0.8,2.2-2.5,2.2-4.9c0-4.8-3.4-10.6-7.5-13c-2.1-1.2-4-1.3-5.3-0.5l0,0
			l-96.4,55.6L-20,258.1z"/>
		<path class="st19" d="M-32.8,244.6c0-4.8,3.4-6.8,7.5-4.4c4.5,2.9,7.2,7.7,7.5,13c0,4.8-3.3,6.8-7.5,4.4S-32.8,249.4-32.8,244.6z"
			/>
		
			<linearGradient id="SVGID_6_" gradientUnits="userSpaceOnUse" x1="-11300.3447" y1="-82.0614" x2="-11279.1055" y2="-82.0614" gradientTransform="matrix(-0.5 -0.866 -0.866 0.5 -5677.0825 -9508.9922)">
			<stop  offset="0" style="stop-color:#878787"/>
			<stop  offset="1" style="stop-color:#DADADA"/>
		</linearGradient>
		<path class="st47" d="M-6.7,265.7l96.4-55.6l0,0c1.3-0.8,2.2-2.5,2.2-4.9c0-4.8-3.4-10.6-7.5-13c-2.1-1.2-4-1.3-5.3-0.5l0,0
			l-96.4,55.6L-6.7,265.7z"/>
		<path class="st19" d="M-19.5,252.2c0-4.8,3.4-6.7,7.5-4.3c4.5,2.9,7.2,7.7,7.5,13c0,4.8-3.3,6.7-7.5,4.3S-19.5,257-19.5,252.2z"/>
		
			<linearGradient id="SVGID_7_" gradientUnits="userSpaceOnUse" x1="-11313.6055" y1="-89.7296" x2="-11292.3652" y2="-89.7296" gradientTransform="matrix(-0.5 -0.866 -0.866 0.5 -5677.0825 -9508.9922)">
			<stop  offset="0" style="stop-color:#878787"/>
			<stop  offset="1" style="stop-color:#DADADA"/>
		</linearGradient>
		<path class="st48" d="M6.6,273.4l96.4-55.7l0,0c1.3-0.8,2.2-2.4,2.2-4.8c0-4.8-3.4-10.6-7.5-13c-2.1-1.2-4-1.4-5.3-0.6l0,0L-4,255
			L6.6,273.4z"/>
		<path class="st19" d="M-6.2,259.8c0-4.8,3.4-6.7,7.5-4.3c4.5,2.9,7.2,7.7,7.5,13c0,4.8-3.3,6.7-7.5,4.3S-6.2,264.6-6.2,259.8z"/>
		
			<linearGradient id="SVGID_8_" gradientUnits="userSpaceOnUse" x1="-11326.8652" y1="-97.4477" x2="-11305.625" y2="-97.4477" gradientTransform="matrix(-0.5 -0.866 -0.866 0.5 -5677.0825 -9508.9922)">
			<stop  offset="0" style="stop-color:#878787"/>
			<stop  offset="1" style="stop-color:#DADADA"/>
		</linearGradient>
		<path class="st49" d="M19.9,281l96.4-55.6l0,0c1.3-0.8,2.2-2.5,2.2-4.9c0-4.8-3.4-10.6-7.5-13c-2.1-1.2-4-1.3-5.3-0.5l0,0
			L9.3,262.6L19.9,281z"/>
		<ellipse transform="matrix(0.866 -0.5 0.5 0.866 -133.9459 43.7091)" class="st19" cx="14.6" cy="271.8" rx="6.1" ry="10.6"/>
		
			<linearGradient id="SVGID_9_" gradientUnits="userSpaceOnUse" x1="-11340.125" y1="-105.1659" x2="-11318.8848" y2="-105.1659" gradientTransform="matrix(-0.5 -0.866 -0.866 0.5 -5677.0825 -9508.9922)">
			<stop  offset="0" style="stop-color:#878787"/>
			<stop  offset="1" style="stop-color:#DADADA"/>
		</linearGradient>
		<path class="st50" d="M33.2,288.6l96.4-55.6l0,0c1.3-0.8,2.2-2.5,2.2-4.9c0-4.8-3.4-10.6-7.5-13c-2.1-1.2-4-1.3-5.3-0.5l0,0
			l-96.4,55.6L33.2,288.6z"/>
		<path class="st19" d="M20.4,275.1c0-4.8,3.4-6.7,7.5-4.3s7.5,8.2,7.5,13s-3.3,6.7-7.5,4.3S20.4,279.9,20.4,275.1z"/>
		
			<linearGradient id="SVGID_10_" gradientUnits="userSpaceOnUse" x1="-11353.375" y1="-112.8434" x2="-11332.1348" y2="-112.8434" gradientTransform="matrix(-0.5 -0.866 -0.866 0.5 -5677.0825 -9508.9922)">
			<stop  offset="0" style="stop-color:#878787"/>
			<stop  offset="1" style="stop-color:#DADADA"/>
		</linearGradient>
		<path class="st51" d="M46.5,296.3l96.4-55.7l0,0c1.3-0.8,2.2-2.4,2.2-4.8c0-4.8-3.4-10.7-7.5-13c-2.1-1.2-4-1.4-5.3-0.6l0,0
			l-96.4,55.7L46.5,296.3z"/>
		<path class="st19" d="M33.7,282.7c0-4.8,3.4-6.7,7.5-4.3c4.5,2.9,7.2,7.7,7.5,13c0,4.8-3.3,6.7-7.5,4.3S33.7,287.5,33.7,282.7z"/>
		
			<linearGradient id="SVGID_11_" gradientUnits="userSpaceOnUse" x1="-11366.6553" y1="-120.5521" x2="-11345.4199" y2="-120.5521" gradientTransform="matrix(-0.5 -0.866 -0.866 0.5 -5677.0825 -9508.9922)">
			<stop  offset="0" style="stop-color:#878787"/>
			<stop  offset="1" style="stop-color:#DADADA"/>
		</linearGradient>
		<path class="st52" d="M59.8,303.9l96.4-55.7l0,0c1.3-0.7,2.2-2.4,2.2-4.8c0-4.8-3.4-10.6-7.5-13c-2.1-1.2-4-1.3-5.3-0.5l0,0
			l-96.4,55.6L59.8,303.9z"/>
		<path class="st19" d="M47,290.4c0-4.8,3.4-6.8,7.5-4.4c4.5,2.9,7.2,7.7,7.5,13c0,4.8-3.3,6.8-7.5,4.4S47,295.1,47,290.4z"/>
		
			<linearGradient id="SVGID_12_" gradientUnits="userSpaceOnUse" x1="-11379.8955" y1="-128.2703" x2="-11358.6553" y2="-128.2703" gradientTransform="matrix(-0.5 -0.866 -0.866 0.5 -5677.0825 -9508.9922)">
			<stop  offset="0" style="stop-color:#878787"/>
			<stop  offset="1" style="stop-color:#DADADA"/>
		</linearGradient>
		<path class="st53" d="M73.1,311.5l96.4-55.6l0,0c1.3-0.8,2.2-2.5,2.2-4.9c0-4.8-3.4-10.6-7.5-13c-2.1-1.2-4-1.3-5.3-0.5l0,0
			l-96.4,55.6L73.1,311.5z"/>
		<ellipse transform="matrix(0.866 -0.5 0.5 0.866 -142.0723 74.4085)" class="st19" cx="67.8" cy="302.3" rx="6.1" ry="10.6"/>
		
			<linearGradient id="SVGID_13_" gradientUnits="userSpaceOnUse" x1="-11393.167" y1="-135.9641" x2="-11371.9316" y2="-135.9641" gradientTransform="matrix(-0.5 -0.866 -0.866 0.5 -5677.0825 -9508.9922)">
			<stop  offset="0" style="stop-color:#878787"/>
			<stop  offset="1" style="stop-color:#DADADA"/>
		</linearGradient>
		<path class="st54" d="M86.4,319.1l96.4-55.6l0,0c1.3-0.8,2.2-2.5,2.2-4.9c0-4.7-3.4-10.6-7.5-13c-2.1-1.2-4-1.3-5.3-0.5l0,0
			l-96.4,55.7L86.4,319.1z"/>
		<path class="st19" d="M73.6,305.6c0-4.8,3.4-6.7,7.5-4.3c4.5,2.9,7.2,7.7,7.5,13c0,4.8-3.3,6.7-7.5,4.3S73.6,310.4,73.6,305.6z"/>
		
			<linearGradient id="SVGID_14_" gradientUnits="userSpaceOnUse" x1="-11406.415" y1="-143.6566" x2="-11385.1748" y2="-143.6566" gradientTransform="matrix(-0.5 -0.866 -0.866 0.5 -5677.0825 -9508.9922)">
			<stop  offset="0" style="stop-color:#878787"/>
			<stop  offset="1" style="stop-color:#DADADA"/>
		</linearGradient>
		<path class="st55" d="M99.7,326.8l96.4-55.7l0,0c1.3-0.7,2.2-2.4,2.2-4.8c0-4.8-3.4-10.6-7.5-13c-2.1-1.2-4-1.3-5.3-0.6l0,0
			l-96.4,55.7L99.7,326.8z"/>
		<path class="st19" d="M86.9,313.2c0-4.7,3.4-6.7,7.5-4.3s7.5,8.2,7.5,13s-3.4,6.7-7.5,4.4C90,323.4,87.2,318.5,86.9,313.2z"/>
		
			<linearGradient id="SVGID_15_" gradientUnits="userSpaceOnUse" x1="-11419.665" y1="-151.3747" x2="-11398.4248" y2="-151.3747" gradientTransform="matrix(-0.5 -0.866 -0.866 0.5 -5677.0825 -9508.9922)">
			<stop  offset="0" style="stop-color:#878787"/>
			<stop  offset="1" style="stop-color:#DADADA"/>
		</linearGradient>
		<path class="st56" d="M113,334.4l96.4-55.6l0,0c1.3-0.8,2.2-2.5,2.2-4.9c0-4.8-3.4-10.6-7.5-13c-2.1-1.2-4-1.3-5.3-0.5l0,0
			L102.4,316L113,334.4z"/>
		<path class="st19" d="M100.2,320.9c0-4.8,3.4-6.8,7.5-4.4s7.5,8.3,7.5,13s-3.4,6.8-7.5,4.4S100.2,325.7,100.2,320.9z"/>
		
			<linearGradient id="SVGID_16_" gradientUnits="userSpaceOnUse" x1="-11432.9248" y1="-159.0834" x2="-11411.6855" y2="-159.0834" gradientTransform="matrix(-0.5 -0.866 -0.866 0.5 -5677.0825 -9508.9922)">
			<stop  offset="0" style="stop-color:#878787"/>
			<stop  offset="1" style="stop-color:#DADADA"/>
		</linearGradient>
		<path class="st57" d="M126.3,342l96.4-55.6l0,0c1.3-0.8,2.2-2.5,2.2-4.9c0-4.7-3.4-10.6-7.5-13c-2.1-1.2-4-1.3-5.4-0.5l0,0
			l-96.3,55.6L126.3,342z"/>
		<ellipse transform="matrix(0.866 -0.5 0.5 0.866 -150.2121 105.0578)" class="st19" cx="120.9" cy="332.8" rx="6.1" ry="10.6"/>
		
			<linearGradient id="SVGID_17_" gradientUnits="userSpaceOnUse" x1="-11446.1855" y1="-166.761" x2="-11424.9453" y2="-166.761" gradientTransform="matrix(-0.5 -0.866 -0.866 0.5 -5677.0825 -9508.9922)">
			<stop  offset="0" style="stop-color:#878787"/>
			<stop  offset="1" style="stop-color:#DADADA"/>
		</linearGradient>
		<path class="st58" d="M139.6,349.7L236,294l0,0c1.3-0.7,2.2-2.4,2.2-4.8c0-4.8-3.4-10.6-7.5-13c-2.1-1.2-4-1.3-5.4-0.6l0,0
			L129,331.3L139.6,349.7z"/>
		<path class="st19" d="M126.8,336.1c0-4.8,3.3-6.7,7.5-4.3s7.5,8.2,7.5,13s-3.4,6.7-7.5,4.3C129.8,346.2,127.1,341.4,126.8,336.1z"
			/>
		
			<linearGradient id="SVGID_18_" gradientUnits="userSpaceOnUse" x1="-11459.4453" y1="-174.4791" x2="-11438.2051" y2="-174.4791" gradientTransform="matrix(-0.5 -0.866 -0.866 0.5 -5677.0825 -9508.9922)">
			<stop  offset="0" style="stop-color:#878787"/>
			<stop  offset="1" style="stop-color:#DADADA"/>
		</linearGradient>
		<path class="st59" d="M152.9,357.3l96.4-55.6l0,0c1.3-0.8,2.2-2.5,2.2-4.9c0-4.8-3.4-10.6-7.5-13c-2.1-1.2-4-1.3-5.4-0.5l0,0
			l-96.3,55.6L152.9,357.3z"/>
		<path class="st19" d="M140.1,343.8c0-4.8,3.3-6.8,7.5-4.4s7.5,8.2,7.5,13s-3.4,6.8-7.5,4.4C143.1,353.9,140.4,349.1,140.1,343.8z"
			/>
		
			<linearGradient id="SVGID_19_" gradientUnits="userSpaceOnUse" x1="-11472.7051" y1="-182.1973" x2="-11451.4648" y2="-182.1973" gradientTransform="matrix(-0.5 -0.866 -0.866 0.5 -5677.0825 -9508.9922)">
			<stop  offset="0" style="stop-color:#878787"/>
			<stop  offset="1" style="stop-color:#DADADA"/>
		</linearGradient>
		<path class="st60" d="M166.2,364.9l96.4-55.6l0,0c1.3-0.8,2.2-2.5,2.2-4.9c0-4.8-3.4-10.6-7.5-13c-2.1-1.2-4-1.3-5.4-0.5l0,0
			l-96.3,55.6L166.2,364.9z"/>
		<path class="st19" d="M153.4,351.4c0-4.8,3.3-6.7,7.5-4.3s7.5,8.2,7.5,13s-3.4,6.7-7.5,4.3C156.4,361.5,153.7,356.7,153.4,351.4z"
			/>
		
			<linearGradient id="SVGID_20_" gradientUnits="userSpaceOnUse" x1="-11485.9551" y1="-189.8654" x2="-11464.7148" y2="-189.8654" gradientTransform="matrix(-0.5 -0.866 -0.866 0.5 -5677.0825 -9508.9922)">
			<stop  offset="0" style="stop-color:#878787"/>
			<stop  offset="1" style="stop-color:#DADADA"/>
		</linearGradient>
		<path class="st61" d="M179.5,372.6l96.4-55.7l0,0c1.3-0.8,2.2-2.4,2.2-4.8c0-4.8-3.4-10.6-7.5-13c-2.1-1.2-4-1.4-5.4-0.6l0,0
			l-96.3,55.7L179.5,372.6z"/>
		<ellipse transform="matrix(0.866 -0.5 0.5 0.866 -158.3751 135.7938)" class="st19" cx="174.2" cy="363.4" rx="6.1" ry="10.6"/>
		
			<linearGradient id="SVGID_21_" gradientUnits="userSpaceOnUse" x1="-11499.2148" y1="-197.5782" x2="-11477.9746" y2="-197.5782" gradientTransform="matrix(-0.5 -0.866 -0.866 0.5 -5677.0825 -9508.9922)">
			<stop  offset="0" style="stop-color:#878787"/>
			<stop  offset="1" style="stop-color:#DADADA"/>
		</linearGradient>
		<path class="st62" d="M192.8,380.2l96.4-55.6l0,0c1.3-0.8,2.2-2.5,2.2-4.9c0-4.8-3.4-10.6-7.6-13c-2-1.2-3.9-1.3-5.3-0.5l0,0
			l-96.3,55.6L192.8,380.2z"/>
		<path class="st19" d="M180,366.7c0-4.8,3.3-6.8,7.5-4.4s7.5,8.2,7.5,13c0,4.8-3.4,6.8-7.5,4.4S180,371.4,180,366.7z"/>
		
			<linearGradient id="SVGID_22_" gradientUnits="userSpaceOnUse" x1="-11512.4746" y1="-205.2964" x2="-11491.2354" y2="-205.2964" gradientTransform="matrix(-0.5 -0.866 -0.866 0.5 -5677.0825 -9508.9922)">
			<stop  offset="0" style="stop-color:#878787"/>
			<stop  offset="1" style="stop-color:#DADADA"/>
		</linearGradient>
		<path class="st63" d="M206.1,387.8l96.4-55.6l0,0c1.3-0.8,2.2-2.5,2.2-4.9c0-4.8-3.4-10.6-7.6-13c-2-1.2-3.9-1.3-5.3-0.5l0,0
			l-96.3,55.6L206.1,387.8z"/>
		<path class="st19" d="M193.3,374.3c0-4.8,3.3-6.7,7.5-4.3s7.5,8.2,7.5,13s-3.4,6.7-7.5,4.3C196.3,384.4,193.6,379.6,193.3,374.3z"
			/>
		
			<linearGradient id="SVGID_23_" gradientUnits="userSpaceOnUse" x1="-11525.7354" y1="-212.9738" x2="-11504.4951" y2="-212.9738" gradientTransform="matrix(-0.5 -0.866 -0.866 0.5 -5677.0825 -9508.9922)">
			<stop  offset="0" style="stop-color:#878787"/>
			<stop  offset="1" style="stop-color:#DADADA"/>
		</linearGradient>
		<path class="st64" d="M219.4,395.5l96.4-55.7l0,0c1.3-0.8,2.2-2.4,2.2-4.8c0-4.8-3.4-10.7-7.6-13c-2-1.2-3.9-1.4-5.3-0.6l0,0
			l-96.3,55.7L219.4,395.5z"/>
		<ellipse transform="matrix(0.866 -0.5 0.5 0.866 -164.4699 158.8116)" class="st19" cx="214.1" cy="386.3" rx="6.1" ry="10.6"/>
		
			<linearGradient id="SVGID_24_" gradientUnits="userSpaceOnUse" x1="-11538.9951" y1="-220.6827" x2="-11517.7549" y2="-220.6827" gradientTransform="matrix(-0.5 -0.866 -0.866 0.5 -5677.0825 -9508.9922)">
			<stop  offset="0" style="stop-color:#878787"/>
			<stop  offset="1" style="stop-color:#DADADA"/>
		</linearGradient>
		<path class="st65" d="M232.7,403.1l96.4-55.6l0,0c1.3-0.8,2.2-2.5,2.2-4.9c0-4.8-3.4-10.6-7.6-13c-2-1.2-3.9-1.3-5.3-0.5l0,0
			l-96.3,55.6L232.7,403.1z"/>
		<ellipse transform="matrix(0.866 -0.5 0.5 0.866 -166.4516 166.4797)" class="st19" cx="227.4" cy="393.8" rx="6.1" ry="10.6"/>
		
			<linearGradient id="SVGID_25_" gradientUnits="userSpaceOnUse" x1="-11552.2451" y1="-228.4008" x2="-11531.0049" y2="-228.4008" gradientTransform="matrix(-0.5 -0.866 -0.866 0.5 -5677.0825 -9508.9922)">
			<stop  offset="0" style="stop-color:#878787"/>
			<stop  offset="1" style="stop-color:#DADADA"/>
		</linearGradient>
		<path class="st66" d="M246,410.7l96.4-55.6l0,0c1.3-0.8,2.2-2.5,2.2-4.9c0-4.8-3.4-10.6-7.6-13c-2-1.2-3.9-1.3-5.3-0.5l0,0
			l-96.3,55.6L246,410.7z"/>
		<path class="st19" d="M233.2,397.2c0-4.8,3.3-6.7,7.5-4.4c4.4,2.9,7.2,7.8,7.5,13.1c0,4.7-3.4,6.7-7.5,4.3
			C236.2,407.3,233.5,402.5,233.2,397.2z"/>
		
			<linearGradient id="SVGID_26_" gradientUnits="userSpaceOnUse" x1="-11565.5049" y1="-236.0699" x2="-11544.2695" y2="-236.0699" gradientTransform="matrix(-0.5 -0.866 -0.866 0.5 -5677.0825 -9508.9922)">
			<stop  offset="0" style="stop-color:#878787"/>
			<stop  offset="1" style="stop-color:#DADADA"/>
		</linearGradient>
		<path class="st67" d="M259.3,418.3l96.3-55.6l0,0c1.4-0.8,2.2-2.5,2.2-4.8c0-4.8-3.3-10.7-7.5-13.1c-2-1.2-3.9-1.3-5.3-0.5l0,0
			L248.7,400L259.3,418.3z"/>
		<path class="st19" d="M246.5,404.8c0-4.8,3.3-6.7,7.5-4.3s7.5,8.2,7.5,13s-3.4,6.7-7.5,4.3C249.5,414.9,246.8,410.1,246.5,404.8z"
			/>
		
			<linearGradient id="SVGID_27_" gradientUnits="userSpaceOnUse" x1="-11578.7646" y1="-243.767" x2="-11557.5293" y2="-243.767" gradientTransform="matrix(-0.5 -0.866 -0.866 0.5 -5677.0825 -9508.9922)">
			<stop  offset="0" style="stop-color:#878787"/>
			<stop  offset="1" style="stop-color:#DADADA"/>
		</linearGradient>
		<path class="st68" d="M272.6,426l96.3-55.7l0,0c1.4-0.7,2.2-2.4,2.2-4.8c-0.3-5.3-3-10.1-7.5-13c-2-1.2-3.9-1.3-5.3-0.5l0,0
			L262,407.6L272.6,426z"/>
		<ellipse transform="matrix(0.866 -0.5 0.5 0.866 -172.5964 189.5109)" class="st19" cx="267.3" cy="416.8" rx="6.1" ry="10.6"/>
		
			<linearGradient id="SVGID_28_" gradientUnits="userSpaceOnUse" x1="-11592.0283" y1="-251.4852" x2="-11570.793" y2="-251.4852" gradientTransform="matrix(-0.5 -0.866 -0.866 0.5 -5677.0825 -9508.9922)">
			<stop  offset="0" style="stop-color:#878787"/>
			<stop  offset="1" style="stop-color:#DADADA"/>
		</linearGradient>
		<path class="st69" d="M285.9,433.6l96.3-55.6l0,0c1.4-0.8,2.2-2.5,2.2-4.9c-0.3-5.3-3-10.1-7.5-13c-2-1.2-3.9-1.3-5.3-0.5l0,0
			l-96.3,55.6L285.9,433.6z"/>
		<ellipse transform="matrix(0.866 -0.5 0.5 0.866 -174.5914 197.1291)" class="st19" cx="280.6" cy="424.4" rx="6.1" ry="10.6"/>
		
			<linearGradient id="SVGID_29_" gradientUnits="userSpaceOnUse" x1="-11605.2852" y1="-259.1923" x2="-11584.0488" y2="-259.1923" gradientTransform="matrix(-0.5 -0.866 -0.866 0.5 -5677.0825 -9508.9922)">
			<stop  offset="0" style="stop-color:#878787"/>
			<stop  offset="1" style="stop-color:#DADADA"/>
		</linearGradient>
		<path class="st70" d="M299.2,441.2l96.3-55.6l0,0c1.4-0.8,2.2-2.5,2.2-4.9c0-4.7-3.3-10.6-7.5-13c-2-1.2-3.9-1.3-5.3-0.5l0,0
			l-96.3,55.6L299.2,441.2z"/>
		<path class="st19" d="M286.4,427.7c0-4.8,3.3-6.7,7.5-4.3s7.5,8.2,7.5,13s-3.4,6.7-7.5,4.3C289.4,437.8,286.7,433,286.4,427.7z"/>
		
			<linearGradient id="SVGID_30_" gradientUnits="userSpaceOnUse" x1="-11618.5352" y1="-266.8715" x2="-11597.2949" y2="-266.8715" gradientTransform="matrix(-0.5 -0.866 -0.866 0.5 -5677.0825 -9508.9922)">
			<stop  offset="0" style="stop-color:#878787"/>
			<stop  offset="1" style="stop-color:#DADADA"/>
		</linearGradient>
		<path class="st71" d="M312.5,448.9l96.3-55.7l0,0c1.4-0.7,2.2-2.4,2.2-4.8c-0.3-5.3-3-10.1-7.5-13c-1.5-1.1-3.5-1.3-5.3-0.6l0,0
			l-96.3,55.7L312.5,448.9z"/>
		<path class="st19" d="M299.7,435.3c0-4.7,3.3-6.7,7.5-4.3s7.5,8.2,7.5,13s-3.4,6.7-7.5,4.3S299.7,440.1,299.7,435.3z"/>
		
			<linearGradient id="SVGID_31_" gradientUnits="userSpaceOnUse" x1="-11631.8105" y1="-274.5896" x2="-11610.5742" y2="-274.5896" gradientTransform="matrix(-0.5 -0.866 -0.866 0.5 -5677.0825 -9508.9922)">
			<stop  offset="0" style="stop-color:#878787"/>
			<stop  offset="1" style="stop-color:#DADADA"/>
		</linearGradient>
		<path class="st72" d="M325.8,456.5l96.3-55.6l0,0c1.4-0.8,2.2-2.5,2.2-4.9c-0.3-5.3-3-10.1-7.5-13c-2-1.2-3.9-1.3-5.3-0.5l0,0
			l-96.3,55.6L325.8,456.5z"/>
		<ellipse transform="matrix(0.866 -0.5 0.5 0.866 -180.6862 220.1469)" class="st19" cx="320.5" cy="447.2" rx="6.1" ry="10.6"/>
		
			<linearGradient id="SVGID_32_" gradientUnits="userSpaceOnUse" x1="-11645.042" y1="-282.3077" x2="-11623.8066" y2="-282.3077" gradientTransform="matrix(-0.5 -0.866 -0.866 0.5 -5677.0825 -9508.9922)">
			<stop  offset="0" style="stop-color:#878787"/>
			<stop  offset="1" style="stop-color:#DADADA"/>
		</linearGradient>
		<path class="st73" d="M339.1,464.1l96.3-55.6l0,0c1.4-0.8,2.2-2.5,2.2-4.9c-0.3-5.3-3-10.1-7.5-13c-2-1.2-3.9-1.3-5.3-0.5l0,0
			l-96.3,55.6L339.1,464.1z"/>
		<ellipse transform="matrix(0.866 -0.5 0.5 0.866 -182.7178 227.8284)" class="st19" cx="333.8" cy="454.9" rx="6.1" ry="10.6"/>
		
			<linearGradient id="SVGID_33_" gradientUnits="userSpaceOnUse" x1="-11658.3154" y1="-289.9759" x2="-11637.0752" y2="-289.9759" gradientTransform="matrix(-0.5 -0.866 -0.866 0.5 -5677.0825 -9508.9922)">
			<stop  offset="0" style="stop-color:#878787"/>
			<stop  offset="1" style="stop-color:#DADADA"/>
		</linearGradient>
		<path class="st74" d="M352.4,471.8l96.3-55.7l0,0c1.4-0.8,2.2-2.4,2.2-4.8c-0.3-5.3-3-10.1-7.5-13c-1.5-1.1-3.5-1.3-5.3-0.6l0,0
			l-96.3,55.7L352.4,471.8z"/>
		<path class="st19" d="M339.6,458.2c0-4.8,3.3-6.7,7.5-4.3s7.5,8.2,7.5,13s-3.4,6.7-7.5,4.3C342.6,468.3,339.9,463.5,339.6,458.2z"
			/>
		
			<linearGradient id="SVGID_34_" gradientUnits="userSpaceOnUse" x1="-11671.5928" y1="-297.694" x2="-11650.3564" y2="-297.694" gradientTransform="matrix(-0.5 -0.866 -0.866 0.5 -5677.0825 -9508.9922)">
			<stop  offset="0" style="stop-color:#878787"/>
			<stop  offset="1" style="stop-color:#DADADA"/>
		</linearGradient>
		<path class="st75" d="M365.7,479.4l96.3-55.6l0,0c1.4-0.8,2.2-2.5,2.2-4.9c-0.3-5.3-3-10.1-7.5-13c-2-1.2-3.9-1.3-5.3-0.5l0,0
			L355.1,461L365.7,479.4z"/>
		<path class="st19" d="M352.9,465.9c0-4.8,3.3-6.8,7.5-4.4s7.5,8.2,7.5,13s-3.4,6.8-7.5,4.4C355.9,476,353.2,471.2,352.9,465.9z"/>
		
			<linearGradient id="SVGID_35_" gradientUnits="userSpaceOnUse" x1="-11684.8242" y1="-305.4121" x2="-11663.5879" y2="-305.4121" gradientTransform="matrix(-0.5 -0.866 -0.866 0.5 -5677.0825 -9508.9922)">
			<stop  offset="0" style="stop-color:#878787"/>
			<stop  offset="1" style="stop-color:#DADADA"/>
		</linearGradient>
		<path class="st76" d="M379,487l96.3-55.6l0,0c1.4-0.8,2.2-2.5,2.2-4.9c-0.3-5.3-3-10.1-7.5-13c-2.1-1.2-3.9-1.3-5.3-0.5l0,0
			l-96.3,55.6L379,487z"/>
		<ellipse transform="matrix(0.866 -0.5 0.5 0.866 -188.8126 250.8462)" class="st19" cx="373.7" cy="477.8" rx="6.1" ry="10.6"/>
		
			<linearGradient id="SVGID_36_" gradientUnits="userSpaceOnUse" x1="-11698.085" y1="-313.088" x2="-11676.8447" y2="-313.088" gradientTransform="matrix(-0.5 -0.866 -0.866 0.5 -5677.0825 -9508.9922)">
			<stop  offset="0" style="stop-color:#878787"/>
			<stop  offset="1" style="stop-color:#DADADA"/>
		</linearGradient>
		<path class="st77" d="M392.3,494.7l96.3-55.7l0,0c1.4-0.8,2.2-2.4,2.2-4.8c0-4.8-3.3-10.7-7.5-13c-2.1-1.2-3.9-1.4-5.3-0.6l0,0
			l-96.3,55.7L392.3,494.7z"/>
		<path class="st19" d="M379.5,481.1c0-4.8,3.3-6.7,7.5-4.3s7.5,8.2,7.5,13s-3.4,6.7-7.5,4.3C382.5,491.2,379.8,486.4,379.5,481.1z"
			/>
		
			<linearGradient id="SVGID_37_" gradientUnits="userSpaceOnUse" x1="-11711.3447" y1="-320.7652" x2="-11690.1055" y2="-320.7652" gradientTransform="matrix(-0.5 -0.866 -0.866 0.5 -5677.0825 -9508.9922)">
			<stop  offset="0" style="stop-color:#878787"/>
			<stop  offset="1" style="stop-color:#DADADA"/>
		</linearGradient>
		<path class="st78" d="M405.6,502.3l96.3-55.6l0,0c1.4-0.8,2.2-2.5,2.2-4.9c-0.3-5.3-3-10.1-7.5-13c-2.1-1.2-3.9-1.3-5.3-0.5l0,0
			l-96.4,55.6L405.6,502.3z"/>
		<path class="st19" d="M392.7,488.8c0-4.8,3.4-6.8,7.6-4.4s7.5,8.2,7.5,13s-3.4,6.8-7.5,4.4S392.7,493.5,392.7,488.8z"/>
		
			<linearGradient id="SVGID_38_" gradientUnits="userSpaceOnUse" x1="-11724.6064" y1="-328.4833" x2="-11703.3662" y2="-328.4833" gradientTransform="matrix(-0.5 -0.866 -0.866 0.5 -5677.0825 -9508.9922)">
			<stop  offset="0" style="stop-color:#878787"/>
			<stop  offset="1" style="stop-color:#DADADA"/>
		</linearGradient>
		<path class="st79" d="M418.9,509.9l96.3-55.6l0,0c1.4-0.8,2.2-2.5,2.2-4.9c-0.3-5.3-3-10.1-7.5-13c-2.1-1.2-3.9-1.3-5.3-0.5l0,0
			l-96.4,55.6L418.9,509.9z"/>
		<path class="st19" d="M406,496.4c0-4.8,3.4-6.7,7.6-4.3s7.5,8.2,7.5,13s-3.4,6.7-7.5,4.3S406,501.2,406,496.4z"/>
		
			<linearGradient id="SVGID_39_" gradientUnits="userSpaceOnUse" x1="-11737.8652" y1="-336.1624" x2="-11716.6289" y2="-336.1624" gradientTransform="matrix(-0.5 -0.866 -0.866 0.5 -5677.0825 -9508.9922)">
			<stop  offset="0" style="stop-color:#878787"/>
			<stop  offset="1" style="stop-color:#DADADA"/>
		</linearGradient>
		<path class="st80" d="M432.2,517.5l96.3-55.6l0,0c1.4-0.8,2.2-2.5,2.2-4.8c0-4.8-3.3-10.7-7.5-13.1c-2.1-1.1-3.9-1.3-5.3-0.5l0,0
			l-96.4,55.7L432.2,517.5z"/>
		<ellipse transform="matrix(0.866 -0.5 0.5 0.866 -196.9756 281.5822)" class="st19" cx="427" cy="508.4" rx="6.1" ry="10.6"/>
		
			<linearGradient id="SVGID_40_" gradientUnits="userSpaceOnUse" x1="-11751.1152" y1="-343.8696" x2="-11729.875" y2="-343.8696" gradientTransform="matrix(-0.5 -0.866 -0.866 0.5 -5677.0825 -9508.9922)">
			<stop  offset="0" style="stop-color:#878787"/>
			<stop  offset="1" style="stop-color:#DADADA"/>
		</linearGradient>
		<path class="st81" d="M445.5,525.2l96.3-55.7l0,0c1.4-0.7,2.2-2.4,2.2-4.8c-0.3-5.3-3-10.1-7.5-13c-2.1-1.2-3.9-1.3-5.3-0.5l0,0
			l-96.4,55.6L445.5,525.2z"/>
		<path class="st19" d="M432.6,511.6c0-4.7,3.4-6.7,7.6-4.3s7.5,8.2,7.5,13s-3.4,6.7-7.5,4.4C435.7,521.8,432.9,516.9,432.6,511.6z"
			/>
		
			<linearGradient id="SVGID_41_" gradientUnits="userSpaceOnUse" x1="-11764.3877" y1="-351.5877" x2="-11743.1484" y2="-351.5877" gradientTransform="matrix(-0.5 -0.866 -0.866 0.5 -5677.0825 -9508.9922)">
			<stop  offset="0" style="stop-color:#878787"/>
			<stop  offset="1" style="stop-color:#DADADA"/>
		</linearGradient>
		<path class="st82" d="M458.8,532.8l96.3-55.6l0,0c1.4-0.8,2.2-2.5,2.2-4.9c-0.3-5.3-3-10.1-7.5-13c-2.1-1.2-3.9-1.3-5.3-0.5l0,0
			l-96.4,55.6L458.8,532.8z"/>
		<path class="st19" d="M445.9,519.3c0-4.8,3.4-6.8,7.6-4.4c4.4,2.9,7.2,7.8,7.5,13.1c0,4.7-3.4,6.7-7.6,4.3
			S445.9,524.1,445.9,519.3z"/>
		<polygon class="st21" points="-36.5,209.4 495,516.2 495,570.2 485.5,575.7 -36.5,263.3 -46,214.8 		"/>
		<polygon class="st13" points="-46,214.8 485.5,521.7 485.5,575.7 -46,268.8 		"/>
		<polygon class="st2" points="-21.8,176.6 -146.1,105.3 -146.1,255.5 -21.8,326.7 16.6,304.5 -21.8,176.6 		"/>
		
			<linearGradient id="SVGID_42_" gradientUnits="userSpaceOnUse" x1="-21.8" y1="247.1142" x2="167.5" y2="247.1142" gradientTransform="matrix(1 0 0 -1 0 444.6141)">
			<stop  offset="0" style="stop-color:#A0ACAE"/>
			<stop  offset="1" style="stop-color:#A7B3B6"/>
		</linearGradient>
		<polygon class="st83" points="16.6,304.5 16.6,198.9 50.5,179.4 58.2,175.1 129.2,134.4 129.2,205.2 150.3,217.4 159.4,222.7 
			167.5,218.1 167.5,68.2 52.8,133.9 17.1,154.4 12.1,157.3 -15.4,172.9 -21.8,176.6 -21.8,176.6 -21.8,176.6 -21.8,326.7 
			-21.8,326.8 -21.5,326.6 -21.7,326.5 		"/>
		<polygon class="st21" points="-21.8,176.6 -15.4,172.9 17.1,154.4 52.8,133.9 167.5,68.2 43.2,-3.1 -146.1,105.3 -21.8,176.6 		
			"/>
		<polygon class="st8" points="-88.7,199.7 -47.9,235.8 -37,229.5 -37,183.8 -88.7,153.9 -99.6,160.2 		"/>
		<polygon class="st6" points="-99.6,160.2 -47.9,190 -47.9,235.8 -99.6,206 		"/>
		<polygon class="st7" points="-51.4,230.6 -59.2,226 -59.2,220 -51.4,224.6 		"/>
		<polygon class="st8" points="-60.8,225.1 -68.7,220.6 -68.7,214.6 -60.8,219.1 		"/>
		<polygon class="st8" points="-51.4,214.9 -59.2,210.4 -59.2,204.4 -51.4,208.9 		"/>
		<polygon class="st8" points="-60.8,209.4 -68.7,204.9 -68.7,198.9 -60.8,203.4 		"/>
		<path class="st84" d="M-70.9,215.3v-13.7c-0.2-2.1-1.3-4-3-5.2l-19.4-11.2c-1.6-0.9-3-0.1-3,1.8v13.6c0.1,2.1,1.2,4,3,5.2
			l19.4,11.2C-72.3,218-70.9,217.2-70.9,215.3z"/>
		<polygon class="st8" points="-51.4,207.1 -59.2,202.5 -59.2,196.5 -51.4,201.1 		"/>
		<polygon class="st9" points="-70.2,196.2 -87.5,186.2 -87.5,180.2 -70.2,190.2 		"/>
		<polygon class="st8" points="-89.1,185.3 -97,180.7 -97,174.7 -89.1,179.3 		"/>
		<polygon class="st7" points="-51.4,199.2 -59.2,194.7 -59.2,188.7 -51.4,193.2 		"/>
		<polygon class="st9" points="-60.8,193.8 -68.7,189.2 -68.7,183.2 -60.8,187.8 		"/>
		<polygon class="st5" points="-79.7,182.9 -87.5,178.4 -87.5,172.4 -79.7,176.9 		"/>
		<polygon class="st8" points="-89.1,177.4 -97,172.9 -97,166.9 -89.1,171.4 		"/>
		<polygon class="st23" points="-25.7,312.8 -141.5,245.9 -141.5,222.2 -25.7,289.1 		"/>
		<polygon class="st23" points="-25.7,282.3 -141.5,215.4 -141.5,203.6 -25.7,270.4 		"/>
		<g class="st10">
			<path class="st11" d="M-107.8,159v4l-26.2-15.2v-4L-107.8,159z M-134,154.2l26.2,15.1v-4l-26.2-15.1V154.2z M-134,160.6
				l26.2,15.1v-4l-26.2-15.1V160.6z M-134,166.9l26.2,15.2v-4l-26.2-15.2V166.9z M-134,173.3l26.2,15.2v-4l-26.2-15.2V173.3z
				 M-134,179.7l26.2,15.2v-4l-26.2-15.2V179.7z"/>
		</g>
		<rect x="-60.7" y="39.8" class="st2" width="131.8" height="48.2"/>
		<ellipse class="st2" cx="5.2" cy="88.1" rx="65.9" ry="38"/>
		<path class="st85" d="M-41.4,12.9c-25.7,14.9-25.7,39,0,53.8s67.4,14.9,93.2,0s25.7-38.9,0-53.8S-15.7-1.9-41.4,12.9z"/>
		<path class="st18" d="M26.6,24.6c11.8,6.8,11.8,17.8,0,24.7s-31,6.8-42.8,0s-11.8-17.9,0-24.7S14.8,17.8,26.6,24.6z"/>
		<polygon class="st19" points="58.4,222.8 78.1,234.2 78.1,254.1 58.4,242.7 		"/>
		<polygon class="st14" points="100.4,198.5 120.2,209.9 78.1,234.2 58.4,222.8 		"/>
		<polygon class="st17" points="120.2,229.8 120.2,209.9 78.1,234.2 78.1,254.1 		"/>
		<rect x="68.2" y="195.5" class="st19" width="16.6" height="27.2"/>
		<ellipse class="st19" cx="76.5" cy="222.7" rx="8.3" ry="4.8"/>
		<ellipse class="st14" cx="76.5" cy="195.5" rx="8.3" ry="4.8"/>
		<ellipse class="st16" cx="76.5" cy="195.5" rx="5.2" ry="3"/>
		<ellipse class="st16" cx="100" cy="209.9" rx="9.6" ry="5.5"/>
		<ellipse class="st16" cx="76.5" cy="195.5" rx="5.2" ry="3"/>
		<path class="st16" d="M90.4,237.5c0-2.4-1.6-3.3-3.7-2.2c-2.1,1.5-3.5,3.8-3.6,6.4c0,2.4,1.6,3.3,3.6,2.2
			C88.9,242.5,90.3,240.1,90.4,237.5z"/>
		<path class="st16" d="M101.8,229.9c0-2.4-1.6-3.3-3.7-2.1c-2.2,1.4-3.6,3.8-3.7,6.4c0,2.3,1.7,3.3,3.7,2.1
			C100.3,234.9,101.7,232.5,101.8,229.9z"/>
		<polygon class="st19" points="194.1,302.4 213.8,313.8 213.8,333.8 194.1,322.4 		"/>
		<polygon class="st14" points="236.1,278.1 255.9,289.5 213.8,313.8 194.1,302.4 		"/>
		<polygon class="st17" points="255.9,309.5 255.9,289.5 213.8,313.8 213.8,333.8 		"/>
		<rect x="203.9" y="275.2" class="st19" width="16.6" height="27.2"/>
		<path class="st19" d="M218.1,299c3.2,1.8,3.2,4.9,0,6.7c-3.7,1.9-8,1.9-11.7,0c-3.3-1.8-3.3-4.9,0-6.7
			C210.1,297.1,214.4,297.1,218.1,299z"/>
		<path class="st14" d="M218.1,271.8c3.2,1.9,3.2,4.9,0,6.8c-3.7,1.8-8,1.8-11.7,0c-3.3-1.9-3.3-4.9,0-6.8
			C210.1,269.9,214.4,269.9,218.1,271.8z"/>
		<ellipse class="st16" cx="212.2" cy="275.2" rx="5.2" ry="3"/>
		<ellipse class="st16" cx="235.7" cy="289.5" rx="9.6" ry="5.5"/>
		<ellipse class="st16" cx="212.2" cy="275.2" rx="5.2" ry="3"/>
		<path class="st16" d="M226.1,317.1c0-2.4-1.6-3.3-3.7-2.1c-2.2,1.4-3.6,3.8-3.7,6.4c0,2.3,1.7,3.3,3.7,2.1
			C224.6,322.1,226,319.7,226.1,317.1z"/>
		<path class="st16" d="M237.5,309.5c0-2.3-1.6-3.3-3.7-2.1c-2.2,1.4-3.6,3.8-3.7,6.4c0,2.3,1.7,3.3,3.7,2.1
			C236,314.5,237.4,312.1,237.5,309.5z"/>
		<polygon class="st19" points="342.7,396.7 362.5,408.1 362.5,428 342.7,416.6 		"/>
		<polygon class="st14" points="384.8,372.4 404.6,383.8 362.5,408.1 342.7,396.7 		"/>
		<polygon class="st17" points="404.6,403.7 404.6,383.8 362.5,408.1 362.5,428 		"/>
		<rect x="352.6" y="369.4" class="st19" width="16.6" height="27.2"/>
		<path class="st19" d="M366.8,393.2c3.2,1.9,3.2,4.9,0,6.8c-3.7,1.9-8,1.9-11.7,0c-3.3-1.9-3.3-4.9,0-6.8
			C358.8,391.4,363.1,391.4,366.8,393.2z"/>
		<path class="st14" d="M366.8,366.1c3.2,1.8,3.2,4.9,0,6.7c-3.7,1.9-8,1.9-11.7,0c-3.3-1.8-3.3-4.9,0-6.7
			C358.8,364.2,363.1,364.2,366.8,366.1z"/>
		<ellipse class="st16" cx="360.9" cy="369.4" rx="5.2" ry="3"/>
		<path class="st16" d="M391.2,379.9c3.7,2.2,3.7,5.7,0,7.8c-4.3,2.2-9.3,2.2-13.6,0c-3.7-2.1-3.7-5.6,0-7.8
			C381.9,377.8,386.9,377.8,391.2,379.9z"/>
		<ellipse class="st16" cx="360.9" cy="369.4" rx="5.2" ry="3"/>
		<path class="st16" d="M374.8,411.4c0-2.4-1.6-3.3-3.7-2.2c-2.2,1.4-3.5,3.8-3.7,6.4c0,2.4,1.7,3.3,3.7,2.2
			C373.3,416.4,374.7,414,374.8,411.4z"/>
		<path class="st16" d="M386.2,403.8c0-2.4-1.6-3.3-3.7-2.1c-2.2,1.4-3.6,3.8-3.7,6.4c0,2.3,1.7,3.3,3.7,2.1
			C384.7,408.8,386.1,406.4,386.2,403.8z"/>
	</g>
</g>
</svg>
