<?xml version="1.0" encoding="utf-8"?>
<!-- Generator: Adobe Illustrator 22.0.1, SVG Export Plug-In . SVG Version: 6.00 Build 0)  -->
<svg version="1.1" id="Слой_1" xmlns="http://www.w3.org/2000/svg" xmlns:xlink="http://www.w3.org/1999/xlink" x="0px" y="0px"
	 viewBox="0 0 256.3 210.2" style="enable-background:new 0 0 256.3 210.2;" xml:space="preserve">
<style type="text/css">
	.st0{clip-path:url(#SVGID_2_);}
	.st1{fill:url(#SVGID_3_);}
	.st2{opacity:0.5;}
	.st3{fill:#97B6BF;}
	.st4{fill:#00233F;}
	.st5{fill:#B7803C;}
	.st6{fill:#303030;}
	.st7{fill:#FFBD95;}
	.st8{fill:#FFA47C;}
	.st9{fill:#8D3B26;}
	.st10{fill:#191919;}
	.st11{fill:#353535;}
	.st12{fill:#002D56;}
	.st13{fill:#0F3960;}
	.st14{fill:#CEE0FF;}
	.st15{fill:#98BEFF;}
	.st16{fill:#416281;}
	.st17{fill:#515151;}
	.st18{fill:#2E2E2E;}
	.st19{fill:#BD0000;}
	.st20{fill:#9F0000;}
	.st21{fill:#C29359;}
	.st22{fill:#999998;}
	.st23{fill:#1D1D1D;}
	.st24{fill:#3B3B3B;}
	.st25{fill:#FFFF00;}
	.st26{fill:#FFC700;}
	.st27{fill:url(#SVGID_4_);}
	.st28{opacity:0.2;fill:url(#SVGID_5_);enable-background:new    ;}
	.st29{opacity:0.2;fill:url(#SVGID_6_);enable-background:new    ;}
	.st30{fill:#FF8626;}
	.st31{fill:#BF5900;}
	.st32{fill:#0E3660;}
	.st33{fill:#1C436D;}
	.st34{fill:#1C4368;}
	.st35{fill:#1C5C92;}
	.st36{fill:#002A51;}
	.st37{fill:#FC7C15;}
	.st38{fill:#EA6315;}
	.st39{fill:#F46F15;}
	.st40{fill:#EA6A1D;}
	.st41{fill:#84AFFF;}
	.st42{fill:#D3E3FF;}
	.st43{fill:#9DC0FF;}
	.st44{fill:#A5C5FF;}
	.st45{fill:#E0F2FF;}
	.st46{fill:#B8D1FF;}
	.st47{fill:#3B1B1D;}
	.st48{fill:#722C1D;}
	.st49{fill:#F2FFFF;}
	.st50{fill:#FFFFFF;}
	.st51{fill:#C0D6FF;}
	.st52{fill:#DBEBFF;}
	.st53{fill:url(#SVGID_7_);}
	.st54{opacity:0.2;fill:url(#SVGID_8_);enable-background:new    ;}
</style>
<title>why-we-illustration</title>
<g>
	<g>
		<defs>
			<path id="SVGID_1_" d="M13.4,187.2c-11-21-11.5-44-4.5-53s0.9-17.4,14.4-33S33,82.8,58.7,77.3s46.6,4,55.1-3s54.1-18.6,57.6-26.1
				s73.5-22,44,41s-1.5,67.5-31.5,85.5S77.3,193.4,58.6,199.3S13.4,187.2,13.4,187.2z"/>
		</defs>
		<clipPath id="SVGID_2_">
			<use xlink:href="#SVGID_1_"  style="overflow:visible;"/>
		</clipPath>
		<g class="st0">
			
				<linearGradient id="SVGID_3_" gradientUnits="userSpaceOnUse" x1="-15.4074" y1="-20.4484" x2="210.3726" y2="205.3216" gradientTransform="matrix(1 0 0 -1 0 210.6141)">
				<stop  offset="0" style="stop-color:#FFFFFF"/>
				<stop  offset="0.12" style="stop-color:#F3F8FA;stop-opacity:0.97"/>
				<stop  offset="0.34" style="stop-color:#D3E6EC;stop-opacity:0.89"/>
				<stop  offset="0.64" style="stop-color:#A0C8D5;stop-opacity:0.76"/>
				<stop  offset="1" style="stop-color:#5EA1B8;stop-opacity:0.6"/>
			</linearGradient>
			<rect x="-47.2" y="34.8" class="st1" width="280.7" height="175.4"/>
			<g class="st2">
				<polygon class="st3" points="167.5,71.6 195.9,79.8 196,79.5 169.6,71.9 223.4,79.8 223.5,79.5 167.6,71.3 				"/>
				<rect x="160.5" y="78.8" class="st3" width="63.7" height="1.6"/>
				<polygon class="st3" points="167.9,78.8 163.8,79.6 160.5,79.6 160.5,80.5 224.2,80.5 224.2,79.6 168.8,79.6 				"/>
				<rect x="163.8" y="70.7" class="st3" width="4.1" height="60"/>
				<path class="st3" d="M165,127.1V70.7h-1.2v60h4.1C166.2,130.4,165,128.8,165,127.1z"/>
				<path class="st3" d="M178.4,130.7h-17.6c-1.4-0.1-2.6,0.9-2.8,2.3v3.3h26.9l-4.3-4.7C180,131,179.2,130.7,178.4,130.7z"/>
				<path class="st3" d="M167.7,69.7H164c-0.5-0.1-0.9,0.3-1,0.8c0,0,0,0,0,0c0,0.5,0.4,0.8,1,0.8h3.7c0.6,0,1-0.3,1-0.8
					C168.6,70,168.2,69.6,167.7,69.7C167.7,69.7,167.7,69.7,167.7,69.7z"/>
				<rect x="203.9" y="83" class="st3" width="2.9" height="3.5"/>
				<rect x="201.4" y="86.5" class="st3" width="8" height="20.4"/>
				<rect x="202.6" y="106.9" class="st3" width="5.5" height="1.7"/>
				<rect x="191.9" y="110.2" class="st3" width="27" height="1"/>
				<rect x="203.9" y="108.7" class="st3" width="3" height="1.6"/>
				<rect x="215.9" y="112.1" class="st3" width="5" height="0.8"/>
				<rect x="218" y="111.2" class="st3" width="0.9" height="0.9"/>
				<polygon class="st3" points="219.9,112.8 219.2,113.4 221.6,113.4 221,112.8 				"/>
				<polygon class="st3" points="215.9,112.8 215.3,113.4 217.7,113.4 217,112.8 				"/>
				<rect x="189.9" y="112.1" class="st3" width="5" height="0.8"/>
				<rect x="191.9" y="111.2" class="st3" width="0.9" height="0.9"/>
				<polygon class="st3" points="193.8,112.8 193.1,113.4 195.5,113.4 194.9,112.8 				"/>
				<polygon class="st3" points="189.8,112.8 189.2,113.4 191.6,113.4 190.9,112.8 				"/>
				<polygon class="st3" points="209.4,86.5 201.4,86.5 201.4,106.9 209.4,106.9 202.6,105.3 202.6,87.9 				"/>
				<path class="st3" d="M202.9,112.2c-0.9,0-1.9-1-3-2s-3.1-3.1-5.6-3.3c-0.9-0.1-1.9,0.2-2.6,0.8c-1.8,1.4-1.8,4.3-1.8,4.4h0.9
					c0-0.1,0-2.7,1.5-3.9c0.6-0.4,1.3-0.6,2-0.5c2,0.1,3.6,1.6,4.9,3s2.3,2.2,3.7,2.2c2.9,0,2.9-1.7,2.9-1.7H205
					C205,111.3,204.8,112.2,202.9,112.2z"/>
				<path class="st3" d="M219.1,107.7c-0.7-0.6-1.7-0.9-2.6-0.8c-2.5,0.2-4.2,1.8-5.6,3.3s-2.1,2-3,2s-2.1-0.9-2.1-1h-0.9
					c0,0,0.1,1.7,3,1.7c1.3,0,2.4-1,3.6-2.2s3-2.9,5-3c0.7-0.1,1.4,0.1,2,0.5c1.5,1.2,1.5,3.8,1.5,3.9h0.9
					C220.9,112,220.9,109.1,219.1,107.7z"/>
				<rect x="205" y="80.5" class="st3" width="0.9" height="2.6"/>
				<path class="st3" d="M203.7,81.5c-1.3,0-3.3,1.9-3.3,6s-0.7,5-1.8,5s-1.5-1-2.2-2.6s-0.3-0.8-0.4-1.3c0.7-1.4,1-2.9,1.1-4.4
					c0-0.4-0.1-0.8-0.2-1.2c-0.2-0.4-0.6-0.6-1-0.6c-0.9,0-1.3,0.9-1.3,2.6c0,1.2,0.2,2.4,0.5,3.6c-1,2.1-2.6,3.9-4.4,3.9
					s-3.1-1.7-4-3.8c0.8-1.3,1.2-2.8,1.3-4.3c0-0.5-0.1-1-0.3-1.4c-0.3-0.5-0.8-0.7-1.3-0.7c-0.5,0-1,0.3-1.1,0.8
					c-0.2,0.5-0.3,1.1-0.3,1.6c0,1.4,0.3,2.7,0.8,4c-1.1,2-2.9,3.8-5.2,3.8s-3.3-1.7-3.9-3.2c1.7-2.5,1.8-5.5,1.1-6.5
					c-0.2-0.3-0.5-0.5-0.9-0.5c-1.2,0-1.6,2-1.6,3.8c0,1.1,0.2,2.2,0.5,3.2c-1.4,2-3.7,3.2-6.2,3.1h-0.1c-6.6-0.1-8-4-8-7.2
					s2.2-4.3,2.3-4.4V80c-0.1,0.1-3.2,0.7-3.2,5.2s3.2,7.8,8.9,7.9h0.1c2.5,0.1,4.9-1,6.5-2.9l0.3,0.5c0.8,1.5,2.4,2.5,4.2,2.5
					c2.4,0,4.3-1.6,5.6-3.6c0.9,2,2.4,3.6,4.5,3.6s3.6-1.5,4.7-3.5c0.7,1.9,1.8,3.5,3.2,3.5s2.6-3.1,2.6-5.7s1.8-5.2,2.5-5.2
					c0.5,0,1,0.3,1.3,0.7h0.9C205.5,82.1,204.7,81.5,203.7,81.5z M176.4,88.2L176.4,88.2c-0.6-2.7,0.1-5,0.6-5.1s0.6,1.7-0.1,3.8
					L176.4,88.2z M185.9,84.7c0-0.4,0.1-0.9,0.2-1.3c0-0.1,0.2-0.4,0.3-0.4c0.2,0,0.4,0.1,0.5,0.3c0.1,0.3,0.2,0.7,0.2,1.1
					c-0.1,1.1-0.3,2.2-0.8,3.2C186.1,86.6,185.9,85.7,185.9,84.7L185.9,84.7z M195.5,85c0-1.4,0.3-1.9,0.4-1.9l0.2,0.2
					c0.1,0.3,0.1,0.6,0.1,0.9c0,1-0.2,2-0.5,2.9C195.5,86.4,195.5,85.7,195.5,85L195.5,85z"/>
				<rect x="195.5" y="80.5" class="st3" width="0.9" height="2.6"/>
				<rect x="186" y="80.5" class="st3" width="0.9" height="2.6"/>
				<rect x="176.5" y="80.5" class="st3" width="0.9" height="2.6"/>
			</g>
			<path class="st3" d="M-110.1,62.9c-0.3-0.1-0.6-0.1-0.9,0c-0.3,0.1-0.5,0.3-0.7,0.6c-0.1,0.3-0.2,0.6-0.1,0.9
				c0.1,0.3,0.4,0.6,0.7,0.7c0.3,0.1,0.6,0.2,0.9,0.1c0.3-0.1,0.5-0.3,0.7-0.6c0.1-0.3,0.2-0.7,0.1-1
				C-109.6,63.3-109.8,63.1-110.1,62.9z M-109.7,64.4c-0.2,0.3-0.4,0.5-0.6,0.5h-0.7c-0.3-0.1-0.4-0.3-0.5-0.6
				c-0.1-0.2-0.1-0.5,0-0.7l0.6-0.5c0.2-0.1,0.5-0.1,0.7,0.1c0.2,0.1,0.4,0.3,0.5,0.5C-109.7,63.8-110.6,64.1-109.7,64.4z"/>
			<path class="st3" d="M-102.8,60.7C-102.8,60.6-102.8,60.6-102.8,60.7l-0.3-0.1c-0.1,0-0.1-0.1-0.1-0.2l0.2-0.2
				c0.1,0,0.1,0,0.1-0.1l0,0l-0.3-0.3c0-0.1,0-0.1-0.1-0.1l0,0l-0.3,0.2l-0.2-0.2v-0.2c0.1-0.1,0.1-0.2,0-0.2l0,0l-0.4-0.2h-0.1
				c-0.1,0-0.1,0-0.1,0.1v0.2h-0.3V59c0-0.1,0-0.2-0.1-0.2h-0.5c0,0.1,0,0.1-0.1,0.1l0,0v0.3h-0.2l-0.2-0.3c0,0-0.1-0.1-0.1,0h-0.1
				l-0.3,0.2c-0.1,0-0.1,0-0.1,0.1l0,0l0.2,0.3h-0.6l-0.2,0.4c-0.1,0.1-0.1,0.2,0,0.2l0.3,0.2c0,0.1-0.1,0.1-0.1,0.2h-0.3
				c-0.1,0.1-0.1,0.1-0.1,0.2V61h-0.2l-0.6,0.4c-0.1-0.2-0.3-0.3-0.5-0.4l0.3-0.6c0.1-0.1,0.1-0.2,0-0.3c0,0,0,0,0,0l0,0l-0.8-0.2
				h-0.1c-0.1,0-0.1,0-0.1,0.1l-0.3,0.6h-0.7v-0.7c0-0.1-0.1-0.1-0.1-0.2h-1.1v0.6l-0.6,0.2l-0.4-0.5c0-0.1-0.1-0.1-0.2-0.1l0,0
				l-0.7,0.5c-0.1,0-0.1,0-0.1,0.1l0,0l0.4,0.6c-0.2,0.1-0.3,0.3-0.5,0.5l-0.6-0.3c0-0.1-0.1,0-0.2,0l0,0l-0.4,0.7l0,0v0.2h0.1
				l0.6,0.3c-0.1,0.2-0.1,0.5-0.1,0.7h-0.8v1c0,0.1,0,0.2,0.2,0.2h0.6c0.1,0.2,0.1,0.4,0.2,0.6l-0.5,0.4c-0.1,0-0.1,0-0.1,0.1v0.2
				l0.4,0.6h0.3l0.6-0.4l0.5,0.5L-113,67c-0.1,0.1-0.1,0.1,0,0.2l0.8,0.4h0.2l0.3-0.6l0.7,0.2V68h1v-0.2l0,0v-0.7l0.6-0.2l0.4,0.6
				h0.2l0.7-0.4c0.1-0.1,0.1-0.2,0.1-0.3l-0.4-0.5c0.2-0.2,0.3-0.4,0.5-0.5l0.6,0.3h0.2l0.4-0.8h0.1l-0.6-0.3
				c0.1-0.2,0.1-0.5,0.1-0.7h0.9v-0.8h-0.9c-0.1-0.2-0.1-0.5-0.2-0.7l0.5-0.3v0.2h0.2l0.2-0.2h0.2v0.3c-0.1,0.1,0,0.1,0,0.2l0.4,0.2
				c0.1,0,0.2,0,0.2-0.1l0.2-0.2h0.2v0.3c0,0.1,0.1,0.2,0.2,0.2c0,0,0,0,0,0h0.5v-0.3h0.2l0.2,0.3h0.2l0.4-0.2c0-0.1,0.1-0.2,0-0.2
				v-0.5l0.3,0.2h0.2l0.2-0.4h-0.4c0.1-0.1,0.1-0.1,0.1-0.2h0.4v-0.4L-102.8,60.7z M-107.6,62.5L-107.6,62.5l0.3,0.8h0.8v0.6h-0.8
				c0,0.3-0.1,0.6-0.2,0.8l0,0l0.7,0.4l-0.3,0.6l-0.7-0.4h-0.1c-0.1,0.2-0.3,0.4-0.5,0.6h-0.1l0.4,0.7l-0.5,0.4l-0.5,0h-0.1
				l-0.8,0.3h-0.1v0.8h-0.6v-0.9h-0.2l-0.8-0.2h-0.1l-0.4,0.7l-0.6-0.3l0.4-0.7h-0.1l-0.6-0.5h-0.1l-0.7,0.4l-0.4-0.6l0.7-0.5l0,0
				l-0.3-0.8h-0.8V64h0.8c0-0.3,0.1-0.5,0.2-0.8l0,0l-0.7-0.4l0.3-0.6l0.7,0.4h0.1l0.5-0.6h0.1l-0.4-0.7l0.5-0.3l0.5,0.7h0.1
				l0.8-0.2h0.1v-0.8h0.6v0.8h0.1l0.8,0.2h0.1l0.4-0.7l0.6,0.3l-0.4,0.7h0.1l0.6,0.6h0.2l0.7-0.5l0.3-0.1l0,0L-107.6,62.5z
				 M-106.8,61.8l-0.2-0.2h0.3v0.3L-106.8,61.8z M-103.3,61.1L-103.3,61.1c-0.1,0.1-0.1,0.3-0.1,0.4h-0.1l0.4,0.2v0.2l-0.4-0.2l0,0
				l-0.3,0.3h-0.2l0.2,0.3h-0.1l-0.3-0.3h-0.1l-0.3,0.2h-0.2v0.4h-0.2v-0.4h-0.6l-0.2,0.3h-0.1v-0.3l0,0l-0.3-0.3l0,0l-0.4,0.3V62
				l0,0l0.4-0.2h-0.2c0-0.2-0.1-0.3-0.1-0.4h-0.4v-0.2h0.4V61c0-0.1,0-0.2,0.1-0.3v-0.2h-0.4v-0.2l0.4,0.2h0.1
				c0-0.1,0.1-0.2,0.2-0.3h0.1l-0.2-0.3l0.2-0.2l0.2,0.4h0.6v-0.4h0.2v0.4h0.6l0.2-0.3h0.2l-0.2,0.4h0.2l0.3,0.2h0.1l0.3-0.2v0.2
				l-0.3,0.2l0,0c0.1,0.1,0.1,0.3,0.1,0.4h0.5v0.2L-103.3,61.1z"/>
			<path class="st3" d="M-104.6,60.5h-0.5c-0.2,0.1-0.4,0.2-0.4,0.4c-0.1,0.1-0.1,0.3-0.1,0.5c0.1,0.2,0.2,0.3,0.4,0.4h0.5
				c0.2,0,0.3-0.1,0.4-0.3c0-0.2,0.1-0.4,0-0.5L-104.6,60.5z M-104.6,61.3c0,0.1-0.1,0.2-0.2,0.2c0,0,0,0,0,0h-0.3l-0.2-0.3
				c-0.1-0.1-0.1-0.2,0-0.3c0,0,0,0,0,0c0.1-0.2,0.4-0.3,0.5-0.2c0.1,0.1,0.2,0.1,0.3,0.3C-104.5,61.1-104.5,61.2-104.6,61.3z"/>
			<g>
				<path class="st3" d="M24,55.6c-0.4-0.2-0.8-0.3-1.2-0.2c-0.4,0.1-0.7,0.4-0.9,0.8c-0.2,0.3-0.2,0.7-0.1,1.1
					c0.1,0.4,0.3,0.7,0.7,0.9c0.4,0.2,0.8,0.3,1.2,0.2c0.4-0.1,0.7-0.4,0.9-0.8c0.2-0.3,0.2-0.7,0.1-1.1
					C24.6,56.1,24.4,55.8,24,55.6z M24.3,57.5c-0.2,0.3-0.4,0.5-0.7,0.6c-0.3,0.1-0.7,0-1-0.1c-0.2-0.2-0.4-0.5-0.5-0.8
					c-0.1-0.3-0.1-0.6,0.1-0.9c0.1-0.3,0.4-0.5,0.7-0.6c0.3-0.1,0.7,0,0.9,0.2c0.3,0.1,0.5,0.4,0.6,0.7
					C24.5,56.9,24.5,57.2,24.3,57.5z"/>
				<path class="st3" d="M33.4,58.5h-0.5c0-0.1-0.1-0.2-0.2-0.3L33,58c0.1-0.1,0.1-0.2,0-0.3c0,0,0,0,0,0l0,0l-0.4-0.4h-0.3
					l-0.2,0.3l-0.3-0.2v-0.3c0-0.1,0-0.2-0.1-0.2l0,0l-0.5-0.2c-0.1,0-0.2,0-0.2,0.1c-0.1,0-0.1,0-0.1,0.1v0v0.3h-0.3V57
					c0-0.1,0-0.1-0.1-0.2L29.9,57h-0.2l0.2,0.5h-0.3l-0.3-0.2H29l-0.2,0.2h-0.1l-0.9-0.2c0.1-0.3,0.1-0.6,0-0.9l0.8-0.2
					c0.1,0,0.2-0.1,0.2-0.2l0,0l-0.3-1c0-0.1,0-0.1-0.1-0.1l0,0h-0.2l-0.8,0.2c-0.1-0.3-0.2-0.5-0.4-0.7l0.6-0.7
					c0.1,0,0.1-0.1,0-0.2l0,0l-0.8-0.7h-0.3l-0.6,0.6L25.2,53l0.2-0.8c0-0.1,0-0.2-0.1-0.3l0,0l-1.1-0.3h-0.3l-0.2,0.8h-0.8
					l-0.3-0.8c0-0.1-0.1-0.2-0.2-0.2h-0.1l-0.9,0.3h-0.1c0,0.1-0.1,0.1-0.1,0.2l0,0l0.2,0.8l-0.7,0.5l-0.6-0.6h-0.4L19,53.3
					c-0.1,0.1-0.1,0.3,0,0.3l0.6,0.6c-0.1,0.3-0.3,0.5-0.4,0.8l-0.8-0.2c-0.1-0.1-0.1,0-0.2,0H18l-0.2,1c-0.1,0.2,0,0.3,0.1,0.3
					l0.9,0.2c-0.1,0.3-0.1,0.6,0,0.9l-0.9,0.2c-0.1,0-0.1,0.1-0.1,0.2l0.3,1.1c0,0.1,0.1,0.2,0.3,0.2l0.8-0.3
					c0.1,0.3,0.2,0.5,0.4,0.7L19,60h-0.1c0,0.1,0,0.1,0.1,0.2l0.7,0.7h0.4l0.6-0.6l0.7,0.4l-0.2,0.8V62h0.2l1,0.3l0.3-0.2l0.2-0.8
					h0.8l0.2,0.8h0.3l1-0.3c0.1,0,0.1-0.1,0.2-0.2l0,0l-0.2-0.8l0.7-0.4l0.6,0.6h0.3l0.7-0.7c0.1,0,0.1-0.1,0.1-0.2
					c0-0.1,0-0.1-0.1-0.1l0,0l-0.6-0.6c0.2-0.3,0.4-0.5,0.5-0.8l0.6,0.2v0.3c0,0.1,0,0.2,0.1,0.2h0.4v0.3h-0.4
					c-0.1,0-0.1,0.1-0.1,0.2v0.6h0.6l0.2,0.3l-0.3,0.2c-0.1,0.1-0.1,0.2,0,0.3c0,0,0,0,0,0l0.4,0.4h0.2l0.3-0.3l0.3,0.2v0.3
					c0,0.1,0,0.2,0.1,0.2l0,0l0.6,0.2c0.1,0,0.2-0.1,0.2-0.2l0,0h0.3v0.3h0.2l0.5-0.2h0.2v-0.4H32l0.3,0.2h0.2l0.4-0.4
					c0.1-0.1,0.1-0.1,0.1-0.2l0,0L32.8,61v-0.2h0.6v-0.5c0.1,0,0-0.1,0-0.2h-0.5c0.1-0.1,0.1-0.2,0-0.3c0,0,0,0,0,0h0.4
					c0.1,0,0.1-0.1,0.1-0.2l0,0V59L33.4,58.5z M28.6,58.2l0.2,0.2c0,0.1-0.1,0.1-0.1,0.2h-0.2L28.6,58.2z M28.2,58.6L28.2,58.6
					l-1-0.2h-0.1c-0.1,0.3-0.3,0.6-0.5,0.9h-0.1l0.8,0.7l-0.6,0.7l-0.8-0.8h-0.1l-0.9,0.5h-0.1l0.3,1l-0.9,0.2l-0.3-1h-1.3l-0.2,1.1
					l-0.9-0.3l0.3-1h-0.1l-1-0.5h-0.1l-0.7,0.7l-0.5-0.4V60l0.7-0.7H20c-0.2-0.3-0.4-0.6-0.5-0.9v-0.2l-1,0.3l-0.2-0.8l1-0.3l0,0
					c-0.1-0.4-0.1-0.7,0-1.1l0,0l-1-0.3l0.2-0.8l1,0.2h0.1c0.1-0.3,0.3-0.6,0.5-0.9h0.1l-0.8-0.7l0.6-0.7l0.8,0.8h0.1l0.9-0.5h0.1
					l-0.3-1l0.8-0.2l0.3,1h1.4l0.2-1l0.9,0.2l-0.3,1H25l0.9,0.6h0.2l0.7-0.7l0.6,0.6l-0.7,0.7v0.2c0.2,0.3,0.4,0.6,0.5,0.9l0,0
					l1-0.3l0.3,0.8l-1,0.3l0,0v1.1l0,0l1,0.3L28.2,58.6L28.2,58.6z M32.8,59.2v0.7l0,0l0.5,0.2v0.2h-0.5l-0.3,0.5h-0.1l0.4,0.3
					l-0.2,0.2L32.3,61H32c-0.1,0.2-0.2,0.2-0.4,0.3h-0.1v0.5h-0.2l-0.2-0.5h-0.8v0.5H30l0.2-0.5H30l-0.4-0.2h-0.1l-0.4,0.4l-0.2-0.2
					l0.4-0.4h-0.1c-0.1-0.1-0.2-0.3-0.2-0.5h-0.1l-0.5,0.2v-0.3h0.5v-0.7h-0.5v-0.3h0.5l0.3-0.5h0.1l-0.4-0.3l0.2-0.2l0.4,0.3h0.1
					c0.1-0.2,0.3-0.2,0.4-0.3h0.1v-0.5h0.3v0.5h0.8v-0.5h0.3l-0.2,0.5h0.2l0.4,0.2H32l0.4-0.4l0.2,0.2l-0.4,0.4h0.1l0.3,0.5l0,0
					l0.5-0.2v0.3L32.8,59.2z"/>
				<path class="st3" d="M31.2,58.9h-0.6c-0.2,0.1-0.4,0.2-0.5,0.4C30,59.5,29.9,59.8,30,60c0.1,0.2,0.2,0.4,0.4,0.5H31
					c0.2-0.1,0.4-0.2,0.6-0.4c0.1-0.2,0.1-0.5,0-0.7C31.6,59.2,31.4,59,31.2,58.9z M31.3,59.9L31,60.2h-0.5
					c-0.1-0.1-0.2-0.2-0.2-0.3v-0.4l0.4-0.3c0.3,0,0.5,0.1,0.6,0.4C31.4,59.6,31.3,59.8,31.3,59.9z"/>
			</g>
			<g>
				<path class="st3" d="M32.7,179.8c-0.6,0.1-1,0.5-1,1.1c0,0.6,0.4,1,1,1c0.5,0.1,1-0.3,1.1-0.9c0,0,0-0.1,0-0.1
					C33.8,180.3,33.3,179.8,32.7,179.8L32.7,179.8z"/>
				<path class="st3" d="M32.7,176.6c-0.6,0.1-1,0.5-1,1.1c0,0.5,0.5,1,1,1c0.6,0,1-0.4,1.1-1C33.8,177.1,33.3,176.6,32.7,176.6
					L32.7,176.6z"/>
				<path class="st3" d="M32.7,173.4c-0.6,0-1,0.4-1,1c0,0.6,0.4,1,1,1.1c0.6,0,1.1-0.5,1.1-1.1v0c0-0.6-0.4-1-1-1
					C32.8,173.4,32.7,173.4,32.7,173.4z"/>
				<path class="st3" d="M32.7,170.1c-0.6,0.1-1,0.5-1,1.1c0,0.6,0.4,1,1,1c0.5,0.1,1-0.3,1.1-0.9c0,0,0-0.1,0-0.1
					C33.8,170.6,33.3,170.1,32.7,170.1L32.7,170.1z"/>
				<path class="st3" d="M35.7,179.8c-0.6,0-1.1,0.5-1.1,1.1v0c0,0.6,0.4,1,1,1c0,0,0.1,0,0.1,0c0.5,0.1,0.9-0.3,1-0.8
					c0-0.1,0-0.1,0-0.2c0.1-0.5-0.3-1-0.9-1.1C35.8,179.8,35.7,179.8,35.7,179.8z"/>
				<path class="st3" d="M35.7,176.6c-0.6,0-1.1,0.5-1.1,1.1v0c0.1,0.6,0.5,1,1.1,1c0.6,0,1-0.4,1-1c0.1-0.5-0.3-1-0.9-1.1
					C35.8,176.6,35.7,176.6,35.7,176.6z"/>
				<path class="st3" d="M35.7,173.4c-0.5-0.1-1,0.3-1.1,0.9c0,0,0,0.1,0,0.1c0,0.6,0.5,1.1,1.1,1.1h0c0.6,0,1-0.4,1-1
					c0,0,0-0.1,0-0.1c0.1-0.5-0.3-0.9-0.8-1C35.8,173.4,35.8,173.4,35.7,173.4z"/>
				<path class="st3" d="M35.7,170.1c-0.6,0-1.1,0.5-1.1,1.1v0c0,0.6,0.4,1,1,1c0,0,0.1,0,0.1,0c0.5,0.1,0.9-0.3,1-0.8
					c0-0.1,0-0.1,0-0.2c0.1-0.5-0.3-1-0.9-1.1C35.8,170.1,35.7,170.1,35.7,170.1z"/>
				<path class="st3" d="M35.7,166.9c-0.6,0-1.1,0.5-1.1,1.1v0c0.1,0.6,0.5,1,1.1,1c0.6,0,1-0.4,1-1c0.1-0.5-0.3-1-0.9-1.1
					C35.8,166.9,35.7,166.9,35.7,166.9z"/>
				<path class="st3" d="M38.6,179.8c-0.6,0.1-1,0.5-1,1.1c0,0.6,0.4,1,1,1c0.5,0.1,1-0.3,1.1-0.9c0,0,0-0.1,0-0.1
					C39.7,180.3,39.2,179.8,38.6,179.8L38.6,179.8z"/>
				<path class="st3" d="M38.6,176.6c-0.6,0.1-1,0.5-1,1.1c0,0.5,0.5,1,1,1c0.6,0,1-0.4,1.1-1C39.7,177.1,39.2,176.6,38.6,176.6
					L38.6,176.6z"/>
				<path class="st3" d="M38.6,173.4c-0.6,0-1,0.4-1,1c0,0.6,0.4,1,1,1.1c0.6,0,1.1-0.5,1.1-1.1v0c0-0.6-0.4-1-1-1
					C38.7,173.4,38.6,173.4,38.6,173.4z"/>
				<path class="st3" d="M38.6,170.1c-0.6,0.1-1,0.5-1,1.1c0,0.6,0.4,1,1,1c0.5,0.1,1-0.3,1.1-0.9c0,0,0-0.1,0-0.1
					C39.7,170.6,39.2,170.1,38.6,170.1L38.6,170.1z"/>
				<path class="st3" d="M38.6,166.9c-0.6,0.1-1,0.5-1,1.1c0,0.5,0.5,1,1,1c0.6,0,1-0.4,1.1-1C39.7,167.4,39.2,166.9,38.6,166.9
					L38.6,166.9z"/>
				<path class="st3" d="M38.6,163.7c-0.6,0-1,0.4-1,1c0,0.6,0.4,1,1,1.1c0.6,0,1.1-0.5,1.1-1.1v0c0-0.6-0.4-1-1-1
					C38.7,163.7,38.6,163.7,38.6,163.7z"/>
				<path class="st3" d="M38.6,160.4c-0.6,0.1-1,0.5-1,1.1c0,0.6,0.4,1,1,1c0.5,0.1,1-0.3,1.1-0.9c0,0,0-0.1,0-0.1
					C39.7,160.9,39.2,160.4,38.6,160.4L38.6,160.4z"/>
				<path class="st3" d="M41.6,179.8c-0.6,0-1.1,0.5-1.1,1.1v0c0,0.6,0.4,1,1,1c0,0,0.1,0,0.1,0c0.5,0.1,0.9-0.3,1-0.8
					c0-0.1,0-0.1,0-0.2c0.1-0.5-0.3-1-0.9-1.1C41.7,179.8,41.6,179.8,41.6,179.8z"/>
				<path class="st3" d="M41.6,176.6c-0.6,0-1.1,0.5-1.1,1.1v0c0.1,0.6,0.5,1,1.1,1c0.6,0,1-0.4,1-1c0.1-0.5-0.3-1-0.9-1.1
					C41.7,176.6,41.6,176.6,41.6,176.6z"/>
				<path class="st3" d="M41.6,173.4c-0.5-0.1-1,0.3-1.1,0.9c0,0,0,0.1,0,0.1c0,0.6,0.5,1.1,1.1,1.1h0c0.6,0,1-0.4,1-1
					c0,0,0-0.1,0-0.1c0.1-0.5-0.3-0.9-0.8-1C41.7,173.4,41.7,173.4,41.6,173.4z"/>
				<path class="st3" d="M41.6,170.1c-0.6,0-1.1,0.5-1.1,1.1v0c0,0.6,0.4,1,1,1c0,0,0.1,0,0.1,0c0.5,0.1,0.9-0.3,1-0.8
					c0-0.1,0-0.1,0-0.2c0.1-0.5-0.3-1-0.9-1.1C41.7,170.1,41.6,170.1,41.6,170.1z"/>
				<path class="st3" d="M41.6,166.9c-0.6,0-1.1,0.5-1.1,1.1v0c0.1,0.6,0.5,1,1.1,1c0.6,0,1-0.4,1-1c0.1-0.5-0.3-1-0.9-1.1
					C41.7,166.9,41.6,166.9,41.6,166.9z"/>
				<path class="st3" d="M41.6,163.7c-0.5-0.1-1,0.3-1.1,0.9c0,0,0,0.1,0,0.1c0,0.6,0.5,1.1,1.1,1.1h0c0.6,0,1-0.4,1-1
					c0,0,0-0.1,0-0.1c0.1-0.5-0.3-0.9-0.8-1C41.7,163.7,41.7,163.7,41.6,163.7z"/>
				<path class="st3" d="M44.5,179.8c-0.6,0.1-1,0.5-1,1.1c0,0.6,0.4,1,1,1c0.5,0.1,1-0.3,1.1-0.9c0,0,0-0.1,0-0.1
					C45.6,180.3,45.1,179.8,44.5,179.8L44.5,179.8z"/>
				<path class="st3" d="M44.5,176.6c-0.6,0.1-1,0.5-1,1.1c0,0.5,0.5,1,1,1c0.6,0,1-0.4,1.1-1C45.6,177.1,45.1,176.6,44.5,176.6
					L44.5,176.6z"/>
				<path class="st3" d="M47.5,179.8c-0.6,0-1.1,0.5-1.1,1.1v0c0,0.6,0.4,1,1,1c0,0,0.1,0,0.1,0c0.5,0.1,0.9-0.3,1-0.8
					c0-0.1,0-0.1,0-0.2c0.1-0.5-0.3-1-0.9-1.1C47.6,179.8,47.5,179.8,47.5,179.8z"/>
				<path class="st3" d="M47.5,176.6c-0.6,0-1.1,0.5-1.1,1.1v0c0.1,0.6,0.5,1,1.1,1c0.6,0,1-0.4,1-1c0.1-0.5-0.3-1-0.9-1.1
					C47.6,176.6,47.5,176.6,47.5,176.6z"/>
				<path class="st3" d="M47.5,173.4c-0.5-0.1-1,0.3-1.1,0.9c0,0,0,0.1,0,0.1c0,0.6,0.5,1.1,1.1,1.1h0c0.6,0,1-0.4,1-1
					c0,0,0-0.1,0-0.1c0.1-0.5-0.3-0.9-0.8-1C47.6,173.4,47.6,173.4,47.5,173.4z"/>
				<path class="st3" d="M47.5,170.1c-0.6,0-1.1,0.5-1.1,1.1v0c0,0.6,0.4,1,1,1c0,0,0.1,0,0.1,0c0.5,0.1,0.9-0.3,1-0.8
					c0-0.1,0-0.1,0-0.2c0.1-0.5-0.3-1-0.9-1.1C47.6,170.1,47.5,170.1,47.5,170.1z"/>
				<path class="st3" d="M50.4,179.8c-0.6,0.1-1,0.5-1,1.1c0,0.6,0.4,1,1,1c0.5,0.1,1-0.3,1.1-0.9c0,0,0-0.1,0-0.1
					C51.5,180.3,51,179.8,50.4,179.8L50.4,179.8z"/>
				<path class="st3" d="M50.4,176.6c-0.6,0.1-1,0.5-1,1.1c0,0.5,0.5,1,1,1c0.6,0,1-0.4,1.1-1C51.5,177.1,51,176.6,50.4,176.6
					L50.4,176.6z"/>
				<path class="st3" d="M50.4,173.4c-0.6,0-1,0.4-1,1c0,0.6,0.4,1,1,1.1c0.6,0,1.1-0.5,1.1-1.1v0c0-0.6-0.4-1-1-1
					C50.5,173.4,50.4,173.4,50.4,173.4z"/>
				<path class="st3" d="M50.4,170.1c-0.6,0.1-1,0.5-1,1.1c0,0.6,0.4,1,1,1c0.5,0.1,1-0.3,1.1-0.9c0,0,0-0.1,0-0.1
					C51.5,170.6,51,170.1,50.4,170.1L50.4,170.1z"/>
				<path class="st3" d="M50.4,166.9c-0.6,0.1-1,0.5-1,1.1c0,0.5,0.5,1,1,1c0.6,0,1-0.4,1.1-1C51.5,167.4,51,166.9,50.4,166.9
					L50.4,166.9z"/>
				<path class="st3" d="M50.4,163.7c-0.6,0-1,0.4-1,1c0,0.6,0.4,1,1,1.1c0.6,0,1.1-0.5,1.1-1.1v0c0-0.6-0.4-1-1-1
					C50.5,163.7,50.4,163.7,50.4,163.7z"/>
				<path class="st3" d="M53.4,179.8c-0.6,0-1.1,0.5-1.1,1.1v0c0,0.6,0.4,1,1,1c0,0,0.1,0,0.1,0c0.5,0.1,0.9-0.3,1-0.8
					c0-0.1,0-0.1,0-0.2c0.1-0.5-0.3-1-0.9-1.1C53.5,179.8,53.4,179.8,53.4,179.8z"/>
				<path class="st3" d="M53.4,176.6c-0.6,0-1.1,0.5-1.1,1.1v0c0.1,0.6,0.5,1,1.1,1c0.6,0,1-0.4,1-1c0.1-0.5-0.3-1-0.9-1.1
					C53.5,176.6,53.4,176.6,53.4,176.6z"/>
				<path class="st3" d="M53.4,173.4c-0.5-0.1-1,0.3-1.1,0.9c0,0,0,0.1,0,0.1c0,0.6,0.5,1.1,1.1,1.1h0c0.6,0,1-0.4,1-1
					c0,0,0-0.1,0-0.1c0.1-0.5-0.3-0.9-0.8-1C53.5,173.4,53.5,173.4,53.4,173.4z"/>
				<path class="st3" d="M53.4,170.1c-0.6,0-1.1,0.5-1.1,1.1v0c0,0.6,0.4,1,1,1c0,0,0.1,0,0.1,0c0.5,0.1,0.9-0.3,1-0.8
					c0-0.1,0-0.1,0-0.2c0.1-0.5-0.3-1-0.9-1.1C53.5,170.1,53.4,170.1,53.4,170.1z"/>
				<path class="st3" d="M53.4,166.9c-0.6,0-1.1,0.5-1.1,1.1v0c0.1,0.6,0.5,1,1.1,1c0.6,0,1-0.4,1-1c0.1-0.5-0.3-1-0.9-1.1
					C53.5,166.9,53.4,166.9,53.4,166.9z"/>
				<path class="st3" d="M56.3,179.8c-0.6,0.1-1,0.5-1,1.1c0,0.6,0.4,1,1,1c0.5,0.1,1-0.3,1.1-0.9c0,0,0-0.1,0-0.1
					C57.4,180.3,56.9,179.8,56.3,179.8L56.3,179.8z"/>
				<path class="st3" d="M56.3,176.6c-0.6,0.1-1,0.5-1,1.1c0,0.5,0.5,1,1,1c0.6,0,1-0.4,1.1-1C57.4,177.1,56.9,176.6,56.3,176.6
					L56.3,176.6z"/>
				<path class="st3" d="M56.3,173.4c-0.6,0-1,0.4-1,1c0,0.6,0.4,1,1,1.1c0.6,0,1.1-0.5,1.1-1.1v0c0-0.6-0.4-1-1-1
					C56.4,173.4,56.3,173.4,56.3,173.4z"/>
				<path class="st3" d="M56.3,170.1c-0.6,0.1-1,0.5-1,1.1c0,0.6,0.4,1,1,1c0.5,0.1,1-0.3,1.1-0.9c0,0,0-0.1,0-0.1
					C57.4,170.6,56.9,170.1,56.3,170.1L56.3,170.1z"/>
				<path class="st3" d="M59.3,179.8c-0.6,0-1.1,0.5-1.1,1.1v0c0,0.6,0.4,1,1,1c0,0,0.1,0,0.1,0c0.5,0.1,0.9-0.3,1-0.8
					c0-0.1,0-0.1,0-0.2c0.1-0.5-0.3-1-0.9-1.1C59.4,179.8,59.3,179.8,59.3,179.8z"/>
				<path class="st3" d="M59.3,176.6c-0.6,0-1.1,0.5-1.1,1.1v0c0.1,0.6,0.5,1,1.1,1c0.6,0,1-0.4,1-1c0.1-0.5-0.3-1-0.9-1.1
					C59.4,176.6,59.3,176.6,59.3,176.6z"/>
				<path class="st3" d="M59.3,173.4c-0.5-0.1-1,0.3-1.1,0.9c0,0,0,0.1,0,0.1c0,0.6,0.5,1.1,1.1,1.1h0c0.6,0,1-0.4,1-1
					c0,0,0-0.1,0-0.1c0.1-0.5-0.3-0.9-0.8-1C59.4,173.4,59.4,173.4,59.3,173.4z"/>
				<path class="st3" d="M59.3,170.1c-0.6,0-1.1,0.5-1.1,1.1v0c0,0.6,0.4,1,1,1c0,0,0.1,0,0.1,0c0.5,0.1,0.9-0.3,1-0.8
					c0-0.1,0-0.1,0-0.2c0.1-0.5-0.3-1-0.9-1.1C59.4,170.1,59.3,170.1,59.3,170.1z"/>
				<path class="st3" d="M59.3,166.9c-0.6,0-1.1,0.5-1.1,1.1v0c0.1,0.6,0.5,1,1.1,1c0.6,0,1-0.4,1-1c0.1-0.5-0.3-1-0.9-1.1
					C59.4,166.9,59.3,166.9,59.3,166.9z"/>
				<path class="st3" d="M59.3,163.7c-0.5-0.1-1,0.3-1.1,0.9c0,0,0,0.1,0,0.1c0,0.6,0.5,1.1,1.1,1.1h0c0.6,0,1-0.4,1-1
					c0,0,0-0.1,0-0.1c0.1-0.5-0.3-0.9-0.8-1C59.4,163.7,59.4,163.7,59.3,163.7z"/>
				<path class="st3" d="M62.2,179.8c-0.6,0.1-1,0.5-1,1.1c0,0.6,0.4,1,1,1c0.5,0.1,1-0.3,1.1-0.9c0,0,0-0.1,0-0.1
					C63.3,180.3,62.8,179.8,62.2,179.8L62.2,179.8z"/>
				<path class="st3" d="M62.2,176.6c-0.6,0.1-1,0.5-1,1.1c0,0.5,0.5,1,1,1c0.6,0,1-0.4,1.1-1C63.3,177.1,62.8,176.6,62.2,176.6
					L62.2,176.6z"/>
				<path class="st3" d="M62.2,173.4c-0.6,0-1,0.4-1,1c0,0.6,0.4,1,1,1.1c0.6,0,1.1-0.5,1.1-1.1v0c0-0.6-0.4-1-1-1
					C62.3,173.4,62.2,173.4,62.2,173.4z"/>
				<path class="st3" d="M62.2,170.1c-0.6,0.1-1,0.5-1,1.1c0,0.6,0.4,1,1,1c0.5,0.1,1-0.3,1.1-0.9c0,0,0-0.1,0-0.1
					C63.3,170.6,62.8,170.1,62.2,170.1L62.2,170.1z"/>
				<path class="st3" d="M62.2,166.9c-0.6,0.1-1,0.5-1,1.1c0,0.5,0.5,1,1,1c0.6,0,1-0.4,1.1-1C63.3,167.4,62.8,166.9,62.2,166.9
					L62.2,166.9z"/>
				<path class="st3" d="M65.2,179.8c-0.6,0-1.1,0.5-1.1,1.1v0c0,0.6,0.4,1,1,1c0,0,0.1,0,0.1,0c0.5,0.1,0.9-0.3,1-0.8
					c0-0.1,0-0.1,0-0.2c0.1-0.5-0.3-1-0.9-1.1C65.3,179.8,65.2,179.8,65.2,179.8z"/>
				<path class="st3" d="M65.2,176.6c-0.6,0-1.1,0.5-1.1,1.1v0c0.1,0.6,0.5,1,1.1,1c0.6,0,1-0.4,1-1c0.1-0.5-0.3-1-0.9-1.1
					C65.3,176.6,65.2,176.6,65.2,176.6z"/>
				<path class="st3" d="M65.2,173.4c-0.5-0.1-1,0.3-1.1,0.9c0,0,0,0.1,0,0.1c0,0.6,0.5,1.1,1.1,1.1h0c0.6,0,1-0.4,1-1
					c0,0,0-0.1,0-0.1c0.1-0.5-0.3-0.9-0.8-1C65.3,173.4,65.3,173.4,65.2,173.4z"/>
				<path class="st3" d="M0.3,179.8c-0.6,0-1,0.4-1,1c0,0,0,0.1,0,0.1c-0.1,0.5,0.3,0.9,0.8,1c0.1,0,0.1,0,0.2,0
					c0.5,0.1,1-0.3,1.1-0.9c0,0,0-0.1,0-0.1C1.4,180.3,0.9,179.8,0.3,179.8C0.3,179.8,0.3,179.8,0.3,179.8z"/>
				<path class="st3" d="M0.3,176.6c-0.6,0-1,0.4-1,1c0,0,0,0.1,0,0.1c0,0.6,0.4,1,1,1c0.6,0,1-0.4,1.1-1
					C1.4,177.1,0.9,176.6,0.3,176.6C0.3,176.6,0.3,176.6,0.3,176.6z"/>
				<path class="st3" d="M3.3,179.8c-0.6,0-1.1,0.5-1.1,1.1l0,0c0,0.6,0.4,1,1,1c0,0,0.1,0,0.1,0c0.6,0,1-0.4,1-1
					C4.3,180.3,3.9,179.9,3.3,179.8z"/>
				<path class="st3" d="M3.3,176.6c-0.6,0-1.1,0.5-1.1,1.1l0,0c0.1,0.6,0.5,1,1.1,1c0.5,0,1-0.5,1-1C4.3,177.1,3.9,176.7,3.3,176.6
					z"/>
				<path class="st3" d="M3.3,173.4c-0.5-0.1-1,0.3-1.1,0.9c0,0,0,0.1,0,0.1c0,0.6,0.5,1.1,1.1,1.1c0,0,0,0,0,0c0.6-0.1,1-0.5,1-1.1
					C4.3,173.8,3.9,173.4,3.3,173.4z"/>
				<path class="st3" d="M6.2,179.8c-0.6,0-1,0.4-1,1c0,0,0,0.1,0,0.1c-0.1,0.5,0.3,0.9,0.8,1c0.1,0,0.1,0,0.2,0
					c0.5,0.1,1-0.3,1.1-0.9c0,0,0-0.1,0-0.1C7.3,180.3,6.8,179.8,6.2,179.8C6.2,179.8,6.2,179.8,6.2,179.8z"/>
				<path class="st3" d="M6.2,176.6c-0.6,0-1,0.4-1,1c0,0,0,0.1,0,0.1c0,0.6,0.4,1,1,1c0.6,0,1-0.4,1.1-1
					C7.3,177.1,6.8,176.6,6.2,176.6C6.2,176.6,6.2,176.6,6.2,176.6z"/>
				<path class="st3" d="M6.2,173.4c-0.5-0.1-0.9,0.3-1,0.8c0,0.1,0,0.1,0,0.2c-0.1,0.5,0.3,1,0.9,1.1c0,0,0.1,0,0.1,0
					c0.6,0,1.1-0.5,1.1-1.1l0,0c0-0.6-0.4-1-1-1C6.3,173.4,6.2,173.4,6.2,173.4z"/>
				<path class="st3" d="M6.2,170.1c-0.6,0-1,0.4-1,1c0,0,0,0.1,0,0.1c-0.1,0.5,0.3,0.9,0.8,1c0.1,0,0.1,0,0.2,0
					c0.5,0.1,1-0.3,1.1-0.9c0,0,0-0.1,0-0.1C7.3,170.6,6.8,170.1,6.2,170.1C6.2,170.1,6.2,170.1,6.2,170.1z"/>
				<circle class="st3" cx="6.2" cy="168" r="1.1"/>
				<path class="st3" d="M9.2,179.8c-0.6,0-1.1,0.5-1.1,1.1l0,0c0,0.6,0.4,1,1,1c0,0,0.1,0,0.1,0c0.6,0,1-0.4,1-1
					C10.2,180.3,9.8,179.9,9.2,179.8z"/>
				<path class="st3" d="M9.2,176.6c-0.6,0-1.1,0.5-1.1,1.1l0,0c0.1,0.6,0.5,1,1.1,1c0.5,0,1-0.5,1-1
					C10.2,177.1,9.8,176.7,9.2,176.6z"/>
				<path class="st3" d="M9.2,173.4c-0.5-0.1-1,0.3-1.1,0.9c0,0,0,0.1,0,0.1c0,0.6,0.5,1.1,1.1,1.1c0,0,0,0,0,0c0.6-0.1,1-0.5,1-1.1
					C10.2,173.8,9.8,173.4,9.2,173.4z"/>
				<path class="st3" d="M9.2,170.1c-0.6,0-1.1,0.5-1.1,1.1l0,0c0,0.6,0.4,1,1,1c0,0,0.1,0,0.1,0c0.6,0,1-0.4,1-1
					C10.2,170.6,9.8,170.2,9.2,170.1z"/>
				<path class="st3" d="M12.1,179.8c-0.6,0-1,0.4-1,1c0,0,0,0.1,0,0.1c-0.1,0.5,0.3,0.9,0.8,1c0.1,0,0.1,0,0.2,0
					c0.5,0.1,1-0.3,1.1-0.9c0,0,0-0.1,0-0.1C13.2,180.3,12.7,179.8,12.1,179.8C12.1,179.8,12.1,179.8,12.1,179.8z"/>
				<path class="st3" d="M12.1,176.6c-0.6,0-1,0.4-1,1c0,0,0,0.1,0,0.1c0,0.6,0.4,1,1,1c0.6,0,1-0.4,1.1-1
					C13.2,177.1,12.7,176.6,12.1,176.6C12.1,176.6,12.1,176.6,12.1,176.6z"/>
				<path class="st3" d="M12.1,173.4c-0.5-0.1-0.9,0.3-1,0.8c0,0.1,0,0.1,0,0.2c-0.1,0.5,0.3,1,0.9,1.1c0,0,0.1,0,0.1,0
					c0.6,0,1.1-0.5,1.1-1.1l0,0c0-0.6-0.4-1-1-1C12.2,173.4,12.1,173.4,12.1,173.4z"/>
				<path class="st3" d="M15.1,179.8c-0.6,0-1.1,0.5-1.1,1.1v0c0,0.6,0.4,1,1,1c0,0,0.1,0,0.1,0c0.6,0,1-0.4,1-1
					C16.1,180.3,15.7,179.9,15.1,179.8z"/>
				<path class="st3" d="M15.1,176.6c-0.6,0-1.1,0.5-1.1,1.1v0c0.1,0.6,0.5,1,1.1,1c0.5,0,1-0.5,1-1
					C16.1,177.1,15.7,176.7,15.1,176.6z"/>
				<path class="st3" d="M18,179.8c-0.6,0-1,0.4-1,1c0,0,0,0.1,0,0.1c-0.1,0.5,0.3,0.9,0.8,1c0.1,0,0.1,0,0.2,0
					c0.5,0.1,1-0.3,1.1-0.9c0,0,0-0.1,0-0.1C19.1,180.3,18.6,179.8,18,179.8L18,179.8z"/>
				<path class="st3" d="M18,176.6c-0.6,0-1,0.4-1,1c0,0,0,0.1,0,0.1c0,0.6,0.4,1,1,1c0.6,0,1-0.4,1.1-1
					C19.1,177.1,18.6,176.6,18,176.6L18,176.6z"/>
				<path class="st3" d="M18,173.4c-0.5-0.1-0.9,0.3-1,0.8c0,0.1,0,0.1,0,0.2c-0.1,0.5,0.3,1,0.9,1.1c0,0,0.1,0,0.1,0
					c0.6,0,1.1-0.5,1.1-1.1v0c0-0.6-0.4-1-1-1C18.1,173.4,18,173.4,18,173.4z"/>
				<path class="st3" d="M21,179.8c-0.6,0-1.1,0.5-1.1,1.1v0c0,0.6,0.4,1,1,1c0,0,0.1,0,0.1,0c0.6,0,1-0.4,1-1
					C22,180.3,21.6,179.9,21,179.8z"/>
				<path class="st3" d="M21,176.6c-0.6,0-1.1,0.5-1.1,1.1v0c0.1,0.6,0.5,1,1.1,1c0.5,0,1-0.5,1-1C22,177.1,21.6,176.7,21,176.6z"/>
				<path class="st3" d="M21,173.4c-0.5-0.1-1,0.3-1.1,0.9c0,0,0,0.1,0,0.1c0,0.6,0.5,1.1,1.1,1.1h0c0.6-0.1,1-0.5,1-1.1
					C22,173.8,21.6,173.4,21,173.4z"/>
				<path class="st3" d="M21,170.1c-0.6,0-1.1,0.5-1.1,1.1v0c0,0.6,0.4,1,1,1c0,0,0.1,0,0.1,0c0.6,0,1-0.4,1-1
					C22,170.6,21.6,170.2,21,170.1z"/>
				<circle class="st3" cx="21" cy="168" r="1.1"/>
				<path class="st3" d="M23.9,179.8c-0.6,0-1.1,0.5-1.1,1.1v0c0,0.6,0.5,1.1,1.1,1.1c0.6,0,1.1-0.5,1.1-1.1
					C25,180.3,24.5,179.8,23.9,179.8z"/>
				<path class="st3" d="M23.9,176.6c-0.6,0-1.1,0.5-1.1,1.1v0c0,0.6,0.5,1.1,1.1,1.1c0.6,0,1.1-0.5,1.1-1.1
					C25,177.1,24.5,176.6,23.9,176.6z"/>
				<path class="st3" d="M23.9,173.4c-0.5-0.1-1,0.3-1.1,0.9c0,0,0,0.1,0,0.1c0,0.6,0.5,1.1,1.1,1.1c0.6,0,1.1-0.5,1.1-1.1
					c0-0.6-0.4-1-1-1C24,173.4,23.9,173.4,23.9,173.4z"/>
				<path class="st3" d="M23.9,170.1c-0.6,0-1.1,0.5-1.1,1.1v0c0,0.6,0.5,1.1,1.1,1.1c0.6,0,1.1-0.5,1.1-1.1
					C25,170.6,24.5,170.1,23.9,170.1z"/>
				<path class="st3" d="M26.8,179.8c-0.6,0.1-1,0.5-1,1.1c0,0.6,0.4,1,1,1c0.5,0.1,1-0.3,1.1-0.9c0,0,0-0.1,0-0.1
					C27.9,180.3,27.4,179.8,26.8,179.8L26.8,179.8z"/>
				<path class="st3" d="M26.8,176.6c-0.6,0.1-1,0.5-1,1.1c0,0.5,0.5,1,1,1c0.6,0,1-0.4,1.1-1C27.9,177.1,27.4,176.6,26.8,176.6
					L26.8,176.6z"/>
				<path class="st3" d="M26.8,173.4c-0.6,0-1,0.4-1,1c0,0.6,0.4,1,1,1.1c0.6,0,1.1-0.5,1.1-1.1v0c0-0.6-0.4-1-1-1
					C26.9,173.4,26.8,173.4,26.8,173.4z"/>
				<path class="st3" d="M26.8,170.1c-0.6,0.1-1,0.5-1,1.1c0,0.6,0.4,1,1,1c0.5,0.1,1-0.3,1.1-0.9c0,0,0-0.1,0-0.1
					C27.9,170.6,27.4,170.1,26.8,170.1L26.8,170.1z"/>
				<path class="st3" d="M26.8,166.9c-0.6,0.1-1,0.5-1,1.1c0,0.5,0.5,1,1,1c0.6,0,1-0.4,1.1-1C27.9,167.4,27.4,166.9,26.8,166.9
					L26.8,166.9z"/>
				<path class="st3" d="M26.8,163.7c-0.6,0-1,0.4-1,1c0,0.6,0.4,1,1,1.1c0.6,0,1.1-0.5,1.1-1.1v0c0-0.6-0.4-1-1-1
					C26.9,163.7,26.8,163.7,26.8,163.7z"/>
				<path class="st3" d="M29.8,179.8c-0.6,0-1.1,0.5-1.1,1.1v0c0,0.6,0.5,1.1,1.1,1.1c0.6,0,1.1-0.5,1.1-1.1
					C30.9,180.3,30.4,179.8,29.8,179.8z"/>
				<path class="st3" d="M29.8,176.6c-0.6,0-1.1,0.5-1.1,1.1v0c0,0.6,0.5,1.1,1.1,1.1c0.6,0,1.1-0.5,1.1-1.1
					C30.9,177.1,30.4,176.6,29.8,176.6z"/>
				<path class="st3" d="M29.8,173.4c-0.5-0.1-1,0.3-1.1,0.9c0,0,0,0.1,0,0.1c0,0.6,0.5,1.1,1.1,1.1c0.6,0,1.1-0.5,1.1-1.1
					c0,0,0,0,0,0c0-0.6-0.4-1-1-1C29.9,173.4,29.8,173.4,29.8,173.4z"/>
				<path class="st3" d="M29.8,170.1c-0.6,0-1.1,0.5-1.1,1.1v0c0,0.6,0.5,1.1,1.1,1.1c0.6,0,1.1-0.5,1.1-1.1
					C30.9,170.6,30.4,170.1,29.8,170.1z"/>
				<path class="st3" d="M29.8,166.9c-0.6,0-1.1,0.5-1.1,1.1v0c0,0.6,0.5,1.1,1.1,1.1c0.6,0,1.1-0.5,1.1-1.1
					C30.9,167.4,30.4,166.9,29.8,166.9z"/>
				<path class="st3" d="M152.5,173.4c-0.6,0-1,0.4-1,1c0,0.6,0.4,1,1,1.1c0.6,0,1.1-0.5,1.1-1.1v0c0-0.6-0.4-1-1-1
					C152.6,173.4,152.5,173.4,152.5,173.4z"/>
				<path class="st3" d="M152.5,170.1c-0.6,0.1-1,0.5-1,1.1c0,0.6,0.4,1,1,1c0.5,0.1,1-0.3,1.1-0.9c0,0,0-0.1,0-0.1
					C153.6,170.6,153.1,170.1,152.5,170.1L152.5,170.1z"/>
				<path class="st3" d="M152.5,166.9c-0.6,0.1-1,0.5-1,1.1c0,0.5,0.5,1,1,1c0.6,0,1-0.4,1.1-1C153.6,167.4,153.1,166.9,152.5,166.9
					L152.5,166.9z"/>
				<path class="st3" d="M152.5,163.7c-0.6,0-1,0.4-1,1c0,0.6,0.4,1,1,1.1c0.6,0,1.1-0.5,1.1-1.1v0c0-0.6-0.4-1-1-1
					C152.6,163.7,152.5,163.7,152.5,163.7z"/>
				<path class="st3" d="M155.5,173.4c-0.5-0.1-1,0.3-1.1,0.9c0,0,0,0.1,0,0.1c0,0.6,0.5,1.1,1.1,1.1l0,0c0.6,0,1-0.4,1-1
					c0,0,0-0.1,0-0.1c0.1-0.5-0.3-0.9-0.8-1C155.6,173.4,155.6,173.4,155.5,173.4z"/>
				<path class="st3" d="M155.5,170.1c-0.6,0-1.1,0.5-1.1,1.1v0c0,0.6,0.4,1,1,1c0,0,0.1,0,0.1,0c0.5,0.1,0.9-0.3,1-0.8
					c0-0.1,0-0.1,0-0.2c0.1-0.5-0.3-1-0.9-1.1C155.6,170.1,155.5,170.1,155.5,170.1z"/>
				<path class="st3" d="M155.5,166.9c-0.6,0-1.1,0.5-1.1,1.1v0c0.1,0.6,0.5,1,1.1,1c0.6,0,1-0.4,1-1c0.1-0.5-0.3-1-0.9-1.1
					C155.6,166.9,155.5,166.9,155.5,166.9z"/>
				<path class="st3" d="M155.5,163.7c-0.5-0.1-1,0.3-1.1,0.9c0,0,0,0.1,0,0.1c0,0.6,0.5,1.1,1.1,1.1l0,0c0.6,0,1-0.4,1-1
					c0,0,0-0.1,0-0.1c0.1-0.5-0.3-0.9-0.8-1C155.6,163.7,155.6,163.7,155.5,163.7z"/>
				<circle class="st3" cx="155.4" cy="161.7" r="1.1"/>
				<path class="st3" d="M158.4,173.4c-0.6,0-1,0.4-1,1c0,0.6,0.4,1,1,1.1c0.6,0,1.1-0.5,1.1-1.1v0c0-0.6-0.4-1-1-1
					C158.5,173.4,158.4,173.4,158.4,173.4z"/>
				<path class="st3" d="M158.4,170.1c-0.6,0.1-1,0.5-1,1.1c0,0.6,0.4,1,1,1c0.5,0.1,1-0.3,1.1-0.9c0,0,0-0.1,0-0.1
					C159.5,170.6,159,170.1,158.4,170.1L158.4,170.1z"/>
				<path class="st3" d="M158.4,166.9c-0.6,0.1-1,0.5-1,1.1c0,0.5,0.5,1,1,1c0.6,0,1-0.4,1.1-1C159.5,167.4,159,166.9,158.4,166.9
					L158.4,166.9z"/>
				<path class="st3" d="M158.4,163.7c-0.6,0-1,0.4-1,1c0,0.6,0.4,1,1,1.1c0.6,0,1.1-0.5,1.1-1.1v0c0-0.6-0.4-1-1-1
					C158.5,163.7,158.4,163.7,158.4,163.7z"/>
				<circle class="st3" cx="158.4" cy="161.5" r="1.1"/>
				<circle class="st3" cx="158.4" cy="158.3" r="1.1"/>
				<circle class="st3" cx="158.4" cy="155" r="1.1"/>
				<path class="st3" d="M161.4,173.4c-0.5-0.1-1,0.3-1.1,0.9c0,0,0,0.1,0,0.1c0,0.6,0.5,1.1,1.1,1.1l0,0c0.6,0,1-0.4,1-1
					c0,0,0-0.1,0-0.1c0.1-0.5-0.3-0.9-0.8-1C161.5,173.4,161.5,173.4,161.4,173.4z"/>
				<path class="st3" d="M161.4,170.1c-0.6,0-1.1,0.5-1.1,1.1v0c0,0.6,0.4,1,1,1c0,0,0.1,0,0.1,0c0.5,0.1,0.9-0.3,1-0.8
					c0-0.1,0-0.1,0-0.2c0.1-0.5-0.3-1-0.9-1.1C161.5,170.1,161.4,170.1,161.4,170.1z"/>
				<path class="st3" d="M161.4,166.9c-0.6,0-1.1,0.5-1.1,1.1v0c0.1,0.6,0.5,1,1.1,1c0.6,0,1-0.4,1-1c0.1-0.5-0.3-1-0.9-1.1
					C161.5,166.9,161.4,166.9,161.4,166.9z"/>
				<path class="st3" d="M161.4,163.7c-0.5-0.1-1,0.3-1.1,0.9c0,0,0,0.1,0,0.1c0,0.6,0.5,1.1,1.1,1.1l0,0c0.6,0,1-0.4,1-1
					c0,0,0-0.1,0-0.1c0.1-0.5-0.3-0.9-0.8-1C161.5,163.7,161.5,163.7,161.4,163.7z"/>
				<path class="st3" d="M161.4,160.4c-0.6,0-1.1,0.5-1.1,1.1v0c0,0.6,0.4,1,1,1c0,0,0.1,0,0.1,0c0.5,0.1,0.9-0.3,1-0.8
					c0-0.1,0-0.1,0-0.2c0.1-0.5-0.3-1-0.9-1.1C161.5,160.4,161.4,160.4,161.4,160.4z"/>
				<path class="st3" d="M161.4,157.2c-0.6,0-1.1,0.5-1.1,1.1v0c0.1,0.6,0.5,1,1.1,1c0.6,0,1-0.4,1-1c0.1-0.5-0.3-1-0.9-1.1
					C161.5,157.2,161.4,157.2,161.4,157.2z"/>
				<path class="st3" d="M164.3,173.4c-0.6,0-1,0.4-1,1c0,0.6,0.4,1,1,1.1c0.6,0,1.1-0.5,1.1-1.1v0c0-0.6-0.4-1-1-1
					C164.4,173.4,164.3,173.4,164.3,173.4z"/>
				<path class="st3" d="M164.3,170.1c-0.6,0.1-1,0.5-1,1.1c0,0.6,0.4,1,1,1c0.5,0.1,1-0.3,1.1-0.9c0,0,0-0.1,0-0.1
					C165.4,170.6,164.9,170.1,164.3,170.1L164.3,170.1z"/>
				<path class="st3" d="M167.3,173.4c-0.5-0.1-1,0.3-1.1,0.9c0,0,0,0.1,0,0.1c0,0.6,0.5,1.1,1.1,1.1l0,0c0.6,0,1-0.4,1-1
					c0,0,0-0.1,0-0.1c0.1-0.5-0.3-0.9-0.8-1C167.4,173.4,167.4,173.4,167.3,173.4z"/>
				<path class="st3" d="M167.3,170.1c-0.6,0-1.1,0.5-1.1,1.1v0c0,0.6,0.4,1,1,1c0,0,0.1,0,0.1,0c0.5,0.1,0.9-0.3,1-0.8
					c0-0.1,0-0.1,0-0.2c0.1-0.5-0.3-1-0.9-1.1C167.4,170.1,167.3,170.1,167.3,170.1z"/>
				<path class="st3" d="M167.3,166.9c-0.6,0-1.1,0.5-1.1,1.1v0c0.1,0.6,0.5,1,1.1,1c0.6,0,1-0.4,1-1c0.1-0.5-0.3-1-0.9-1.1
					C167.4,166.9,167.3,166.9,167.3,166.9z"/>
				<path class="st3" d="M167.3,163.7c-0.5-0.1-1,0.3-1.1,0.9c0,0,0,0.1,0,0.1c0,0.6,0.5,1.1,1.1,1.1l0,0c0.6,0,1-0.4,1-1
					c0,0,0-0.1,0-0.1c0.1-0.5-0.3-0.9-0.8-1C167.4,163.7,167.4,163.7,167.3,163.7z"/>
				<path class="st3" d="M170.2,173.4c-0.6,0-1,0.4-1,1c0,0.6,0.4,1,1,1.1c0.6,0,1.1-0.5,1.1-1.1v0c0-0.6-0.4-1-1-1
					C170.3,173.4,170.2,173.4,170.2,173.4z"/>
				<path class="st3" d="M170.2,170.1c-0.6,0.1-1,0.5-1,1.1c0,0.6,0.4,1,1,1c0.5,0.1,1-0.3,1.1-0.9c0,0,0-0.1,0-0.1
					C171.3,170.6,170.8,170.1,170.2,170.1L170.2,170.1z"/>
				<path class="st3" d="M170.2,166.9c-0.6,0.1-1,0.5-1,1.1c0,0.5,0.5,1,1,1c0.6,0,1-0.4,1.1-1C171.3,167.4,170.8,166.9,170.2,166.9
					L170.2,166.9z"/>
				<path class="st3" d="M170.2,163.7c-0.6,0-1,0.4-1,1c0,0.6,0.4,1,1,1.1c0.6,0,1.1-0.5,1.1-1.1v0c0-0.6-0.4-1-1-1
					C170.3,163.7,170.2,163.7,170.2,163.7z"/>
				<path class="st3" d="M170.2,160.4c-0.6,0.1-1,0.5-1,1.1c0,0.6,0.4,1,1,1c0.5,0.1,1-0.3,1.1-0.9c0,0,0-0.1,0-0.1
					C171.3,160.9,170.8,160.4,170.2,160.4L170.2,160.4z"/>
				<path class="st3" d="M170.2,157.2c-0.6,0.1-1,0.5-1,1.1c0,0.5,0.5,1,1,1c0.6,0,1-0.4,1.1-1C171.3,157.7,170.8,157.2,170.2,157.2
					L170.2,157.2z"/>
				<path class="st3" d="M173.2,173.4c-0.5-0.1-1,0.3-1.1,0.9c0,0,0,0.1,0,0.1c0,0.6,0.5,1.1,1.1,1.1l0,0c0.6,0,1-0.4,1-1
					c0,0,0-0.1,0-0.1c0.1-0.5-0.3-0.9-0.8-1C173.3,173.4,173.3,173.4,173.2,173.4z"/>
				<path class="st3" d="M173.2,170.1c-0.6,0-1.1,0.5-1.1,1.1v0c0,0.6,0.4,1,1,1c0,0,0.1,0,0.1,0c0.5,0.1,0.9-0.3,1-0.8
					c0-0.1,0-0.1,0-0.2c0.1-0.5-0.3-1-0.9-1.1C173.3,170.1,173.2,170.1,173.2,170.1z"/>
				<path class="st3" d="M173.2,166.9c-0.6,0-1.1,0.5-1.1,1.1v0c0.1,0.6,0.5,1,1.1,1c0.6,0,1-0.4,1-1c0.1-0.5-0.3-1-0.9-1.1
					C173.3,166.9,173.2,166.9,173.2,166.9z"/>
				<path class="st3" d="M173.2,163.7c-0.5-0.1-1,0.3-1.1,0.9c0,0,0,0.1,0,0.1c0,0.6,0.5,1.1,1.1,1.1l0,0c0.6,0,1-0.4,1-1
					c0,0,0-0.1,0-0.1c0.1-0.5-0.3-0.9-0.8-1C173.3,163.7,173.3,163.7,173.2,163.7z"/>
				<path class="st3" d="M173.2,160.4c-0.6,0-1.1,0.5-1.1,1.1v0c0,0.6,0.4,1,1,1c0,0,0.1,0,0.1,0c0.5,0.1,0.9-0.3,1-0.8
					c0-0.1,0-0.1,0-0.2c0.1-0.5-0.3-1-0.9-1.1C173.3,160.4,173.2,160.4,173.2,160.4z"/>
				<path class="st3" d="M176.1,173.4c-0.6,0-1,0.4-1,1c0,0.6,0.4,1,1,1.1c0.6,0,1.1-0.5,1.1-1.1v0c0-0.6-0.4-1-1-1
					C176.2,173.4,176.1,173.4,176.1,173.4z"/>
				<path class="st3" d="M176.1,170.1c-0.6,0.1-1,0.5-1,1.1c0,0.6,0.4,1,1,1c0.5,0.1,1-0.3,1.1-0.9c0,0,0-0.1,0-0.1
					C177.2,170.6,176.7,170.1,176.1,170.1L176.1,170.1z"/>
				<path class="st3" d="M176.1,166.9c-0.6,0.1-1,0.5-1,1.1c0,0.5,0.5,1,1,1c0.6,0,1-0.4,1.1-1C177.2,167.4,176.7,166.9,176.1,166.9
					L176.1,166.9z"/>
				<path class="st3" d="M176.1,163.7c-0.6,0-1,0.4-1,1c0,0.6,0.4,1,1,1.1c0.6,0,1.1-0.5,1.1-1.1v0c0-0.6-0.4-1-1-1
					C176.2,163.7,176.1,163.7,176.1,163.7z"/>
				<path class="st3" d="M179.1,173.4c-0.5-0.1-1,0.3-1.1,0.9c0,0,0,0.1,0,0.1c0,0.6,0.5,1.1,1.1,1.1l0,0c0.6,0,1-0.4,1-1
					c0,0,0-0.1,0-0.1c0.1-0.5-0.3-0.9-0.8-1C179.2,173.4,179.2,173.4,179.1,173.4z"/>
				<path class="st3" d="M179.1,170.1c-0.6,0-1.1,0.5-1.1,1.1v0c0,0.6,0.4,1,1,1c0,0,0.1,0,0.1,0c0.5,0.1,0.9-0.3,1-0.8
					c0-0.1,0-0.1,0-0.2c0.1-0.5-0.3-1-0.9-1.1C179.2,170.1,179.1,170.1,179.1,170.1z"/>
				<path class="st3" d="M179.1,166.9c-0.6,0-1.1,0.5-1.1,1.1v0c0.1,0.6,0.5,1,1.1,1c0.6,0,1-0.4,1-1c0.1-0.5-0.3-1-0.9-1.1
					C179.2,166.9,179.1,166.9,179.1,166.9z"/>
				<path class="st3" d="M179.1,163.7c-0.5-0.1-1,0.3-1.1,0.9c0,0,0,0.1,0,0.1c0,0.6,0.5,1.1,1.1,1.1l0,0c0.6,0,1-0.4,1-1
					c0,0,0-0.1,0-0.1c0.1-0.5-0.3-0.9-0.8-1C179.2,163.7,179.2,163.7,179.1,163.7z"/>
				<path class="st3" d="M179.1,160.4c-0.6,0-1.1,0.5-1.1,1.1v0c0,0.6,0.4,1,1,1c0,0,0.1,0,0.1,0c0.5,0.1,0.9-0.3,1-0.8
					c0-0.1,0-0.1,0-0.2c0.1-0.5-0.3-1-0.9-1.1C179.2,160.4,179.1,160.4,179.1,160.4z"/>
				<path class="st3" d="M179.1,157.2c-0.6,0-1.1,0.5-1.1,1.1v0c0.1,0.6,0.5,1,1.1,1c0.6,0,1-0.4,1-1c0.1-0.5-0.3-1-0.9-1.1
					C179.2,157.2,179.1,157.2,179.1,157.2z"/>
				<path class="st3" d="M182,173.4c-0.6,0-1,0.4-1,1c0,0.6,0.4,1,1,1.1c0.6,0,1.1-0.5,1.1-1.1v0c0-0.6-0.4-1-1-1
					C182.1,173.4,182,173.4,182,173.4z"/>
				<path class="st3" d="M182,170.1c-0.6,0.1-1,0.5-1,1.1c0,0.6,0.4,1,1,1c0.5,0.1,1-0.3,1.1-0.9c0,0,0-0.1,0-0.1
					C183.1,170.6,182.6,170.1,182,170.1L182,170.1z"/>
				<path class="st3" d="M182,166.9c-0.6,0.1-1,0.5-1,1.1c0,0.5,0.5,1,1,1c0.6,0,1-0.4,1.1-1C183.1,167.4,182.6,166.9,182,166.9
					L182,166.9z"/>
				<path class="st3" d="M182,163.7c-0.6,0-1,0.4-1,1c0,0.6,0.4,1,1,1.1c0.6,0,1.1-0.5,1.1-1.1v0c0-0.6-0.4-1-1-1
					C182.1,163.7,182,163.7,182,163.7z"/>
				<path class="st3" d="M182,160.4c-0.6,0.1-1,0.5-1,1.1c0,0.6,0.4,1,1,1c0.5,0.1,1-0.3,1.1-0.9c0,0,0-0.1,0-0.1
					C183.1,160.9,182.6,160.4,182,160.4L182,160.4z"/>
				<path class="st3" d="M185,173.4c-0.5-0.1-1,0.3-1.1,0.9c0,0,0,0.1,0,0.1c0,0.6,0.5,1.1,1.1,1.1l0,0c0.6,0,1-0.4,1-1
					c0,0,0-0.1,0-0.1c0.1-0.5-0.3-0.9-0.8-1C185.1,173.4,185.1,173.4,185,173.4z"/>
				<path class="st3" d="M185,170.1c-0.6,0-1.1,0.5-1.1,1.1v0c0,0.6,0.4,1,1,1c0,0,0.1,0,0.1,0c0.5,0.1,0.9-0.3,1-0.8
					c0-0.1,0-0.1,0-0.2c0.1-0.5-0.3-1-0.9-1.1C185.1,170.1,185,170.1,185,170.1z"/>
				<path class="st3" d="M185,166.9c-0.6,0-1.1,0.5-1.1,1.1v0c0.1,0.6,0.5,1,1.1,1c0.6,0,1-0.4,1-1c0.1-0.5-0.3-1-0.9-1.1
					C185.1,166.9,185,166.9,185,166.9z"/>
				<path class="st3" d="M120.1,173.4c-0.5-0.1-0.9,0.3-1,0.8c0,0.1,0,0.1,0,0.2c-0.1,0.5,0.3,1,0.9,1.1c0,0,0.1,0,0.1,0
					c0.6,0,1.1-0.5,1.1-1.1v0c0-0.6-0.4-1-1-1C120.2,173.4,120.1,173.4,120.1,173.4z"/>
				<path class="st3" d="M120.1,170.1c-0.6,0-1,0.4-1,1c0,0,0,0.1,0,0.1c-0.1,0.5,0.3,0.9,0.8,1c0.1,0,0.1,0,0.2,0
					c0.5,0.1,1-0.3,1.1-0.9c0,0,0-0.1,0-0.1C121.2,170.6,120.7,170.1,120.1,170.1L120.1,170.1z"/>
				<path class="st3" d="M123.1,173.4c-0.5-0.1-1,0.3-1.1,0.9c0,0,0,0.1,0,0.1c0,0.6,0.5,1.1,1.1,1.1h0c0.6-0.1,1-0.5,1-1.1
					C124.1,173.8,123.7,173.4,123.1,173.4z"/>
				<path class="st3" d="M123.1,170.1c-0.6,0-1.1,0.5-1.1,1.1v0c0,0.6,0.4,1,1,1c0,0,0.1,0,0.1,0c0.6,0,1-0.4,1-1
					C124.1,170.6,123.7,170.2,123.1,170.1z"/>
				<path class="st3" d="M123.1,166.9c-0.6,0-1.1,0.5-1.1,1.1v0c0.1,0.6,0.5,1,1.1,1c0.5,0,1-0.5,1-1
					C124.1,167.4,123.7,167,123.1,166.9z"/>
				<path class="st3" d="M126,173.4c-0.5-0.1-0.9,0.3-1,0.8c0,0.1,0,0.1,0,0.2c-0.1,0.5,0.3,1,0.9,1.1c0,0,0.1,0,0.1,0
					c0.6,0,1.1-0.5,1.1-1.1v0c0-0.6-0.4-1-1-1C126.1,173.4,126,173.4,126,173.4z"/>
				<path class="st3" d="M126,170.1c-0.6,0-1,0.4-1,1c0,0,0,0.1,0,0.1c-0.1,0.5,0.3,0.9,0.8,1c0.1,0,0.1,0,0.2,0
					c0.5,0.1,1-0.3,1.1-0.9c0,0,0-0.1,0-0.1C127.1,170.6,126.6,170.1,126,170.1L126,170.1z"/>
				<path class="st3" d="M126,166.9c-0.6,0-1,0.4-1,1c0,0,0,0.1,0,0.1c0,0.6,0.4,1,1,1c0.6,0,1-0.4,1.1-1
					C127.1,167.4,126.6,166.9,126,166.9L126,166.9z"/>
				<path class="st3" d="M126,163.7c-0.5-0.1-0.9,0.3-1,0.8c0,0.1,0,0.1,0,0.2c-0.1,0.5,0.3,1,0.9,1.1c0,0,0.1,0,0.1,0
					c0.6,0,1.1-0.5,1.1-1.1v0c0-0.6-0.4-1-1-1C126.1,163.7,126,163.7,126,163.7z"/>
				<path class="st3" d="M126,160.4c-0.6,0-1,0.4-1,1c0,0,0,0.1,0,0.1c-0.1,0.5,0.3,0.9,0.8,1c0.1,0,0.1,0,0.2,0
					c0.5,0.1,1-0.3,1.1-0.9c0,0,0-0.1,0-0.1C127.1,160.9,126.6,160.4,126,160.4L126,160.4z"/>
				<path class="st3" d="M129,173.4c-0.5-0.1-1,0.3-1.1,0.9c0,0,0,0.1,0,0.1c0,0.6,0.5,1.1,1.1,1.1h0c0.6-0.1,1-0.5,1-1.1
					C130,173.8,129.6,173.4,129,173.4z"/>
				<path class="st3" d="M129,170.1c-0.6,0-1.1,0.5-1.1,1.1v0c0,0.6,0.4,1,1,1c0,0,0.1,0,0.1,0c0.6,0,1-0.4,1-1
					C130,170.6,129.6,170.2,129,170.1z"/>
				<path class="st3" d="M129,166.9c-0.6,0-1.1,0.5-1.1,1.1v0c0.1,0.6,0.5,1,1.1,1c0.5,0,1-0.5,1-1C130,167.4,129.6,167,129,166.9z"
					/>
				<path class="st3" d="M129,163.7c-0.5-0.1-1,0.3-1.1,0.9c0,0,0,0.1,0,0.1c0,0.6,0.5,1.1,1.1,1.1h0c0.6-0.1,1-0.5,1-1.1
					C130,164.1,129.6,163.7,129,163.7z"/>
				<path class="st3" d="M131.9,173.4c-0.5-0.1-1,0.3-1.1,0.9c0,0,0,0.1,0,0.1c0,0.6,0.5,1.1,1.1,1.1c0.6,0,1.1-0.5,1.1-1.1
					c0-0.6-0.4-1-1-1C132,173.4,131.9,173.4,131.9,173.4z"/>
				<path class="st3" d="M131.9,170.1c-0.6,0-1.1,0.5-1.1,1.1v0c0,0.6,0.5,1.1,1.1,1.1c0.6,0,1.1-0.5,1.1-1.1
					C133,170.6,132.5,170.1,131.9,170.1z"/>
				<path class="st3" d="M131.9,166.9c-0.6,0-1.1,0.5-1.1,1.1v0c0,0.6,0.5,1.1,1.1,1.1c0.6,0,1.1-0.5,1.1-1.1
					C133,167.4,132.5,166.9,131.9,166.9z"/>
				<path class="st3" d="M134.8,173.4c-0.6,0-1,0.4-1,1c0,0.6,0.4,1,1,1.1c0.6,0,1.1-0.5,1.1-1.1v0c0-0.6-0.4-1-1-1
					C134.9,173.4,134.8,173.4,134.8,173.4z"/>
				<path class="st3" d="M134.8,170.1c-0.6,0.1-1,0.5-1,1.1c0,0.6,0.4,1,1,1c0.5,0.1,1-0.3,1.1-0.9c0,0,0-0.1,0-0.1
					C135.9,170.6,135.4,170.1,134.8,170.1L134.8,170.1z"/>
				<path class="st3" d="M137.8,173.4c-0.5-0.1-1,0.3-1.1,0.9c0,0,0,0.1,0,0.1c0,0.6,0.5,1.1,1.1,1.1c0.6,0,1.1-0.5,1.1-1.1
					c0,0,0,0,0,0c0-0.6-0.4-1-1-1C137.9,173.4,137.8,173.4,137.8,173.4z"/>
				<path class="st3" d="M137.8,170.1c-0.6,0-1.1,0.5-1.1,1.1v0c0,0.6,0.5,1.1,1.1,1.1c0.6,0,1.1-0.5,1.1-1.1
					C138.9,170.6,138.4,170.1,137.8,170.1z"/>
				<path class="st3" d="M137.8,166.9c-0.6,0-1.1,0.5-1.1,1.1v0c0,0.6,0.5,1.1,1.1,1.1c0.6,0,1.1-0.5,1.1-1.1
					C138.9,167.4,138.4,166.9,137.8,166.9z"/>
				<path class="st3" d="M140.7,173.4c-0.6,0-1,0.4-1,1c0,0.6,0.4,1,1,1.1c0.6,0,1.1-0.5,1.1-1.1c0-0.6-0.4-1-1-1
					C140.8,173.4,140.7,173.4,140.7,173.4z"/>
				<path class="st3" d="M140.7,170.1c-0.6,0.1-1,0.5-1,1.1c0,0.6,0.4,1,1,1c0.5,0.1,1-0.3,1.1-0.9c0,0,0-0.1,0-0.1
					C141.8,170.6,141.3,170.1,140.7,170.1z"/>
				<path class="st3" d="M140.7,166.9c-0.6,0.1-1,0.5-1,1.1c0,0.5,0.5,1,1,1c0.6,0,1-0.4,1.1-1C141.8,167.4,141.3,166.9,140.7,166.9
					z"/>
				<path class="st3" d="M140.7,163.7c-0.6,0-1,0.4-1,1c0,0.6,0.4,1,1,1.1c0.6,0,1.1-0.5,1.1-1.1c0-0.6-0.4-1-1-1
					C140.8,163.7,140.7,163.7,140.7,163.7z"/>
				<path class="st3" d="M140.7,160.4c0.6,0,1.1,0.5,1.1,1.1s-0.5,1.1-1.1,1.1c-0.6,0-1.1-0.5-1.1-1.1S140.1,160.4,140.7,160.4z"/>
				<path class="st3" d="M143.7,173.4c-0.5-0.1-1,0.3-1.1,0.9c0,0,0,0.1,0,0.1c0,0.6,0.5,1.1,1.1,1.1l0,0c0.6,0,1-0.4,1-1
					c0,0,0-0.1,0-0.1c0.1-0.5-0.3-0.9-0.8-1C143.8,173.4,143.8,173.4,143.7,173.4z"/>
				<path class="st3" d="M143.7,170.1c-0.6,0-1.1,0.5-1.1,1.1v0c0,0.6,0.4,1,1,1c0,0,0.1,0,0.1,0c0.5,0.1,0.9-0.3,1-0.8
					c0-0.1,0-0.1,0-0.2c0.1-0.5-0.3-1-0.9-1.1C143.8,170.1,143.7,170.1,143.7,170.1z"/>
				<path class="st3" d="M143.7,166.9c-0.6,0-1.1,0.5-1.1,1.1v0c0.1,0.6,0.5,1,1.1,1c0.6,0,1-0.4,1-1c0.1-0.5-0.3-1-0.9-1.1
					C143.8,166.9,143.7,166.9,143.7,166.9z"/>
				<path class="st3" d="M143.7,163.7c-0.5-0.1-1,0.3-1.1,0.9c0,0,0,0.1,0,0.1c0,0.6,0.5,1.1,1.1,1.1l0,0c0.6,0,1-0.4,1-1
					c0,0,0-0.1,0-0.1c0.1-0.5-0.3-0.9-0.8-1C143.8,163.7,143.8,163.7,143.7,163.7z"/>
				<path class="st3" d="M146.6,173.4c-0.6,0-1,0.4-1,1c0,0.6,0.4,1,1,1.1c0.6,0,1.1-0.5,1.1-1.1v0c0-0.6-0.4-1-1-1
					C146.7,173.4,146.6,173.4,146.6,173.4z"/>
				<path class="st3" d="M146.6,170.1c-0.6,0.1-1,0.5-1,1.1c0,0.6,0.4,1,1,1c0.5,0.1,1-0.3,1.1-0.9c0,0,0-0.1,0-0.1
					C147.7,170.6,147.2,170.1,146.6,170.1L146.6,170.1z"/>
				<path class="st3" d="M146.6,166.9c-0.6,0.1-1,0.5-1,1.1c0,0.5,0.5,1,1,1c0.6,0,1-0.4,1.1-1C147.7,167.4,147.2,166.9,146.6,166.9
					L146.6,166.9z"/>
				<path class="st3" d="M146.6,163.7c-0.6,0-1,0.4-1,1c0,0.6,0.4,1,1,1.1c0.6,0,1.1-0.5,1.1-1.1v0c0-0.6-0.4-1-1-1
					C146.7,163.7,146.6,163.7,146.6,163.7z"/>
				<circle class="st3" cx="146.6" cy="161.5" r="1.1"/>
				<circle class="st3" cx="146.6" cy="158.3" r="1.1"/>
				<path class="st3" d="M149.6,173.4c-0.5-0.1-1,0.3-1.1,0.9c0,0,0,0.1,0,0.1c0,0.6,0.5,1.1,1.1,1.1l0,0c0.6,0,1-0.4,1-1
					c0,0,0-0.1,0-0.1c0.1-0.5-0.3-0.9-0.8-1C149.7,173.4,149.7,173.4,149.6,173.4z"/>
				<path class="st3" d="M149.6,170.1c-0.6,0-1.1,0.5-1.1,1.1v0c0,0.6,0.4,1,1,1c0,0,0.1,0,0.1,0c0.5,0.1,0.9-0.3,1-0.8
					c0-0.1,0-0.1,0-0.2c0.1-0.5-0.3-1-0.9-1.1C149.7,170.1,149.6,170.1,149.6,170.1z"/>
				<path class="st3" d="M149.6,166.9c-0.6,0-1.1,0.5-1.1,1.1v0c0.1,0.6,0.5,1,1.1,1c0.6,0,1-0.4,1-1c0.1-0.5-0.3-1-0.9-1.1
					C149.7,166.9,149.6,166.9,149.6,166.9z"/>
				<path class="st3" d="M149.6,163.7c-0.5-0.1-1,0.3-1.1,0.9c0,0,0,0.1,0,0.1c0,0.6,0.5,1.1,1.1,1.1l0,0c0.6,0,1-0.4,1-1
					c0,0,0-0.1,0-0.1c0.1-0.5-0.3-0.9-0.8-1C149.7,163.7,149.7,163.7,149.6,163.7z"/>
				<circle class="st3" cx="149.6" cy="161.5" r="1.1"/>
			</g>
			<g>
				<rect x="76.7" y="68.3" class="st3" width="18.4" height="0.5"/>
				<polygon class="st3" points="58.9,67.8 84.6,93.5 85,93.1 59.3,67.4 				"/>
				<polygon class="st3" points="66.1,76.5 67.9,74.6 64.3,72.8 				"/>
				<polygon class="st3" points="81.1,91.5 84.8,93.3 83,89.6 				"/>
				<path class="st3" d="M74.5,78.8c-1.1,0-2.2,0.5-3,1.3c-0.8,0.8-1.2,1.9-1.2,3c0,1.1,0.5,2.1,1.3,2.9c0.8,0.7,1.8,1.2,2.9,1.2
					c1.1,0,2.2-0.5,3-1.3c0.7-0.8,1.1-1.9,1.1-3c0-1.1-0.5-2.1-1.3-2.9C76.5,79.3,75.6,78.8,74.5,78.8z M76.8,85.3
					c-0.6,0.6-1.4,1-2.3,1c-0.9,0-1.7-0.3-2.3-0.9c-0.6-0.6-1-1.4-1-2.3c0-0.9,0.3-1.7,0.9-2.4c0.6-0.6,1.5-1,2.4-1
					c0.8,0,1.6,0.3,2.2,0.9c0.7,0.6,1,1.4,1,2.3C77.7,83.8,77.4,84.7,76.8,85.3z"/>
				<path class="st3" d="M88.8,84.6l-2.2-0.5c0.1-0.8,0.1-1.5,0-2.3l2.2-0.7c0.2,0,0.3-0.1,0.4-0.3c0.1-0.1,0.1-0.3,0.1-0.5
					l-0.8-2.6c-0.1-0.3-0.4-0.6-0.8-0.5l-2.2,0.7c-0.3-0.7-0.7-1.4-1.1-2l1.6-1.7c0.2-0.2,0.2-0.5,0.1-0.8l-2.1-2
					c-0.3-0.2-0.7-0.2-1,0L81.5,73l-2-1.1l0.5-2.3c0.1-0.1,0-0.3-0.1-0.5l-0.4-0.2l-2.6-0.7h-0.4l-0.3,0.3c-0.1,0.1-0.1,0.2-0.1,0.3
					L75.5,71c-0.8-0.1-1.5-0.1-2.3,0l-0.6-2.2c0-0.2-0.1-0.4-0.3-0.4h-0.5l-2.7,0.8c-0.3,0.1-0.5,0.4-0.4,0.7c0,0,0,0,0,0.1l0.6,2.1
					l-2,1.2l-1.6-1.6h-0.3l-0.6,0.2l-2,2c-0.1,0.2-0.2,0.4-0.1,0.6c0,0.1,0.1,0.2,0.2,0.3l1.6,1.6c-0.5,0.6-0.9,1.3-1.2,2l-2.2-0.6
					h-0.2l-0.5,0.3c-0.1,0.1-0.1,0.1-0.1,0.2L59.6,81c0,0.2,0,0.4,0.2,0.5s0.2,0.2,0.3,0.3l2.2,0.5v2.3l-1.8,0.6l-0.2-0.8
					C60.2,84.2,60,84,59.7,84l-1,0.3l-0.4-0.7l0.6-0.7c0.2-0.2,0.2-0.5,0.1-0.7l-1.1-1c-0.2-0.2-0.6-0.2-0.7,0l-0.7,0.7l-0.7-0.5
					l0.2-0.9c0.1-0.3-0.1-0.6-0.4-0.7l-1.3-0.3h-0.6l-0.3,1.1h-0.8l-0.3-0.9c-0.1-0.2-0.3-0.4-0.5-0.4h-0.1l-1.4,0.4
					c-0.3,0.1-0.5,0.4-0.4,0.7l0.3,0.9l-0.7,0.4L48.7,81H48l-1,1c-0.1,0.2-0.2,0.3-0.1,0.5c0,0.1,0,0.2,0.1,0.3l0.7,0.7
					c-0.2,0.2-0.3,0.5-0.4,0.7l-1-0.3h-0.1l-0.4,0.2h-0.1l-0.3,1.5c-0.1,0.1,0,0.3,0,0.4l0.4,0.2l0.9,0.3v0.8l-1,0.3
					c-0.2,0-0.3,0.2-0.3,0.4v0.2l0.5,1.4c0,0.1,0.1,0.3,0.2,0.3h0.3l1-0.3l0.5,0.7L47.2,91c-0.2,0.2-0.2,0.4-0.1,0.6l0,0l1.1,1
					l0.4,0.2l0,0l0.4-0.2l0.6-0.7l0.7,0.4l-0.2,1c-0.1,0.2,0,0.4,0.2,0.6h0.1l1.5,0.4h0.4l0.2-0.3l0.2-0.9h0.9l0.2,0.9
					c0.1,0.2,0.3,0.4,0.5,0.4l0,0l1.5-0.4l0.4-0.3v-0.4l-0.3-0.9l0.8-0.4l0.7,0.7c0.2,0.1,0.4,0.2,0.6,0.1l1.1-1.1
					c0.2-0.2,0.2-0.4,0.1-0.6l-0.8-0.9c0.2-0.2,0.3-0.5,0.4-0.7l1,0.3h0.1c0.2,0,0.5-0.2,0.5-0.4l0.2-0.9l0.3,0.2h0.3l2.3-0.7
					c0.3,0.7,0.7,1.4,1.2,2L63,91.8c-0.2,0.2-0.3,0.4-0.2,0.7l0.2,0.2l2,1.9c0.1,0.1,0.3,0.2,0.5,0.2l0,0l0.4-0.2l1.6-1.6
					c0.6,0.4,1.2,0.8,1.9,1.1l-0.5,2.3c-0.1,0.2,0,0.5,0.2,0.6h0.3l2.7,0.7h0.5c0.1-0.1,0.2-0.2,0.2-0.4l0.6-2.2
					c0.8,0.1,1.5,0.1,2.3,0l0.6,2.2c0.1,0.3,0.3,0.5,0.5,0.5h0.1l2.9-0.8c0.2,0,0.3-0.2,0.4-0.4s0.1-0.2,0-0.4l-0.6-2.1l2-1.2
					l1.6,1.6c0.2,0.2,0.5,0.2,0.7,0.1h0.3l1.9-2l0,0c0.2-0.1,0.2-0.4,0.1-0.6v-0.2L84.4,90c0.5-0.6,0.9-1.3,1.2-2l2.2,0.6H88
					c0.3,0,0.6-0.2,0.6-0.5l0.7-2.7C89.4,85,89.1,84.7,88.8,84.6z M59.6,88.8l-1.4-0.3v0.3c-0.2,0.4-0.4,0.9-0.7,1.2l-0.3,0.3l1,1
					l-0.5,0.5l-1-0.9l-0.3,0.2c-0.3,0.3-0.7,0.5-1.1,0.7h-0.4l0.4,1.4l-0.7,0.2L54.2,92H52l-0.4,1.4l-0.7-0.2l0.4-1.4h-0.4l-1.2-0.7
					l-0.3-0.2l-0.9,1l-0.6-0.5l1-1l-0.2-0.3c-0.3-0.4-0.5-0.8-0.7-1.2l-0.2-0.4l-1.3,0.4l-0.2-0.7l1.3-0.4v-0.3
					c-0.1-0.5-0.1-0.9,0-1.4v-0.4l-1.3-0.3l0.2-0.7l1.3,0.3l0.2-0.3c0.1-0.4,0.3-0.8,0.6-1.2l0.3-0.3l-1-1l0.5-0.5l1,0.9l0.3-0.2
					c0.3-0.3,0.8-0.5,1.2-0.7h0.3l-0.4-1.4l0.7-0.2l0.4,1.4h2.2l0.3-1.4l0.7,0.2l-0.3,1.4h0.3l1.2,0.7l0.3,0.2l1-1l0.5,0.5l-1,1
					l0.2,0.3c0.3,0.4,0.5,0.8,0.7,1.2l0.2,0.4l1.3-0.4l0.2,0.6l0,0l-1.3,0.4V86c0.1,0.5,0.1,0.9,0,1.4v0.4l1.3,0.3L59.6,88.8z
					 M59.3,87.1c0-0.3,0-0.5,0-0.8h0.5l0.3,1.1L59.3,87.1z M87.8,87.7L85.1,87l-0.2,0.3c-0.4,0.9-0.8,1.7-1.4,2.5l-0.2,0.3l2,1.9
					l-1.6,1.7l-2.1-2L81.3,92c-0.7,0.6-1.5,1.1-2.4,1.4l-0.4,0.2l0.8,2.6l-2.2,0.7l-0.8-2.7h-3.6L72,96.9l-2.2-0.5l0.7-2.8l-0.4-0.2
					c-0.9-0.3-1.7-0.8-2.4-1.4l-0.3-0.2l-2,2.1l-1.7-1.7l2-2l-0.2-0.3c-0.6-0.8-1.1-1.6-1.5-2.5v-0.3l-2.7,0.8l-0.6-2.1l0,0v-0.2
					l2.7-0.8v-0.3c-0.1-1-0.1-1.9,0-2.9v-0.3l-2.8-0.7l0.6-2.3L64,79v-0.3c0.4-0.9,0.8-1.7,1.4-2.5l0.3-0.3L63.6,74l1.6-1.7l2.1,2
					l0.3-0.3c0.7-0.6,1.5-1,2.4-1.4l0.4-0.2l-0.8-2.6l2.2-0.7l0.8,2.7h3.6l0.7-2.7l1.7,0.4h0.5l-0.7,2.8l0.4,0.2
					c0.9,0.3,1.7,0.8,2.4,1.4l0.4,0.2l1.9-2l1.7,1.6l-2,2l0.2,0.3c0.6,0.8,1.1,1.6,1.5,2.5v0.3l2.7-0.8l0.7,2.3l-2.8,0.8v0.3
					c0.1,1,0.1,1.9,0,2.9v0.3l2.8,0.7L87.8,87.7z"/>
				<path class="st3" d="M53,84.4c-0.6,0-1.2,0.3-1.7,0.7c-0.4,0.5-0.6,1.1-0.6,1.7c0.1,1.2,1.1,2.2,2.3,2.3c0.6,0,1.3-0.3,1.7-0.8
					c0.4-0.4,0.6-1,0.6-1.6c0-0.6-0.2-1.2-0.7-1.6C54.2,84.7,53.6,84.4,53,84.4z M54,87.7c-0.5,0.6-1.4,0.6-2,0.1c0,0,0,0,0,0
					c-0.3-0.3-0.4-0.6-0.4-1c0-0.4,0.1-0.7,0.4-1c0.2-0.3,0.6-0.5,1-0.5c0.4,0,0.7,0.2,1,0.4c0.3,0.3,0.4,0.6,0.4,1
					C54.4,87.1,54.3,87.4,54,87.7z"/>
				<rect x="93.5" y="68.4" class="st3" width="0.5" height="29.2"/>
				<polygon class="st3" points="92.4,72.5 95.1,72.5 93.8,68.6 				"/>
				<polygon class="st3" points="93.8,97.6 95.1,93.7 92.4,93.7 				"/>
				<rect x="44.5" y="67.4" class="st3" width="14.5" height="0.5"/>
				<rect x="44.5" y="60.9" class="st3" width="15.3" height="0.6"/>
				<rect x="44.5" y="62.6" class="st3" width="10.1" height="0.6"/>
				<rect x="44.5" y="64.6" class="st3" width="5.7" height="0.6"/>
				<rect x="95.9" y="79.7" class="st3" width="15.3" height="0.6"/>
				<rect x="95.9" y="81.5" class="st3" width="10.1" height="0.6"/>
				<rect x="95.9" y="83.4" class="st3" width="5.7" height="0.6"/>
			</g>
			<g>
				<path class="st3" d="M158.6,67.7l-1.2-0.2c0-0.4,0-0.9-0.2-1.3l1.2-0.4v-0.5l-0.4-0.8h-0.1l-1.1,0.5c-0.2-0.4-0.5-0.8-0.8-1.1
					l0.7-0.9l0,0l-0.3-0.2l-0.7-0.5c0-0.1-0.1,0-0.1,0l-0.7,0.9l-1.2-0.5v-1.5l0,0c0-0.1,0-0.1-0.1-0.1l-1.2-0.2h-0.1l-0.2,1.1l0,0
					l-1.3,0.2l-0.5-1.1h-0.1l-1.1,0.5H149l0.4,0.9v0.2l-1.1,0.8l-0.9-0.7c-0.1-0.1-0.1-0.1-0.2,0l0,0l-0.7,1l0,0l0.8,0.6h0.1
					c-0.2,0.4-0.4,0.8-0.5,1.3l-1.2-0.2h-0.1l-0.2,1.2h0.1l1,0.2h0.2c0,0.4,0.1,0.9,0.2,1.3l-1.2,0.5l0,0l0.5,1.1h0.1l1-0.4h0.1
					c0.2,0.4,0.5,0.8,0.8,1.1l-0.7,1c-0.1,0-0.1,0,0,0.1l0,0l1,0.8h0.1l0.7-0.8l0,0l1.2,0.5v1.2h0.1l1.2,0.2h0.1v-0.7h1.3l0.5,1.1
					c0,0,0,0.1,0.1,0l0.8-0.3h0.3v-0.2l-0.5-1.1l1.1-0.8l1,0.8h0.1l0.4-0.5l0.3-0.4c0.1-0.1,0.1-0.2,0-0.2l-0.9-0.7
					c0.2-0.4,0.4-0.8,0.5-1.2h1.3l0.2-1.2L158.6,67.7z M153.8,67.7c-0.1,0.9-0.9,1.6-1.9,1.5c0,0,0,0,0,0c-0.9-0.2-1.6-1-1.5-1.9
					c0.1-0.9,1-1.6,1.9-1.5C153.2,65.9,153.9,66.8,153.8,67.7z"/>
				<path class="st3" d="M181.7,59.2l-1.2-0.2c0-0.4,0-0.9-0.1-1.3l1.1-0.5c0,0,0.1-0.1,0-0.1v-0.3l-0.3-0.9H181l-1.1,0.4l-0.8-1
					l0.8-1l0,0l-0.3-0.2l-0.7-0.6h-0.2l-0.7,1l-1.2-0.5v-1.3l0,0l-1.3-0.2h-0.1v1.1H174l-0.4-1.1c-0.1,0-0.1,0-0.1-0.1v0h-0.1
					l-1.1,0.4h-0.1l0.4,0.9v0.2l-1.1,0.8l-0.9-0.8h-0.2l-0.7,1l0,0l0.8,0.6h0.1l-0.5,1.2h-1.3V58h1.2c0,0.5,0.1,0.9,0.2,1.4
					l-1.1,0.4H169l0.5,1.1h0.1l1-0.4h0.1c0.2,0.4,0.5,0.8,0.8,1.1l-0.7,0.9l0,0l1,0.7h0.1l0.7-0.9l0,0c0.4,0.3,0.8,0.5,1.3,0.6
					l-0.2,1.2h1.3v0.2l1.3-0.2l0.5,1.1h0.1l0.8-0.4h0.4l-0.5-1.1l1.1-0.8l1,0.7h0.1l0.4-0.6l0.4-0.4c0-0.1,0-0.1-0.1-0.1l0,0
					l-0.9-0.8c0.2-0.4,0.4-0.8,0.5-1.2l1.2,0.2c0.1,0,0.1,0,0.1-0.1l0,0l0.2-1.2L181.7,59.2z M176.9,59.2c-0.1,0.9-0.9,1.5-1.8,1.4
					c0,0-0.1,0-0.1,0c-0.8,0-1.5-0.7-1.4-1.6c0-0.1,0-0.2,0-0.2c0-0.9,0.8-1.6,1.7-1.5c0,0,0.1,0,0.1,0
					C176.3,57.4,177,58.2,176.9,59.2C176.9,59.2,176.9,59.2,176.9,59.2L176.9,59.2z"/>
				<path class="st3" d="M225.5,55.3c0-0.3-0.1-0.6-0.2-0.9l0.8-0.3h0.1v-0.3l-0.3-0.6h-0.1l-0.7,0.3l-0.6-0.7l0.5-0.7l0,0l-0.2-0.2
					l-0.5-0.4c-0.1,0-0.1,0-0.1,0.1v0l-0.5,0.6c-0.3-0.1-0.6-0.2-0.9-0.3V51h-1v0.7h-1l-0.3-0.8h-0.1l-0.8,0.3l0,0l0.2,0.7h0.1
					l-0.8,0.6l-0.7-0.5h-0.1l-0.5,0.7l0,0l0.6,0.4h0.1c-0.2,0.3-0.3,0.6-0.4,0.9h-0.9v0.9h0.9c0,0.3,0,0.6,0.1,0.9l-0.8,0.4h-0.1
					l0.4,0.8h0.1l0.7-0.3h0.1c0.1,0.3,0.3,0.5,0.5,0.7l-0.5,0.7l0,0l0.7,0.6h0.1l0.5-0.7l0,0l0.9,0.4v0.8h1v-0.8h1l0.3,0.8h0.1
					l0.6-0.2h0.2c0.1,0,0.1,0,0.1-0.1v0l-0.4-0.8c0.3-0.1,0.6-0.3,0.8-0.6l0.7,0.6c0.1,0,0.1,0,0.1-0.1v0l0.3-0.4l0.2-0.3
					c0.1,0,0,0,0-0.1l-0.7-0.5c0.2-0.3,0.3-0.6,0.4-0.9l0.9,0.2h0.1v-0.9h-0.9L225.5,55.3z M221.5,56.5c-0.7-0.1-1.1-0.7-1.1-1.3
					c0.1-0.7,0.7-1.1,1.4-1.1c0.7,0.1,1.2,0.7,1.1,1.4C222.8,56.2,222.2,56.6,221.5,56.5C221.5,56.5,221.5,56.5,221.5,56.5z"/>
				<path class="st3" d="M219.9,63.7v-0.6l0.5-0.3h0.1v-0.2l-0.2-0.4h-0.1l-0.5,0.3l-0.4-0.6l0.3-0.5h-0.1l-0.4-0.2l0,0l-0.4,0.5
					c-0.2-0.2-0.4-0.2-0.7-0.3v-0.6h-0.7v0.5h-0.7l-0.2-0.6h-0.1l-0.6,0.2l0,0l0.2,0.5l0,0c-0.2,0.2-0.4,0.3-0.5,0.5l-0.5-0.4h-0.1
					l-0.4,0.5l0,0l0.5,0.3l0,0c-0.1,0.2-0.2,0.5-0.2,0.7H214v0.7h0.6c0,0.2,0.1,0.5,0.1,0.7l-0.6,0.2l0,0l0.3,0.6l0,0l0.5-0.2h0.1
					l0.4,0.5L215,66l0,0l0.6,0.4l0,0l0.4-0.5l0,0l0.6,0.3V67h0.7v-0.6h0.7l0.2,0.6h0.1l0.4-0.2h0.2l-0.2-0.6l0.5-0.4l0.5,0.4h0.1
					l0.2-0.3l0.2-0.2l0,0l-0.5-0.4c0.1-0.2,0.2-0.4,0.2-0.6h0.7v-0.6h-0.7V63.7z M217.1,64.6c-0.5-0.1-0.8-0.5-0.8-1
					c0-0.4,0.4-0.8,0.9-0.7c0,0,0.1,0,0.1,0c0.5,0.1,0.8,0.4,0.8,0.9C218,64.3,217.6,64.7,217.1,64.6
					C217.1,64.6,217.1,64.6,217.1,64.6z"/>
			</g>
			<g>
				<path class="st3" d="M145.8,88.2c0.6-0.2,1.2-0.6,1.5-1.1c0.3-0.6,0.3-1.2,0.1-1.8c-0.1-0.6-0.5-1.1-1.1-1.3
					c-0.5-0.3-1.1-0.4-1.7-0.2c-0.6,0.1-1.1,0.5-1.4,1.1c-0.3,0.5-0.3,1.1-0.2,1.7c0.2,0.6,0.6,1.1,1.1,1.4
					C144.6,88.3,145.2,88.4,145.8,88.2z M143.5,86.5c-0.1-0.5-0.1-1,0.2-1.4c0.5-0.9,1.6-1.2,2.5-0.7c0.4,0.2,0.7,0.6,0.8,1.1
					c0.1,0.4,0.1,0.9-0.2,1.3c-0.2,0.5-0.6,0.8-1.1,0.9c-0.4,0.2-0.9,0.1-1.3-0.1C143.9,87.4,143.6,87,143.5,86.5z"/>
				<path class="st3" d="M131.8,94.5h0.1l0.7,0.4h0.4l0.3-0.5h0.4V95c0,0.1,0.1,0.2,0.2,0.2h1.1c0.1,0,0.1-0.1,0.1-0.2v-0.5h0.4
					l0.3,0.4c0,0.1,0.2,0.2,0.3,0.2l0,0l0.8-0.5c0.1-0.1,0.1-0.1,0.1-0.2v-0.2l-0.3-0.4l0.3-0.3l0.5,0.2c0.1,0.1,0.2,0.1,0.3,0
					c0,0,0,0,0,0l0.5-0.8c0-0.1,0-0.2-0.1-0.3l-0.5-0.3c0-0.2,0.1-0.3,0.1-0.5h0.6c0.1,0,0.2-0.2,0.2-0.3V91h0.3l1.2-0.7l0.9,0.9
					l-0.6,1.1c-0.1,0.2-0.1,0.3,0,0.4h0.1l1.4,0.7h0.2l0.2-0.2l0.6-1.1c0.4,0.2,0.9,0.3,1.3,0.3v1.3c0,0.1,0.1,0.3,0.2,0.3h2
					c0-0.1,0.1-0.2,0-0.2v-1.2l1.2-0.3l0.7,1.1h0.4l1.4-0.8l0.2-0.3c0-0.1,0-0.1-0.1-0.2l-0.6-1.1l0.9-0.9l1.1,0.6
					c0.1,0.1,0.3,0.1,0.4,0h0.1l0.7-1.3l0,0c0.1-0.1,0.1-0.2,0-0.3c0,0,0,0,0,0h-0.1l-1.1-0.6l0.3-1.3h1.4c0.1,0,0.2-0.2,0.2-0.4
					v-1.7c0-0.2-0.2-0.3-0.4-0.3h-1.2c-0.1-0.4-0.2-0.8-0.4-1.2l1.1-0.7l0.2-0.2c0-0.1,0-0.2-0.1-0.3l-0.7-1.3
					c-0.1-0.1-0.4-0.2-0.5-0.1l-1.1,0.6l-0.9-0.8l0.6-1.2c0.1,0,0.2-0.1,0.1-0.2c0-0.1-0.1-0.2-0.2-0.2l0,0l-1.4-0.8
					c-0.1-0.1-0.4,0-0.5,0.2l-0.6,1.1l-1.2-0.4v-1.2c0-0.1-0.1-0.2-0.1-0.3h-2V78H144v1.3c-0.5,0-0.9,0.1-1.3,0.3l-0.6-1.1l-0.2-0.2
					h-0.3l-1.3,0.8c-0.2,0.1-0.2,0.3-0.1,0.5l0.6,1l-0.9,0.9l-1.1-0.6h-0.2c-0.1,0-0.2,0-0.3,0.2l-0.7,1.3c-0.1,0.1-0.1,0.2,0,0.3
					c0,0,0,0,0,0v0.2l1.1,0.6l-0.3,1.2H137c-0.1,0-0.2,0.1-0.2,0.2l0,0v1.5c0,0.1,0,0.2,0.1,0.3h1.5c0.1,0.4,0.2,0.8,0.4,1.2l-1,0.5
					l-0.2-0.3l-0.3-0.2l-0.5,0.3l-0.4-0.3l0.3-0.5c0.1-0.1,0-0.2-0.1-0.3l-0.7-0.4c-0.1-0.1-0.3,0-0.4,0.1l-0.3,0.5l-0.4-0.2v-0.5
					c0-0.2-0.1-0.3-0.3-0.3l0,0h-0.9V87l0,0v0.6l-0.4,0.2l-0.3-0.5c-0.1-0.1-0.2-0.2-0.3-0.1l0,0l-0.8,0.4c-0.1,0.1-0.1,0.3-0.1,0.4
					l0.3,0.5l-0.3,0.3l-0.5-0.3h-0.4l-0.4,0.7v0.3h0.2l0.4,0.3c0,0.1-0.1,0.3-0.1,0.4h-0.6l-0.2,0.2l0,0v0.8c0,0.1,0,0.2,0.1,0.2
					h0.7c0.1,0.1,0.1,0.3,0.1,0.4l-0.4,0.3l-0.2,0.3h0.1l0.4,0.7c0,0.1,0.1,0.1,0.2,0.1h0.1l0.5-0.3l0.4,0.3l-0.3,0.5
					C131.7,94.3,131.8,94.4,131.8,94.5z M138.2,90.4h-0.4c-0.1-0.2-0.1-0.3-0.1-0.5h0.2L138.2,90.4z M138.3,89.5h-0.1l1.4-0.8v-0.2
					c-0.2-0.5-0.4-1-0.4-1.5v-0.2h-1.5v-1.4h1.3v-0.2c0.1-0.5,0.2-1,0.4-1.5v-0.2l-1.3-0.8l0.6-1.1l1.3,0.8l0.2-0.2
					c0.3-0.4,0.7-0.8,1.1-1.1v-0.2l-0.8-1.3l1.1-0.6l0.8,1.3h0.2l1.5-0.4h0.3v-1.7h1.3v1.6h0.2c0.6,0,1.1,0.2,1.6,0.4h0.2l0.7-1.4
					l1.1,0.6l-0.7,1.4h0.1l1.2,1.1v0.2l1.3-0.8l0.7,1.1l-1.4,0.8v0.2c0.2,0.5,0.4,1,0.4,1.5v0.2h1.9v1.3h-1.5v0.2
					c0,0.5-0.2,1-0.4,1.5v0.2l1.3,0.7l-0.6,1.2l-1.4-0.8v0.2l-1.1,1.1h-0.2L150,92l-1.1,0.7l-0.9-1.3h-0.2l-1.5,0.5h-0.2v1.5h-1.3
					v-1.2h-0.3l-1.5-0.4h-0.2l-0.7,1.4l-1.1-0.6l0.7-1.4V91c-0.5-0.3-0.9-0.7-1.2-1.1h-0.1l-1.3,0.8l-0.7-1L138.3,89.5z M132.7,93.6
					h-0.2L132,93h-0.2l-0.6,0.4L131,93l0.6-0.4v-0.2c-0.1-0.2-0.2-0.5-0.2-0.7v-0.2h-0.7v-0.4h0.7v-0.2c0-0.3,0.1-0.5,0.1-0.7V90
					l-0.6-0.4V89l0.7,0.4v-0.2l0.6-0.5h0.1L132,88l0.3-0.2l0.4,0.7h0.2l0.7-0.2h0.2v-0.8h0.4v0.8h0.2l0.8,0.2h0.2l0.3-0.7l0.4,0.2
					l-0.4,0.7h0.2c0.2,0.1,0.4,0.3,0.5,0.5l0.2,0.2l0.6-0.4l0.2,0.3l0,0l-0.6,0.4v0.2c0.1,0.2,0.2,0.5,0.2,0.7v0.3h0.7v0.4H137v0.2
					c0,0.2-0.1,0.5-0.1,0.7v0.2l0.6,0.4v0.3l-0.7-0.4l-0.2,0.2c-0.1,0.2-0.3,0.4-0.5,0.5l-0.2,0.2l0.4,0.6l-0.3,0.2l-0.4-0.6h-0.2
					l-0.7,0.2h-0.2v0.8h-0.4V94H134l-0.8-0.2H133l-0.3,0.7l-0.4-0.2L132.7,93.6z"/>
				<path class="st3" d="M134.7,92.3c0.3-0.1,0.6-0.3,0.8-0.6c0.1-0.3,0.2-0.7,0.1-1c-0.1-0.3-0.3-0.6-0.6-0.7
					c-0.3-0.2-0.7-0.2-1-0.2c-0.3,0.1-0.6,0.4-0.8,0.7c-0.1,0.3-0.2,0.6-0.1,0.9c0.1,0.3,0.3,0.6,0.6,0.8
					C134,92.4,134.4,92.4,134.7,92.3z M133.6,91.3c-0.1-0.2,0-0.4,0.1-0.6l0.4-0.4h0.6c0.2,0.1,0.3,0.3,0.4,0.5
					c0.1,0.2,0,0.4-0.1,0.6c-0.2,0.3-0.6,0.5-1,0.3C133.8,91.6,133.7,91.5,133.6,91.3L133.6,91.3z"/>
			</g>
			<path class="st3" d="M98.7,116.1v-0.7l0.5-0.2c0.1,0,0.1,0,0.1-0.1h-0.1l-0.2-0.5l0,0l-0.6,0.3c-0.1-0.3-0.3-0.4-0.4-0.6l0.4-0.5
				h-0.2l-0.4-0.3l0,0l-0.4,0.5l-0.7-0.2v-0.7H96v0.6l0,0c-0.2-0.1-0.5,0-0.7,0l-0.2-0.6H95l-0.6,0.3l0,0l0.2,0.5l0,0l-0.6,0.4
				l-0.5-0.4l0,0l-0.4,0.5l0,0l0.4,0.4h0.1l-0.3,0.7h-0.7v0.7h0.7c0,0.2,0,0.5,0.1,0.7l-0.6,0.2l0,0l0.2,0.6h0.1l0.5-0.2h0.1
				c0.1,0.2,0.2,0.4,0.4,0.5l-0.4,0.6l0,0l0.5,0.4h0.1l0.3-0.4h0.1l0.6,0.3v0.6h0.8v-0.6h0.6l0.3,0.6h0.1l0.4-0.2h0.2l-0.3-0.6
				l0.6-0.4l0.5,0.4h0.1l0.2-0.3l0.2-0.2l0,0l-0.5-0.4c0.1-0.2,0.2-0.4,0.2-0.6h0.7v-0.6h-0.7L98.7,116.1z M95.9,117
				c-0.5-0.1-0.9-0.5-0.8-1c0,0,0,0,0,0c0-0.4,0.4-0.8,0.9-0.7c0,0,0.1,0,0.1,0c0.4,0,0.7,0.3,0.7,0.7c0,0.1,0,0.2,0,0.2
				c0,0.4-0.4,0.8-0.8,0.8C96,117,95.9,117,95.9,117z"/>
			<path class="st4" d="M120.5,113c-0.5,2,1.5,3.3,2,3.5c3,1.1,6.1,1.9,9.3,2.2l0.5-2.4l-5.5-2.9C125,112.5,121.1,111.1,120.5,113z"
				/>
			<path class="st5" d="M134.9,118l-1.7-0.2c-0.3,0-0.5,0.1-0.5,0.3l0,0c-0.1,0.2,0.1,0.4,0.3,0.4l1.8,0.3c0.2,0,0.5-0.2,0.5-0.4
				l0,0C135.3,118.2,135.1,118,134.9,118z"/>
			<path class="st5" d="M135.1,117.3l-1.8-0.3c-0.2,0-0.4,0.2-0.4,0.4l0,0c-0.1,0.2,0.1,0.4,0.3,0.5l1.8,0.2c0.2,0,0.5-0.2,0.5-0.4
				l0,0C135.5,117.5,135.3,117.3,135.1,117.3L135.1,117.3z"/>
			<path class="st5" d="M135.2,116.5l-1.7-0.2c-0.1-0.1-0.3-0.1-0.4,0c-0.1,0.1-0.1,0.2-0.1,0.3l0,0c0,0.2,0.1,0.5,0.3,0.5l1.8,0.2
				c0.1,0.1,0.3,0.1,0.4,0c0.1-0.1,0.1-0.2,0.1-0.3l0,0C135.6,116.7,135.5,116.5,135.2,116.5z"/>
			<path class="st5" d="M135.3,115.8l-1.8-0.3c-0.2,0-0.5,0.2-0.5,0.4l0,0c0,0.2,0.2,0.4,0.4,0.4l1.8,0.3c0.2,0,0.5-0.2,0.5-0.4l0,0
				C135.7,116,135.5,115.8,135.3,115.8z"/>
			<path class="st5" d="M129.3,115.9l0.9,2.5c0.6,0.2,1.2,0.4,1.8,0.5c0.9,0.1,1.9,0.1,2.8,0c0,0-0.1-1.4-0.1-1.9s0.8-1.2,0.8-1.2
				c-0.9-0.3-1.9-0.5-2.8-0.7C132.2,115.1,129.3,115.9,129.3,115.9z"/>
			<path class="st5" d="M126.8,113.2l-1.5,4.6l6,1l1.2-3.2C132.5,115.6,126.8,113,126.8,113.2z"/>
			<path class="st6" d="M128.1,87.7c-1.3-1.2-1.6-0.9-1.6-0.9l-3.9,8.9l2.5,1.4l4-7.6C129.1,89.5,129.4,88.9,128.1,87.7z"/>
			<path class="st4" d="M121.6,95.8c-1-0.8-2.2-1.5-3.4-2c-0.2,0.3,1.6,3.3,2.8,3.8s1.7-0.2,1.7-0.4S122.7,96.7,121.6,95.8z"/>
			<path class="st4" d="M122.3,100.1c-1.8-0.3-2.6,1.1-2.8,2.9s0.7,11.2,1.1,11.6s3.1,0.5,3.5-0.2c0.5-3.5,0.8-7.1,0.9-10.6
				C124.9,102.3,124.4,100.5,122.3,100.1z"/>
			<path class="st7" d="M123.7,93.9l-3.1-3.4c0,0-2.6,4.6-3,4.7s-4.6-0.8-5.8,0.2s-1.1,9.8-1.7,12.3s-3.5,5.3-4.9,7.3s4,8.2,4.3,8.3
				c1.5-0.2,2.9-0.7,4.2-1.3c0.8-0.5,3-7.8,3.7-9.2s3.9-4.7,4.2-5c0.9-1.4,1.6-2.9,2-4.5c0.2-0.5,0.6-1.2,0.5-1.6s-2.3-3-2.2-3.3
				L123.7,93.9z"/>
			<polygon class="st8" points="118.2,94.5 119.1,95.9 123,95.7 119.6,92.1 			"/>
			<path class="st7" d="M122.7,85.7c-2,0.8-3.3,2.8-3.2,5c-0.1,1.2,0.3,2.4,1,3.4c0.7,0.8,1.6,1.5,2.5,2.1c0.4,0.1,2-1.9,2-1.8
				c0.1,0.1,0.3,0.1,0.4,0c0,0,0.1-0.1,0.1-0.1c0.2-0.2,0.9-1.9,1.1-2.1c1-0.8,1.6-2,1.4-3.3C127.6,87.4,125.3,84.7,122.7,85.7z"/>
			<path class="st9" d="M126.7,86.4c-1.5-1.2-3.6-1.2-5.2-0.1c-2.3,1.7-2.4,5.6-1.9,5.9s1.5-0.6,2.2-2.9c0.1-0.3,0.6,2.1,0.8,2
				s0.5-2.3,1.2-2.4c3.2-0.6,4.2,1.4,4.2,1.4C128.4,88.9,127.9,87.3,126.7,86.4z"/>
			<path class="st7" d="M122.2,89.1c-0.4-0.1-0.9,0.4-1.1,1.2s-0.1,1.4,0.3,1.5s0.8-0.8,1-1.5S122.6,89.2,122.2,89.1z"/>
			<rect x="109.4" y="159.4" class="st10" width="3" height="0.6"/>
			<path class="st10" d="M115.2,157.1c-2.3-2.1-2.6-1.6-2.6-1.6h-3c-0.4,0.6-0.6,1.4-0.7,2.1c-0.1,0.6,0.3,1.8,0.7,1.8l3.6,0.2
				c1.2,0.2,1.6,0.8,4.6,0.8c0.9,0,2.4,0,2.4-0.4C120.5,156.5,116.1,157.9,115.2,157.1z"/>
			<path class="st4" d="M107.2,117.4c0,0-0.2,1.2-0.4,2.9s1.5,7.3,2.1,11.7c0.6,4.4,1,5.3,0.8,6.3s-1.4,5.3-1.3,8s0.8,10.1,0.8,10.1
				c0.7,0.3,1.4,0.5,2.2,0.5c1.2,0.1,2.4-0.1,3.5-0.4c0,0,1-17,1.2-18.7s0.1-8.8,0.4-15c0.1-2,0-4.3,0-5.2S107.2,117.4,107.2,117.4z
				"/>
			<polygon class="st10" points="105.4,160.8 108.4,161 108.5,160.4 105.5,160.2 			"/>
			<path class="st11" d="M112.1,158.5c-2.1-2.3-3.2-2-3.2-2c-1-0.2-2.1-0.3-3.1-0.3c-0.4,0.6-0.7,1.4-0.8,2.1
				c-0.1,0.6,0.2,1.9,0.6,1.9c1.2,0.1,2.4,0.2,3.6,0.5c1.2,0.2,1.6,0.9,4.6,1.1c0.8,0.1,2.4,0.1,2.4-0.3
				C116.2,158.2,113,159.4,112.1,158.5z"/>
			<path class="st12" d="M113.5,117.2c-2.8-0.6-5.6-1.5-8.2-2.7c-0.6,1.5-0.9,3.2-0.9,4.8c-0.1,3.1,0.1,6.2,0.5,9.3
				c0.4,3,0.4,6,0.1,9c-0.2,1.1-1.2,6.1-1,8.8s0,11,0,11c1.1,0.2,2.1,0.4,3.2,0.5c1.3,0,2.5-0.1,3.7-0.5c0,0,1.7-15.7,2-18.3
				s0.8-11.2,1.5-16.7c0.4-1.8,1-3.5,1.9-5.1C115.4,117.4,114.4,117.3,113.5,117.2z"/>
			<path class="st4" d="M105.2,134.5c0,1.8-1.1,8.6-1.2,10s0,12.9,0,12.9l3.9,0.5c0,0-1-10.3-1.1-12.6s-0.1-8.1,0-10.3
				s-1.1-9.1-1-9.4s8.2,0,8.2,0v-0.4l-9.8-1.6C104.2,123.6,105.2,132.6,105.2,134.5z"/>
			<path class="st12" d="M120.6,98.5l-3.2-3.3c0,0-4.3-1-5.5-0.3s-3.8,12-4.1,12.8c-4,8.8-4.8,15-4.5,15.3s7.3,2.3,11.2,2.2
				s4.9-1.9,4.9-1.9s1.1-11.1,1.3-11.8s3.8-9.4,3.7-9.8c-0.7-1.2-1.6-2.3-2.5-3.4L120.6,98.5z"/>
			<path class="st13" d="M116.7,97.5l-5,27.5c0,0,4.2,0.4,5,0s2.6-0.9,2.7-1.7c0.4-3.1,0.9-10.7,1.3-11.8l3.7-9.8
				c-1-1-2.2-1.9-3.4-2.7C119.6,98.4,118.2,97.9,116.7,97.5z"/>
			<path class="st13" d="M121.2,97.3c-1-0.2-3-3.5-3-3.5l-1.4,1.3c0,0,2.2,3.3,3.7,3.7s1.9,0,1.9,0l0.3-1.6
				C122.2,97.4,121.7,97.4,121.2,97.3z"/>
			<path class="st13" d="M109.9,140.2c-0.3,2.1,3.1-1.5,3.2-2.5s0.7-9.6,0.7-9.6l-3.2,0.6C110.6,128.7,110.2,138.2,109.9,140.2z"/>
			<path class="st13" d="M114.8,138.5c-0.1,1.1,1.2,1.2,1.3-0.7s0.2-10,0.2-10h-1.5C114.8,127.8,115,137.3,114.8,138.5z"/>
			<path class="st14" d="M103.9,150.7v2.8c1.3,0.4,2.6,0.7,3.9,0.8c1.2,0,2.4-0.2,3.5-0.6l0.3-2.9c-1.2,0.4-2.5,0.6-3.8,0.6
				C106.5,151.4,105.1,151.2,103.9,150.7z"/>
			<path class="st15" d="M111.8,150.5l-0.2,2c0.6,0.1,1.2,0.1,1.8,0l1.8-0.4V150c-0.7,0.2-1.5,0.4-2.2,0.5H111.8z"/>
			<path class="st16" d="M121,99c-0.5-0.2-1-0.2-1.5,0c-1.1,0.6-1.8,1.7-2,2.9l-2.8,22c-0.1,0.4,0.3,0.8,0.7,0.9c0,0,0.1,0,0.1,0
				c0.4,0.1,0.9,0,1.3-0.1c0.8-0.3,1.7-0.6,1.8-1.4c0.4-3.1,1.2-10.6,1.6-11.6l3-7.9c0.5-1.2,0.2-2.5-0.6-3.4
				C122.2,99.8,121.6,99.3,121,99z"/>
			<path class="st6" d="M122.1,87.1c-0.2-0.4-0.3-0.8-0.3-1.2l-1,0.9c0.2,0.9,0.8,1.7,1.6,2.3l0.4-1.3L122.1,87.1z"/>
			<path class="st4" d="M116.6,95.9c0.4,0,3.2,2.5,3.2,2.5l-3-3.3c0,0-3-0.8-4.9-0.2s-3.5,11.3-4.5,13.5c-3.3,7.4-4.5,13.9-4.1,14.6
				s2.7,0.9,2.7,0.9s1.4-12.2,2.3-14s3-6.9,3.8-7.2s5.5,4.7,5.5,4.7s-3.8-10.4-3.5-11S116.1,96,116.6,95.9z"/>
			<path class="st17" d="M127.5,89.4c-3.1-1.1-3.9-3.1-3.9-3.1s-4.6,8.3-4.1,10.1s3.7,3.2,4.1,3.3s5.5-10.2,5.5-10.2
				C128.6,89.7,128,89.6,127.5,89.4z"/>
			<path d="M124.4,90.9l-0.7,1.2c0.4,0.4,0.8,0.8,1.3,1.2c0.6,0.4,1.2,0.7,1.8,0.9l0.6-1.4c-0.6-0.3-1.1-0.6-1.6-0.9L124.4,90.9z"/>
			<path class="st12" d="M112.4,95.6c-1.7,0.7-1.6,2.3-0.8,3.9s6.7,9,7.3,9.1s2.8-1.2,2.7-2s-4-7.9-4.9-9.1S114.4,94.7,112.4,95.6z"
				/>
			<path class="st12" d="M118.2,106.5c-1.2,1.7,2.4,3.7,4.2,4.6s7.3,3.1,7.3,3.1l1.1-1.9c-2.7-2.5-5.6-4.6-8.7-6.5
				C121.6,105.6,119.3,104.9,118.2,106.5z"/>
			<path class="st18" d="M123.6,86.3c0,0-4.6,8.3-4.1,10.1c0.3,0.8,0.8,1.4,1.5,1.9c-0.2-0.2-0.3-0.4-0.4-0.7
				c-0.4-1.7,3.3-8.7,4-9.9C124.2,87.3,123.8,86.8,123.6,86.3z"/>
			
				<rect x="138.2" y="108.9" transform="matrix(0.7266 -0.6871 0.6871 0.7266 -40.4034 126.138)" class="st17" width="0.2" height="9.8"/>
			
				<rect x="129" y="112.8" transform="matrix(0.7349 -0.6782 0.6782 0.7349 -41.8183 120.3861)" class="st19" width="8.2" height="1.8"/>
			<polygon class="st20" points="135.4,110.1 129.4,115.7 130.6,117 134,113.8 133.9,112.7 135.9,110.7 			"/>
			<polygon class="st18" points="128.5,117.1 129.2,117.8 130.6,117 129.4,115.7 			"/>
			<path class="st21" d="M131.4,114.7c-0.2-0.1-0.4-0.1-0.6,0.1l0,0c-0.1,0.1-0.1,0.3,0,0.4c0,0,0.1,0.1,0.1,0.1l1.3,1.2
				c0.2,0.1,0.4,0.1,0.6,0l0,0c0.1-0.2,0.1-0.4,0-0.6L131.4,114.7z"/>
			<path class="st21" d="M132,114.2c-0.2-0.2-0.5-0.2-0.6,0l0,0c-0.2,0.1-0.2,0.4,0,0.6c0,0,0,0,0,0l1.4,1.2
				c0.2,0.1,0.4,0.1,0.6-0.1l0,0c0.1-0.2,0.1-0.4-0.1-0.6L132,114.2z"/>
			<path class="st21" d="M132.5,113.6c-0.2-0.1-0.4-0.1-0.6,0l0,0c-0.1,0.2-0.1,0.4,0,0.6l1.4,1.2c0.2,0.1,0.4,0.1,0.6,0l0,0
				c0.1-0.2,0.1-0.4,0-0.6L132.5,113.6z"/>
			<path class="st21" d="M132.9,113c-0.1-0.2-0.4-0.1-0.6,0l0,0c-0.1,0.2-0.1,0.5,0.1,0.6l1.4,1.2c0.1,0.2,0.4,0.1,0.6,0l0,0
				c0.1-0.2,0.1-0.5-0.1-0.6L132.9,113z"/>
			<path class="st21" d="M132.5,112.2c-0.5-0.3-3.3-1.2-3.3-1.2l-0.6,2.6c0.3,0.5,0.7,1,1.2,1.4c0.7,0.6,1.5,1.1,2.4,1.5
				c0.3-0.5,0.6-1.1,0.9-1.6c0.3-0.5,1.3-0.6,1.3-0.6C133.8,113.5,133.2,112.8,132.5,112.2z"/>
			<path class="st21" d="M126,108.1l-2.4,4.1l5.6,2.2l1.9-2.8C131.1,111.6,126.1,107.8,126,108.1z"/>
			<rect x="134.8" y="117" class="st22" width="15.3" height="1.9"/>
			<rect x="141.9" y="114.1" class="st22" width="8.2" height="2.9"/>
			<polygon class="st17" points="149.6,115.8 144.3,116 141.9,117 149.6,116.8 149.1,118.3 134.8,118.6 134.8,118.9 150.1,118.9 
				150.1,114.1 149.6,114.1 			"/>
			<path class="st18" d="M139.5,150.7L139.5,150.7c-1.6,0-3.6,3-4.9,4.9l-0.6,0.9c-1.5,2-3.3,2.7-5.1,2.1s-4.6-4.2-4.6-7.3
				s0.1-4.4,0.2-7.7c0.2-7.2,0.5-16.1,0.1-19.3c-0.3-1.4,0.1-2.9,1-4.1c0.8-0.8,1.9-1.3,3-1.3h6.2v-0.4h-6.2c-1.3,0-2.5,0.5-3.3,1.4
				c-1,1.3-1.4,2.9-1.1,4.5c0.4,3.1,0.1,12-0.1,19.2c-0.1,3.3-0.2,6.1-0.2,7.7c0,3.3,2.3,6.8,4.9,7.7l1.3,0.2c1.5,0,2.9-0.9,4.2-2.5
				l0.6-0.9c1.1-1.7,3.2-4.7,4.6-4.7l0,0c1-0.1,2,0.4,2.5,1.3l0.3-0.2C142.3,152.1,141.7,150.7,139.5,150.7z"/>
			<path class="st18" d="M136.4,150.4c-1.4,0.3-2.6,1.8-3.4,4.4c-0.6,2.1-2.7,3.5-4.9,3.1c-3.6-0.6-6.3-3.6-6.6-7.2
				c-0.1-2.1,0.6-5.9,1.2-9.2s0.8-4,0.9-5.2c0.3-2.9-0.6-6.2-1.3-8.8c-0.5-1.4-0.8-2.8-0.9-4.2c0-1.4,0.1-3.2,1.1-4.1
				c0.6-0.4,1.4-0.6,2.1-0.5c3.3,0.5,4.6-1.3,4.7-1.4l-0.4-0.2c0,0-1.1,1.7-4.2,1.3c-0.9-0.2-1.8,0-2.5,0.5c-1,1-1.2,2.9-1.1,4.4
				c0.1,1.5,0.4,2.9,0.8,4.3c0.7,2.6,1.6,5.8,1.4,8.6s-0.5,3.2-0.9,5.2s-1.4,7.1-1.2,9.3c0.2,3.9,3.1,7,6.9,7.6h0.7
				c2.1,0.1,4-1.4,4.5-3.4c0.8-2.5,1.9-3.9,3.2-4.1s3.9,2,3.9,2l0.3-0.2C140.6,152.5,138.6,150,136.4,150.4z"/>
			<rect x="135.1" y="152.3" class="st19" width="11.8" height="8"/>
			<rect x="141.4" y="151.8" class="st17" width="1" height="0.5"/>
			<rect x="138.9" y="151.8" class="st17" width="1.6" height="0.5"/>
			<rect x="136.1" y="153.3" class="st23" width="4.3" height="0.4"/>
			<rect x="136.1" y="154.1" class="st23" width="4.3" height="0.4"/>
			<rect x="136.1" y="154.8" class="st23" width="4.3" height="0.4"/>
			<rect x="136.1" y="155.6" class="st23" width="4.3" height="0.4"/>
			<rect x="136.1" y="156.3" class="st23" width="4.3" height="0.4"/>
			<rect x="136.1" y="157.1" class="st23" width="4.3" height="0.4"/>
			<rect x="136.1" y="157.8" class="st23" width="4.3" height="0.4"/>
			<rect x="136.1" y="158.6" class="st23" width="4.3" height="0.4"/>
			<path class="st23" d="M142.6,153.2c-0.3,0-0.6,0.3-0.6,0.6c0,0.3,0.3,0.6,0.6,0.6c0.3,0,0.6-0.3,0.6-0.6
				C143.2,153.5,142.9,153.2,142.6,153.2L142.6,153.2z"/>
			<circle class="st23" cx="144.8" cy="153.8" r="0.6"/>
			<rect x="123" y="118.9" class="st17" width="33.6" height="4.9"/>
			<rect x="148.7" y="123.9" class="st17" width="5.2" height="36.6"/>
			<rect x="131.4" y="137.1" class="st17" width="17.3" height="2"/>
			<rect x="147.7" y="160.1" class="st17" width="7.1" height="0.8"/>
			<rect x="147.7" y="143.4" class="st17" width="7.1" height="0.8"/>
			<rect x="147.7" y="130.8" class="st17" width="7.1" height="0.8"/>
			<rect x="126.2" y="123.9" class="st17" width="5.2" height="36.6"/>
			<rect x="125.3" y="160.1" class="st17" width="7.1" height="0.8"/>
			<rect x="125.3" y="143.4" class="st17" width="7.1" height="0.8"/>
			<rect x="125.3" y="130.8" class="st17" width="7.1" height="0.8"/>
			<polygon class="st24" points="126.2,129.1 131.4,127.3 131.4,123.9 126.2,123.9 			"/>
			<polygon class="st24" points="148.7,128.5 153.9,127.3 153.9,123.9 148.7,123.9 			"/>
			<polygon class="st24" points="126.2,132.7 131.4,132.3 131.4,131.6 126.2,131.6 			"/>
			<polygon class="st24" points="148.7,132.7 153.9,132.3 153.9,131.6 148.7,131.6 			"/>
			<polygon class="st24" points="126.2,145.5 131.4,144.9 131.4,144.2 126.2,144.2 			"/>
			<polygon class="st24" points="148.7,145.3 153.9,144.9 153.9,144.2 148.7,144.2 			"/>
			<path class="st25" d="M146.7,111.9l-1.8,1.6l2.1-1.3c0.1,0,0.1-0.2,0-0.3C146.9,111.8,146.8,111.8,146.7,111.9
				C146.7,111.9,146.7,111.9,146.7,111.9z"/>
			<path class="st25" d="M148.9,113l-1.6,0.8l1.7-0.4c0.2,0,0.2-0.2,0.2-0.3S149,112.9,148.9,113z"/>
			<path class="st25" d="M153.5,109.5l-2.3,0.9l2.4-0.4l0.2-0.3C153.8,109.6,153.6,109.5,153.5,109.5z"/>
			<path class="st25" d="M156.7,111.5l-1.3,0.6h1.5c0.1,0,0.2-0.2,0.1-0.3c0,0,0,0,0,0C157,111.6,156.9,111.5,156.7,111.5z"/>
			<path class="st25" d="M159.1,115.9l0.9,1.1h0.4c0.1-0.1,0.1-0.3,0-0.4L159.1,115.9z"/>
			<path class="st25" d="M156.8,115.5l-2-0.3l1.9,0.8c0.2,0,0.3-0.1,0.3-0.2S157,115.6,156.8,115.5z"/>
			<path class="st25" d="M148.6,108.8l-1.4,1.4l1.7-1.1c0.1,0,0.1-0.2,0-0.3H148.6z"/>
			<path class="st25" d="M146,111.4l-1.9,1.9l2.4-1.6c0.1-0.1,0.1-0.2,0-0.3c0,0,0,0,0,0C146.4,111.3,146.1,111.3,146,111.4z"/>
			<path class="st25" d="M149.2,112.2l-1.8,1l2.1-0.6c0.2-0.1,0.2-0.2,0.1-0.3S149.3,112.1,149.2,112.2z"/>
			<path class="st25" d="M154.4,108.1l-2.8,1.2l3-0.7c0.2-0.1,0.3-0.2,0.2-0.4L154.4,108.1z"/>
			<path class="st25" d="M159.2,109.7l-1.7,0.7l2-0.3c0.1,0,0.2-0.2,0.1-0.3c0,0,0,0,0,0C159.5,109.7,159.3,109.6,159.2,109.7z"/>
			<path class="st25" d="M163.4,113.6l1.6,1c0.1,0.1,0.3,0.1,0.5-0.1s0-0.2-0.1-0.3L163.4,113.6z"/>
			<path class="st25" d="M160.4,113.6h-2.8l2.8,0.5l0.3-0.2C160.7,113.7,160.6,113.6,160.4,113.6z"/>
			<path class="st25" d="M147.6,108.1l-1.4,1.6l2-1.3c0.1-0.1,0-0.2-0.1-0.3c0,0,0,0,0,0L147.6,108.1z"/>
			<polygon class="st26" points="142.7,116.9 146.4,115.7 142.6,116.6 145.8,114.3 142.4,116.3 144.8,113.1 142.2,116.1 
				143.5,112.4 141.9,116 141.9,112 141.6,116 140.4,112.2 141.3,116.1 139,112.8 141,116.2 137.9,113.9 140.8,116.5 137.1,115.2 
				140.7,116.8 136.8,116.7 140.7,117.1 136.9,118.2 140.8,117.4 137.6,119.7 141,117.6 138.6,120.8 141.2,117.8 139.9,121.6 
				141.5,117.9 141.4,121.9 141.8,118 143,121.7 142.1,117.9 144.4,121.1 142.3,117.7 145.5,120.1 142.5,117.5 146.3,118.7 
				142.7,117.2 146.6,117.2 			"/>
			<polygon class="st25" points="142.5,116.6 145.1,115.2 142.4,116.4 144.4,114.3 142.3,116.3 143.5,113.6 142.1,116.2 
				142.4,113.3 141.8,116.1 141.3,113.3 141.6,116.2 140.2,113.6 141.4,116.3 139.3,114.2 141.2,116.4 138.6,115.2 141.1,116.6 
				138.2,116.2 141.1,116.8 138.2,117.4 141.1,117.1 138.6,118.5 141.2,117.3 139.2,119.4 141.4,117.4 140.1,120.1 141.6,117.5 
				141.2,120.4 141.8,117.6 142.3,120.4 142,117.5 143.4,120.1 142.2,117.4 144.4,119.5 142.4,117.3 145,118.5 142.5,117.1 
				145.4,117.5 142.5,116.9 145.4,116.3 			"/>
			
				<linearGradient id="SVGID_4_" gradientUnits="userSpaceOnUse" x1="-28.6" y1="131.3642" x2="256.3" y2="131.3642" gradientTransform="matrix(1 0 0 -1 0 210.6141)">
				<stop  offset="0" style="stop-color:#449164"/>
				<stop  offset="1" style="stop-color:#61E2F3"/>
			</linearGradient>
			<polygon class="st27" points="215.7,9.9 223.4,19.4 139.2,135.9 139.2,135.9 78.8,107.3 78.5,107.2 15.9,135.6 15.2,135.9 
				-16.4,91.9 -28.6,114.5 6,158.3 6.2,158.5 75.8,129.8 76.2,130 143,158.5 143.1,158.3 239.5,40 245,46.3 256.3,0 			"/>
			
				<linearGradient id="SVGID_5_" gradientUnits="userSpaceOnUse" x1="86.9459" y1="101.3339" x2="5.8659" y2="54.7039" gradientTransform="matrix(1 0 0 -1 0 210.6141)">
				<stop  offset="0" style="stop-color:#FFFFFF"/>
				<stop  offset="1" style="stop-color:#000000"/>
			</linearGradient>
			<polygon class="st28" points="78.8,107.3 76.2,130 75.8,129.8 6.2,158.5 6,158.3 15.9,135.6 78.5,107.2 			"/>
			
				<linearGradient id="SVGID_6_" gradientUnits="userSpaceOnUse" x1="194.8129" y1="126.436" x2="145.1429" y2="48.056" gradientTransform="matrix(1 0 0 -1 0 210.6141)">
				<stop  offset="0" style="stop-color:#FFFFFF"/>
				<stop  offset="1" style="stop-color:#000000"/>
			</linearGradient>
			<polygon class="st29" points="256.3,0 245,46.3 239.5,40 143.1,158.3 139.2,135.9 139.2,135.9 223.4,19.4 215.7,9.9 			"/>
			<path class="st7" d="M94.1,117.4c-2.6-1.6-9.9-2.5-9.9-2.5l0,0c0,0-7.5,0.6-10,2.1s1.4,8.4,2.7,12.4c0.3,0.9,0.3,5.2,0.2,9
				c-0.4,2.3-0.6,4.7-0.7,7c0,0.6,6,3.9,7.7,3.9l0,0c1.7-0.1,7.7-3.3,7.8-3.9s-0.7-6.1-0.7-7c-0.1-3.8-0.1-8.1,0.2-9
				C92.7,125.4,96,118.6,94.1,117.4z"/>
			<path class="st7" d="M87.2,113.7l-0.5-4.5h-5c0,0-0.4,3.7-0.6,4.5s-2.2,1.9-2.2,1.9h10.6C89.5,115.6,87.4,114.4,87.2,113.7z"/>
			<path class="st8" d="M86.5,109.2h-4.8c0,0-0.4,3.7-0.6,4.5s-2.2,1.9-2.2,1.9h0.2c2.4-0.6,4.7-1.3,5.1-1.3c1-0.5,2-1.1,2.9-1.8
				l0,0c-0.2-1.1-0.3-2.2-0.4-3.3L86.5,109.2z"/>
			<path class="st7" d="M80.2,141.3c-3.1,0-4.2,2.1-4.2,8.6s1.1,13.6,1.5,14.6s4.7,1,5.1,0.4s1.5-14,1.5-16.1S83.5,141.4,80.2,141.3
				z"/>
			<path class="st7" d="M77.5,167.5l0.1-2.7c0-1.2,1-2.2,2.3-2.1l0.8,0c1.2,0,2.2,1,2.1,2.3l-0.1,2.7c0,1.2-1,2.2-2.3,2.1l-0.8,0
				C78.4,169.8,77.5,168.8,77.5,167.5z"/>
			<path class="st7" d="M79.9,165.7c-0.9,0-3.2,0.3-3.1,6.3s2.7,14.4,2.7,14.4h2.2c0,0,1.1-11.2,1.1-13.4
				C82.8,168.2,82.9,165.7,79.9,165.7z"/>
			<path class="st7" d="M88.2,141.4c-3.3,0.4-3.4,5.7-3.2,7.8s2.7,15.4,3.2,15.9s4.7,0.1,5-1s0.6-8.1,0-14.6S91.2,141.1,88.2,141.4z
				"/>
			<path class="st7" d="M93.2,164.4c-0.1-1.2-1.1-2-2.3-1.9c0,0-0.1,0-0.1,0H90c-1.2,0.1-2,1.1-1.9,2.3c0,0,0,0.1,0,0.1l0.3,2.7
				c0.2,1.2,1.3,2,2.5,1.9h0.8c1.2-0.2,2-1.3,1.9-2.5L93.2,164.4z"/>
			<path class="st7" d="M90.9,165.6c-2.9,0.3-2.6,2.7-2.1,7.6c0.2,2.1,2.5,13.2,2.5,13.2l2.2-0.3c0,0,1.7-8.5,1.1-14.5
				S91.8,165.5,90.9,165.6z"/>
			<path class="st4" d="M75.6,148.3c-0.2,2.9,1.2,15.6,1.2,17s-0.1,5.7,0,9.9s1.2,12.5,1.2,12.5h5.4V167c0-2.8,0.7-17.6,0.7-17.6
				v-9.1l-7.2-0.3C76.9,140,75.8,145.4,75.6,148.3z"/>
			<path class="st14" d="M91,115.9c-0.9-0.3-1.8-0.6-2.7-1l-0.9,0.4c-2,1.2-4.5,1.2-6.5,0l-0.8-0.4l-2.7,1c-1.7,0.5-3.5,0.9-3.8,1.5
				s2.6,11.9,3,12.9S76,138,76.9,140l7.2,0.3l0,0l7.3-0.2c0.6-2.3,0-8.9,0.3-9.9s3.6-11.8,3-12.8S92.6,116.4,91,115.9z"/>
			<path class="st4" d="M93.9,165c-0.1-1.4,0-14.2-0.5-17s-2.1-8.1-2.1-8.1l-7.2,0.4v9.6c0,0,3.2,14.7,3.5,17.5s2.1,20.5,2.1,20.5
				l5.4-0.5c0,0,0.2-8.3-0.1-12.5S94.1,166.4,93.9,165z"/>
			<path class="st10" d="M76.8,190.4c0.4,0.9,1.2,1.5,2.2,1.6c1.1,0.1,2.9-0.9,3.1-0.9s0.7-3.5,0.7-3.5h-4.2
				C78.6,187.6,76.7,189.9,76.8,190.4z"/>
			<path class="st10" d="M94.3,187.5l-4.2,0.3c0,0,0.4,3.4,1,3.4s2.1,0.8,3.2,0.6c1-0.2,1.8-0.9,2.1-1.8
				C96.4,189.4,94.3,187.5,94.3,187.5z"/>
			<path class="st12" d="M93.9,165c-0.1-1.4,0-14.2-0.5-17s-2.1-8.1-2.1-8.1l-4.3,0.3c0,0,3.4,8.7,3.7,10.6s0.6,14.7,0.7,15.4
				s1.8,20.5,1.9,21.4l1.8-0.2c0,0,0.2-8.3-0.1-12.5S94.1,166.4,93.9,165z"/>
			<path class="st12" d="M79.4,146.7c-0.2,1.5-0.2,3,0,4.5c0.4,2.4,1.1,14.2,1,14.5s0,21.9,0,21.9h3V167c0-2.8,0.7-17.6,0.7-17.6
				v-1.9l-0.9-1.6c-0.7-1-2-1.2-2.9-0.6C79.8,145.7,79.5,146.1,79.4,146.7z"/>
			<path class="st7" d="M84.1,100.3c-2.4,0-4.4,2.5-4.4,5.7s2.5,6.2,4.4,6.2s4.4-3.1,4.4-6.2S86.5,100.3,84.1,100.3z"/>
			<path class="st9" d="M87.3,101.2c-0.6-0.6-1.4-1-2.3-1.1h-1.9c-0.4,0-2.7,1.1-2.9,1.6c-0.5,0.8-0.9,1.6-1.2,2.5
				c0,0.8,0.3,1.7,0.7,2.4c0.3-1.1,0.6-2.2,1.1-3.2c0.4-0.2,6.4-0.1,6.4,0.2s1.2,3.3,1.2,3.3l0.3-0.5c0.1-0.6,0.2-1.1,0.4-1.7
				c-0.2-0.6-0.4-1.2-0.6-1.8C88.3,102.5,87.6,101.8,87.3,101.2z"/>
			<path class="st4" d="M62.9,129.1c-1,1.8-0.1,2.4,0.6,3.1c1.1,0.6,2.5,0.3,3.4-0.6c0.9-0.8,3.6-4.3,4.1-4.8s1.9-1.8,3.8-4
				s2.1-4.5,0.9-5.5C72,114.4,63.9,127.4,62.9,129.1z"/>
			<path class="st4" d="M73.5,117.3c-0.5,0.8,0.8,6.6,0.8,6.6s1.1,4.2,1.3,5.5s-0.3,10.5-0.5,13.8c0,0.7,0.5,1.2,1.2,1.2h7.8v-23.7
				l-4.4-5.8C79.7,114.9,73.9,116.4,73.5,117.3z"/>
			<path class="st12" d="M88.5,114.9l-4.4,6.4v23.1H92c0.6,0,1.1-0.5,1.1-1.1c0,0,0-0.1,0-0.1c-0.1-3.3-0.6-12.6-0.4-13.8
				s1.3-5.5,1.3-5.5s1.4-5.6,1-6.4S88.5,114.9,88.5,114.9z"/>
			<path class="st30" d="M80.7,115c-0.3-0.3,0.3-0.9,0.3-0.9l-1.3,0.8v3c0.7,0.2,1.4,0.4,2.1,0.8c1,0.6,1.9,1.5,2.5,2.6
				c-0.1-1.1-0.5-2.2-1.2-3.1L80.7,115z"/>
			<polygon class="st30" points="75.6,145 75,153.4 75.4,153.6 75.6,153.9 81.4,153.9 81,144.9 			"/>
			<polygon class="st12" points="75,153.4 80.9,153.4 80.9,144.9 75.3,144.9 			"/>
			<polygon class="st31" points="81,153.6 75.4,153.6 75.6,153.9 81.4,153.9 81,144.9 			"/>
			<polygon class="st31" points="85.5,130.9 92.6,130.3 92.7,129.7 85.5,130.6 			"/>
			<polygon class="st30" points="87.7,144.9 88.1,153.9 94,153.3 94.1,153 94.5,152.8 93.1,144.5 			"/>
			<polygon class="st12" points="87.9,144.9 88.7,153.4 94.5,152.8 93.4,144.4 			"/>
			<polygon class="st31" points="87.7,144.9 88.1,153.9 94,153.3 94.1,153 88.5,153.6 			"/>
			<path class="st32" d="M85.9,133.9h-1.4v10.5H92c0.7,0,1.2-0.5,1.2-1.2l-0.2-3.6C89.7,139.6,86,137,85.9,133.9z"/>
			<polygon class="st31" points="83.8,144.4 84.1,144.4 84.1,121.5 83.8,121.8 			"/>
			<polygon class="st33" points="84.1,144.4 85.6,144.4 85.6,119.1 84.1,120.6 			"/>
			<polygon class="st34" points="77,119.1 79.5,118 79.9,114.9 81,114.1 79,115.1 			"/>
			<path class="st31" d="M87.2,113.7c0,0,0.6,1.1,0.1,1.7c-0.8,0.9-1.5,1.9-2.2,2.9c-1.6,2.4-1.2,4.3-1.2,3.9s1.9-2.7,2.8-3.2
				c0.7-0.4,1.4-0.6,2.1-0.8l-0.3-3.3L87.2,113.7z"/>
			<polygon class="st35" points="87.2,113.7 88.2,114.8 88.8,118.2 91.4,119.3 89,114.8 			"/>
			<path class="st33" d="M76.5,126.5c0,0.6,0.5,1.1,1.1,1.1l0,0h3.3c0.6,0,1.1-0.5,1.1-1.1c0,0,0,0,0,0v-5h-5.5L76.5,126.5z"/>
			<path class="st33" d="M86.7,126.4c-0.1,0.6,0.4,1.1,1,1.2c0,0,0.1,0,0.1,0h3.3c0.6,0,1.1-0.5,1.1-1.1c0,0,0-0.1,0-0.1v-4.9h-5.5
				L86.7,126.4z"/>
			<path class="st31" d="M78.2,123.2h2.2c0.9-0.1,1.6-0.8,1.6-1.7h-5.5C76.5,122.4,77.3,123.2,78.2,123.2z"/>
			<path class="st33" d="M78.1,122.8h2.3c0.7,0,1.3-0.6,1.3-1.3v0h-4.9C76.8,122.2,77.4,122.8,78.1,122.8z"/>
			<path class="st30" d="M88.4,123.2h2.1c0.9,0,1.7-0.8,1.7-1.7h-5.5C86.7,122.4,87.5,123.2,88.4,123.2z"/>
			<path class="st33" d="M88.3,122.8h2.3c0.7,0,1.3-0.6,1.3-1.3v0H87C87,122.2,87.6,122.8,88.3,122.8L88.3,122.8z"/>
			<polygon class="st31" points="75.6,130.3 83.8,130.9 83.8,130.6 75.6,129.7 			"/>
			<path class="st36" d="M75.3,139.6v3.6c-0.1,0.6,0.4,1.1,1,1.2c0,0,0.1,0,0.1,0h7.5v-10.5h-1.4C82.3,137,78.7,139.6,75.3,139.6z"
				/>
			<path class="st7" d="M64.9,131.5c-0.9,0.8-1.3,1.9,0.9,4.6s8,8.2,8,8.2l1.4-1.3c0,0-3-6.3-4.1-7.8S67.2,129.3,64.9,131.5z"/>
			<path class="st7" d="M75.7,144.3c-0.2-0.1-0.4,0-0.5,0.1l0,0c-0.1,0.2-0.1,0.4,0,0.6c0,0,0,0,0.1,0l1.3,0.9
				c0.2,0.2,0.4,0.1,0.6-0.1l0,0c0.1-0.1,0-0.4-0.1-0.5L75.7,144.3z"/>
			<path class="st7" d="M76.2,143.8c-0.2-0.1-0.4-0.1-0.6,0.1l0,0c-0.1,0.2,0,0.4,0.1,0.5l1.4,1c0.2,0.1,0.4,0.1,0.5-0.1l0,0
				c0.2-0.2,0.1-0.4-0.1-0.6L76.2,143.8z"/>
			<path class="st7" d="M76.6,143.2c-0.2-0.1-0.4-0.1-0.5,0.1l0,0c-0.2,0.2-0.1,0.4,0.1,0.6l1.3,0.9c0.2,0.1,0.4,0.1,0.6-0.1l0,0
				c0.1-0.2,0-0.4-0.1-0.5L76.6,143.2z"/>
			<path class="st7" d="M77,142.6c-0.2-0.1-0.4,0-0.6,0.1l0,0c-0.1,0.2,0,0.4,0.1,0.6l1.4,0.9c0.2,0.2,0.4,0.1,0.5-0.1l0,0
				c0.1-0.1,0.1-0.3,0-0.4c0,0-0.1-0.1-0.1-0.1L77,142.6z"/>
			<path class="st7" d="M76.5,142c-1-0.3-2-0.6-3.1-0.8l-0.3,2.4c0.3,0.5,0.7,0.9,1.2,1.2c0.7,0.5,1.5,0.8,2.3,1.1l0.7-1.5
				c0.2-0.5,1.1-0.7,1.1-0.7C77.8,143.1,77.2,142.5,76.5,142z"/>
			<polygon class="st31" points="72,142.5 72.9,143.5 75.1,141.5 74.4,140.3 			"/>
			<path class="st4" d="M71.1,135.2c-1.1-1.5-5.4-8.1-8-5.8c-0.9,0.8-1,1.8,0.9,4.7c2.2,3,4.8,5.8,7.6,8.3c0.3,0.2,0.6,0.2,0.9,0
				l1.8-1.8c0.2-0.3,0.2-0.6,0-0.9L71.1,135.2z"/>
			<path class="st37" d="M79.1,102.9H84v-4.7c-2.6-0.1-4.8,1.9-4.9,4.5C79.1,102.8,79.1,102.8,79.1,102.9z"/>
			<path class="st30" d="M84,98.2v4.7h4.9c0-2.6-2.1-4.7-4.7-4.7C84.1,98.2,84.1,98.2,84,98.2z"/>
			<path class="st38" d="M84,103.9c3.4,0,4.9-1,4.9-1h-9.8C80.6,103.6,82.3,104,84,103.9z"/>
			<path class="st39" d="M85.2,101.1c-0.4-0.4-0.5-2.9-0.5-2.9H84v4.7h4.9C88.9,101.5,85.8,101.7,85.2,101.1z"/>
			<path class="st40" d="M82.8,101.1c-0.6,0.6-3.7,0.4-3.7,1.8H84v-4.7h-0.6C83.4,98.2,83.3,100.7,82.8,101.1z"/>
			<path class="st7" d="M92.2,132.3c-1.8,0.5-8.1,3.4-8.1,3.4l0.3,2c0,0,8-0.6,11.3-1.3s3.9-1.8,3.7-3.1
				C98.9,130.2,94,131.9,92.2,132.3z"/>
			<path class="st7" d="M83,137.6c0-0.2-0.2-0.4-0.4-0.3l-1.5,0.3c-0.2,0.1-0.4,0.3-0.3,0.5l0,0c0,0.2,0.2,0.3,0.4,0.3l1.6-0.4
				C83,138,83.1,137.8,83,137.6L83,137.6z"/>
			<path class="st7" d="M82.8,136.9c0-0.2-0.2-0.3-0.4-0.3l-1.6,0.4c-0.2,0-0.3,0.2-0.2,0.4l0,0c0,0.2,0.2,0.4,0.4,0.3l1.5-0.4
				C82.7,137.3,82.9,137.1,82.8,136.9z"/>
			<path class="st7" d="M82.6,136.3c0-0.2-0.2-0.4-0.4-0.3l-1.5,0.3c-0.2,0.1-0.4,0.3-0.3,0.5l0,0c0,0.2,0.2,0.3,0.4,0.3l1.6-0.4
				C82.6,136.7,82.7,136.5,82.6,136.3L82.6,136.3z"/>
			<path class="st7" d="M82.5,135.6c0-0.2-0.2-0.3-0.4-0.3l-1.6,0.4c-0.2,0-0.3,0.2-0.2,0.4c0,0,0,0,0,0l0,0c0,0.2,0.2,0.4,0.4,0.3
				l1.5-0.3C82.4,136,82.6,135.8,82.5,135.6L82.5,135.6z"/>
			<path class="st7" d="M82.7,134.9l-2.3,0.9c0,0,0.7,0.5,0.8,0.9v1.7c0.8,0,1.7-0.1,2.5-0.2l1.5-0.7l0.6-2.2
				C84.8,135.1,83.7,135,82.7,134.9z"/>
			<polygon class="st31" points="85,134.8 85.6,137.7 86.8,137.5 86.4,134.2 			"/>
			<path class="st12" d="M92.1,132.3l-5.3,1.6c-0.3,0-0.5,0.3-0.5,0.7l0.3,2.5c0,0.4,0.3,0.6,0.7,0.6c3.7-0.3,7.5-0.9,11.1-1.8
				c3.3-1.1,3.8-2,3.6-3.2C101.4,129.3,93.9,131.8,92.1,132.3z"/>
			
				<rect x="81.8" y="125.6" transform="matrix(0.853 -0.5219 0.5219 0.853 -53.3099 67.0997)" class="st14" width="21.4" height="5.3"/>
			<path class="st41" d="M82.8,131.4c-0.6,0.4-0.4,1.7,0.3,2.9s1.9,2,2.5,1.6s0.4-1.6-0.3-2.9S83.4,131.1,82.8,131.4z"/>
			<path class="st14" d="M101.2,120.2c-0.6,0.4-0.5,1.7,0.3,2.9s1.9,2,2.4,1.6s0.5-1.6-0.3-2.9S101.8,119.9,101.2,120.2z"/>
			<polygon class="st14" points="83.8,135.9 85.7,139 103.2,128.3 101.3,125.2 			"/>
			<path class="st14" d="M101.3,125.2c-0.5,0.6-0.5,1.6,0,2.2c0.5,0.9,1.4,1.3,1.9,1c0.6-0.6,0.7-1.6,0.1-2.2
				C103,125.4,102.1,125,101.3,125.2z"/>
			<path class="st42" d="M101.3,125.2l-17.5,10.7l0.9,0.7l18.1-11C102.4,125.1,101.8,125,101.3,125.2z"/>
			<path class="st43" d="M83.8,135.9c-0.6,0.3-0.6,1.3-0.1,2.2s1.4,1.2,2,0.9s0.6-1.3,0.1-2.2S84.3,135.5,83.8,135.9z"/>
			
				<rect x="84.1" y="126.5" transform="matrix(0.8526 -0.5225 0.5225 0.8526 -52.9982 68.4681)" class="st14" width="21.5" height="3.4"/>
			<path class="st43" d="M84.9,132.4c-0.6,0.5-0.7,1.5-0.2,2.1c0.4,0.7,1.2,1.1,2,0.8c0.6-0.6,0.6-1.5,0.1-2.1
				c-0.3-0.7-1.1-1.1-1.8-0.8C85,132.4,84.9,132.4,84.9,132.4z"/>
			<path class="st14" d="M103.3,121.2c-0.6,0.5-0.7,1.5-0.2,2.1c0.3,0.7,1.2,1.1,1.9,0.8c0.6-0.5,0.7-1.5,0.2-2.1
				C104.7,121.2,103.9,120.8,103.3,121.2z"/>
			<polygon class="st42" points="84.9,132.4 103.2,121.2 84.5,132.1 			"/>
			<path class="st12" d="M93.2,117c-1.4,0.6-1.8,3-0.7,5.6s2.2,4.2,2.5,4.9s1.9,4.7,2.5,5.7s1.9,2.1,3,1.6s2-0.7,1.5-2.7
				S97.7,115.3,93.2,117z"/>
			<path class="st42" d="M90.5,126.7c0,0,0.9-0.5,1.2,0s-0.3,1.6-0.3,1.6s1.4-1.2,2.6-0.6c1.2,0.6,1,2.6,1,2.6s0-0.1,0.4,0
				c0.5,0.2,0.7,0.7,0.6,1.1c0,0.1,0,0.1-0.1,0.2c-0.2,0.3-9.8,6.7-9.8,6.7v0.4l-0.3,0.3l11.9-7.3l-3.6-7.1L90.5,126.7z"/>
			<path class="st44" d="M24.8,119.5c-2,0.2-1.1,1.5-1.1,1.5l3.5,0.4v-1.1C27.2,120.3,27.2,119.2,24.8,119.5z"/>
			<path class="st45" d="M26.3,120.7c-0.8-0.1-0.8-0.4-0.8-0.4v0.8l1.7,0.2v-1C27.2,120.3,27.1,120.7,26.3,120.7z"/>
			<path class="st46" d="M81.2,119.9c-2.3-0.2-2.3,0.9-2.3,0.9v1.1l3.4-0.5C82.3,121.4,83.3,120.1,81.2,119.9z"/>
			<path class="st14" d="M79.8,121.1c-0.8,0.1-0.9-0.3-0.9-0.3v0.9h1.6v-0.8C80.5,120.9,80.5,121,79.8,121.1z"/>
			<path class="st7" d="M80.9,125.2l-0.9,0.3c-0.7,0.2-1.1,0.9-1,1.6c0,0.1,0,0.2,0.1,0.2l-0.8,0.3c0.2,0.9,1.9,1,2.8,0.8l0.6-0.2
				c0.8-0.2,1.3-1,1.1-1.8c0,0,0-0.1,0-0.1C82.6,125.5,82.3,124.1,80.9,125.2z"/>
			<rect x="44.2" y="115.5" class="st46" width="7.3" height="2.6"/>
			<path class="st7" d="M58,119.4c-2.6-1.6-10.1-2.6-10.1-2.6l0,0c0,0-7.5,0.7-10.2,2.2s1.5,8.5,2.8,12.6c0.3,0.9,0.3,5.3,0.2,9.1
				c-0.4,2.4-0.6,4.8-0.7,7.2c0,0.5,6.1,3.9,7.8,4v-0.2c1.8,0,7.9-3.4,7.9-3.9s-0.6-6.2-0.6-7.2c-0.2-3.8-0.2-8.2,0.1-9.2
				C56.6,127.5,60,120.6,58,119.4z"/>
			<path class="st7" d="M38.2,120.3c-1.5-0.3-3,1.3-3.4,4.1c-0.3,1.8-0.5,3.7-0.6,5.5c-0.1,0.7-1,5.1-1.1,6.3s0.6,2.8,1.8,3
				s2.5-1.9,3.2-3.8S42.3,121,38.2,120.3z"/>
			<path class="st7" d="M69,127.7c-3.4,0.8-3.9,1.9-3.7,3.1c0.6,3.2,5.6,1.4,7.4,0.9s7-3.4,7-3.4l-0.4-1.9
				C75.8,126.6,72.4,127.1,69,127.7z"/>
			<path class="st7" d="M63.8,124.5c-1.2-1.4-2.5-2.7-3.8-4c-2-2-4.2-2.3-5.2-1.2c-2.8,3,7.5,10.8,9.2,12s3.9,1.4,4.6,0.7
				c0.8-0.9,0.7-2.2-0.1-3.1C67.7,128,64.3,125.1,63.8,124.5z"/>
			<path class="st14" d="M60.8,120.8c-1.2-1.3-2.4-2.2-3.3-2s-2.2,5.9-2,6.5s9.2,6.8,9.2,6.8c0.7-0.8,1.2-1.7,1.6-2.7
				c0.9-1.9,0.7-2.3,0.7-2.3L60.8,120.8z"/>
			<path class="st14" d="M37.4,119c-1.1,0.4-2,1.2-2.5,2.2c-0.7,1.5-2.3,13.9-2.3,13.9l5.8,0.3c0.3,0,2.6-8,2.6-8
				S39.7,119.6,37.4,119z"/>
			<path class="st7" d="M51,115.6l-0.6-4.6h-2.5v0.2h-2.5l-0.6,4.6c-0.2,0.8-2.3,2-2.3,2h5.4v-0.2h5.4
				C53.3,117.6,51.2,116.4,51,115.6z"/>
			<path class="st8" d="M50.3,111h-2.4v0.2h-2.5l-0.6,4.6c-0.2,0.8-2.3,2-2.3,2h0.3l5.1-1.4c1-0.5,2.1-1.1,3-1.8l0,0
				c-0.2-1.1-0.3-2.2-0.4-3.3L50.3,111z"/>
			<path class="st7" d="M43.8,143.7c-3,0-4.3,2.2-4.2,8.8s1.1,13.7,1.5,14.7s4.8,1.1,5.2,0.5s1.5-14.3,1.5-16.4
				S47.2,143.8,43.8,143.7z"/>
			<path class="st7" d="M41.2,170.4l0.1-2.8c0-1.2,1-2.2,2.3-2.1l0.9,0c1.2,0,2.2,1,2.1,2.3l-0.1,2.8c0,1.2-1,2.2-2.3,2.1l-0.9,0
				C42.1,172.6,41.1,171.6,41.2,170.4z"/>
			<path class="st7" d="M43.6,168.5c-1,0-3.3,0.3-3.2,6.4s2.8,14.6,2.8,14.6h2.2c0,0,1.1-11.4,1.1-13.5
				C46.5,171,46.6,168.5,43.6,168.5z"/>
			<path class="st7" d="M52,143.8c-3.4,0.4-3.5,5.8-3.2,7.9s2.7,15.6,3.2,16.2s4.8,0.1,5.1-1s0.6-8.3,0-14.9S55,143.5,52,143.8z"/>
			<path class="st7" d="M57.1,167.1c-0.2-1.2-1.3-2.1-2.5-1.9c0,0,0,0,0,0h-0.8c-1.2,0.2-2.1,1.3-1.9,2.5c0,0,0,0,0,0l0.3,2.7
				c0.2,1.2,1.3,2.1,2.5,1.9c0,0,0,0,0,0h0.9c1.2-0.2,2.1-1.3,1.9-2.5c0,0,0,0,0,0L57.1,167.1z"/>
			<path class="st7" d="M54.8,168.4c-3,0.3-2.7,2.8-2.2,7.7c0.3,2.2,2.5,13.4,2.5,13.4l2.2-0.2c0,0,1.8-8.7,1.2-14.8
				S55.7,168.3,54.8,168.4z"/>
			<path class="st10" d="M39.2,150.8c-0.2,2.9,1.2,15.9,1.3,17.3s-0.1,5.8-0.1,10.1s1.2,12.7,1.2,12.7l5.5-0.2v-20.9
				c0-2.8,0.7-17.8,0.7-17.8v-9.4l-7.4-0.2C40.4,142.4,39.4,147.8,39.2,150.8z"/>
			<path class="st14" d="M54.8,117.9l-2.8-1.1l-4.1,2.4l-4.1-2.4l-2.8,1.1c-1.7,0.5-3.6,0.9-3.9,1.5s2.7,12.1,3.1,13.1
				s-0.6,7.9,0.3,9.9l7.3,0.2h0.1l7.3-0.2c0.7-2.3,0-9,0.3-10s3.7-12,3.1-13S56.5,118.4,54.8,117.9z"/>
			<path class="st10" d="M57.8,167.8c-0.1-1.4,0-14.4-0.5-17.3s-2.1-8.2-2.1-8.2l-7.3,0.3v9.8c0,0,3.3,15,3.6,17.8
				s2.1,20.8,2.1,20.8l5.5-0.4c0,0,0.2-8.5-0.1-12.8S58,169.2,57.8,167.8z"/>
			<path class="st10" d="M40.4,193.6c0.4,0.9,1.3,1.5,2.3,1.6c1.1,0.1,2.9-0.9,3.1-0.9s0.7-3.5,0.7-3.5h-4.3
				C42.2,190.8,40.3,193,40.4,193.6z"/>
			<path class="st10" d="M58.2,190.6L54,191c0,0,0.3,3.4,1,3.4c1,0.4,2.1,0.6,3.2,0.7c1-0.2,1.8-0.9,2.1-1.9
				C60.3,192.6,58.2,190.6,58.2,190.6z"/>
			<path class="st46" d="M49.1,141.7c-0.7-0.5-1.8-0.9-2.4-1.3s-0.1-1.8-0.1-2.5s2-2,3.3-2.5s3.6-0.3,4.2-1.2s-0.9-1.9-1.5-1.9
				s-4.6-1.1-5.2-1s-5.4,0.5-6.1,0s-4.5-11.4-4.5-11.4c0.9,3.6,3.2,12,3.4,12.6s-0.6,7.9,0.3,9.9l7.3,0.2h0.1l7.3-0.2L53,142
				C52.3,141.8,49.8,142.1,49.1,141.7z"/>
			<path class="st6" d="M57.8,167.8c-0.1-1.4,0-14.4-0.5-17.3s-2.1-8.2-2.1-8.2l-4.4,0.3c0,0,3.4,8.8,3.7,10.7s0.7,15,0.7,15.7
				s1.9,20.8,2,21.7H59c0,0,0.2-8.5-0.1-12.8S58,169.2,57.8,167.8z"/>
			<path class="st6" d="M43.1,149.2c-0.2,1.5-0.3,3.1-0.1,4.6c0.5,2.4,1.2,14.4,1.1,14.7S44,190.8,44,190.8h3.1v-21
				c0-2.8,0.7-17.8,0.7-17.8v-2l-0.9-1.6c-0.7-1-2-1.2-2.9-0.6C43.5,148.2,43.2,148.6,43.1,149.2z"/>
			<polygon class="st46" points="46.8,117.7 45.4,118.4 47.9,119.3 47.6,117.9 			"/>
			<polygon class="st46" points="48.2,117.9 47.9,119.3 50.3,118.4 48.9,117.7 			"/>
			<polygon class="st47" points="47.9,142.7 40.4,142.4 40.1,144.1 47.8,144.4 55.6,143.9 55.3,142.2 			"/>
			<path class="st48" d="M47.1,142.5h1.5c0.5,0,0.9,0.4,0.9,0.9v0.1c0,0.5-0.4,0.9-0.9,0.9h-1.5c-0.5,0-0.9-0.4-0.9-0.9v-0.1
				C46.2,142.9,46.6,142.5,47.1,142.5z"/>
			<polygon class="st10" points="47.5,120.4 48.4,120.4 49.1,118.3 46.7,118.3 			"/>
			<polygon class="st10" points="47.5,120.4 46.2,141.4 47.9,143.3 49.5,141.3 48.4,120.4 			"/>
			<polygon class="st6" points="47.9,120.2 47.9,143.3 49.5,141.3 48.4,120.4 			"/>
			<polygon class="st49" points="42.8,117.2 46.3,120.2 47.6,117.9 44.2,115.5 			"/>
			<polygon class="st49" points="48.2,117.9 49.4,120.2 53,117.2 51.5,115.5 			"/>
			<path class="st7" d="M26.6,126.3l-1.6,1.2c0,0,4.5,6.8,6.8,9.4s3.5,2.6,4.5,1.8c2.5-2-1.4-5.5-2.7-6.9
				C31.4,129.8,29,128,26.6,126.3z"/>
			<path class="st7" d="M25.9,122.9l-1.2,0.5c-0.5,0.4-1,0.8-1.4,1.3c0.1,0.6,0.3,1.2,0.6,1.7c0.4,0.6,0.9,1.2,1.5,1.7l2.4-0.3
				c0,0-0.4-3-0.6-3.6S25.9,122.9,25.9,122.9z"/>
			<path class="st7" d="M47.8,102c-2.4,0-4.4,2.6-4.4,5.8s2.5,6.3,4.4,6.3s4.5-3.1,4.5-6.3S50.3,102,47.8,102z"/>
			<path class="st9" d="M51.1,103c-0.6-0.7-1.4-1.1-2.3-1.2h-2c-1.1,0.3-2.1,0.9-2.9,1.6c-0.5,0.8-0.9,1.6-1.2,2.5
				c0,0.9,0.2,1.8,0.7,2.5c0,0,0.7-3,1.1-3.2s6.5-0.2,6.5,0.1s1.2,3.4,1.2,3.4l0.3-0.5c0.1-0.6,0.2-1.1,0.4-1.7
				c-0.1-0.6-0.3-1.2-0.6-1.8C52.1,104.2,51.3,103.5,51.1,103z"/>
			<path class="st50" d="M82,121.2c-9.7,1.3-19.4,1.9-29.2,1.9c-9.6,0.1-19.2-0.7-28.6-2.3c-0.6-0.1-0.7-0.4-0.7-0.4l6.1,28.5
				c8.1,1.4,16.4,2.1,24.6,2.2c8.5,0.1,17-0.7,25.3-2.2l3.1-28.3C82.6,120.6,82.4,121.2,82,121.2z"/>
			<path class="st7" d="M83,124.7v-0.2c0.1-0.3-0.1-0.3-0.1-0.4v-0.4c-0.3-0.3-0.6-0.6-1-0.9c-0.2-0.1-0.9-0.6-1-0.5
				s-0.1,0.4,0.3,0.7s0.8,0.8,0.7,0.8l-1-0.2c-0.2,0-0.2,0.2-0.2,0.3l0.4,0.4l-0.3,0.2c0,0.3,0.4,0.4,0.5,0.5s-0.3,0.1-0.3,0.2
				s1.1,0.5,1,0.9s0.2,1.1,0.8,1.2c0.1-0.5,0.2-1,0.2-1.5v-0.6c0-0.1,0.1-0.1,0.1-0.2L83,124.7z"/>
			<path class="st7" d="M25.2,124.9c0-0.1,0.3-0.3,0.2-0.6h-0.3c0,0,0.3-0.4,0.2-0.5s-0.1-0.3-0.2-0.2l-0.9,0.5
				c-0.1,0.1,0.2-0.5,0.4-0.9c0.2-0.3,0.1-0.6-0.1-0.9c-0.1,0-0.6,0.8-0.7,0.9c-0.3,0.4-0.5,0.8-0.6,1.2c0,0.1,0.1,0.2,0.2,0.4
				s-0.2,0.1-0.1,0.4l0.2,0.2v0.3h0.1c0.1,0.1,0.1,0.2,0.1,0.3l0.2,0.3c0.2,0.5,0.4,0.9,0.7,1.3c0.5-0.3,0.4-1.2,0.3-1.4
				s0.7-0.8,0.6-1.2S25.1,125,25.2,124.9z"/>
			<path class="st51" d="M42.9,105.4h4.9v-5.2C42.9,100.2,42.9,105.4,42.9,105.4z"/>
			<path class="st14" d="M47.8,100.2v5.2h5C52.8,105.4,52.8,100.2,47.8,100.2z"/>
			<path class="st14" d="M47.8,106.4c1.7,0.1,3.4-0.2,5-1h-9.9C44.4,106.1,46.1,106.5,47.8,106.4z"/>
			<path class="st45" d="M49,103.2c-0.4-0.4,0.1-2.5-0.5-3.1s-0.7-0.3-0.7-0.3v5.6h5C52.8,103.7,49.7,104,49,103.2z"/>
			<path class="st52" d="M46.6,103.2c-0.6,0.8-3.7,0.5-3.7,2.2h4.9v-5.6c0,0-0.5,0.1-0.6,0.3S47,102.8,46.6,103.2z"/>
		</g>
	</g>
	
		<linearGradient id="SVGID_7_" gradientUnits="userSpaceOnUse" x1="173" y1="158.0142" x2="210.95" y2="120.0642" gradientTransform="matrix(1 0 0 -1 0 210.6141)">
		<stop  offset="0" style="stop-color:#449164"/>
		<stop  offset="1" style="stop-color:#61E2F3"/>
	</linearGradient>
	<polyline class="st53" points="143,158.5 143.1,158.3 239.5,40 245,46.3 256.3,0 215.7,9.9 223.4,19.4 139.2,135.9 139.2,135.9 	
		"/>
	
		<linearGradient id="SVGID_8_" gradientUnits="userSpaceOnUse" x1="194.8129" y1="126.436" x2="145.1429" y2="48.056" gradientTransform="matrix(1 0 0 -1 0 210.6141)">
		<stop  offset="0" style="stop-color:#FFFFFF"/>
		<stop  offset="1" style="stop-color:#000000"/>
	</linearGradient>
	<polygon class="st54" points="256.3,0 245,46.3 239.5,40 143.1,158.3 139.2,135.9 139.2,135.9 223.4,19.4 215.7,9.9 	"/>
</g>
</svg>
